<?xml version="1.0" standalone="no"?><!DOCTYPE svg PUBLIC "-//W3C//DTD SVG 1.1//EN" "http://www.w3.org/Graphics/SVG/1.1/DTD/svg11.dtd" ><svg xmlns="http://www.w3.org/2000/svg"><metadata></metadata><defs><font id="Helvetica Neue; 8.0d6e1; 2012-03-27" horiz-adv-x="1500"><font-face font-family="Helvetica Neue" font-weight="400" font-stretch="normal" units-per-em="1000" panose-1="2 0 5 3 0 0 0 2 0 4" ascent="952" descent="-213" x-height="4" bbox="-951 -481 1446 1077" underline-thickness="50" underline-position="-100" unicode-range="U+0000-ffa7" /><missing-glyph horiz-adv-x="500" d="M409 47 l0 619 l-307 0 l0 -619 l307 0 ZM51 712 l409 0 l0 -711 l-409 0 l0 711 Z" /><glyph glyph-name=".null" unicode="" d="" /><glyph glyph-name=".null" unicode="" d="" /><glyph glyph-name="nonmarkingreturn" unicode="" d="" /><glyph glyph-name=".null" unicode="" d="" /><glyph glyph-name="nonmarkingreturn" unicode="" d="" /><glyph glyph-name=".null" unicode="" d="" /><glyph glyph-name="space" unicode=" " d="" /><glyph glyph-name="exclam" unicode="!" d="M74 111 l111 0 l0 -111 l-111 0 l0 111 ZM177 494 l-25 -311 l-45 0 l-25 311 l0 220 l95 0 l0 -220 Z" /><glyph glyph-name="quotedbl" unicode="&quot;" d="M249 714 l68 0 l0 -258 l-68 0 l0 258 ZM109 714 l68 0 l0 -258 l-68 0 l0 258 Z" /><glyph glyph-name="numbersign" unicode="#" d="M231 424 l-21 -150 l124 0 l21 150 l-124 0 ZM131 206 l-97 0 l0 68 l107 0 l21 150 l-102 0 l0 68 l111 0 l29 205 l69 0 l-29 -205 l124 0 l29 205 l69 0 l-29 -205 l89 0 l0 -68 l-98 0 l-21 -150 l91 0 l0 -68 l-101 0 l-29 -206 l-69 0 l29 206 l-124 0 l-29 -206 l-69 0 l29 206 Z" /><glyph glyph-name="dollar" unicode="$" d="M110 218 q2 -65 40.5 -105 q38.5 -40 100.5 -50 l0 265 q-112 28 -158.5 68 q-46.5 40 -46.5 125 q0 89 58.5 146.5 q58.5 57.5 146.5 63.5 l0 66 l55 0 l0 -67 q156 -19 197 -198 l-85 0 q-20 99 -112 116 l0 -246 l60 -16 q23 -6 47.5 -18 q24.5 -12 51 -33 q26.5 -21 43.5 -56.5 q17 -35.5 17 -78.5 q0 -95 -60 -151 q-60 -56 -159 -65 l0 -82 l-55 0 l0 82 q-101 10 -159.5 70 q-58.5 60 -66.5 164 l85 0 ZM306 63 q129 9 129 128 q0 53 -32 78 q-32 25 -97 45 l0 -251 ZM251 651 q-51 -6 -83 -36.5 q-32 -30.5 -32 -84.5 q0 -48 28.5 -72.5 q28.5 -24.5 86.5 -40.5 l0 234 Z" /><glyph glyph-name="percent" unicode="%" d="M167 508 q0 -145 84 -145 q88 0 88 146 q0 145 -85 145 q-87 0 -87 -146 ZM92 506 q0 90 38 146.5 q38 56.5 124 56.5 q160 0 160 -200 q0 -86 -39.5 -143.5 q-39.5 -57.5 -120.5 -57.5 q-85 0 -123.5 54.5 q-38.5 54.5 -38.5 143.5 ZM661 188 q0 -145 84 -145 q88 0 88 146 q0 145 -85 145 q-87 0 -87 -146 ZM586 186 q0 90 38 146.5 q38 56.5 124 56.5 q160 0 160 -200 q0 -87 -39 -143.5 q-39 -56.5 -121 -56.5 q-85 0 -123.5 54 q-38.5 54 -38.5 143 ZM726 722 l85 0 l-537 -743 l-86 0 l538 743 Z" /><glyph glyph-name="ampersand" unicode="&amp;" d="M275 439 q29 19 44.5 31 q15.5 12 33 38 q17.5 26 17.5 55 q0 32 -22.5 54 q-22.5 22 -59.5 22 q-33 0 -57.5 -19.5 q-24.5 -19.5 -24.5 -56.5 q0 -9 2 -18 q2 -9 7 -19 q5 -10 8 -17 q3 -7 12 -19 q9 -12 12.5 -16.5 q3.5 -4.5 14.5 -18 q11 -13.5 13 -16.5 ZM458 89 q-31 -49 -85.5 -74.5 q-54.5 -25.5 -116.5 -25.5 q-55 0 -97 15 q-42 15 -65 36 q-23 21 -37.5 49.5 q-14.5 28.5 -19 50.5 q-4.5 22 -4.5 43 q0 76 43.5 125 q43.5 49 123.5 91 q-5 7 -19 26 q-14 19 -19.5 27 q-5.5 8 -15.5 24.5 q-10 16.5 -14 28.5 q-4 12 -7.5 28.5 q-3.5 16.5 -3.5 33.5 q0 61 43 104 q43 43 118 43 q72 0 122.5 -38.5 q50.5 -38.5 50.5 -107.5 q0 -107 -134 -185 l129 -157 q20 57 23 111 l81 0 q-6 -61 -15 -92 q-9 -31 -33 -84 l139 -161 l-111 0 l-76 89 ZM247 345 q-61 -34 -92.5 -69 q-31.5 -35 -31.5 -92 q0 -52 41 -86.5 q41 -34.5 95 -34.5 q95 0 152 85 l-164 197 Z" /><glyph glyph-name="quotesingle" unicode="&#39;" d="M105 714 l68 0 l0 -258 l-68 0 l0 258 Z" /><glyph glyph-name="parenleft" unicode="(" d="M204 -197 q-78 122 -117.5 232.5 q-39.5 110.5 -39.5 234.5 q0 120 40 240 q40 120 117 221 l65 0 q-132 -209 -132 -461 q0 -254 132 -467 l-65 0 Z" /><glyph glyph-name="parenright" unicode=")" d="M-9 -197 q131 208 131 460 q0 252 -131 468 l64 0 q77 -120 117 -232 q40 -112 40 -236 q0 -120 -40 -239.5 q-40 -119.5 -117 -220.5 l-64 0 Z" /><glyph glyph-name="asterisk" unicode="*" d="M201 601 l107 40 l20 -48 l-109 -38 l66 -91 l-41 -31 l-69 96 l-65 -96 l-45 31 l65 91 l-106 38 l18 48 l106 -40 l0 113 l53 0 l0 -113 Z" /><glyph glyph-name="plus" unicode="+" d="M334 287 l218 0 l0 -68 l-218 0 l0 -219 l-68 0 l0 219 l-218 0 l0 68 l218 0 l0 219 l68 0 l0 -219 Z" /><glyph glyph-name="comma" unicode="," d="M83 111 l111 0 l0 -101 q0 -123 -110 -156 l0 50 q31 11 46 40 q15 29 12 56 l-59 0 l0 111 Z" /><glyph glyph-name="hyphen" unicode="-" d="M50 318 l289 0 l0 -80 l-289 0 l0 80 Z" /><glyph glyph-name="period" unicode="." d="M83 111 l111 0 l0 -111 l-111 0 l0 111 Z" /><glyph glyph-name="slash" unicode="/" d="M278 731 l73 0 l-296 -747 l-72 0 l295 747 Z" /><glyph glyph-name="zero" unicode="0" d="M132 349 q0 -37 1 -59 q1 -22 4.5 -61 q3.5 -39 13 -63.5 q9.5 -24.5 25 -50.5 q15.5 -26 41.5 -39 q26 -13 61 -13 q35 0 61 13 q26 13 41.5 39 q15.5 26 25 50.5 q9.5 24.5 13 63.5 q3.5 39 4.5 61 q1 22 1 59 q0 36 -1 58.5 q-1 22.5 -4.5 61 q-3.5 38.5 -13 63.5 q-9.5 25 -25 50.5 q-15.5 25.5 -41.5 38.5 q-26 13 -61 13 q-35 0 -61 -13 q-26 -13 -41.5 -38.5 q-15.5 -25.5 -25 -50.5 q-9.5 -25 -13 -63.5 q-3.5 -38.5 -4.5 -61 q-1 -22.5 -1 -58.5 ZM44.5 266 q-2.5 35 -2.5 82 q0 47 2.5 81.5 q2.5 34.5 9.5 80.5 q7 46 23 78 q16 32 41 61.5 q25 29.5 65.5 44.5 q40.5 15 94.5 15 q54 0 94.5 -15 q40.5 -15 65.5 -44.5 q25 -29.5 41 -61.5 q16 -32 23 -78 q7 -46 9.5 -80.5 q2.5 -34.5 2.5 -81.5 q0 -47 -2.5 -82 q-2.5 -35 -9.5 -80.5 q-7 -45.5 -23 -77 q-16 -31.5 -41 -60.5 q-25 -29 -65.5 -44 q-40.5 -15 -94.5 -15 q-54 0 -94.5 15 q-40.5 15 -65.5 44 q-25 29 -41 60.5 q-16 31.5 -23 77 q-7 45.5 -9.5 80.5 Z" /><glyph glyph-name="one" unicode="1" d="M356 0 l-85 0 l0 508 l-184 0 l0 68 q181 0 204 133 l65 0 l0 -709 Z" /><glyph glyph-name="two" unicode="2" d="M44 458 q-6 110 55.5 180.5 q61.5 70.5 172.5 70.5 q96 0 159 -54 q63 -54 63 -150 q0 -45 -13.5 -82 q-13.5 -37 -41 -66.5 q-27.5 -29.5 -52.5 -49.5 q-25 -20 -65 -45 q-5 -3 -36.5 -21.5 q-31.5 -18.5 -39.5 -24 q-8 -5.5 -33 -22 q-25 -16.5 -34 -26.5 q-9 -10 -24 -26.5 q-15 -16.5 -22 -32.5 q-7 -16 -10 -34 l364 0 l0 -75 l-463 0 q5 60 21.5 106.5 q16.5 46.5 46.5 80 q30 33.5 58.5 55.5 q28.5 22 72.5 48 q103 64 142 106 q39 42 39 110 q0 57 -39.5 92.5 q-39.5 35.5 -97.5 35.5 q-69 0 -104.5 -52.5 q-35.5 -52.5 -33.5 -123.5 l-85 0 Z" /><glyph glyph-name="three" unicode="3" d="M218 405 q3 -1 9 -1 l10 0 l18 0 q57 0 96 30.5 q39 30.5 39 85.5 q0 55 -35 84.5 q-35 29.5 -91 29.5 q-66 0 -100 -43.5 q-34 -43.5 -34 -110.5 l-85 0 q4 105 60 167 q56 62 159 62 q97 0 156.5 -48 q59.5 -48 59.5 -142 q0 -47 -27 -84.5 q-27 -37.5 -71 -56.5 l0 -2 q63 -14 95.5 -60 q32.5 -46 32.5 -112 q0 -102 -69.5 -158.5 q-69.5 -56.5 -174.5 -56.5 q-110 0 -174 60.5 q-64 60.5 -62 169.5 l85 0 q2 -71 41 -113.5 q39 -42.5 110 -42.5 q65 0 109.5 37.5 q44.5 37.5 44.5 99.5 q0 64 -42.5 100 q-42.5 36 -108.5 36 q-27 0 -51 -3 l0 72 Z" /><glyph glyph-name="four" unicode="4" d="M339 241 l0 347 l-2 0 l-236 -347 l238 0 ZM419 241 l96 0 l0 -75 l-96 0 l0 -166 l-80 0 l0 166 l-311 0 l0 82 l323 461 l68 0 l0 -468 Z" /><glyph glyph-name="five" unicode="5" d="M470 622 l-286 0 l-38 -204 l2 -2 q45 51 132 51 q100 0 164.5 -63 q64.5 -63 64.5 -180 q0 -97 -65.5 -166 q-65.5 -69 -182.5 -69 q-96 0 -160 54 q-64 54 -66 148 l85 0 q4 -56 45 -92 q41 -36 104 -36 q64 0 107 44 q43 44 43 124 q0 70 -44.5 115.5 q-44.5 45.5 -115.5 45.5 q-77 0 -132 -67 l-73 4 l66 368 l350 0 l0 -75 Z" /><glyph glyph-name="six" unicode="6" d="M414 528 q-6 49 -37.5 77.5 q-31.5 28.5 -81.5 28.5 q-41 0 -72.5 -18 q-31.5 -18 -49.5 -45 q-18 -27 -29.5 -65 q-11.5 -38 -15.5 -71 q-4 -33 -5 -70 l2 -2 q57 93 177 93 q100 0 158.5 -64.5 q58.5 -64.5 58.5 -165.5 q0 -42 -12.5 -81.5 q-12.5 -39.5 -38.5 -75.5 q-26 -36 -74 -58 q-48 -22 -112 -22 q-244 0 -244 340 q0 78 13 142.5 q13 64.5 41.5 120 q28.5 55.5 81 86.5 q52.5 31 125.5 31 q88 0 140 -46.5 q52 -46.5 60 -134.5 l-85 0 ZM286 381 q-69 0 -108 -45.5 q-39 -45.5 -39 -114.5 q0 -68 39.5 -113 q39.5 -45 107.5 -45 q66 0 104.5 45.5 q38.5 45.5 38.5 111.5 q0 70 -36.5 115.5 q-36.5 45.5 -106.5 45.5 Z" /><glyph glyph-name="seven" unicode="7" d="M509 624 q-108 -106 -185 -282.5 q-77 -176.5 -87 -341.5 l-95 0 q12 173 87.5 333 q75.5 160 192.5 284 l-372 0 l0 80 l459 0 l0 -73 Z" /><glyph glyph-name="eight" unicode="8" d="M155 525 q0 -55 35.5 -84.5 q35.5 -29.5 90.5 -29.5 q52 0 84.5 30.5 q32.5 30.5 32.5 83.5 q0 52 -32.5 80.5 q-32.5 28.5 -86.5 28.5 q-53 0 -88.5 -29 q-35.5 -29 -35.5 -80 ZM65 528 q0 83 61 132 q61 49 147 49 q108 0 161.5 -52.5 q53.5 -52.5 53.5 -128.5 q0 -48 -26.5 -87.5 q-26.5 -39.5 -71.5 -59.5 q126 -40 126 -177 q0 -101 -66.5 -158 q-66.5 -57 -168.5 -57 q-107 0 -174 55 q-67 55 -67 160 q0 63 32 109.5 q32 46.5 92 67.5 q-45 18 -72 58.5 q-27 40.5 -27 88.5 ZM130 200 q0 -63 42 -100 q42 -37 109 -37 q63 0 104 39 q41 39 41 99 q0 57 -43 96 q-43 39 -103 39 q-64 0 -107 -37.5 q-43 -37.5 -43 -98.5 Z" /><glyph glyph-name="nine" unicode="9" d="M134 171 q5 -50 41.5 -79 q36.5 -29 88.5 -29 q153 0 160 274 l-2 2 q-24 -45 -68 -71.5 q-44 -26.5 -96 -26.5 q-107 0 -165.5 65 q-58.5 65 -58.5 172 q0 102 65 166.5 q65 64.5 168 64.5 q243 0 243 -339 q0 -381 -246 -381 q-92 0 -149.5 46 q-57.5 46 -65.5 136 l85 0 ZM409 472 q0 69 -39 115.5 q-39 46.5 -107 46.5 q-71 0 -105 -48 q-34 -48 -34 -120 q0 -60 40 -105 q40 -45 100 -45 q65 0 105 45.5 q40 45.5 40 110.5 Z" /><glyph glyph-name="colon" unicode=":" d="M194 406 l-111 0 l0 111 l111 0 l0 -111 ZM83 111 l111 0 l0 -111 l-111 0 l0 111 Z" /><glyph glyph-name="semicolon" unicode=";" d="M194 406 l-111 0 l0 111 l111 0 l0 -111 ZM83 111 l111 0 l0 -101 q2 -123 -110 -156 l0 50 q31 11 46 40 q15 29 12 56 l-59 0 l0 111 Z" /><glyph glyph-name="less" unicode="&lt;" d="M554 446 l-425 -193 l425 -193 l0 -67 l-508 229 l0 62 l508 230 l0 -68 Z" /><glyph glyph-name="equal" unicode="=" d="M48 186 l504 0 l0 -68 l-504 0 l0 68 ZM552 320 l-504 0 l0 68 l504 0 l0 -68 Z" /><glyph glyph-name="greater" unicode="&gt;" d="M46 60 l425 193 l-425 193 l0 68 l508 -230 l0 -62 l-508 -229 l0 67 Z" /><glyph glyph-name="question" unicode="?" d="M218 111 l111 0 l0 -111 l-111 0 l0 111 ZM55 491 q-2 104 59.5 172 q61.5 68 164.5 68 q95 0 153 -53 q58 -53 58 -147 q0 -39 -14 -72.5 q-14 -33.5 -29 -51.5 q-15 -18 -43 -46 q-22 -21 -32.5 -32 q-10.5 -11 -26 -30.5 q-15.5 -19.5 -22 -40.5 q-6.5 -21 -6.5 -45 l0 -39 l-85 0 l0 47 q2 46 21 82.5 q19 36.5 44 60 q25 23.5 49.5 47 q24.5 23.5 40 56 q15.5 32.5 13.5 72.5 q-4 55 -35.5 86 q-31.5 31 -85.5 31 q-69 0 -104 -46 q-35 -46 -35 -119 l-85 0 Z" /><glyph glyph-name="at" unicode="@" d="M534 270 q-11 -37 -11 -51 q0 -31 24 -31 q46 0 92 75.5 q46 75.5 46 154.5 q0 114 -80.5 186 q-80.5 72 -190.5 72 q-127 0 -215.5 -94.5 q-88.5 -94.5 -88.5 -226.5 q0 -133 91 -225 q91 -92 218 -92 q71 0 138 33 q67 33 110 88 l63 0 q-47 -83 -131 -129 q-84 -46 -182 -46 q-158 0 -266.5 108.5 q-108.5 108.5 -108.5 267.5 q0 153 109 262 q109 109 262 109 q141 0 240.5 -87.5 q99.5 -87.5 99.5 -220.5 q0 -62 -23.5 -118 q-23.5 -56 -59 -92.5 q-35.5 -36.5 -76 -58 q-40.5 -21.5 -75.5 -21.5 q-27 0 -44.5 16.5 q-17.5 16.5 -19.5 48.5 l-3 0 q-59 -67 -124 -67 q-63 0 -103 45.5 q-40 45.5 -40 112.5 q0 110 67 197 q67 87 168 87 q81 0 112 -82 l23 63 l63 0 l-84 -284 ZM420 505 q-66 0 -113 -69 q-47 -69 -47 -140 q0 -42 24 -69.5 q24 -27.5 62 -27.5 q61 0 108 72 q47 72 47 141 q0 36 -24.5 64.5 q-24.5 28.5 -56.5 28.5 Z" /><glyph glyph-name="A" unicode="a" d="M201 295 l242 0 l-119 333 l-2 0 l-121 -333 ZM272 714 l105 0 l279 -714 l-105 0 l-78 215 l-302 0 l-80 -215 l-97 0 l278 714 Z" /><glyph glyph-name="B" unicode="b" d="M173 407 l190 0 q80 0 116 28 q36 28 36 86 q0 68 -39 90.5 q-39 22.5 -113 22.5 l-190 0 l0 -227 ZM78 714 l259 0 q148 0 189 -26 q84 -50 84 -149 q0 -118 -106 -160 l0 -2 q65 -14 100.5 -59.5 q35.5 -45.5 35.5 -112.5 q0 -83 -58 -144 q-58 -61 -159 -61 l-345 0 l0 714 ZM173 80 l238 0 q63 0 98.5 34 q35.5 34 35.5 94 q0 119 -155 119 l-217 0 l0 -247 Z" /><glyph glyph-name="C" unicode="c" d="M580 499 q-15 74 -69 113 q-54 39 -131 39 q-120 0 -181 -83.5 q-61 -83.5 -61 -205.5 q0 -131 60.5 -215 q60.5 -84 182.5 -84 q91 0 145.5 57.5 q54.5 57.5 60.5 148.5 l95 0 q-14 -136 -93.5 -210.5 q-79.5 -74.5 -215.5 -74.5 q-160 0 -245 103.5 q-85 103.5 -85 267.5 q0 163 89.5 269.5 q89.5 106.5 248.5 106.5 q116 0 197.5 -60.5 q81.5 -60.5 96.5 -171.5 l-95 0 Z" /><glyph glyph-name="D" unicode="d" d="M173 80 l158 0 q26 0 50.5 3.5 q24.5 3.5 61.5 20 q37 16.5 63 44.5 q26 28 45.5 83 q19.5 55 19.5 130 q0 134 -55.5 203.5 q-55.5 69.5 -182.5 69.5 l-160 0 l0 -554 ZM78 714 l245 0 q167 0 255 -85 q88 -85 88 -255 q0 -374 -343 -374 l-245 0 l0 714 Z" /><glyph glyph-name="E" unicode="e" d="M78 714 l493 0 l0 -80 l-398 0 l0 -227 l371 0 l0 -80 l-371 0 l0 -247 l401 0 l0 -80 l-496 0 l0 714 Z" /><glyph glyph-name="F" unicode="f" d="M78 714 l469 0 l0 -80 l-374 0 l0 -227 l328 0 l0 -80 l-328 0 l0 -327 l-95 0 l0 714 Z" /><glyph glyph-name="G" unicode="g" d="M612 89 q-40 -53 -100.5 -79 q-60.5 -26 -128.5 -26 q-103 0 -182 51 q-79 51 -118.5 132 q-39.5 81 -39.5 176 q0 165 89 276.5 q89 111.5 251 111.5 q123 0 205.5 -58.5 q82.5 -58.5 101.5 -178.5 l-95 0 q-14 78 -71 117.5 q-57 39.5 -141 39.5 q-121 0 -183 -88.5 q-62 -88.5 -62 -214.5 q0 -118 65.5 -201.5 q65.5 -83.5 179.5 -83.5 q108 0 170.5 66 q62.5 66 58.5 167 l-228 0 l0 80 l313 0 l0 -376 l-60 0 l-25 89 Z" /><glyph glyph-name="H" unicode="h" d="M78 714 l95 0 l0 -307 l376 0 l0 307 l95 0 l0 -714 l-95 0 l0 327 l-376 0 l0 -327 l-95 0 l0 714 Z" /><glyph glyph-name="I" unicode="i" d="M82 714 l95 0 l0 -714 l-95 0 l0 714 Z" /><glyph glyph-name="J" unicode="j" d="M441 178 q0 -83 -50 -138.5 q-50 -55.5 -161 -55.5 q-100 0 -154 53 q-54 53 -54 154 l0 44 l95 0 l0 -30 q0 -69 25 -105.5 q25 -36.5 90 -36.5 q62 0 88 33 q26 33 26 96 l0 522 l95 0 l0 -536 Z" /><glyph glyph-name="K" unicode="k" d="M78 714 l95 0 l0 -356 l362 356 l123 0 l-301 -288 l313 -426 l-120 0 l-258 361 l-119 -111 l0 -250 l-95 0 l0 714 Z" /><glyph glyph-name="L" unicode="l" d="M78 714 l95 0 l0 -634 l378 0 l0 -80 l-473 0 l0 714 Z" /><glyph glyph-name="M" unicode="m" d="M80 714 l130 0 l225 -600 l226 600 l130 0 l0 -714 l-90 0 l0 594 l-2 0 l-223 -594 l-81 0 l-223 594 l-2 0 l0 -594 l-90 0 l0 714 Z" /><glyph glyph-name="N" unicode="n" d="M77 714 l101 0 l376 -579 l2 0 l0 579 l90 0 l0 -714 l-104 0 l-373 573 l-2 0 l0 -573 l-90 0 l0 714 Z" /><glyph glyph-name="O" unicode="o" d="M157.5 497.5 q-24.5 -64.5 -24.5 -140.5 q0 -76 24.5 -140.5 q24.5 -64.5 82 -109 q57.5 -44.5 140.5 -44.5 q83 0 140.5 44.5 q57.5 44.5 82 109 q24.5 64.5 24.5 140.5 q0 76 -24.5 140.5 q-24.5 64.5 -82 109 q-57.5 44.5 -140.5 44.5 q-83 0 -140.5 -44.5 q-57.5 -44.5 -82 -109 ZM38 357 q0 100 37 183.5 q37 83.5 116.5 137 q79.5 53.5 188.5 53.5 q109 0 188.5 -53.5 q79.5 -53.5 116.5 -137 q37 -83.5 37 -183.5 q0 -75 -22 -141.5 q-22 -66.5 -63.5 -118.5 q-41.5 -52 -108 -82.5 q-66.5 -30.5 -148.5 -30.5 q-82 0 -148.5 30.5 q-66.5 30.5 -108 82.5 q-41.5 52 -63.5 118.5 q-22 66.5 -22 141.5 Z" /><glyph glyph-name="P" unicode="p" d="M173 372 l186 0 q156 -1 156 131 q0 131 -156 131 l-186 0 l0 -262 ZM78 714 l313 0 q107 0 163 -55 q56 -55 56 -156 q0 -101 -56 -156.5 q-56 -55.5 -163 -54.5 l-218 0 l0 -292 l-95 0 l0 714 Z" /><glyph glyph-name="Q" unicode="q" d="M450 204 l95 -76 q82 82 82 229 q0 76 -24.5 140.5 q-24.5 64.5 -82 109 q-57.5 44.5 -140.5 44.5 q-83 0 -140.5 -44.5 q-57.5 -44.5 -82 -109 q-24.5 -64.5 -24.5 -140.5 q0 -76 24.5 -140.5 q24.5 -64.5 82 -109 q57.5 -44.5 140.5 -44.5 q50 0 99 20 l-79 63 l50 58 ZM660 -61 l-109 87 q-72 -42 -171 -42 q-82 0 -148.5 30.5 q-66.5 30.5 -108 82.5 q-41.5 52 -63.5 118.5 q-22 66.5 -22 141.5 q0 100 37 183.5 q37 83.5 116.5 137 q79.5 53.5 188.5 53.5 q109 0 188.5 -53.5 q79.5 -53.5 116.5 -137 q37 -83.5 37 -183.5 q0 -176 -108 -284 l94 -74 l-48 -60 Z" /><glyph glyph-name="R" unicode="r" d="M78 714 l336 0 q102 0 159.5 -50 q57.5 -50 57.5 -137 q0 -68 -30.5 -116 q-30.5 -48 -93.5 -65 l0 -2 q56 -11 78 -47.5 q22 -36.5 29 -99.5 q1 -10 2.5 -41 q1.5 -31 3 -45.5 q1.5 -14.5 5.5 -38.5 q4 -24 12 -41 q8 -17 19 -31 l-106 0 q-12 13 -15 40.5 q-3 27.5 -4.5 68 q-1.5 40.5 -6.5 67.5 q-5 31 -10.5 50 q-5.5 19 -18 39.5 q-12.5 20.5 -35 30 q-22.5 9.5 -55.5 9.5 l-232 0 l0 -305 l-95 0 l0 714 ZM371 385 q76 0 120.5 27.5 q44.5 27.5 44.5 99.5 q0 57 -31.5 89.5 q-31.5 32.5 -95.5 32.5 l-236 0 l0 -249 l198 0 Z" /><glyph glyph-name="S" unicode="s" d="M491 505 q-16 146 -177 146 q-69 0 -114.5 -28.5 q-45.5 -28.5 -45.5 -93.5 q0 -36 25 -59 q25 -23 65.5 -35.5 q40.5 -12.5 89 -22 q48.5 -9.5 97.5 -23 q49 -13.5 89.5 -34.5 q40.5 -21 65.5 -61.5 q25 -40.5 25 -97.5 q0 -55 -25 -97.5 q-25 -42.5 -66 -66.5 q-41 -24 -89 -36 q-48 -12 -99 -12 q-128 0 -211.5 64 q-83.5 64 -83.5 187 l90 0 q0 -85 60 -128.5 q60 -43.5 148 -43.5 q76 0 128.5 30 q52.5 30 52.5 100 q0 40 -25 66 q-25 26 -65.5 39.5 q-40.5 13.5 -89 23.5 q-48.5 10 -97.5 22.5 q-49 12.5 -89.5 31.5 q-40.5 19 -65.5 56 q-25 37 -25 90 q0 102 76 155.5 q76 53.5 183 53.5 q116 0 187.5 -56.5 q71.5 -56.5 75.5 -169.5 l-90 0 Z" /><glyph glyph-name="T" unicode="t" d="M240 634 l-238 0 l0 80 l571 0 l0 -80 l-238 0 l0 -634 l-95 0 l0 634 Z" /><glyph glyph-name="U" unicode="u" d="M648 258 q0 -136 -72.5 -205 q-72.5 -69 -208.5 -69 q-293 0 -293 274 l0 456 l95 0 l0 -456 q0 -96 51 -145.5 q51 -49.5 147 -49.5 q91 0 138.5 49.5 q47.5 49.5 47.5 145.5 l0 456 l95 0 l0 -456 Z" /><glyph glyph-name="V" unicode="v" d="M359 0 l-108 0 l-251 714 l102 0 l204 -619 l2 0 l206 619 l99 0 l-254 -714 Z" /><glyph glyph-name="W" unicode="w" d="M723 0 l-99 0 l-163 600 l-2 0 l-165 -600 l-99 0 l-183 714 l97 0 l140 -594 l2 0 l160 594 l103 0 l158 -594 l2 0 l145 594 l95 0 l-191 -714 Z" /><glyph glyph-name="X" unicode="x" d="M248 367 l-235 347 l114 0 l178 -279 l186 279 l106 0 l-236 -347 l251 -367 l-116 0 l-192 295 l-198 -295 l-106 0 l248 367 Z" /><glyph glyph-name="Y" unicode="y" d="M373 292 l0 -292 l-95 0 l0 292 l-276 422 l113 0 l214 -340 l209 340 l108 0 l-273 -422 Z" /><glyph glyph-name="Z" unicode="z" d="M22 80 l444 554 l-410 0 l0 80 l522 0 l0 -80 l-443 -554 l455 0 l0 -80 l-568 0 l0 80 Z" /><glyph glyph-name="bracketleft" unicode="[" d="M259 663 l-107 0 l0 -792 l107 0 l0 -68 l-187 0 l0 928 l187 0 l0 -68 Z" /><glyph glyph-name="backslash" unicode="\&#x29f5;" d="M351 -16 l-73 0 l-295 747 l72 0 l296 -747 Z" /><glyph glyph-name="bracketright" unicode="]" d="M0 -129 l107 0 l0 792 l-107 0 l0 68 l187 0 l0 -928 l-187 0 l0 68 Z" /><glyph glyph-name="asciicircum" unicode="^" d="M268 697 l64 0 l218 -433 l-70 0 l-181 360 l-178 -360 l-71 0 l218 433 Z" /><glyph glyph-name="underscore" unicode="_" d="M0 -74 l500 0 l0 -50 l-500 0 l0 50 Z" /><glyph glyph-name="grave" unicode="`" d="M-22 731 l108 0 l86 -143 l-64 0 l-130 143 Z" /><glyph glyph-name="a" unicode="a" d="M522 2 q-22 -13 -61 -13 q-72 0 -72 79 q-66 -79 -182 -79 q-76 0 -123.5 35 q-47.5 35 -47.5 109 q0 42 14 71.5 q14 29.5 41.5 46.5 q27.5 17 54 25.5 q26.5 8.5 65.5 15.5 q19 4 45 8 q26 4 42 6 q16 2 34.5 6.5 q18.5 4.5 28.5 11 q10 6.5 17 17.5 q7 11 7 27 q0 86 -115 86 q-124 0 -129 -98 l-85 0 q4 90 64 131.5 q60 41.5 155 41.5 q194 0 194 -142 l0 -266 q0 -35 4 -46.5 q4 -11.5 23 -11.5 q9 0 26 5 l0 -66 ZM384 267 q-20 -15 -67 -23 q-47 -8 -87.5 -11.5 q-40.5 -3.5 -72 -26.5 q-31.5 -23 -31.5 -67 q0 -39 28.5 -57.5 q28.5 -18.5 71.5 -18.5 q77 0 117.5 37 q40.5 37 40.5 80 l0 87 Z" /><glyph glyph-name="b" unicode="b" d="M67 714 l85 0 l0 -267 l2 0 q40 82 165 82 q114 0 176 -78 q62 -78 62 -194 q0 -117 -61 -192.5 q-61 -75.5 -175 -75.5 q-47 0 -94.5 19 q-47.5 19 -72.5 61 l-2 0 l0 -69 l-85 0 l0 714 ZM467 263 q0 79 -41 135 q-41 56 -119 56 q-80 0 -119 -57 q-39 -57 -39 -138 q0 -83 40.5 -139.5 q40.5 -56.5 122.5 -56.5 q81 0 118 57.5 q37 57.5 37 142.5 Z" /><glyph glyph-name="c" unicode="c" d="M415 351 q-21 103 -128 103 q-85 0 -123 -57 q-38 -57 -38 -145 q0 -80 37.5 -134.5 q37.5 -54.5 113.5 -54.5 q125 0 142 126 l87 0 q-14 -97 -72 -148.5 q-58 -51.5 -156 -51.5 q-116 0 -179 71.5 q-63 71.5 -63 191.5 q0 122 63 199.5 q63 77.5 181 77.5 q92 0 153 -44.5 q61 -44.5 70 -133.5 l-88 0 Z" /><glyph glyph-name="d" unicode="d" d="M126 254 q0 -79 41 -135 q41 -56 119 -56 q80 0 119 57 q39 57 39 138 q0 83 -40.5 139.5 q-40.5 56.5 -122.5 56.5 q-81 0 -118 -57.5 q-37 -57.5 -37 -142.5 ZM526 0 l-85 0 l0 70 l-2 0 q-40 -81 -165 -81 q-114 0 -176 77.5 q-62 77.5 -62 193.5 q0 116 61 192.5 q61 76.5 175 76.5 q46 0 94 -19.5 q48 -19.5 73 -61.5 l2 0 l0 266 l85 0 l0 -714 Z" /><glyph glyph-name="e" unicode="e" d="M423 308 q-4 62 -45.5 104 q-41.5 42 -103.5 42 q-64 0 -104 -42 q-40 -42 -44 -104 l297 0 ZM505 164 q-17 -86 -74.5 -130.5 q-57.5 -44.5 -146.5 -44.5 q-119 0 -181.5 73.5 q-62.5 73.5 -66.5 197.5 q0 117 68.5 193 q68.5 76 174.5 76 q53 0 95 -19 q42 -19 68 -49 q26 -30 43 -70 q17 -40 23.5 -79.5 q6.5 -39.5 4.5 -78.5 l-387 0 q-2 -72 39 -121 q41 -49 122 -49 q112 0 134 101 l84 0 Z" /><glyph glyph-name="f" unicode="f" d="M99 442 l-87 0 l0 75 l87 0 l0 77 q0 63 36.5 95.5 q36.5 32.5 106.5 32.5 q29 0 55 -8 l0 -74 q-21 7 -48 7 q-33 0 -49 -13 q-16 -13 -16 -45 l0 -72 l100 0 l0 -75 l-100 0 l0 -442 l-85 0 l0 442 Z" /><glyph glyph-name="g" unicode="g" d="M510 44 q0 -128 -58.5 -190.5 q-58.5 -62.5 -181.5 -62.5 q-53 0 -98 14 q-45 14 -79.5 49.5 q-34.5 35.5 -36.5 88.5 l85 0 q2 -42 43.5 -63 q41.5 -21 90.5 -21 q80 0 117.5 52 q37.5 52 37.5 143 l0 34 l-2 0 q-21 -46 -64.5 -69.5 q-43.5 -23.5 -96.5 -23.5 q-110 0 -170.5 74.5 q-60.5 74.5 -60.5 186.5 q0 49 12.5 95 q12.5 46 39 87 q26.5 41 75 66 q48.5 25 112.5 25 q107 0 154 -86 l1 0 l0 74 l80 0 l0 -473 ZM272 69 q78 0 116 59 q38 59 38 141 q0 77 -36.5 131 q-36.5 54 -110.5 54 q-77 0 -115 -53.5 q-38 -53.5 -38 -134.5 q0 -51 12.5 -93 q12.5 -42 46.5 -73 q34 -31 87 -31 Z" /><glyph glyph-name="h" unicode="h" d="M64 714 l85 0 l0 -273 l2 0 q18 44 64.5 66 q46.5 22 98.5 22 q96 0 137 -49.5 q41 -49.5 41 -139.5 l0 -340 l-85 0 l0 350 q0 48 -28 76 q-28 28 -77 28 q-75 0 -114 -44.5 q-39 -44.5 -39 -117.5 l0 -292 l-85 0 l0 714 Z" /><glyph glyph-name="i" unicode="i" d="M154 610 l-85 0 l0 104 l85 0 l0 -104 ZM69 517 l85 0 l0 -517 l-85 0 l0 517 Z" /><glyph glyph-name="j" unicode="j" d="M154 610 l-85 0 l0 104 l85 0 l0 -104 ZM154 -65 q0 -132 -124 -132 q-26 0 -43 4 l0 73 q14 -2 16 -2 l18 0 q28 0 38 15.5 q10 15.5 10 55.5 l0 568 l85 0 l0 -582 Z" /><glyph glyph-name="k" unicode="k" d="M69 714 l85 0 l0 -423 l236 226 l114 0 l-205 -188 l220 -329 l-108 0 l-177 270 l-80 -74 l0 -196 l-85 0 l0 714 Z" /><glyph glyph-name="l" unicode="l" d="M69 714 l85 0 l0 -714 l-85 0 l0 714 Z" /><glyph glyph-name="m" unicode="m" d="M64 517 l80 0 l0 -76 l2 0 q58 88 167 88 q113 0 142 -88 q55 88 162 88 q172 0 172 -150 l0 -379 l-85 0 l0 339 q0 55 -21 85 q-21 30 -79 30 q-63 0 -99 -36 q-36 -36 -36 -96 l0 -322 l-85 0 l0 339 q0 55 -21.5 85 q-21.5 30 -75.5 30 q-66 0 -102 -45.5 q-36 -45.5 -36 -86.5 l0 -322 l-85 0 l0 517 Z" /><glyph glyph-name="n" unicode="n" d="M64 517 l80 0 l0 -82 l2 0 q52 94 168 94 q96 0 137 -49.5 q41 -49.5 41 -139.5 l0 -340 l-85 0 l0 350 q0 48 -28 76 q-28 28 -77 28 q-75 0 -114 -44.5 q-39 -44.5 -39 -117.5 l0 -292 l-85 0 l0 517 Z" /><glyph glyph-name="o" unicode="o" d="M172 401.5 q-46 -52.5 -46 -143.5 q0 -91 46 -143 q46 -52 115 -52 q69 0 115 52 q46 52 46 143 q0 91 -46 143.5 q-46 52.5 -115 52.5 q-69 0 -115 -52.5 ZM36 258 q0 119 66 195 q66 76 185 76 q119 0 185 -76 q66 -76 66 -195 q0 -118 -66 -193.5 q-66 -75.5 -185 -75.5 q-119 0 -185 75.5 q-66 75.5 -66 193.5 Z" /><glyph glyph-name="p" unicode="p" d="M67 517 l85 0 l0 -70 l2 0 q40 82 165 82 q114 0 176 -78 q62 -78 62 -194 q0 -117 -61 -192.5 q-61 -75.5 -175 -75.5 q-47 0 -94.5 19 q-47.5 19 -72.5 61 l-2 0 l0 -266 l-85 0 l0 714 ZM467 263 q0 79 -41 135 q-41 56 -119 56 q-80 0 -119 -57 q-39 -57 -39 -138 q0 -83 40.5 -139.5 q40.5 -56.5 122.5 -56.5 q81 0 118 57.5 q37 57.5 37 142.5 Z" /><glyph glyph-name="q" unicode="q" d="M126 254 q0 -79 41 -135 q41 -56 119 -56 q80 0 119 57 q39 57 39 138 q0 83 -40.5 139.5 q-40.5 56.5 -122.5 56.5 q-81 0 -118 -57.5 q-37 -57.5 -37 -142.5 ZM526 -197 l-85 0 l0 267 l-2 0 q-40 -81 -165 -81 q-114 0 -176 77.5 q-62 77.5 -62 193.5 q0 116 61 192.5 q61 76.5 175 76.5 q46 0 94 -19.5 q48 -19.5 73 -61.5 l2 0 l0 69 l85 0 l0 -714 Z" /><glyph glyph-name="r" unicode="r" d="M61 517 l80 0 l0 -109 l2 0 q31 64 76.5 93.5 q45.5 29.5 113.5 27.5 l0 -90 q-99 0 -143 -53 q-44 -53 -44 -156 l0 -230 l-85 0 l0 517 Z" /><glyph glyph-name="s" unicode="s" d="M116 163 q2 -53 41 -76.5 q39 -23.5 98 -23.5 q125 0 125 77 q0 31 -25 50.5 q-25 19.5 -62.5 27 q-37.5 7.5 -81.5 18.5 q-44 11 -81.5 24 q-37.5 13 -62.5 44 q-25 31 -25 78 q0 72 58 109.5 q58 37.5 135 37.5 q95 0 150.5 -36.5 q55.5 -36.5 61.5 -125.5 l-85 0 q-3 46 -37.5 66.5 q-34.5 20.5 -82.5 20.5 q-46 0 -78 -15 q-32 -15 -32 -51 q0 -10 3 -18.5 q3 -8.5 9.5 -15 q6.5 -6.5 13.5 -12 q7 -5.5 19 -10.5 q12 -5 21 -8.5 q9 -3.5 24.5 -7.5 q15.5 -4 25 -6 q9.5 -2 27 -6 q17.5 -4 26.5 -6 q37 -8 63 -17.5 q26 -9.5 52.5 -25.5 q26.5 -16 40 -42.5 q13.5 -26.5 13.5 -61.5 q0 -59 -34.5 -97 q-34.5 -38 -81 -51.5 q-46.5 -13.5 -104.5 -13.5 q-95 0 -155 41.5 q-60 41.5 -64 132.5 l85 0 Z" /><glyph glyph-name="t" unicode="t" d="M182 517 l103 0 l0 -75 l-103 0 l0 -321 q0 -30 12 -38 q12 -8 52 -8 l39 0 l0 -75 l-65 0 q-69 0 -96 22.5 q-27 22.5 -27 90.5 l0 329 l-88 0 l0 75 l88 0 l0 155 l85 0 l0 -155 Z" /><glyph glyph-name="u" unicode="u" d="M492 0 l-80 0 l0 82 l-2 0 q-52 -93 -168 -93 q-97 0 -137.5 49 q-40.5 49 -40.5 139 l0 340 l85 0 l0 -350 q0 -48 28 -76 q28 -28 77 -28 q75 0 114 44.5 q39 44.5 39 117.5 l0 292 l85 0 l0 -517 Z" /><glyph glyph-name="v" unicode="v" d="M297 0 l-91 0 l-192 517 l95 0 l145 -431 l2 0 l141 431 l89 0 l-189 -517 Z" /><glyph glyph-name="w" unicode="w" d="M576 0 l-90 0 l-105 411 l-2 0 l-104 -411 l-92 0 l-166 517 l94 0 l117 -423 l2 0 l104 423 l93 0 l108 -423 l2 0 l116 423 l88 0 l-165 -517 Z" /><glyph glyph-name="x" unicode="x" d="M203 272 l-180 245 l109 0 l124 -181 l129 181 l102 0 l-178 -238 l200 -279 l-109 0 l-144 214 l-144 -214 l-103 0 l194 272 Z" /><glyph glyph-name="y" unicode="y" d="M267 -68 q-31 -77 -62.5 -107.5 q-31.5 -30.5 -87.5 -30.5 q-35 0 -59 9 l0 78 q38 -12 50 -12 q46 0 70 47 l35 87 l-205 514 l96 0 l151 -423 l2 0 l145 423 l90 0 l-225 -585 Z" /><glyph glyph-name="z" unicode="z" d="M22 65 l312 377 l-292 0 l0 75 l402 0 l0 -58 l-316 -384 l330 0 l0 -75 l-436 0 l0 65 Z" /><glyph glyph-name="braceleft" unicode="{" d="M309 671 l-50 0 q-48 0 -48 -86 l0 -183 q0 -61 -30 -94.5 q-30 -33.5 -57 -39.5 l0 -3 q27 -4 57 -36.5 q30 -32.5 30 -97.5 l0 -182 q0 -86 48 -86 l50 0 l0 -60 l-70 0 q-41 0 -74.5 35.5 q-33.5 35.5 -33.5 95.5 l0 181 q0 53 -24.5 85 q-24.5 32 -58.5 32 l0 68 q33 0 58 33.5 q25 33.5 25 84.5 l0 182 q0 60 33.5 95.5 q33.5 35.5 74.5 35.5 l70 0 l0 -60 Z" /><glyph glyph-name="bar" unicode="|" d="M77 786 l68 0 l0 -999 l-68 0 l0 999 Z" /><glyph glyph-name="braceright" unicode="}" d="M24 -137 l50 0 q48 0 48 86 l0 182 q0 61 30 94.5 q30 33.5 57 39.5 l0 3 q-27 4 -57 36.5 q-30 32.5 -30 97.5 l0 181 q0 88 -48 88 l-50 0 l0 60 l70 0 q41 0 74.5 -35.5 q33.5 -35.5 33.5 -95.5 l0 -182 q0 -53 24.5 -85.5 q24.5 -32.5 58.5 -32.5 l0 -68 q-33 0 -58 -33.5 q-25 -33.5 -25 -83.5 l0 -181 q0 -60 -33.5 -95.5 q-33.5 -35.5 -74.5 -35.5 l-70 0 l0 60 Z" /><glyph glyph-name="asciitilde" unicode="~" d="M531 269 q-27 -41 -55 -63.5 q-28 -22.5 -70 -22.5 q-45 0 -102 33 q-66 39 -115 39 q-48 0 -84 -76 l-36 50 q42 86 125 86 q38 0 111 -32 q10 -4 34.5 -16.5 q24.5 -12.5 40 -18 q15.5 -5.5 27.5 -5.5 q7 0 14.5 2 q7.5 2 13 4.5 q5.5 2.5 12 8.5 q6.5 6 10.5 9.5 q4 3.5 10.5 12 q6.5 8.5 9 12.5 q2.5 4 9.5 14 q7 10 9 13 l36 -50 Z" /><glyph glyph-name="nonbreakingspace" unicode=" " d="" /><glyph glyph-name="exclamdown" unicode="¡" d="M185 406 l-111 0 l0 111 l111 0 l0 -111 ZM82 22 l25 311 l45 0 l25 -311 l0 -219 l-95 0 l0 219 Z" /><glyph glyph-name="cent" unicode="¢" d="M272 -11 q-107 4 -166.5 76.5 q-59.5 72.5 -59.5 186.5 q0 113 59 191 q59 78 167 86 l0 95 l39 0 l0 -95 q85 -2 138 -46 q53 -44 65 -132 l-87 0 q-10 47 -39.5 74 q-29.5 27 -76.5 29 l0 -391 q102 10 121 126 l85 0 q-9 -82 -63.5 -141 q-54.5 -59 -142.5 -59 l0 -104 l-39 0 l0 104 ZM272 454 q-72 -9 -104 -64.5 q-32 -55.5 -32 -137.5 q0 -76 34 -129.5 q34 -53.5 102 -59.5 l0 391 Z" /><glyph glyph-name="sterling" unicode="£" d="M47 372 l58 0 q-47 78 -47 156 q0 92 66.5 147.5 q66.5 55.5 161.5 55.5 q113 0 175.5 -65.5 q62.5 -65.5 60.5 -192.5 l-85 0 q-5 183 -146 183 q-60 0 -101.5 -37.5 q-41.5 -37.5 -41.5 -93.5 q0 -18 2.5 -34.5 q2.5 -16.5 9.5 -35 q7 -18.5 10.5 -26.5 q3.5 -8 15.5 -31 q12 -23 14 -26 l159 0 l0 -45 l-137 0 q20 -38 20 -75 q0 -42 -18.5 -79 q-18.5 -37 -39.5 -58 q-21 -21 -58 -51 l2 -2 q68 29 105 29 q37 0 95 -15 q61 -18 84 -18 q42 0 89 37 l43 -66 q-51 -45 -146 -45 q-25 0 -99 19 q-63 21 -105 21 q-47 0 -100 -34 l-47 65 q47 32 78.5 78.5 q31.5 46.5 31.5 100.5 q0 37 -25 93 l-85 0 l0 45 Z" /><glyph glyph-name="currency" unicode="¤" d="M281 524 q-71 0 -119.5 -50.5 q-48.5 -50.5 -48.5 -124.5 q0 -73 48.5 -123 q48.5 -50 118.5 -50 q69 0 116 51 q47 51 47 124 q0 71 -47 122 q-47 51 -115 51 ZM74 604 l56 -56 q62 51 151 51 q85 0 143 -50 l57 56 l50 -51 l-55 -55 q52 -55 52 -148 q0 -89 -52 -150 l55 -56 l-47 -47 l-56 58 q-60 -55 -148 -55 q-92 0 -152 54 l-55 -58 l-48 48 l55 58 q-52 63 -52 146 q0 94 54 148 l-57 58 l49 49 Z" /><glyph glyph-name="yen" unicode="¥" d="M232 174 l-141 0 l0 60 l141 0 l0 42 l-18 33 l-123 0 l0 60 l92 0 l-183 345 l109 0 l174 -353 l169 353 l104 0 l-178 -345 l93 0 l0 -60 l-126 0 l-18 -33 l0 -42 l144 0 l0 -60 l-144 0 l0 -174 l-95 0 l0 174 Z" /><glyph glyph-name="brokenbar" unicode="¦" d="M145 411 l-68 0 l0 250 l68 0 l0 -250 ZM77 161 l68 0 l0 -249 l-68 0 l0 249 Z" /><glyph glyph-name="section" unicode="§" d="M380 546 q-1 48 -28 79 q-27 31 -73 31 q-42 0 -68.5 -21.5 q-26.5 -21.5 -26.5 -64.5 q0 -26 18.5 -49.5 q18.5 -23.5 47.5 -41.5 q29 -18 64.5 -36.5 q35.5 -18.5 71 -39 q35.5 -20.5 64.5 -44.5 q29 -24 47.5 -57.5 q18.5 -33.5 18.5 -72.5 q0 -49 -29 -89 q-29 -40 -75 -58 q59 -44 59 -119 q0 -71 -52.5 -115.5 q-52.5 -44.5 -134.5 -44.5 q-89 0 -142 50.5 q-53 50.5 -59 138.5 l85 0 q1 -51 32 -82.5 q31 -31.5 82 -31.5 q40 0 70.5 22 q30.5 22 30.5 61 q0 11 -2.5 21 q-2.5 10 -9.5 20 q-7 10 -13 18 q-6 8 -19 17.5 q-13 9.5 -21 15.5 q-8 6 -25.5 16.5 q-17.5 10.5 -26 15 q-8.5 4.5 -29 16 q-20.5 11.5 -28.5 15.5 q-39 21 -64.5 37.5 q-25.5 16.5 -53.5 42.5 q-28 26 -42 58 q-14 32 -14 71 q0 46 31 86 q31 40 76 52 q-46 49 -46 106 q0 74 55.5 118 q55.5 44 129.5 44 q84 0 133 -47 q49 -47 51 -138 l-85 0 ZM190 420 q-31 -10 -52 -35 q-21 -25 -21 -56 q0 -10 1.5 -19.5 q1.5 -9.5 6.5 -18.5 q5 -9 8 -15.5 q3 -6.5 12 -14.5 q9 -8 13 -12 q4 -4 15.5 -11.5 q11.5 -7.5 15 -10 q3.5 -2.5 17.5 -11 q14 -8.5 16 -9.5 q80 -42 140 -83 q72 30 72 93 q0 12 -3 22.5 q-3 10.5 -11.5 21.5 q-8.5 11 -13.5 17.5 q-5 6.5 -19.5 17 q-14.5 10.5 -18.5 13.5 q-4 3 -21.5 14 q-17.5 11 -18.5 12 q-108 64 -138 85 Z" /><glyph glyph-name="dieresis" unicode="¨" d="M-27 696 l89 0 l0 -104 l-89 0 l0 104 ZM160 696 l90 0 l0 -104 l-90 0 l0 104 Z" /><glyph glyph-name="copyright" unicode="©" d="M599 285 q-16 -72 -66.5 -114.5 q-50.5 -42.5 -119.5 -42.5 q-100 0 -161 64.5 q-61 64.5 -61 164.5 q0 102 59 165 q59 63 160 63 q74 0 125 -39.5 q51 -39.5 63 -112.5 l-63 0 q-8 43 -41 70 q-33 27 -83 27 q-72 0 -112 -48 q-40 -48 -40 -123 q0 -73 42 -124.5 q42 -51.5 112 -51.5 q50 0 82.5 28 q32.5 28 39.5 74 l64 0 ZM92 359 q0 -137 88.5 -229 q88.5 -92 220.5 -92 q130 0 218.5 92 q88.5 92 88.5 229 q0 134 -88.5 225.5 q-88.5 91.5 -218.5 91.5 q-132 0 -220.5 -91 q-88.5 -91 -88.5 -226 ZM24 359 q0 157 111 264.5 q111 107.5 266 107.5 q155 0 265 -107.5 q110 -107.5 110 -264.5 q0 -160 -110 -267.5 q-110 -107.5 -265 -107.5 q-156 0 -266.5 107.5 q-110.5 107.5 -110.5 267.5 Z" /><glyph glyph-name="ordfeminine" unicode="ª" d="M155 430 q51 0 76.5 21 q25.5 21 25.5 48 l0 47 q-9 -6 -24 -9.5 q-15 -3.5 -41.5 -7.5 q-26.5 -4 -34.5 -6 q-32 -6 -48 -17 q-16 -11 -16 -35 q0 -41 62 -41 ZM317 462 q0 -32 14 -32 l11 0 q3 0 11 2 l0 -44 q-21 -8 -43 -8 q-48 0 -51 46 q-43 -46 -117 -46 q-51 0 -84 22.5 q-33 22.5 -33 66.5 q0 48 34.5 71.5 q34.5 23.5 85.5 27.5 q75 9 95 15.5 q20 6.5 20 26.5 q0 30 -20.5 39.5 q-20.5 9.5 -56.5 9.5 q-79 0 -83 -56 l-60 0 q2 54 43.5 80 q41.5 26 103.5 26 q130 0 130 -87 l0 -160 Z" /><glyph glyph-name="guillemotleft" unicode="«" d="M50 234 l0 88 l152 120 l0 -86 l-100 -78 l100 -78 l0 -86 l-152 120 ZM246 234 l0 88 l152 120 l0 -86 l-100 -78 l100 -78 l0 -86 l-152 120 Z" /><glyph glyph-name="logicalnot" unicode="¬" d="M552 109 l-68 0 l0 211 l-436 0 l0 68 l504 0 l0 -279 Z" /><glyph glyph-name="uni00AD" unicode="­" d="M50 238 l0 80 l289 0 l0 -80 l-289 0 Z" /><glyph glyph-name="registered" unicode="®" d="M323 382 l71 0 q22 0 35.5 1 q13.5 1 30.5 4.5 q17 3.5 26.5 11 q9.5 7.5 16 21.5 q6.5 14 6.5 34 q0 67 -96 67 l-90 0 l0 -139 ZM255 576 l169 0 q153 0 153 -125 q0 -107 -115 -119 l125 -193 l-73 0 l-119 188 l-72 0 l0 -188 l-68 0 l0 437 ZM92 359 q0 -137 88.5 -229 q88.5 -92 220.5 -92 q130 0 218.5 92 q88.5 92 88.5 229 q0 134 -88.5 225.5 q-88.5 91.5 -218.5 91.5 q-132 0 -220.5 -91 q-88.5 -91 -88.5 -226 ZM24 359 q0 157 111 264.5 q111 107.5 266 107.5 q155 0 265 -107.5 q110 -107.5 110 -264.5 q0 -160 -110 -267.5 q-110 -107.5 -265 -107.5 q-156 0 -266.5 107.5 q-110.5 107.5 -110.5 267.5 Z" /><glyph glyph-name="macron" unicode="¯" d="M-58 675 l340 0 l0 -55 l-340 0 l0 55 Z" /><glyph glyph-name="degree" unicode="°" d="M132 630.5 q-26 -28.5 -26 -65.5 q0 -37 26 -65.5 q26 -28.5 68 -28.5 q42 0 68 28.5 q26 28.5 26 65.5 q0 37 -26 65.5 q-26 28.5 -68 28.5 q-42 0 -68 -28.5 ZM56 565 q0 60 42 102 q42 42 102 42 q59 0 101.5 -42.5 q42.5 -42.5 42.5 -101.5 q0 -60 -42 -102 q-42 -42 -102 -42 q-61 0 -102.5 41.5 q-41.5 41.5 -41.5 102.5 Z" /><glyph glyph-name="plusminus" unicode="±" d="M48 68 l504 0 l0 -68 l-504 0 l0 68 ZM48 339 l218 0 l0 166 l68 0 l0 -166 l218 0 l0 -68 l-218 0 l0 -167 l-68 0 l0 167 l-218 0 l0 68 Z" /><glyph glyph-name="twosuperior" unicode="²" d="M22 555 q0 69 42 111.5 q42 42.5 111 42.5 q63 0 105.5 -34 q42.5 -34 42.5 -92 q0 -50 -30 -82.5 q-30 -32.5 -83 -62.5 q-11 -7 -33.5 -19.5 q-22.5 -12.5 -34 -20 q-11.5 -7.5 -26.5 -18.5 q-15 -11 -23 -22 q-8 -11 -11 -23 l235 0 l0 -55 l-303 0 q2 36 11.5 63.5 q9.5 27.5 29.5 48 q20 20.5 37 32.5 q17 12 47 30 q67 40 91.5 64 q24.5 24 24.5 66 q0 32 -23.5 51 q-23.5 19 -59.5 19 q-42 0 -62 -28 q-20 -28 -20 -71 l-68 0 Z" /><glyph glyph-name="threesuperior" unicode="³" d="M132 527 l24 0 q36 0 59.5 16 q23.5 16 23.5 49 q0 29 -21.5 45.5 q-21.5 16.5 -55.5 16.5 q-40 0 -60 -23.5 q-20 -23.5 -20 -62.5 l-68 0 q4 66 43 103.5 q39 37.5 105 37.5 q65 0 105 -30.5 q40 -30.5 40 -86.5 q0 -28 -19.5 -50.5 q-19.5 -22.5 -48.5 -34.5 l0 -2 q87 -16 87 -102 q0 -63 -47 -96.5 q-47 -33.5 -115 -33.5 q-70 0 -115 37 q-45 37 -45 104 l68 0 q2 -86 92 -86 q40 0 67 19.5 q27 19.5 27 52.5 q0 39 -27 58 q-27 19 -66 19 l-33 0 l0 50 Z" /><glyph glyph-name="acute" unicode="´" d="M136 731 l109 0 l-131 -143 l-64 0 l86 143 Z" /><glyph glyph-name="mu" unicode="µ" d="M492 0 l-80 0 l0 82 l-2 0 q-52 -93 -168 -93 q-68 0 -91 37 l-2 0 l0 -223 l-85 0 l0 714 l85 0 l0 -350 q0 -48 28 -76 q28 -28 77 -28 q75 0 114 44.5 q39 44.5 39 117.5 l0 292 l85 0 l0 -517 Z" /><glyph glyph-name="paragraph" unicode="¶" d="M515 -154 l-68 0 l0 813 l-122 0 l0 -813 l-68 0 l0 476 q-91 0 -150 53.5 q-59 53.5 -59 132.5 q0 98 60.5 152 q60.5 54 167.5 54 l239 0 l0 -868 Z" /><glyph glyph-name="middot" unicode="·" d="M94.5 266 q-19.5 19 -19.5 45 q0 26 19 45 q19 19 45 19 q26 0 45 -19 q19 -19 19 -45 q0 -24 -19.5 -44 q-19.5 -20 -43.5 -20 q-26 0 -45.5 19 Z" /><glyph glyph-name="cedilla" unicode="¸" d="M23 -146 q30 -13 61 -13 q24 0 43 7.5 q19 7.5 19 23.5 q0 14 -13 22.5 q-13 8.5 -34 8.5 q-17 0 -41 -8 l-17 28 l61 77 l42 0 l-42 -52 l2 -2 q10 7 33 7 q35 0 59.5 -19 q24.5 -19 24.5 -54 q0 -46 -37.5 -67.5 q-37.5 -21.5 -86.5 -21.5 q-38 0 -92 19 l18 44 Z" /><glyph glyph-name="onesuperior" unicode="¹" d="M249 280 l-68 0 l0 308 l-115 0 l0 50 q116 0 133 71 l50 0 l0 -429 Z" /><glyph glyph-name="ordmasculine" unicode="º" d="M192 659 q-44 0 -71.5 -29.5 q-27.5 -29.5 -27.5 -86.5 q0 -49 24.5 -81 q24.5 -32 75.5 -32 q50 0 74 31.5 q24 31.5 24 80.5 q0 65 -29 91 q-29 26 -70 26 ZM192 709 q79 0 123 -46.5 q44 -46.5 44 -119.5 q0 -74 -43 -118.5 q-43 -44.5 -123 -44.5 q-78 0 -123 45 q-45 45 -45 118 q0 72 44.5 119 q44.5 47 122.5 47 Z" /><glyph glyph-name="guillemotright" unicode="»" d="M413 322 l0 -88 l-152 -120 l0 86 l100 78 l-100 78 l0 86 l152 -120 ZM217 322 l0 -88 l-152 -120 l0 86 l100 78 l-100 78 l0 86 l152 -120 Z" /><glyph glyph-name="onequarter" unicode="¼" d="M219 280 l-68 0 l0 308 l-115 0 l0 50 q117 0 133 71 l50 0 l0 -429 ZM585 725 l64 0 l-435 -752 l-64 0 l435 752 ZM511 151 l150 0 l0 193 l-2 0 l-148 -193 ZM723 151 l60 0 l0 -55 l-60 0 l0 -96 l-62 0 l0 96 l-199 0 l0 58 l210 275 l51 0 l0 -278 Z" /><glyph glyph-name="onehalf" unicode="½" d="M502 275 q0 69 42 111.5 q42 42.5 111 42.5 q63 0 105.5 -34 q42.5 -34 42.5 -92 q0 -50 -30 -82.5 q-30 -32.5 -83 -62.5 q-11 -7 -33.5 -19.5 q-22.5 -12.5 -34 -20 q-11.5 -7.5 -26.5 -18.5 q-15 -11 -23 -22 q-8 -11 -11 -23 l235 0 l0 -55 l-303 0 q2 36 11.5 63.5 q9.5 27.5 29.5 48 q20 20.5 37 32.5 q17 12 47 30 q67 40 91.5 64 q24.5 24 24.5 66 q0 32 -23.5 51 q-23.5 19 -59.5 19 q-42 0 -62 -28 q-20 -28 -20 -71 l-68 0 ZM219 280 l-68 0 l0 308 l-115 0 l0 50 q117 0 133 71 l50 0 l0 -429 ZM570 725 l64 0 l-435 -752 l-64 0 l435 752 Z" /><glyph glyph-name="threequarters" unicode="¾" d="M177 527 l24 0 q36 0 59.5 16 q23.5 16 23.5 49 q0 29 -21.5 45.5 q-21.5 16.5 -55.5 16.5 q-40 0 -60 -23.5 q-20 -23.5 -20 -62.5 l-68 0 q4 66 43 103.5 q39 37.5 105 37.5 q65 0 105 -30.5 q40 -30.5 40 -86.5 q0 -28 -19.5 -50.5 q-19.5 -22.5 -48.5 -34.5 l0 -2 q87 -16 87 -102 q0 -63 -47 -96.5 q-47 -33.5 -115 -33.5 q-70 0 -115 37 q-45 37 -45 104 l68 0 q2 -86 92 -86 q40 0 67 19.5 q27 19.5 27 52.5 q0 39 -27 58 q-27 19 -66 19 l-33 0 l0 50 ZM650 725 l64 0 l-435 -752 l-64 0 l435 752 ZM529 147 l150 0 l0 193 l-2 0 l-148 -193 ZM740 151 l60 0 l0 -55 l-60 0 l0 -96 l-62 0 l0 96 l-199 0 l0 58 l210 275 l51 0 l0 -278 Z" /><glyph glyph-name="questiondown" unicode="¿" d="M337 406 l-111 0 l0 111 l111 0 l0 -111 ZM503 30 q2 -103 -59.5 -171 q-61.5 -68 -164.5 -68 q-95 0 -153 53 q-58 53 -58 147 q0 55 22 92 q22 37 64 77 q22 21 32.5 32 q10.5 11 26 30.5 q15.5 19.5 22 40.5 q6.5 21 6.5 45 l0 31 l85 0 l0 -39 q-2 -46 -21 -82.5 q-19 -36.5 -44 -60.5 q-25 -24 -49.5 -47.5 q-24.5 -23.5 -40 -55 q-15.5 -31.5 -13.5 -71.5 q4 -55 35.5 -86 q31.5 -31 85.5 -31 q69 0 104 45.5 q35 45.5 35 118.5 l85 0 Z" /><glyph glyph-name="Agrave" unicode="à" d="M190 908 l109 0 l86 -143 l-64 0 l-131 143 ZM201 295 l242 0 l-119 333 l-2 0 l-121 -333 ZM272 714 l105 0 l279 -714 l-105 0 l-78 215 l-302 0 l-80 -215 l-97 0 l278 714 Z" /><glyph glyph-name="Aacute" unicode="á" d="M349 908 l109 0 l-131 -143 l-64 0 l86 143 ZM201 295 l242 0 l-119 333 l-2 0 l-121 -333 ZM272 714 l105 0 l279 -714 l-105 0 l-78 215 l-302 0 l-80 -215 l-97 0 l278 714 Z" /><glyph glyph-name="Acircumflex" unicode="â" d="M277 908 l93 0 l104 -143 l-84 0 l-69 96 l-70 -96 l-77 0 l103 143 ZM201 295 l242 0 l-119 333 l-2 0 l-121 -333 ZM272 714 l105 0 l279 -714 l-105 0 l-78 215 l-302 0 l-80 -215 l-97 0 l278 714 Z" /><glyph glyph-name="Atilde" unicode="ã" d="M498 888 q-6 -46 -31 -80 q-28 -31 -79 -31 q-22 0 -66 20 q-51 19 -67 19 q-18 0 -34 -12.5 q-16 -12.5 -14 -29.5 l-52 0 q14 51 38 80.5 q24 29.5 67 29.5 q28 0 74 -20 q46 -20 66 -20 q31 0 46 44 l52 0 ZM201 295 l242 0 l-119 333 l-2 0 l-121 -333 ZM272 714 l105 0 l279 -714 l-105 0 l-78 215 l-302 0 l-80 -215 l-97 0 l278 714 Z" /><glyph glyph-name="Adieresis" unicode="ä" d="M185 873 l90 0 l0 -104 l-90 0 l0 104 ZM373 873 l90 0 l0 -104 l-90 0 l0 104 ZM201 295 l242 0 l-119 333 l-2 0 l-121 -333 ZM272 714 l105 0 l279 -714 l-105 0 l-78 215 l-302 0 l-80 -215 l-97 0 l278 714 Z" /><glyph glyph-name="Aring" unicode="å" d="M244.5 749.5 q-33.5 33.5 -33.5 79.5 q0 46 33.5 79.5 q33.5 33.5 79.5 33.5 q46 0 79.5 -33.5 q33.5 -33.5 33.5 -79.5 q0 -46 -33.5 -79.5 q-33.5 -33.5 -79.5 -33.5 q-46 0 -79.5 33.5 ZM275.5 877.5 q-19.5 -19.5 -19.5 -48.5 q0 -29 19.5 -48.5 q19.5 -19.5 48.5 -19.5 q29 0 48.5 19.5 q19.5 19.5 19.5 48.5 q0 29 -19.5 48.5 q-19.5 19.5 -48.5 19.5 q-29 0 -48.5 -19.5 ZM201 295 l242 0 l-119 333 l-2 0 l-121 -333 ZM272 714 l105 0 l279 -714 l-105 0 l-78 215 l-302 0 l-80 -215 l-97 0 l278 714 Z" /><glyph glyph-name="AE" unicode="æ" d="M407 634 l-168 -346 l209 0 l0 346 l-41 0 ZM354 714 l535 0 l0 -80 l-351 0 l0 -227 l330 0 l0 -80 l-330 0 l0 -247 l357 0 l0 -80 l-447 0 l0 208 l-246 0 l-102 -208 l-106 0 l360 714 Z" /><glyph glyph-name="Ccedilla" unicode="ç" d="M580 499 q-15 74 -69 113 q-54 39 -131 39 q-120 0 -181 -83.5 q-61 -83.5 -61 -205.5 q0 -131 60.5 -215 q60.5 -84 182.5 -84 q91 0 145.5 57.5 q54.5 57.5 60.5 148.5 l95 0 q-14 -133 -92 -207.5 q-78 -74.5 -209 -76.5 l-29 -37 l2 -2 q10 7 33 7 q35 0 59.5 -19 q24.5 -19 24.5 -54 q0 -46 -37.5 -67.5 q-37.5 -21.5 -86.5 -21.5 q-38 0 -92 19 l18 44 q30 -13 61 -13 q24 0 43 7.5 q19 7.5 19 23.5 q0 14 -13 22.5 q-13 8.5 -34 8.5 q-17 0 -41 -8 l-17 28 l49 63 q-145 12 -221 112.5 q-76 100.5 -76 256.5 q0 163 89.5 269.5 q89.5 106.5 248.5 106.5 q116 0 197.5 -60.5 q81.5 -60.5 96.5 -171.5 l-95 0 Z" /><glyph glyph-name="Egrave" unicode="è" d="M172 908 l109 0 l86 -143 l-64 0 l-131 143 ZM78 714 l493 0 l0 -80 l-398 0 l0 -227 l371 0 l0 -80 l-371 0 l0 -247 l401 0 l0 -80 l-496 0 l0 714 Z" /><glyph glyph-name="Eacute" unicode="é" d="M331 908 l109 0 l-131 -143 l-64 0 l86 143 ZM78 714 l493 0 l0 -80 l-398 0 l0 -227 l371 0 l0 -80 l-371 0 l0 -247 l401 0 l0 -80 l-496 0 l0 714 Z" /><glyph glyph-name="Ecircumflex" unicode="ê" d="M259 908 l93 0 l104 -143 l-84 0 l-69 96 l-70 -96 l-77 0 l103 143 ZM78 714 l493 0 l0 -80 l-398 0 l0 -227 l371 0 l0 -80 l-371 0 l0 -247 l401 0 l0 -80 l-496 0 l0 714 Z" /><glyph glyph-name="Edieresis" unicode="ë" d="M167 873 l90 0 l0 -104 l-90 0 l0 104 ZM355 873 l90 0 l0 -104 l-90 0 l0 104 ZM78 714 l493 0 l0 -80 l-398 0 l0 -227 l371 0 l0 -80 l-371 0 l0 -247 l401 0 l0 -80 l-496 0 l0 714 Z" /><glyph glyph-name="Igrave" unicode="ì" d="M-3 908 l108 0 l86 -143 l-64 0 l-130 143 ZM82 714 l95 0 l0 -714 l-95 0 l0 714 Z" /><glyph glyph-name="Iacute" unicode="í" d="M155 908 l109 0 l-131 -143 l-64 0 l86 143 ZM82 714 l95 0 l0 -714 l-95 0 l0 714 Z" /><glyph glyph-name="Icircumflex" unicode="î" d="M83 908 l93 0 l104 -143 l-84 0 l-69 96 l-70 -96 l-76 0 l102 143 ZM82 714 l95 0 l0 -714 l-95 0 l0 714 Z" /><glyph glyph-name="Idieresis" unicode="ï" d="M-8 873 l89 0 l0 -104 l-89 0 l0 104 ZM179 873 l90 0 l0 -104 l-90 0 l0 104 ZM82 714 l95 0 l0 -714 l-95 0 l0 714 Z" /><glyph glyph-name="Eth" unicode="ð" d="M173 407 l214 0 l0 -68 l-214 0 l0 -259 l158 0 q26 0 50.5 3.5 q24.5 3.5 61.5 20 q37 16.5 63 44.5 q26 28 45.5 83 q19.5 55 19.5 130 q0 134 -55.5 203.5 q-55.5 69.5 -182.5 69.5 l-160 0 l0 -227 ZM78 339 l-70 0 l0 68 l70 0 l0 307 l245 0 q167 0 255 -85 q88 -85 88 -255 q0 -374 -343 -374 l-245 0 l0 339 Z" /><glyph glyph-name="Ntilde" unicode="ñ" d="M535 888 q-6 -46 -31 -80 q-28 -31 -79 -31 q-22 0 -66 20 q-51 19 -67 19 q-18 0 -34 -12.5 q-16 -12.5 -14 -29.5 l-52 0 q14 51 38 80.5 q24 29.5 67 29.5 q28 0 74 -20 q46 -20 66 -20 q31 0 46 44 l52 0 ZM77 714 l101 0 l376 -579 l2 0 l0 579 l90 0 l0 -714 l-104 0 l-373 573 l-2 0 l0 -573 l-90 0 l0 714 Z" /><glyph glyph-name="Ograve" unicode="ò" d="M246 908 l109 0 l86 -143 l-64 0 l-131 143 ZM157.5 497.5 q-24.5 -64.5 -24.5 -140.5 q0 -76 24.5 -140.5 q24.5 -64.5 82 -109 q57.5 -44.5 140.5 -44.5 q83 0 140.5 44.5 q57.5 44.5 82 109 q24.5 64.5 24.5 140.5 q0 76 -24.5 140.5 q-24.5 64.5 -82 109 q-57.5 44.5 -140.5 44.5 q-83 0 -140.5 -44.5 q-57.5 -44.5 -82 -109 ZM38 357 q0 100 37 183.5 q37 83.5 116.5 137 q79.5 53.5 188.5 53.5 q109 0 188.5 -53.5 q79.5 -53.5 116.5 -137 q37 -83.5 37 -183.5 q0 -75 -22 -141.5 q-22 -66.5 -63.5 -118.5 q-41.5 -52 -108 -82.5 q-66.5 -30.5 -148.5 -30.5 q-82 0 -148.5 30.5 q-66.5 30.5 -108 82.5 q-41.5 52 -63.5 118.5 q-22 66.5 -22 141.5 Z" /><glyph glyph-name="Oacute" unicode="ó" d="M405 908 l109 0 l-131 -143 l-64 0 l86 143 ZM157.5 497.5 q-24.5 -64.5 -24.5 -140.5 q0 -76 24.5 -140.5 q24.5 -64.5 82 -109 q57.5 -44.5 140.5 -44.5 q83 0 140.5 44.5 q57.5 44.5 82 109 q24.5 64.5 24.5 140.5 q0 76 -24.5 140.5 q-24.5 64.5 -82 109 q-57.5 44.5 -140.5 44.5 q-83 0 -140.5 -44.5 q-57.5 -44.5 -82 -109 ZM38 357 q0 100 37 183.5 q37 83.5 116.5 137 q79.5 53.5 188.5 53.5 q109 0 188.5 -53.5 q79.5 -53.5 116.5 -137 q37 -83.5 37 -183.5 q0 -75 -22 -141.5 q-22 -66.5 -63.5 -118.5 q-41.5 -52 -108 -82.5 q-66.5 -30.5 -148.5 -30.5 q-82 0 -148.5 30.5 q-66.5 30.5 -108 82.5 q-41.5 52 -63.5 118.5 q-22 66.5 -22 141.5 Z" /><glyph glyph-name="Ocircumflex" unicode="ô" d="M333 908 l93 0 l104 -143 l-84 0 l-69 96 l-70 -96 l-77 0 l103 143 ZM157.5 497.5 q-24.5 -64.5 -24.5 -140.5 q0 -76 24.5 -140.5 q24.5 -64.5 82 -109 q57.5 -44.5 140.5 -44.5 q83 0 140.5 44.5 q57.5 44.5 82 109 q24.5 64.5 24.5 140.5 q0 76 -24.5 140.5 q-24.5 64.5 -82 109 q-57.5 44.5 -140.5 44.5 q-83 0 -140.5 -44.5 q-57.5 -44.5 -82 -109 ZM38 357 q0 100 37 183.5 q37 83.5 116.5 137 q79.5 53.5 188.5 53.5 q109 0 188.5 -53.5 q79.5 -53.5 116.5 -137 q37 -83.5 37 -183.5 q0 -75 -22 -141.5 q-22 -66.5 -63.5 -118.5 q-41.5 -52 -108 -82.5 q-66.5 -30.5 -148.5 -30.5 q-82 0 -148.5 30.5 q-66.5 30.5 -108 82.5 q-41.5 52 -63.5 118.5 q-22 66.5 -22 141.5 Z" /><glyph glyph-name="Otilde" unicode="õ" d="M554 888 q-6 -46 -31 -80 q-28 -31 -79 -31 q-22 0 -66 20 q-51 19 -67 19 q-18 0 -34 -12.5 q-16 -12.5 -14 -29.5 l-52 0 q14 51 38 80.5 q24 29.5 67 29.5 q28 0 74 -20 q46 -20 66 -20 q31 0 46 44 l52 0 ZM157.5 497.5 q-24.5 -64.5 -24.5 -140.5 q0 -76 24.5 -140.5 q24.5 -64.5 82 -109 q57.5 -44.5 140.5 -44.5 q83 0 140.5 44.5 q57.5 44.5 82 109 q24.5 64.5 24.5 140.5 q0 76 -24.5 140.5 q-24.5 64.5 -82 109 q-57.5 44.5 -140.5 44.5 q-83 0 -140.5 -44.5 q-57.5 -44.5 -82 -109 ZM38 357 q0 100 37 183.5 q37 83.5 116.5 137 q79.5 53.5 188.5 53.5 q109 0 188.5 -53.5 q79.5 -53.5 116.5 -137 q37 -83.5 37 -183.5 q0 -75 -22 -141.5 q-22 -66.5 -63.5 -118.5 q-41.5 -52 -108 -82.5 q-66.5 -30.5 -148.5 -30.5 q-82 0 -148.5 30.5 q-66.5 30.5 -108 82.5 q-41.5 52 -63.5 118.5 q-22 66.5 -22 141.5 Z" /><glyph glyph-name="Odieresis" unicode="ö" d="M241 873 l90 0 l0 -104 l-90 0 l0 104 ZM429 873 l90 0 l0 -104 l-90 0 l0 104 ZM157.5 497.5 q-24.5 -64.5 -24.5 -140.5 q0 -76 24.5 -140.5 q24.5 -64.5 82 -109 q57.5 -44.5 140.5 -44.5 q83 0 140.5 44.5 q57.5 44.5 82 109 q24.5 64.5 24.5 140.5 q0 76 -24.5 140.5 q-24.5 64.5 -82 109 q-57.5 44.5 -140.5 44.5 q-83 0 -140.5 -44.5 q-57.5 -44.5 -82 -109 ZM38 357 q0 100 37 183.5 q37 83.5 116.5 137 q79.5 53.5 188.5 53.5 q109 0 188.5 -53.5 q79.5 -53.5 116.5 -137 q37 -83.5 37 -183.5 q0 -75 -22 -141.5 q-22 -66.5 -63.5 -118.5 q-41.5 -52 -108 -82.5 q-66.5 -30.5 -148.5 -30.5 q-82 0 -148.5 30.5 q-66.5 30.5 -108 82.5 q-41.5 52 -63.5 118.5 q-22 66.5 -22 141.5 Z" /><glyph glyph-name="multiply" unicode="×" d="M71 72 l182 182 l-181 180 l48 48 l181 -180 l180 180 l48 -48 l-180 -180 l181 -182 l-48 -48 l-181 182 l-182 -182 l-48 48 Z" /><glyph glyph-name="Oslash" unicode="ø" d="M723 700 l-82 -90 q81 -100 81 -253 q0 -75 -22 -141.5 q-22 -66.5 -63.5 -118.5 q-41.5 -52 -108 -82.5 q-66.5 -30.5 -148.5 -30.5 q-139 0 -229 85 l-81 -88 l-33 29 l84 92 q-83 101 -83 255 q0 100 37 183.5 q37 83.5 116.5 137 q79.5 53.5 188.5 53.5 q144 0 232 -88 l79 87 l32 -30 ZM210 134 q63 -71 170 -71 q83 0 140.5 44.5 q57.5 44.5 82 109 q24.5 64.5 24.5 140.5 q0 108 -48 184 l-369 -407 ZM552 577 q-64 74 -172 74 q-83 0 -140.5 -44.5 q-57.5 -44.5 -82 -109 q-24.5 -64.5 -24.5 -140.5 q0 -111 50 -187 l369 407 Z" /><glyph glyph-name="Ugrave" unicode="ù" d="M227 908 l109 0 l86 -143 l-64 0 l-131 143 ZM648 258 q0 -136 -72.5 -205 q-72.5 -69 -208.5 -69 q-293 0 -293 274 l0 456 l95 0 l0 -456 q0 -96 51 -145.5 q51 -49.5 147 -49.5 q91 0 138.5 49.5 q47.5 49.5 47.5 145.5 l0 456 l95 0 l0 -456 Z" /><glyph glyph-name="Uacute" unicode="ú" d="M386 908 l109 0 l-131 -143 l-64 0 l86 143 ZM648 258 q0 -136 -72.5 -205 q-72.5 -69 -208.5 -69 q-293 0 -293 274 l0 456 l95 0 l0 -456 q0 -96 51 -145.5 q51 -49.5 147 -49.5 q91 0 138.5 49.5 q47.5 49.5 47.5 145.5 l0 456 l95 0 l0 -456 Z" /><glyph glyph-name="Ucircumflex" unicode="û" d="M314 908 l93 0 l104 -143 l-84 0 l-69 96 l-70 -96 l-77 0 l103 143 ZM648 258 q0 -136 -72.5 -205 q-72.5 -69 -208.5 -69 q-293 0 -293 274 l0 456 l95 0 l0 -456 q0 -96 51 -145.5 q51 -49.5 147 -49.5 q91 0 138.5 49.5 q47.5 49.5 47.5 145.5 l0 456 l95 0 l0 -456 Z" /><glyph glyph-name="Udieresis" unicode="ü" d="M222 873 l90 0 l0 -104 l-90 0 l0 104 ZM410 873 l90 0 l0 -104 l-90 0 l0 104 ZM648 258 q0 -136 -72.5 -205 q-72.5 -69 -208.5 -69 q-293 0 -293 274 l0 456 l95 0 l0 -456 q0 -96 51 -145.5 q51 -49.5 147 -49.5 q91 0 138.5 49.5 q47.5 49.5 47.5 145.5 l0 456 l95 0 l0 -456 Z" /><glyph glyph-name="Yacute" unicode="ý" d="M349 908 l109 0 l-131 -143 l-64 0 l86 143 ZM373 292 l0 -292 l-95 0 l0 292 l-276 422 l113 0 l214 -340 l209 340 l108 0 l-273 -422 Z" /><glyph glyph-name="Thorn" unicode="þ" d="M173 258 l186 0 q156 -1 156 130 q0 67 -38 99.5 q-38 32.5 -118 32.5 l-186 0 l0 -262 ZM78 0 l0 714 l95 0 l0 -114 l218 0 q107 0 163 -55.5 q56 -55.5 56 -156.5 q0 -101 -56 -156 q-56 -55 -163 -54 l-218 0 l0 -178 l-95 0 Z" /><glyph glyph-name="germandbls" unicode="ß" d="M64 531 q0 90 54 145 q54 55 144 55 q81 0 144 -46.5 q63 -46.5 63 -128.5 q0 -122 -104 -155 l0 -2 q65 -8 100.5 -59 q35.5 -51 35.5 -120 q0 -104 -64 -167.5 q-64 -63.5 -167 -63.5 q-26 0 -43 4 l0 73 q11 -3 34 -3 q69 0 109.5 40 q40.5 40 40.5 106 q0 91 -44.5 120.5 q-44.5 29.5 -139.5 29.5 l0 68 q66 -4 109 23.5 q43 27.5 43 92.5 q0 47 -32 80 q-32 33 -79 33 q-57 0 -88 -31 q-31 -31 -31 -109 l0 -516 l-85 0 l0 531 Z" /><glyph glyph-name="agrave" unicode="à" d="M135 731 l109 0 l86 -143 l-64 0 l-131 143 ZM522 2 q-22 -13 -61 -13 q-72 0 -72 79 q-66 -79 -182 -79 q-76 0 -123.5 35 q-47.5 35 -47.5 109 q0 42 14 71.5 q14 29.5 41.5 46.5 q27.5 17 54 25.5 q26.5 8.5 65.5 15.5 q19 4 45 8 q26 4 42 6 q16 2 34.5 6.5 q18.5 4.5 28.5 11 q10 6.5 17 17.5 q7 11 7 27 q0 86 -115 86 q-124 0 -129 -98 l-85 0 q4 90 64 131.5 q60 41.5 155 41.5 q194 0 194 -142 l0 -266 q0 -35 4 -46.5 q4 -11.5 23 -11.5 q9 0 26 5 l0 -66 ZM384 267 q-20 -15 -67 -23 q-47 -8 -87.5 -11.5 q-40.5 -3.5 -72 -26.5 q-31.5 -23 -31.5 -67 q0 -39 28.5 -57.5 q28.5 -18.5 71.5 -18.5 q77 0 117.5 37 q40.5 37 40.5 80 l0 87 Z" /><glyph glyph-name="aacute" unicode="á" d="M294 731 l109 0 l-131 -143 l-64 0 l86 143 ZM522 2 q-22 -13 -61 -13 q-72 0 -72 79 q-66 -79 -182 -79 q-76 0 -123.5 35 q-47.5 35 -47.5 109 q0 42 14 71.5 q14 29.5 41.5 46.5 q27.5 17 54 25.5 q26.5 8.5 65.5 15.5 q19 4 45 8 q26 4 42 6 q16 2 34.5 6.5 q18.5 4.5 28.5 11 q10 6.5 17 17.5 q7 11 7 27 q0 86 -115 86 q-124 0 -129 -98 l-85 0 q4 90 64 131.5 q60 41.5 155 41.5 q194 0 194 -142 l0 -266 q0 -35 4 -46.5 q4 -11.5 23 -11.5 q9 0 26 5 l0 -66 ZM384 267 q-20 -15 -67 -23 q-47 -8 -87.5 -11.5 q-40.5 -3.5 -72 -26.5 q-31.5 -23 -31.5 -67 q0 -39 28.5 -57.5 q28.5 -18.5 71.5 -18.5 q77 0 117.5 37 q40.5 37 40.5 80 l0 87 Z" /><glyph glyph-name="acircumflex" unicode="â" d="M222 731 l93 0 l104 -143 l-84 0 l-69 96 l-70 -96 l-77 0 l103 143 ZM522 2 q-22 -13 -61 -13 q-72 0 -72 79 q-66 -79 -182 -79 q-76 0 -123.5 35 q-47.5 35 -47.5 109 q0 42 14 71.5 q14 29.5 41.5 46.5 q27.5 17 54 25.5 q26.5 8.5 65.5 15.5 q19 4 45 8 q26 4 42 6 q16 2 34.5 6.5 q18.5 4.5 28.5 11 q10 6.5 17 17.5 q7 11 7 27 q0 86 -115 86 q-124 0 -129 -98 l-85 0 q4 90 64 131.5 q60 41.5 155 41.5 q194 0 194 -142 l0 -266 q0 -35 4 -46.5 q4 -11.5 23 -11.5 q9 0 26 5 l0 -66 ZM384 267 q-20 -15 -67 -23 q-47 -8 -87.5 -11.5 q-40.5 -3.5 -72 -26.5 q-31.5 -23 -31.5 -67 q0 -39 28.5 -57.5 q28.5 -18.5 71.5 -18.5 q77 0 117.5 37 q40.5 37 40.5 80 l0 87 Z" /><glyph glyph-name="atilde" unicode="ã" d="M443 711 q-6 -46 -31 -80 q-28 -31 -79 -31 q-22 0 -66 20 q-51 19 -67 19 q-18 0 -34 -12.5 q-16 -12.5 -14 -29.5 l-52 0 q14 51 38 80.5 q24 29.5 67 29.5 q28 0 74 -20 q46 -20 66 -20 q31 0 46 44 l52 0 ZM522 2 q-22 -13 -61 -13 q-72 0 -72 79 q-66 -79 -182 -79 q-76 0 -123.5 35 q-47.5 35 -47.5 109 q0 42 14 71.5 q14 29.5 41.5 46.5 q27.5 17 54 25.5 q26.5 8.5 65.5 15.5 q19 4 45 8 q26 4 42 6 q16 2 34.5 6.5 q18.5 4.5 28.5 11 q10 6.5 17 17.5 q7 11 7 27 q0 86 -115 86 q-124 0 -129 -98 l-85 0 q4 90 64 131.5 q60 41.5 155 41.5 q194 0 194 -142 l0 -266 q0 -35 4 -46.5 q4 -11.5 23 -11.5 q9 0 26 5 l0 -66 ZM384 267 q-20 -15 -67 -23 q-47 -8 -87.5 -11.5 q-40.5 -3.5 -72 -26.5 q-31.5 -23 -31.5 -67 q0 -39 28.5 -57.5 q28.5 -18.5 71.5 -18.5 q77 0 117.5 37 q40.5 37 40.5 80 l0 87 Z" /><glyph glyph-name="adieresis" unicode="ä" d="M130 696 l90 0 l0 -104 l-90 0 l0 104 ZM318 696 l90 0 l0 -104 l-90 0 l0 104 ZM522 2 q-22 -13 -61 -13 q-72 0 -72 79 q-66 -79 -182 -79 q-76 0 -123.5 35 q-47.5 35 -47.5 109 q0 42 14 71.5 q14 29.5 41.5 46.5 q27.5 17 54 25.5 q26.5 8.5 65.5 15.5 q19 4 45 8 q26 4 42 6 q16 2 34.5 6.5 q18.5 4.5 28.5 11 q10 6.5 17 17.5 q7 11 7 27 q0 86 -115 86 q-124 0 -129 -98 l-85 0 q4 90 64 131.5 q60 41.5 155 41.5 q194 0 194 -142 l0 -266 q0 -35 4 -46.5 q4 -11.5 23 -11.5 q9 0 26 5 l0 -66 ZM384 267 q-20 -15 -67 -23 q-47 -8 -87.5 -11.5 q-40.5 -3.5 -72 -26.5 q-31.5 -23 -31.5 -67 q0 -39 28.5 -57.5 q28.5 -18.5 71.5 -18.5 q77 0 117.5 37 q40.5 37 40.5 80 l0 87 Z" /><glyph glyph-name="aring" unicode="å" d="M189.5 582.5 q-33.5 33.5 -33.5 79.5 q0 46 33.5 79.5 q33.5 33.5 79.5 33.5 q46 0 79.5 -33.5 q33.5 -33.5 33.5 -79.5 q0 -46 -33.5 -79.5 q-33.5 -33.5 -79.5 -33.5 q-46 0 -79.5 33.5 ZM220.5 710.5 q-19.5 -19.5 -19.5 -48.5 q0 -29 19.5 -48.5 q19.5 -19.5 48.5 -19.5 q29 0 48.5 19.5 q19.5 19.5 19.5 48.5 q0 29 -19.5 48.5 q-19.5 19.5 -48.5 19.5 q-29 0 -48.5 -19.5 ZM522 2 q-22 -13 -61 -13 q-72 0 -72 79 q-66 -79 -182 -79 q-76 0 -123.5 35 q-47.5 35 -47.5 109 q0 42 14 71.5 q14 29.5 41.5 46.5 q27.5 17 54 25.5 q26.5 8.5 65.5 15.5 q19 4 45 8 q26 4 42 6 q16 2 34.5 6.5 q18.5 4.5 28.5 11 q10 6.5 17 17.5 q7 11 7 27 q0 86 -115 86 q-124 0 -129 -98 l-85 0 q4 90 64 131.5 q60 41.5 155 41.5 q194 0 194 -142 l0 -266 q0 -35 4 -46.5 q4 -11.5 23 -11.5 q9 0 26 5 l0 -66 ZM384 267 q-20 -15 -67 -23 q-47 -8 -87.5 -11.5 q-40.5 -3.5 -72 -26.5 q-31.5 -23 -31.5 -67 q0 -39 28.5 -57.5 q28.5 -18.5 71.5 -18.5 q77 0 117.5 37 q40.5 37 40.5 80 l0 87 Z" /><glyph glyph-name="ae" unicode="æ" d="M467 233 q0 -73 40 -121.5 q40 -48.5 115 -48.5 q50 0 84.5 25.5 q34.5 25.5 46.5 74.5 l87 0 q-19 -84 -77.5 -129 q-58.5 -45 -146.5 -45 q-142 0 -187 100 q-55 -100 -218 -100 q-80 0 -127.5 34.5 q-47.5 34.5 -47.5 109.5 q0 42 14 71.5 q14 29.5 41.5 46.5 q27.5 17 54 25.5 q26.5 8.5 65.5 15.5 q20 4 48.5 9 q28.5 5 41.5 7 q13 2 31 6.5 q18 4.5 25.5 9 q7.5 4.5 16 11.5 q8.5 7 11 16.5 q2.5 9.5 2.5 22.5 q0 47 -32.5 63.5 q-32.5 16.5 -84.5 16.5 q-124 0 -129 -98 l-85 0 q4 90 64 131.5 q60 41.5 155 41.5 q136 0 173 -75 q50 75 165 75 q233 0 233 -296 l-379 0 ZM126 139 q0 -39 28.5 -57.5 q28.5 -18.5 71.5 -18.5 q77 0 119 37.5 q42 37.5 42 79.5 l0 87 q-16 -9 -41 -15 q-25 -6 -62.5 -11.5 q-37.5 -5.5 -53.5 -8.5 q-50 -10 -77 -29.5 q-27 -19.5 -27 -63.5 ZM756 308 q-2 64 -39.5 105 q-37.5 41 -103.5 41 q-67 0 -106.5 -41 q-39.5 -41 -39.5 -105 l289 0 Z" /><glyph glyph-name="ccedilla" unicode="ç" d="M415 351 q-21 103 -128 103 q-85 0 -123 -57 q-38 -57 -38 -145 q0 -80 37.5 -134.5 q37.5 -54.5 113.5 -54.5 q125 0 142 126 l87 0 q-14 -92 -68.5 -143.5 q-54.5 -51.5 -144.5 -55.5 l-33 -42 l2 -2 q10 7 33 7 q35 0 59.5 -19 q24.5 -19 24.5 -54 q0 -46 -37.5 -67.5 q-37.5 -21.5 -86.5 -21.5 q-38 0 -92 19 l18 44 q30 -13 61 -13 q24 0 43 7.5 q19 7.5 19 23.5 q0 14 -13 22.5 q-13 8.5 -34 8.5 q-17 0 -41 -8 l-17 28 l53 68 q-104 8 -160 78.5 q-56 70.5 -56 182.5 q0 122 63 199.5 q63 77.5 181 77.5 q92 0 153 -44.5 q61 -44.5 70 -133.5 l-88 0 Z" /><glyph glyph-name="egrave" unicode="è" d="M135 731 l109 0 l86 -143 l-64 0 l-131 143 ZM423 308 q-4 62 -45.5 104 q-41.5 42 -103.5 42 q-64 0 -104 -42 q-40 -42 -44 -104 l297 0 ZM505 164 q-17 -86 -74.5 -130.5 q-57.5 -44.5 -146.5 -44.5 q-119 0 -181.5 73.5 q-62.5 73.5 -66.5 197.5 q0 117 68.5 193 q68.5 76 174.5 76 q53 0 95 -19 q42 -19 68 -49 q26 -30 43 -70 q17 -40 23.5 -79.5 q6.5 -39.5 4.5 -78.5 l-387 0 q-2 -72 39 -121 q41 -49 122 -49 q112 0 134 101 l84 0 Z" /><glyph glyph-name="eacute" unicode="é" d="M294 731 l109 0 l-131 -143 l-64 0 l86 143 ZM423 308 q-4 62 -45.5 104 q-41.5 42 -103.5 42 q-64 0 -104 -42 q-40 -42 -44 -104 l297 0 ZM505 164 q-17 -86 -74.5 -130.5 q-57.5 -44.5 -146.5 -44.5 q-119 0 -181.5 73.5 q-62.5 73.5 -66.5 197.5 q0 117 68.5 193 q68.5 76 174.5 76 q53 0 95 -19 q42 -19 68 -49 q26 -30 43 -70 q17 -40 23.5 -79.5 q6.5 -39.5 4.5 -78.5 l-387 0 q-2 -72 39 -121 q41 -49 122 -49 q112 0 134 101 l84 0 Z" /><glyph glyph-name="ecircumflex" unicode="ê" d="M222 731 l93 0 l104 -143 l-84 0 l-69 96 l-70 -96 l-77 0 l103 143 ZM423 308 q-4 62 -45.5 104 q-41.5 42 -103.5 42 q-64 0 -104 -42 q-40 -42 -44 -104 l297 0 ZM505 164 q-17 -86 -74.5 -130.5 q-57.5 -44.5 -146.5 -44.5 q-119 0 -181.5 73.5 q-62.5 73.5 -66.5 197.5 q0 117 68.5 193 q68.5 76 174.5 76 q53 0 95 -19 q42 -19 68 -49 q26 -30 43 -70 q17 -40 23.5 -79.5 q6.5 -39.5 4.5 -78.5 l-387 0 q-2 -72 39 -121 q41 -49 122 -49 q112 0 134 101 l84 0 Z" /><glyph glyph-name="edieresis" unicode="ë" d="M130 696 l90 0 l0 -104 l-90 0 l0 104 ZM318 696 l90 0 l0 -104 l-90 0 l0 104 ZM423 308 q-4 62 -45.5 104 q-41.5 42 -103.5 42 q-64 0 -104 -42 q-40 -42 -44 -104 l297 0 ZM505 164 q-17 -86 -74.5 -130.5 q-57.5 -44.5 -146.5 -44.5 q-119 0 -181.5 73.5 q-62.5 73.5 -66.5 197.5 q0 117 68.5 193 q68.5 76 174.5 76 q53 0 95 -19 q42 -19 68 -49 q26 -30 43 -70 q17 -40 23.5 -79.5 q6.5 -39.5 4.5 -78.5 l-387 0 q-2 -72 39 -121 q41 -49 122 -49 q112 0 134 101 l84 0 Z" /><glyph glyph-name="igrave" unicode="ì" d="M-22 731 l108 0 l86 -143 l-64 0 l-130 143 ZM69 0 l0 517 l85 0 l0 -517 l-85 0 Z" /><glyph glyph-name="iacute" unicode="í" d="M136 731 l109 0 l-131 -143 l-64 0 l86 143 ZM69 0 l0 517 l85 0 l0 -517 l-85 0 Z" /><glyph glyph-name="icircumflex" unicode="î" d="M64 731 l93 0 l104 -143 l-84 0 l-69 96 l-70 -96 l-76 0 l102 143 ZM69 0 l0 517 l85 0 l0 -517 l-85 0 Z" /><glyph glyph-name="idieresis" unicode="ï" d="M-27 696 l89 0 l0 -104 l-89 0 l0 104 ZM160 696 l90 0 l0 -104 l-90 0 l0 104 ZM69 0 l0 517 l85 0 l0 -517 l-85 0 Z" /><glyph glyph-name="eth" unicode="ð" d="M282 431 q-75 0 -115.5 -47 q-40.5 -47 -40.5 -126 q0 -91 46 -143 q46 -52 115 -52 q69 0 115 52 q46 52 46 143 q0 75 -41.5 124 q-41.5 49 -124.5 49 ZM272 506 q90 0 139 -56 l2 0 q-22 47 -58.5 90 q-36.5 43 -63.5 61 l-115 -54 l-38 40 l109 51 q-23 21 -70 48 l70 45 q42 -28 77 -56 l120 56 l35 -37 l-115 -53 q174 -144 174 -383 q0 -118 -66 -193.5 q-66 -75.5 -185 -75.5 q-119 0 -185 75.5 q-66 75.5 -66 193.5 q0 103 63.5 175.5 q63.5 72.5 172.5 72.5 Z" /><glyph glyph-name="ntilde" unicode="ñ" d="M452 711 q-6 -46 -31 -80 q-28 -31 -79 -31 q-22 0 -66 20 q-51 19 -67 19 q-18 0 -34 -12.5 q-16 -12.5 -14 -29.5 l-52 0 q14 51 38 80.5 q24 29.5 67 29.5 q28 0 74 -20 q46 -20 66 -20 q31 0 46 44 l52 0 ZM64 517 l80 0 l0 -82 l2 0 q52 94 168 94 q96 0 137 -49.5 q41 -49.5 41 -139.5 l0 -340 l-85 0 l0 350 q0 48 -28 76 q-28 28 -77 28 q-75 0 -114 -44.5 q-39 -44.5 -39 -117.5 l0 -292 l-85 0 l0 517 Z" /><glyph glyph-name="ograve" unicode="ò" d="M153 731 l109 0 l86 -143 l-64 0 l-131 143 ZM172 401.5 q-46 -52.5 -46 -143.5 q0 -91 46 -143 q46 -52 115 -52 q69 0 115 52 q46 52 46 143 q0 91 -46 143.5 q-46 52.5 -115 52.5 q-69 0 -115 -52.5 ZM36 258 q0 119 66 195 q66 76 185 76 q119 0 185 -76 q66 -76 66 -195 q0 -118 -66 -193.5 q-66 -75.5 -185 -75.5 q-119 0 -185 75.5 q-66 75.5 -66 193.5 Z" /><glyph glyph-name="oacute" unicode="ó" d="M312 731 l109 0 l-131 -143 l-64 0 l86 143 ZM172 401.5 q-46 -52.5 -46 -143.5 q0 -91 46 -143 q46 -52 115 -52 q69 0 115 52 q46 52 46 143 q0 91 -46 143.5 q-46 52.5 -115 52.5 q-69 0 -115 -52.5 ZM36 258 q0 119 66 195 q66 76 185 76 q119 0 185 -76 q66 -76 66 -195 q0 -118 -66 -193.5 q-66 -75.5 -185 -75.5 q-119 0 -185 75.5 q-66 75.5 -66 193.5 Z" /><glyph glyph-name="ocircumflex" unicode="ô" d="M240 731 l93 0 l104 -143 l-84 0 l-69 96 l-70 -96 l-77 0 l103 143 ZM172 401.5 q-46 -52.5 -46 -143.5 q0 -91 46 -143 q46 -52 115 -52 q69 0 115 52 q46 52 46 143 q0 91 -46 143.5 q-46 52.5 -115 52.5 q-69 0 -115 -52.5 ZM36 258 q0 119 66 195 q66 76 185 76 q119 0 185 -76 q66 -76 66 -195 q0 -118 -66 -193.5 q-66 -75.5 -185 -75.5 q-119 0 -185 75.5 q-66 75.5 -66 193.5 Z" /><glyph glyph-name="otilde" unicode="õ" d="M461 711 q-6 -46 -31 -80 q-28 -31 -79 -31 q-22 0 -66 20 q-51 19 -67 19 q-18 0 -34 -12.5 q-16 -12.5 -14 -29.5 l-52 0 q14 51 38 80.5 q24 29.5 67 29.5 q28 0 74 -20 q46 -20 66 -20 q31 0 46 44 l52 0 ZM172 401.5 q-46 -52.5 -46 -143.5 q0 -91 46 -143 q46 -52 115 -52 q69 0 115 52 q46 52 46 143 q0 91 -46 143.5 q-46 52.5 -115 52.5 q-69 0 -115 -52.5 ZM36 258 q0 119 66 195 q66 76 185 76 q119 0 185 -76 q66 -76 66 -195 q0 -118 -66 -193.5 q-66 -75.5 -185 -75.5 q-119 0 -185 75.5 q-66 75.5 -66 193.5 Z" /><glyph glyph-name="odieresis" unicode="ö" d="M148 696 l90 0 l0 -104 l-90 0 l0 104 ZM336 696 l90 0 l0 -104 l-90 0 l0 104 ZM172 401.5 q-46 -52.5 -46 -143.5 q0 -91 46 -143 q46 -52 115 -52 q69 0 115 52 q46 52 46 143 q0 91 -46 143.5 q-46 52.5 -115 52.5 q-69 0 -115 -52.5 ZM36 258 q0 119 66 195 q66 76 185 76 q119 0 185 -76 q66 -76 66 -195 q0 -118 -66 -193.5 q-66 -75.5 -185 -75.5 q-119 0 -185 75.5 q-66 75.5 -66 193.5 Z" /><glyph glyph-name="divide" unicode="÷" d="M255.5 2.5 q-19.5 18.5 -19.5 44.5 q0 26 19 45 q19 19 45 19 q26 0 45 -19 q19 -19 19 -45 q0 -24 -19 -43.5 q-19 -19.5 -44 -19.5 q-26 0 -45.5 18.5 ZM255.5 414 q-19.5 19 -19.5 45 q0 26 19 45 q19 19 45 19 q26 0 45 -19 q19 -19 19 -45 q0 -24 -19 -44 q-19 -20 -44 -20 q-26 0 -45.5 19 ZM48 287 l504 0 l0 -68 l-504 0 l0 68 Z" /><glyph glyph-name="oslash" unicode="ø" d="M480 443 q58 -70 58 -185 q0 -118 -66 -193.5 q-66 -75.5 -185 -75.5 q-101 0 -165 56 l-60 -66 l-28 23 l62 69 q-60 73 -60 187 q0 119 66 195 q66 76 185 76 q103 0 168 -59 l58 65 l27 -26 l-60 -66 ZM178 108 q45 -45 109 -45 q69 0 115 52 q46 52 46 143 q0 68 -28 119 l-242 -269 ZM398 407 q-44 47 -111 47 q-69 0 -115 -52.5 q-46 -52.5 -46 -143.5 q0 -69 30 -121 l242 270 Z" /><glyph glyph-name="ugrave" unicode="ù" d="M144 731 l109 0 l86 -143 l-64 0 l-131 143 ZM492 0 l-80 0 l0 82 l-2 0 q-52 -93 -168 -93 q-97 0 -137.5 49 q-40.5 49 -40.5 139 l0 340 l85 0 l0 -350 q0 -48 28 -76 q28 -28 77 -28 q75 0 114 44.5 q39 44.5 39 117.5 l0 292 l85 0 l0 -517 Z" /><glyph glyph-name="uacute" unicode="ú" d="M303 731 l109 0 l-131 -143 l-64 0 l86 143 ZM492 0 l-80 0 l0 82 l-2 0 q-52 -93 -168 -93 q-97 0 -137.5 49 q-40.5 49 -40.5 139 l0 340 l85 0 l0 -350 q0 -48 28 -76 q28 -28 77 -28 q75 0 114 44.5 q39 44.5 39 117.5 l0 292 l85 0 l0 -517 Z" /><glyph glyph-name="ucircumflex" unicode="û" d="M231 731 l93 0 l104 -143 l-84 0 l-69 96 l-70 -96 l-77 0 l103 143 ZM492 0 l-80 0 l0 82 l-2 0 q-52 -93 -168 -93 q-97 0 -137.5 49 q-40.5 49 -40.5 139 l0 340 l85 0 l0 -350 q0 -48 28 -76 q28 -28 77 -28 q75 0 114 44.5 q39 44.5 39 117.5 l0 292 l85 0 l0 -517 Z" /><glyph glyph-name="udieresis" unicode="ü" d="M139 696 l90 0 l0 -104 l-90 0 l0 104 ZM327 696 l90 0 l0 -104 l-90 0 l0 104 ZM492 0 l-80 0 l0 82 l-2 0 q-52 -93 -168 -93 q-97 0 -137.5 49 q-40.5 49 -40.5 139 l0 340 l85 0 l0 -350 q0 -48 28 -76 q28 -28 77 -28 q75 0 114 44.5 q39 44.5 39 117.5 l0 292 l85 0 l0 -517 Z" /><glyph glyph-name="yacute" unicode="ý" d="M275 731 l109 0 l-131 -143 l-64 0 l86 143 ZM267 -68 q-31 -77 -62.5 -107.5 q-31.5 -30.5 -87.5 -30.5 q-35 0 -59 9 l0 78 q38 -12 50 -12 q46 0 70 47 l35 87 l-205 514 l96 0 l151 -423 l2 0 l145 423 l90 0 l-225 -585 Z" /><glyph glyph-name="thorn" unicode="þ" d="M152 447 l2 0 q40 82 165 82 q114 0 176 -78 q62 -78 62 -194 q0 -117 -61 -192.5 q-61 -75.5 -175 -75.5 q-47 0 -94.5 19 q-47.5 19 -72.5 61 l-2 0 l0 -266 l-85 0 l0 911 l85 0 l0 -267 ZM467 263 q0 79 -41 135 q-41 56 -119 56 q-80 0 -119 -57 q-39 -57 -39 -138 q0 -83 40.5 -139.5 q40.5 -56.5 122.5 -56.5 q81 0 118 57.5 q37 57.5 37 142.5 Z" /><glyph glyph-name="ydieresis" unicode="ÿ" d="M111 696 l90 0 l0 -104 l-90 0 l0 104 ZM299 696 l90 0 l0 -104 l-90 0 l0 104 ZM267 -68 q-31 -77 -62.5 -107.5 q-31.5 -30.5 -87.5 -30.5 q-35 0 -59 9 l0 78 q38 -12 50 -12 q46 0 70 47 l35 87 l-205 514 l96 0 l151 -423 l2 0 l145 423 l90 0 l-225 -585 Z" /><glyph glyph-name="uni0100" unicode="&#x100;" d="M-7 0 l279 714 l105 0 l279 -714 l-105 0 l-78 215 l-302 0 l-80 -215 l-98 0 ZM201 295 l242 0 l-119 333 l-2 0 l-121 -333 ZM155 817 l0 55 l341 0 l0 -55 l-341 0 Z" /><glyph glyph-name="uni0101" unicode="&#x101;" d="M522 68 l0 -66 q-23 -14 -61 -14 q-72 0 -72 80 q-67 -80 -182 -80 q-76 0 -123.5 35.5 q-47.5 35.5 -47.5 109.5 q0 42 14 71.5 q14 29.5 41.5 46.5 q27.5 17 54 25.5 q26.5 8.5 65.5 15.5 q19 4 45 8 q26 4 42 6 q16 2 34.5 6.5 q18.5 4.5 28.5 11 q10 6.5 17 17.5 q7 11 7 27 q0 86 -115 86 q-124 0 -129 -98 l-85 0 q4 90 64 131.5 q60 41.5 155 41.5 q194 0 194 -142 l0 -266 q0 -35 4 -46.5 q4 -11.5 23 -11.5 q9 0 26 5 ZM384 180 l0 87 q-20 -15 -67 -23 q-47 -8 -87.5 -11.5 q-40.5 -3.5 -72 -26.5 q-31.5 -23 -31.5 -67 q0 -39 28.5 -57.5 q28.5 -18.5 71.5 -18.5 q77 0 117.5 37 q40.5 37 40.5 80 ZM102 627 l0 55 l341 0 l0 -55 l-341 0 Z" /><glyph glyph-name="uni0102" unicode="&#x102;" d="M-7 0 l279 714 l105 0 l279 -714 l-105 0 l-78 215 l-302 0 l-80 -215 l-98 0 ZM201 295 l242 0 l-119 333 l-2 0 l-121 -333 ZM169 919 l50 0 q24 -83 112 -83 q40 0 61 20 q21 20 38 63 l51 0 q-11 -65 -52 -101.5 q-41 -36.5 -106 -36.5 q-134 0 -154 138 Z" /><glyph glyph-name="uni0103" unicode="&#x103;" d="M522 68 l0 -66 q-23 -14 -61 -14 q-72 0 -72 80 q-67 -80 -182 -80 q-76 0 -123.5 35.5 q-47.5 35.5 -47.5 109.5 q0 42 14 71.5 q14 29.5 41.5 46.5 q27.5 17 54 25.5 q26.5 8.5 65.5 15.5 q19 4 45 8 q26 4 42 6 q16 2 34.5 6.5 q18.5 4.5 28.5 11 q10 6.5 17 17.5 q7 11 7 27 q0 86 -115 86 q-124 0 -129 -98 l-85 0 q4 90 64 131.5 q60 41.5 155 41.5 q194 0 194 -142 l0 -266 q0 -35 4 -46.5 q4 -11.5 23 -11.5 q9 0 26 5 ZM384 180 l0 87 q-20 -15 -67 -23 q-47 -8 -87.5 -11.5 q-40.5 -3.5 -72 -26.5 q-31.5 -23 -31.5 -67 q0 -39 28.5 -57.5 q28.5 -18.5 71.5 -18.5 q77 0 117.5 37 q40.5 37 40.5 80 ZM116 729 l50 0 q24 -83 112 -83 q40 0 61 20 q21 20 38 63 l51 0 q-11 -65 -52 -101.5 q-41 -36.5 -106 -36.5 q-134 0 -154 138 Z" /><glyph glyph-name="Aogonek" unicode="&#x104;" d="M548 -209 q-92 0 -92 82 q0 61 109 127 l-14 0 l-78 215 l-302 0 l-80 -215 l-97 0 l278 714 l105 0 l279 -714 l-50 0 q-82 -70 -82 -117 q0 -17 9.5 -29.5 q9.5 -12.5 28.5 -12.5 q38 0 62 30 l32 -18 q-36 -62 -108 -62 ZM201 295 l242 0 l-119 333 l-2 0 l-121 -333 Z" /><glyph glyph-name="aogonek" unicode="&#x105;" d="M414 -209 q-92 0 -92 82 q0 8 3.5 19 q3.5 11 13 27.5 q9.5 16.5 31.5 36.5 q22 20 54 40 q-35 17 -35 72 q-66 -79 -182 -79 q-76 0 -123.5 35 q-47.5 35 -47.5 109 q0 42 14 71.5 q14 29.5 41.5 46.5 q27.5 17 54 25.5 q26.5 8.5 65.5 15.5 q19 4 45 8 q26 4 42 6 q16 2 34.5 6.5 q18.5 4.5 28.5 11 q10 6.5 17 17.5 q7 11 7 27 q0 86 -115 86 q-124 0 -129 -98 l-85 0 q4 90 64 131.5 q60 41.5 155 41.5 q194 0 194 -142 l0 -266 q0 -35 4 -46.5 q4 -11.5 23 -11.5 q8 0 26 5 l0 -66 q-22 -13 -61 -13 l-2 0 q-69 -60 -69 -106 q0 -17 9.5 -29.5 q9.5 -12.5 28.5 -12.5 q38 0 62 30 l32 -18 q-36 -62 -108 -62 ZM226 63 q77 0 117.5 37 q40.5 37 40.5 80 l0 87 q-20 -15 -67 -23 q-47 -8 -87.5 -11.5 q-40.5 -3.5 -72 -26.5 q-31.5 -23 -31.5 -67 q0 -39 28.5 -57.5 q28.5 -18.5 71.5 -18.5 Z" /><glyph glyph-name="Cacute" unicode="&#x106;" d="M675 499 l-95 0 q-15 74 -69 113 q-54 39 -131 39 q-120 0 -181 -83.5 q-61 -83.5 -61 -205.5 q0 -131 60.5 -215 q60.5 -84 182.5 -84 q91 0 145.5 57.5 q54.5 57.5 60.5 148.5 l95 0 q-14 -136 -93.5 -210.5 q-79.5 -74.5 -215.5 -74.5 q-160 0 -245 103.5 q-85 103.5 -85 267.5 q0 163 89.5 269.5 q89.5 106.5 248.5 106.5 q116 0 197.5 -60.5 q81.5 -60.5 96.5 -171.5 ZM389 908 l109 0 l-131 -143 l-64 0 l86 143 Z" /><glyph glyph-name="cacute" unicode="&#x107;" d="M503 351 l-88 0 q-21 103 -128 103 q-85 0 -123 -57 q-38 -57 -38 -145 q0 -80 37.5 -134.5 q37.5 -54.5 113.5 -54.5 q125 0 142 126 l87 0 q-14 -97 -72 -148.5 q-58 -51.5 -156 -51.5 q-116 0 -179 71.5 q-63 71.5 -63 191.5 q0 122 63 199.5 q63 77.5 181 77.5 q92 0 153 -44.5 q61 -44.5 70 -133.5 ZM297 731 l109 0 l-131 -143 l-64 0 l86 143 Z" /><glyph glyph-name="uni0108" unicode="&#x108;" d="M43 355 q0 163 89.5 269.5 q89.5 106.5 248.5 106.5 q116 0 197.5 -60.5 q81.5 -60.5 96.5 -171.5 l-95 0 q-15 74 -69 113 q-54 39 -131 39 q-120 0 -181 -83.5 q-61 -83.5 -61 -205.5 q0 -131 60.5 -215 q60.5 -84 182.5 -84 q91 0 145.5 57.5 q54.5 57.5 60.5 148.5 l95 0 q-14 -136 -93.5 -211 q-79.5 -75 -215.5 -75 q-159 0 -244.5 104 q-85.5 104 -85.5 268 ZM231 779 l103 143 l93 0 l104 -143 l-84 0 l-69 96 l-70 -96 l-77 0 Z" /><glyph glyph-name="uni0109" unicode="&#x109;" d="M503 351 l-88 0 q-21 103 -128 103 q-85 0 -123 -57 q-38 -57 -38 -145 q0 -80 37.5 -134.5 q37.5 -54.5 113.5 -54.5 q125 0 142 126 l87 0 q-14 -97 -72 -149 q-58 -52 -156 -52 q-116 0 -179 72.5 q-63 72.5 -63 191.5 q0 122 63 199.5 q63 77.5 181 77.5 q92 0 153 -44.5 q61 -44.5 70 -133.5 ZM135 589 l103 143 l93 0 l104 -143 l-84 0 l-69 96 l-70 -96 l-77 0 Z" /><glyph glyph-name="uni010A" unicode="&#x10a;" d="M43 355 q0 163 89.5 269.5 q89.5 106.5 248.5 106.5 q116 0 197.5 -60.5 q81.5 -60.5 96.5 -171.5 l-95 0 q-15 74 -69 113 q-54 39 -131 39 q-120 0 -181 -83.5 q-61 -83.5 -61 -205.5 q0 -131 60.5 -215 q60.5 -84 182.5 -84 q91 0 145.5 57.5 q54.5 57.5 60.5 148.5 l95 0 q-14 -136 -93.5 -211 q-79.5 -75 -215.5 -75 q-159 0 -244.5 104 q-85.5 104 -85.5 268 ZM425 897 l0 -104 l-90 0 l0 104 l90 0 Z" /><glyph glyph-name="uni010B" unicode="&#x10b;" d="M503 351 l-88 0 q-21 103 -128 103 q-85 0 -123 -57 q-38 -57 -38 -145 q0 -80 37.5 -134.5 q37.5 -54.5 113.5 -54.5 q125 0 142 126 l87 0 q-14 -97 -72 -149 q-58 -52 -156 -52 q-116 0 -179 72.5 q-63 72.5 -63 191.5 q0 122 63 199.5 q63 77.5 181 77.5 q92 0 153 -44.5 q61 -44.5 70 -133.5 ZM329 708 l0 -104 l-90 0 l0 104 l90 0 Z" /><glyph glyph-name="Ccaron" unicode="&#x10c;" d="M43 355 q0 163 89.5 269.5 q89.5 106.5 248.5 106.5 q116 0 197.5 -60.5 q81.5 -60.5 96.5 -171.5 l-95 0 q-15 74 -69 113 q-54 39 -131 39 q-120 0 -181 -83.5 q-61 -83.5 -61 -205.5 q0 -131 60.5 -215 q60.5 -84 182.5 -84 q91 0 145.5 57.5 q54.5 57.5 60.5 148.5 l95 0 q-14 -136 -93.5 -211 q-79.5 -75 -215.5 -75 q-159 0 -244.5 104 q-85.5 104 -85.5 268 ZM530 922 l-103 -143 l-93 0 l-104 143 l84 0 l69 -96 l70 96 l77 0 Z" /><glyph glyph-name="ccaron" unicode="&#x10d;" d="M503 351 l-88 0 q-21 103 -128 103 q-85 0 -123 -57 q-38 -57 -38 -145 q0 -80 37.5 -134.5 q37.5 -54.5 113.5 -54.5 q125 0 142 126 l87 0 q-14 -97 -72 -149 q-58 -52 -156 -52 q-116 0 -179 72.5 q-63 72.5 -63 191.5 q0 122 63 199.5 q63 77.5 181 77.5 q92 0 153 -44.5 q61 -44.5 70 -133.5 ZM430 732 l-103 -143 l-93 0 l-104 143 l84 0 l69 -96 l70 96 l77 0 Z" /><glyph glyph-name="uni010E" unicode="&#x10e;" d="M78 0 l0 714 l245 0 q167 0 255 -85 q88 -85 88 -255 q0 -374 -343 -374 l-245 0 ZM173 80 l158 0 q26 0 50.5 3.5 q24.5 3.5 61.5 20 q37 16.5 63 44.5 q26 28 45.5 83 q19.5 55 19.5 130 q0 134 -56 203.5 q-56 69.5 -182 69.5 l-160 0 l0 -554 ZM465 922 l-103 -143 l-93 0 l-104 143 l84 0 l69 -96 l70 96 l77 0 Z" /><glyph glyph-name="uni010F" unicode="&#x10f;" d="M526 714 l0 -714 l-85 0 l0 70 l-2 0 q-40 -82 -165 -82 q-114 0 -176 78 q-62 78 -62 194 q0 116 61.5 192.5 q61.5 76.5 174.5 76.5 q46 0 94 -19.5 q48 -19.5 73 -61.5 l2 0 l0 266 l85 0 ZM126 254 q0 -79 41 -135 q41 -56 119 -56 q80 0 119 57 q39 57 39 138 q0 83 -40.5 139.5 q-40.5 56.5 -122.5 56.5 q-81 0 -118 -57.5 q-37 -57.5 -37 -142.5 ZM576 571 l26 143 l109 0 l-75 -143 l-60 0 Z" /><glyph glyph-name="uni0110" unicode="&#x110;" d="M78 0 l0 341 l-70 0 l0 64 l70 0 l0 309 l245 0 q167 0 255 -85 q88 -85 88 -255 q0 -374 -343 -374 l-245 0 ZM173 634 l0 -229 l214 0 l0 -64 l-214 0 l0 -261 l158 0 q26 0 50.5 3.5 q24.5 3.5 61.5 20 q37 16.5 63 44.5 q26 28 45.5 83 q19.5 55 19.5 130 q0 134 -56 203.5 q-56 69.5 -182 69.5 l-160 0 Z" /><glyph glyph-name="dcroat" unicode="&#x111;" d="M271 583 l0 53 l170 0 l0 78 l85 0 l0 -78 l86 0 l0 -53 l-86 0 l0 -583 l-85 0 l0 70 l-2 0 q-40 -82 -165 -82 q-114 0 -176 78 q-62 78 -62 194 q0 116 61.5 192.5 q61.5 76.5 174.5 76.5 q46 0 94 -19.5 q48 -19.5 73 -61.5 l2 0 l0 135 l-170 0 ZM126 254 q0 -79 41 -135 q41 -56 119 -56 q80 0 119 57 q39 57 39 138 q0 83 -40.5 139.5 q-40.5 56.5 -122.5 56.5 q-81 0 -118 -57.5 q-37 -57.5 -37 -142.5 Z" /><glyph glyph-name="uni0112" unicode="&#x112;" d="M78 0 l0 714 l493 0 l0 -80 l-398 0 l0 -227 l371 0 l0 -80 l-371 0 l0 -247 l401 0 l0 -80 l-496 0 ZM149 817 l0 55 l341 0 l0 -55 l-341 0 Z" /><glyph glyph-name="uni0113" unicode="&#x113;" d="M421 164 l84 0 q-17 -86 -74.5 -131 q-57.5 -45 -146.5 -45 q-119 0 -181.5 74 q-62.5 74 -66.5 198 q0 117 68.5 193 q68.5 76 174.5 76 q53 0 95 -19 q42 -19 68 -49 q26 -30 43 -70 q17 -40 23.5 -79.5 q6.5 -39.5 4.5 -78.5 l-387 0 q-2 -72 39 -121 q41 -49 122 -49 q112 0 134 101 ZM126 308 l297 0 q-4 62 -45.5 104 q-41.5 42 -103.5 42 q-64 0 -104 -42 q-40 -42 -44 -104 ZM111 627 l0 55 l341 0 l0 -55 l-341 0 Z" /><glyph glyph-name="uni0114" unicode="&#x114;" d="M78 0 l0 714 l493 0 l0 -80 l-398 0 l0 -227 l371 0 l0 -80 l-371 0 l0 -247 l401 0 l0 -80 l-496 0 ZM163 919 l50 0 q24 -83 112 -83 q40 0 61 20 q21 20 38 63 l51 0 q-11 -65 -52 -101.5 q-41 -36.5 -106 -36.5 q-134 0 -154 138 Z" /><glyph glyph-name="uni0115" unicode="&#x115;" d="M421 164 l84 0 q-17 -86 -74.5 -131 q-57.5 -45 -146.5 -45 q-119 0 -181.5 74 q-62.5 74 -66.5 198 q0 117 68.5 193 q68.5 76 174.5 76 q53 0 95 -19 q42 -19 68 -49 q26 -30 43 -70 q17 -40 23.5 -79.5 q6.5 -39.5 4.5 -78.5 l-387 0 q-2 -72 39 -121 q41 -49 122 -49 q112 0 134 101 ZM126 308 l297 0 q-4 62 -45.5 104 q-41.5 42 -103.5 42 q-64 0 -104 -42 q-40 -42 -44 -104 ZM125 729 l50 0 q24 -83 112 -83 q40 0 61 20 q21 20 38 63 l51 0 q-11 -65 -52 -101.5 q-41 -36.5 -106 -36.5 q-134 0 -154 138 Z" /><glyph glyph-name="uni0116" unicode="&#x116;" d="M78 0 l0 714 l493 0 l0 -80 l-398 0 l0 -227 l371 0 l0 -80 l-371 0 l0 -247 l401 0 l0 -80 l-496 0 ZM364 897 l0 -104 l-90 0 l0 104 l90 0 Z" /><glyph glyph-name="uni0117" unicode="&#x117;" d="M421 164 l84 0 q-17 -86 -74.5 -131 q-57.5 -45 -146.5 -45 q-119 0 -181.5 74 q-62.5 74 -66.5 198 q0 117 68.5 193 q68.5 76 174.5 76 q53 0 95 -19 q42 -19 68 -49 q26 -30 43 -70 q17 -40 23.5 -79.5 q6.5 -39.5 4.5 -78.5 l-387 0 q-2 -72 39 -121 q41 -49 122 -49 q112 0 134 101 ZM126 308 l297 0 q-4 62 -45.5 104 q-41.5 42 -103.5 42 q-64 0 -104 -42 q-40 -42 -44 -104 ZM326 708 l0 -104 l-90 0 l0 104 l90 0 Z" /><glyph glyph-name="Eogonek" unicode="&#x118;" d="M466 -209 q-92 0 -92 82 q0 61 109 127 l-405 0 l0 714 l493 0 l0 -80 l-398 0 l0 -227 l371 0 l0 -80 l-371 0 l0 -247 l401 0 l0 -80 l-50 0 q-82 -70 -82 -117 q0 -17 9.5 -29.5 q9.5 -12.5 28.5 -12.5 q38 0 62 30 l32 -18 q-36 -62 -108 -62 Z" /><glyph glyph-name="eogonek" unicode="&#x119;" d="M250 -209 q-92 0 -92 82 q0 12 5 26.5 q5 14.5 27.5 41 q22.5 26.5 60.5 50.5 q-103 9 -158 82 q-55 73 -57 187 q0 117 68.5 193 q68.5 76 174.5 76 q53 0 95 -19 q42 -19 68 -49 q26 -30 43 -70 q17 -40 23.5 -79.5 q6.5 -39.5 4.5 -78.5 l-387 0 q-2 -72 39 -121 q41 -49 122 -49 q112 0 134 101 l84 0 q-17 -84 -71 -128 q-54 -44 -138 -47 q-70 -60 -70 -106 q0 -17 9.5 -29.5 q9.5 -12.5 28.5 -12.5 q38 0 62 30 l32 -18 q-36 -62 -108 -62 ZM126 308 l297 0 q-4 62 -45.5 104 q-41.5 42 -103.5 42 q-64 0 -104 -42 q-40 -42 -44 -104 Z" /><glyph glyph-name="uni011A" unicode="&#x11a;" d="M78 0 l0 714 l493 0 l0 -80 l-398 0 l0 -227 l371 0 l0 -80 l-371 0 l0 -247 l401 0 l0 -80 l-496 0 ZM469 922 l-103 -143 l-93 0 l-104 143 l84 0 l69 -96 l70 96 l77 0 Z" /><glyph glyph-name="uni011B" unicode="&#x11b;" d="M421 164 l84 0 q-17 -86 -74.5 -131 q-57.5 -45 -146.5 -45 q-119 0 -181.5 74 q-62.5 74 -66.5 198 q0 117 68.5 193 q68.5 76 174.5 76 q53 0 95 -19 q42 -19 68 -49 q26 -30 43 -70 q17 -40 23.5 -79.5 q6.5 -39.5 4.5 -78.5 l-387 0 q-2 -72 39 -121 q41 -49 122 -49 q112 0 134 101 ZM126 308 l297 0 q-4 62 -45.5 104 q-41.5 42 -103.5 42 q-64 0 -104 -42 q-40 -42 -44 -104 ZM429 732 l-103 -143 l-93 0 l-104 143 l84 0 l69 -96 l70 96 l77 0 Z" /><glyph glyph-name="uni011C" unicode="&#x11c;" d="M43 343 q0 165 89 276.5 q89 111.5 251 111.5 q123 0 205.5 -58.5 q82.5 -58.5 101.5 -178.5 l-95 0 q-14 78 -71 117.5 q-57 39.5 -141 39.5 q-121 0 -183 -88.5 q-62 -88.5 -62 -214.5 q0 -118 65.5 -201.5 q65.5 -83.5 179.5 -83.5 q108 0 170.5 66 q62.5 66 58.5 167 l-228 0 l0 80 l313 0 l0 -376 l-60 0 l-25 89 q-40 -53 -101.5 -79.5 q-61.5 -26.5 -127.5 -26.5 q-103 0 -182 51.5 q-79 51.5 -118.5 132.5 q-39.5 81 -39.5 176 ZM237 779 l103 143 l93 0 l104 -143 l-84 0 l-69 96 l-70 -96 l-77 0 Z" /><glyph glyph-name="uni011D" unicode="&#x11d;" d="M510 517 l0 -473 q0 -129 -58.5 -191.5 q-58.5 -62.5 -181.5 -62.5 q-53 0 -98 14 q-45 14 -79.5 49.5 q-34.5 35.5 -36.5 88.5 l85 0 q2 -42 43.5 -63 q41.5 -21 90.5 -21 q155 0 155 196 l0 34 l-2 0 q-21 -46 -64.5 -70 q-43.5 -24 -96.5 -24 q-110 0 -170.5 75 q-60.5 75 -60.5 187 q0 49 12.5 94.5 q12.5 45.5 39 87 q26.5 41.5 75 66.5 q48.5 25 112.5 25 q107 0 154 -86 l1 0 l0 74 l80 0 ZM272 69 q78 0 116 59 q38 59 38 141 q0 77 -36.5 131 q-36.5 54 -110.5 54 q-77 0 -115 -53.5 q-38 -53.5 -38 -134.5 q0 -51 12.5 -93 q12.5 -42 46.5 -73 q34 -31 87 -31 ZM137 589 l103 143 l93 0 l104 -143 l-84 0 l-69 96 l-70 -96 l-77 0 Z" /><glyph glyph-name="Gbreve" unicode="&#x11e;" d="M43 343 q0 165 89 276.5 q89 111.5 251 111.5 q123 0 205.5 -58.5 q82.5 -58.5 101.5 -178.5 l-95 0 q-14 78 -71 117.5 q-57 39.5 -141 39.5 q-121 0 -183 -88.5 q-62 -88.5 -62 -214.5 q0 -118 65.5 -201.5 q65.5 -83.5 179.5 -83.5 q108 0 170.5 66 q62.5 66 58.5 167 l-228 0 l0 80 l313 0 l0 -376 l-60 0 l-25 89 q-40 -53 -101.5 -79.5 q-61.5 -26.5 -127.5 -26.5 q-103 0 -182 51.5 q-79 51.5 -118.5 132.5 q-39.5 81 -39.5 176 ZM230 919 l50 0 q24 -83 112 -83 q40 0 61 20 q21 20 38 63 l51 0 q-11 -65 -52 -101.5 q-41 -36.5 -106 -36.5 q-134 0 -154 138 Z" /><glyph glyph-name="gbreve" unicode="&#x11f;" d="M510 517 l0 -473 q0 -129 -58.5 -191.5 q-58.5 -62.5 -181.5 -62.5 q-53 0 -98 14 q-45 14 -79.5 49.5 q-34.5 35.5 -36.5 88.5 l85 0 q2 -42 43.5 -63 q41.5 -21 90.5 -21 q155 0 155 196 l0 34 l-2 0 q-21 -46 -64.5 -70 q-43.5 -24 -96.5 -24 q-110 0 -170.5 75 q-60.5 75 -60.5 187 q0 49 12.5 94.5 q12.5 45.5 39 87 q26.5 41.5 75 66.5 q48.5 25 112.5 25 q107 0 154 -86 l1 0 l0 74 l80 0 ZM272 69 q78 0 116 59 q38 59 38 141 q0 77 -36.5 131 q-36.5 54 -110.5 54 q-77 0 -115 -53.5 q-38 -53.5 -38 -134.5 q0 -51 12.5 -93 q12.5 -42 46.5 -73 q34 -31 87 -31 ZM130 729 l50 0 q24 -83 112 -83 q40 0 61 20 q21 20 38 63 l51 0 q-11 -65 -52 -101.5 q-41 -36.5 -106 -36.5 q-134 0 -154 138 Z" /><glyph glyph-name="uni0120" unicode="&#x120;" d="M43 343 q0 165 89 276.5 q89 111.5 251 111.5 q123 0 205.5 -58.5 q82.5 -58.5 101.5 -178.5 l-95 0 q-14 78 -71 117.5 q-57 39.5 -141 39.5 q-121 0 -183 -88.5 q-62 -88.5 -62 -214.5 q0 -118 65.5 -201.5 q65.5 -83.5 179.5 -83.5 q108 0 170.5 66 q62.5 66 58.5 167 l-228 0 l0 80 l313 0 l0 -376 l-60 0 l-25 89 q-40 -53 -101.5 -79.5 q-61.5 -26.5 -127.5 -26.5 q-103 0 -182 51.5 q-79 51.5 -118.5 132.5 q-39.5 81 -39.5 176 ZM430 897 l0 -104 l-90 0 l0 104 l90 0 Z" /><glyph glyph-name="uni0121" unicode="&#x121;" d="M510 517 l0 -473 q0 -129 -58.5 -191.5 q-58.5 -62.5 -181.5 -62.5 q-53 0 -98 14 q-45 14 -79.5 49.5 q-34.5 35.5 -36.5 88.5 l85 0 q2 -42 43.5 -63 q41.5 -21 90.5 -21 q155 0 155 196 l0 34 l-2 0 q-21 -46 -64.5 -70 q-43.5 -24 -96.5 -24 q-110 0 -170.5 75 q-60.5 75 -60.5 187 q0 49 12.5 94.5 q12.5 45.5 39 87 q26.5 41.5 75 66.5 q48.5 25 112.5 25 q107 0 154 -86 l1 0 l0 74 l80 0 ZM272 69 q78 0 116 59 q38 59 38 141 q0 77 -36.5 131 q-36.5 54 -110.5 54 q-77 0 -115 -53.5 q-38 -53.5 -38 -134.5 q0 -51 12.5 -93 q12.5 -42 46.5 -73 q34 -31 87 -31 ZM331 708 l0 -104 l-90 0 l0 104 l90 0 Z" /><glyph glyph-name="uni0122" unicode="&#x122;" d="M43 343 q0 165 89 276.5 q89 111.5 251 111.5 q123 0 205.5 -58.5 q82.5 -58.5 101.5 -178.5 l-95 0 q-14 78 -71 117.5 q-57 39.5 -141 39.5 q-121 0 -183 -88.5 q-62 -88.5 -62 -214.5 q0 -118 65.5 -201.5 q65.5 -83.5 179.5 -83.5 q108 0 170.5 66 q62.5 66 58.5 167 l-228 0 l0 80 l313 0 l0 -376 l-60 0 l-25 89 q-40 -53 -101.5 -79.5 q-61.5 -26.5 -127.5 -26.5 q-103 0 -182 51.5 q-79 51.5 -118.5 132.5 q-39.5 81 -39.5 176 ZM321 -138 l0 88 l111 0 l0 -77 q0 -83 -99 -83 l0 35 q19 5 28.5 12.5 q9.5 7.5 10.5 11.5 q1 4 1 13 l-52 0 Z" /><glyph glyph-name="uni0123" unicode="&#x123;" d="M510 517 l0 -473 q0 -129 -58.5 -191.5 q-58.5 -62.5 -181.5 -62.5 q-53 0 -98 14 q-45 14 -79.5 49.5 q-34.5 35.5 -36.5 88.5 l85 0 q2 -42 43.5 -63 q41.5 -21 90.5 -21 q155 0 155 196 l0 34 l-2 0 q-21 -46 -64.5 -70 q-43.5 -24 -96.5 -24 q-110 0 -170.5 75 q-60.5 75 -60.5 187 q0 49 12.5 94.5 q12.5 45.5 39 87 q26.5 41.5 75 66.5 q48.5 25 112.5 25 q107 0 154 -86 l1 0 l0 74 l80 0 ZM272 69 q78 0 116 59 q38 59 38 141 q0 77 -36.5 131 q-36.5 54 -110.5 54 q-77 0 -115 -53.5 q-38 -53.5 -38 -134.5 q0 -51 12.5 -93 q12.5 -42 46.5 -73 q34 -31 87 -31 ZM341 714 l0 -88 l-111 0 l0 77 q0 83 99 83 l0 -35 q-19 -5 -28.5 -12.5 q-9.5 -7.5 -10.5 -11.5 q-1 -4 -1 -13 l52 0 Z" /><glyph glyph-name="uni0124" unicode="&#x124;" d="M78 0 l0 714 l95 0 l0 -307 l376 0 l0 307 l95 0 l0 -714 l-95 0 l0 327 l-376 0 l0 -327 l-95 0 ZM209 779 l103 143 l93 0 l104 -143 l-84 0 l-69 96 l-70 -96 l-77 0 Z" /><glyph glyph-name="uni0125" unicode="&#x125;" d="M64 0 l0 714 l85 0 l0 -273 l2 0 q18 44 64.5 66 q46.5 22 98.5 22 q96 0 137 -49.5 q41 -49.5 41 -139.5 l0 -340 l-85 0 l0 350 q0 48 -28 76 q-28 28 -77 28 q-75 0 -114 -44.5 q-39 -44.5 -39 -117.5 l0 -292 l-85 0 ZM120 779 l103 143 l93 0 l104 -143 l-84 0 l-69 96 l-70 -96 l-77 0 Z" /><glyph glyph-name="uni0126" unicode="&#x126;" d="M78 0 l0 714 l95 0 l0 -144 l376 0 l0 144 l95 0 l0 -714 l-95 0 l0 306 l-376 0 l0 -306 l-95 0 ZM173 384 l376 0 l0 128 l-376 0 l0 -128 Z" /><glyph glyph-name="uni0127" unicode="&#x127;" d="M69 583 l-86 0 l0 53 l86 0 l0 78 l85 0 l0 -78 l170 0 l0 -53 l-170 0 l0 -142 l2 0 q18 44 64.5 66 q46.5 22 98.5 22 q96 0 137 -49.5 q41 -49.5 41 -139.5 l0 -340 l-85 0 l0 350 q0 48 -28 76 q-28 28 -77 28 q-75 0 -114 -44.5 q-39 -44.5 -39 -117.5 l0 -292 l-85 0 l0 583 Z" /><glyph glyph-name="uni0128" unicode="&#x128;" d="M82 0 l0 714 l95 0 l0 -714 l-95 0 ZM252 907 l52 0 q-6 -44 -32 -79 q-26 -32 -69 -32 q-31 0 -75 20 q-51 19 -66 19 q-19 0 -31 -12 q-9 -8 -18 -30 l-52 0 q23 110 106 110 q28 0 73.5 -20 q45.5 -20 65.5 -20 q33 0 46 44 Z" /><glyph glyph-name="uni0129" unicode="&#x129;" d="M154 0 l-85 0 l0 517 l85 0 l0 -517 ZM233 717 l52 0 q-6 -44 -32 -79 q-26 -32 -69 -32 q-31 0 -75 20 q-51 19 -66 19 q-19 0 -31 -12 q-9 -8 -18 -30 l-52 0 q23 110 106 110 q28 0 73.5 -20 q45.5 -20 65.5 -20 q33 0 46 44 Z" /><glyph glyph-name="uni012A" unicode="&#x12a;" d="M82 0 l0 714 l95 0 l0 -714 l-95 0 ZM-40 817 l0 55 l341 0 l0 -55 l-341 0 Z" /><glyph glyph-name="uni012B" unicode="&#x12b;" d="M154 0 l-85 0 l0 517 l85 0 l0 -517 ZM-58 627 l0 55 l341 0 l0 -55 l-341 0 Z" /><glyph glyph-name="uni012C" unicode="&#x12c;" d="M82 0 l0 714 l95 0 l0 -714 l-95 0 ZM-26 919 l50 0 q24 -83 112 -83 q40 0 61 20 q21 20 38 63 l51 0 q-11 -65 -52 -101.5 q-41 -36.5 -106 -36.5 q-134 0 -154 138 Z" /><glyph glyph-name="uni012D" unicode="&#x12d;" d="M154 0 l-85 0 l0 517 l85 0 l0 -517 ZM-44 729 l50 0 q24 -83 112 -83 q40 0 61 20 q21 20 38 63 l51 0 q-11 -65 -52 -101.5 q-41 -36.5 -106 -36.5 q-134 0 -154 138 Z" /><glyph glyph-name="uni012E" unicode="&#x12e;" d="M82 0 l0 714 l95 0 l0 -714 q-44 -42 -59.5 -67.5 q-15.5 -25.5 -15.5 -50.5 q0 -19 9 -30.5 q9 -11.5 25 -11.5 q32 0 56 30 l28 -18 q-34 -62 -91 -62 q-39 0 -64 19 q-25 19 -25 59 q0 68 101 132 l-59 0 Z" /><glyph glyph-name="uni012F" unicode="&#x12f;" d="M154 714 l0 -104 l-85 0 l0 104 l85 0 ZM118 0 l-49 0 l0 517 l85 0 l0 -517 q-44 -42 -59.5 -67.5 q-15.5 -25.5 -15.5 -50.5 q0 -19 9 -30.5 q9 -11.5 25 -11.5 q32 0 56 30 l28 -18 q-34 -62 -91 -62 q-39 0 -64 19 q-25 19 -25 59 q0 68 101 132 Z" /><glyph glyph-name="Idotaccent" unicode="&#x130;" d="M82 0 l0 714 l95 0 l0 -714 l-95 0 ZM175 897 l0 -104 l-90 0 l0 104 l90 0 Z" /><glyph glyph-name="dotlessi" unicode="&#x131;" d="M69 0 l0 517 l85 0 l0 -517 l-85 0 Z" /><glyph glyph-name="uni0132" unicode="&#x132;" d="M82 0 l0 714 l95 0 l0 -714 l-95 0 ZM273 191 l0 44 l95 0 l0 -30 q0 -69 25 -105.5 q25 -36.5 90 -36.5 q62 0 88 33 q26 33 26 96 l0 522 l95 0 l0 -536 q0 -82 -50 -138.5 q-50 -56.5 -161 -56.5 q-100 0 -154 53.5 q-54 53.5 -54 154.5 Z" /><glyph glyph-name="uni0133" unicode="&#x133;" d="M154 714 l0 -104 l-85 0 l0 104 l85 0 ZM69 0 l0 517 l85 0 l0 -517 l-85 0 ZM370 714 l0 -104 l-85 0 l0 104 l85 0 ZM370 517 l0 -583 q0 -132 -124 -132 q-27 0 -44 4 l0 73 q14 -2 17 -2 l18 0 q28 0 38 15.5 q10 15.5 10 55.5 l0 569 l85 0 Z" /><glyph glyph-name="uni0134" unicode="&#x134;" d="M22 191 l0 44 l95 0 l0 -30 q0 -69 25 -105.5 q25 -36.5 90 -36.5 q62 0 88 33 q26 33 26 96 l0 522 l95 0 l0 -536 q0 -82 -50 -138.5 q-50 -56.5 -161 -56.5 q-100 0 -154 53.5 q-54 53.5 -54 154.5 ZM241 779 l103 143 l93 0 l104 -143 l-84 0 l-69 96 l-70 -96 l-77 0 Z" /><glyph glyph-name="uni0135" unicode="&#x135;" d="M154 517 l0 -583 q0 -132 -124 -132 q-27 0 -44 4 l0 73 q14 -2 17 -2 l18 0 q28 0 38 15.5 q10 15.5 10 55.5 l0 569 l85 0 ZM-39 589 l103 143 l93 0 l104 -143 l-84 0 l-69 96 l-70 -96 l-77 0 Z" /><glyph glyph-name="uni0136" unicode="&#x136;" d="M78 0 l0 714 l95 0 l0 -356 l362 356 l123 0 l-301 -288 l313 -426 l-120 0 l-258 361 l-119 -111 l0 -250 l-95 0 ZM290 -138 l0 88 l111 0 l0 -77 q0 -83 -99 -83 l0 35 q19 5 28.5 12.5 q9.5 7.5 10.5 11.5 q1 4 1 13 l-52 0 Z" /><glyph glyph-name="uni0137" unicode="&#x137;" d="M69 0 l0 714 l85 0 l0 -423 l236 226 l114 0 l-205 -188 l220 -329 l-108 0 l-177 270 l-80 -74 l0 -196 l-85 0 ZM220 -138 l0 88 l111 0 l0 -77 q0 -83 -99 -83 l0 35 q19 5 28.5 12.5 q9.5 7.5 10.5 11.5 q1 4 1 13 l-52 0 Z" /><glyph glyph-name="uni0138" unicode="&#x138;" d="M64 0 l0 517 l85 0 l0 -226 l236 226 l114 0 l-205 -188 l220 -329 l-108 0 l-177 270 l-80 -74 l0 -196 l-85 0 Z" /><glyph glyph-name="uni0139" unicode="&#x139;" d="M78 0 l0 714 l95 0 l0 -634 l378 0 l0 -80 l-473 0 ZM93 779 l86 143 l109 0 l-131 -143 l-64 0 Z" /><glyph glyph-name="uni013A" unicode="&#x13a;" d="M69 0 l0 714 l85 0 l0 -714 l-85 0 ZM65 779 l86 143 l109 0 l-131 -143 l-64 0 Z" /><glyph glyph-name="uni013B" unicode="&#x13b;" d="M78 0 l0 714 l95 0 l0 -634 l378 0 l0 -80 l-473 0 ZM253 -138 l0 88 l111 0 l0 -77 q0 -83 -99 -83 l0 35 q19 5 28.5 12.5 q9.5 7.5 10.5 11.5 q1 4 1 13 l-52 0 Z" /><glyph glyph-name="uni013C" unicode="&#x13c;" d="M69 0 l0 714 l85 0 l0 -714 l-85 0 ZM56 -138 l0 88 l111 0 l0 -77 q0 -83 -99 -83 l0 35 q19 5 28.5 12.5 q9.5 7.5 10.5 11.5 q1 4 1 13 l-52 0 Z" /><glyph glyph-name="uni013D" unicode="&#x13d;" d="M78 0 l0 714 l95 0 l0 -634 l378 0 l0 -80 l-473 0 ZM276 571 l26 143 l109 0 l-75 -143 l-60 0 Z" /><glyph glyph-name="uni013E" unicode="&#x13e;" d="M69 0 l0 714 l85 0 l0 -714 l-85 0 ZM221 450 l0 264 l76 0 l0 -264 l-76 0 Z" /><glyph glyph-name="uni013F" unicode="&#x13f;" d="M78 0 l0 714 l95 0 l0 -634 l378 0 l0 -80 l-473 0 ZM405 441 l0 -104 l-90 0 l0 104 l90 0 Z" /><glyph glyph-name="uni0140" unicode="&#x140;" d="M69 0 l0 714 l85 0 l0 -714 l-85 0 ZM315 441 l0 -104 l-90 0 l0 104 l90 0 Z" /><glyph glyph-name="Lslash" unicode="&#x141;" d="M78 240 l-78 -56 l0 76 l78 56 l0 398 l95 0 l0 -330 l228 160 l0 -76 l-228 -160 l0 -228 l378 0 l0 -80 l-473 0 l0 240 Z" /><glyph glyph-name="lslash" unicode="&#x142;" d="M69 321 l-69 -55 l0 71 l69 56 l0 321 l85 0 l0 -254 l70 56 l0 -71 l-70 -56 l0 -389 l-85 0 l0 321 Z" /><glyph glyph-name="Nacute" unicode="&#x143;" d="M77 714 l101 0 l376 -579 l2 0 l0 579 l90 0 l0 -714 l-104 0 l-373 573 l-2 0 l0 -573 l-90 0 l0 714 ZM399 908 l109 0 l-131 -143 l-64 0 l86 143 Z" /><glyph glyph-name="nacute" unicode="&#x144;" d="M64 517 l80 0 l0 -82 l2 0 q52 94 168 94 q96 0 137 -49.5 q41 -49.5 41 -139.5 l0 -340 l-85 0 l0 350 q0 48 -28 76 q-28 28 -77 28 q-75 0 -114 -44.5 q-39 -44.5 -39 -117.5 l0 -292 l-85 0 l0 517 ZM306 731 l109 0 l-131 -143 l-64 0 l86 143 Z" /><glyph glyph-name="uni0145" unicode="&#x145;" d="M77 0 l0 714 l101 0 l376 -579 l2 0 l0 579 l90 0 l0 -714 l-104 0 l-373 573 l-2 0 l0 -573 l-90 0 ZM303 -138 l0 88 l111 0 l0 -77 q0 -83 -99 -83 l0 35 q19 5 28.5 12.5 q9.5 7.5 10.5 11.5 q1 4 1 13 l-52 0 Z" /><glyph glyph-name="uni0146" unicode="&#x146;" d="M64 0 l0 517 l80 0 l0 -82 l2 0 q52 94 168 94 q96 0 137 -49.5 q41 -49.5 41 -139.5 l0 -340 l-85 0 l0 350 q0 48 -28 76 q-28 28 -77 28 q-75 0 -114 -44.5 q-39 -44.5 -39 -117.5 l0 -292 l-85 0 ZM221 -138 l0 88 l111 0 l0 -77 q0 -83 -99 -83 l0 35 q19 5 28.5 12.5 q9.5 7.5 10.5 11.5 q1 4 1 13 l-52 0 Z" /><glyph glyph-name="uni0147" unicode="&#x147;" d="M77 0 l0 714 l101 0 l376 -579 l2 0 l0 579 l90 0 l0 -714 l-104 0 l-373 573 l-2 0 l0 -573 l-90 0 ZM509 922 l-103 -143 l-93 0 l-104 143 l84 0 l69 -96 l70 96 l77 0 Z" /><glyph glyph-name="uni0148" unicode="&#x148;" d="M64 0 l0 517 l80 0 l0 -82 l2 0 q52 94 168 94 q96 0 137 -49.5 q41 -49.5 41 -139.5 l0 -340 l-85 0 l0 350 q0 48 -28 76 q-28 28 -77 28 q-75 0 -114 -44.5 q-39 -44.5 -39 -117.5 l0 -292 l-85 0 ZM429 732 l-103 -143 l-93 0 l-104 143 l84 0 l69 -96 l70 96 l77 0 Z" /><glyph glyph-name="uni0149" unicode="&#x149;" d="M171 0 l0 517 l80 0 l0 -82 l2 0 q52 94 168 94 q96 0 137 -49.5 q41 -49.5 41 -139.5 l0 -340 l-85 0 l0 350 q0 48 -28 76 q-28 28 -77 28 q-75 0 -114 -44.5 q-39 -44.5 -39 -117.5 l0 -292 l-85 0 ZM18 603 l0 111 l111 0 l0 -111 q0 -64 -28 -105.5 q-28 -41.5 -82 -41.5 l0 50 q31 0 44.5 28.5 q13.5 28.5 13.5 68.5 l-59 0 Z" /><glyph glyph-name="uni014A" unicode="&#x14a;" d="M556 -25 l0 8 l-387 590 l-2 0 l0 -573 l-90 0 l0 714 l101 0 l376 -579 l2 0 l0 579 l90 0 l0 -754 q0 -84 -41 -121 q-41 -37 -120 -37 q-46 0 -76 9 l0 78 q37 -7 66 -7 q46 0 63.5 19 q17.5 19 17.5 74 Z" /><glyph glyph-name="uni014B" unicode="&#x14b;" d="M64 0 l0 517 l80 0 l0 -82 l2 0 q52 94 168 94 q96 0 137 -49.5 q41 -49.5 41 -139.5 l0 -390 q0 -148 -144 -148 q-38 0 -65 7 l0 73 q32 -5 56 -5 q39 0 53.5 18.5 q14.5 18.5 14.5 68.5 l0 386 q0 48 -28 76 q-28 28 -77 28 q-75 0 -114 -44.5 q-39 -44.5 -39 -117.5 l0 -292 l-85 0 Z" /><glyph glyph-name="uni014C" unicode="&#x14c;" d="M75 173.5 q-37 83.5 -37 183.5 q0 100 37 183.5 q37 83.5 116.5 137 q79.5 53.5 188.5 53.5 q109 0 188.5 -53.5 q79.5 -53.5 116.5 -137 q37 -83.5 37 -183.5 q0 -100 -37 -183.5 q-37 -83.5 -116.5 -137 q-79.5 -53.5 -188.5 -53.5 q-109 0 -188.5 53.5 q-79.5 53.5 -116.5 137 ZM157.5 497.5 q-24.5 -64.5 -24.5 -140.5 q0 -76 24.5 -140.5 q24.5 -64.5 82 -109 q57.5 -44.5 140.5 -44.5 q83 0 140.5 44.5 q57.5 44.5 82 109 q24.5 64.5 24.5 140.5 q0 76 -24.5 140.5 q-24.5 64.5 -82 109 q-57.5 44.5 -140.5 44.5 q-83 0 -140.5 -44.5 q-57.5 -44.5 -82 -109 ZM211 817 l0 55 l341 0 l0 -55 l-341 0 Z" /><glyph glyph-name="uni014D" unicode="&#x14d;" d="M36 258 q0 119 66 195 q66 76 185 76 q119 0 185 -76 q66 -76 66 -195 q0 -118 -66 -194 q-66 -76 -185 -76 q-119 0 -185 76 q-66 76 -66 194 ZM172 401.5 q-46 -52.5 -46 -143.5 q0 -91 46 -143 q46 -52 115 -52 q69 0 115 52 q46 52 46 143 q0 91 -46 143.5 q-46 52.5 -115 52.5 q-69 0 -115 -52.5 ZM118 627 l0 55 l341 0 l0 -55 l-341 0 Z" /><glyph glyph-name="uni014E" unicode="&#x14e;" d="M75 173.5 q-37 83.5 -37 183.5 q0 100 37 183.5 q37 83.5 116.5 137 q79.5 53.5 188.5 53.5 q109 0 188.5 -53.5 q79.5 -53.5 116.5 -137 q37 -83.5 37 -183.5 q0 -100 -37 -183.5 q-37 -83.5 -116.5 -137 q-79.5 -53.5 -188.5 -53.5 q-109 0 -188.5 53.5 q-79.5 53.5 -116.5 137 ZM157.5 497.5 q-24.5 -64.5 -24.5 -140.5 q0 -76 24.5 -140.5 q24.5 -64.5 82 -109 q57.5 -44.5 140.5 -44.5 q83 0 140.5 44.5 q57.5 44.5 82 109 q24.5 64.5 24.5 140.5 q0 76 -24.5 140.5 q-24.5 64.5 -82 109 q-57.5 44.5 -140.5 44.5 q-83 0 -140.5 -44.5 q-57.5 -44.5 -82 -109 ZM225 919 l50 0 q24 -83 112 -83 q40 0 61 20 q21 20 38 63 l51 0 q-11 -65 -52 -101.5 q-41 -36.5 -106 -36.5 q-134 0 -154 138 Z" /><glyph glyph-name="uni014F" unicode="&#x14f;" d="M36 258 q0 119 66 195 q66 76 185 76 q119 0 185 -76 q66 -76 66 -195 q0 -118 -66 -194 q-66 -76 -185 -76 q-119 0 -185 76 q-66 76 -66 194 ZM172 401.5 q-46 -52.5 -46 -143.5 q0 -91 46 -143 q46 -52 115 -52 q69 0 115 52 q46 52 46 143 q0 91 -46 143.5 q-46 52.5 -115 52.5 q-69 0 -115 -52.5 ZM132 729 l50 0 q24 -83 112 -83 q40 0 61 20 q21 20 38 63 l51 0 q-11 -65 -52 -101.5 q-41 -36.5 -106 -36.5 q-134 0 -154 138 Z" /><glyph glyph-name="uni0150" unicode="&#x150;" d="M75 173.5 q-37 83.5 -37 183.5 q0 100 37 183.5 q37 83.5 116.5 137 q79.5 53.5 188.5 53.5 q109 0 188.5 -53.5 q79.5 -53.5 116.5 -137 q37 -83.5 37 -183.5 q0 -100 -37 -183.5 q-37 -83.5 -116.5 -137 q-79.5 -53.5 -188.5 -53.5 q-109 0 -188.5 53.5 q-79.5 53.5 -116.5 137 ZM157.5 497.5 q-24.5 -64.5 -24.5 -140.5 q0 -76 24.5 -140.5 q24.5 -64.5 82 -109 q57.5 -44.5 140.5 -44.5 q83 0 140.5 44.5 q57.5 44.5 82 109 q24.5 64.5 24.5 140.5 q0 76 -24.5 140.5 q-24.5 64.5 -82 109 q-57.5 44.5 -140.5 44.5 q-83 0 -140.5 -44.5 q-57.5 -44.5 -82 -109 ZM421 779 l81 143 l105 0 l-120 -143 l-66 0 ZM265 779 l81 143 l105 0 l-120 -143 l-66 0 Z" /><glyph glyph-name="uni0151" unicode="&#x151;" d="M36 258 q0 119 66 195 q66 76 185 76 q119 0 185 -76 q66 -76 66 -195 q0 -118 -66 -194 q-66 -76 -185 -76 q-119 0 -185 76 q-66 76 -66 194 ZM172 401.5 q-46 -52.5 -46 -143.5 q0 -91 46 -143 q46 -52 115 -52 q69 0 115 52 q46 52 46 143 q0 91 -46 143.5 q-46 52.5 -115 52.5 q-69 0 -115 -52.5 ZM328 589 l81 143 l105 0 l-120 -143 l-66 0 ZM172 589 l81 143 l105 0 l-120 -143 l-66 0 Z" /><glyph glyph-name="OE" unicode="&#x152;" d="M551 69 l-2 0 q-25 -41 -76 -63 q-51 -22 -108 -22 q-154 0 -240.5 104 q-86.5 104 -86.5 267 q0 165 90 270.5 q90 105.5 245 105.5 q54 0 105 -19.5 q51 -19.5 71 -56.5 l2 0 l0 59 l477 0 l0 -80 l-382 0 l0 -227 l350 0 l0 -80 l-350 0 l0 -247 l388 0 l0 -80 l-483 0 l0 69 ZM372 63 q76 0 127.5 39.5 q51.5 39.5 51.5 101.5 l0 301 q0 46 -15 69 q-22 33 -65 55 q-43 22 -97 22 q-116 0 -178.5 -86 q-62.5 -86 -62.5 -214 q0 -125 63 -206.5 q63 -81.5 176 -81.5 Z" /><glyph glyph-name="oe" unicode="&#x153;" d="M415 260 q0 194 -144 194 q-75 0 -110 -60 q-35 -60 -35 -146 q0 -75 36 -130 q36 -55 109 -55 q54 0 87.5 31 q33.5 31 45 72.5 q11.5 41.5 11.5 93.5 ZM774 308 q0 67 -37.5 106.5 q-37.5 39.5 -103.5 39.5 q-66 0 -105.5 -40.5 q-39.5 -40.5 -38.5 -105.5 l285 0 ZM489 233 q-2 -71 37.5 -120.5 q39.5 -49.5 111.5 -49.5 q51 0 88 26.5 q37 26.5 52 74.5 l81 0 q-51 -175 -221 -175 q-145 0 -188 101 q-43 -101 -179 -101 q-116 0 -175.5 75.5 q-59.5 75.5 -59.5 194.5 q0 119 60 194.5 q60 75.5 175 75.5 q135 0 179 -91 q26 44 76 67.5 q50 23.5 107 23.5 q123 0 180 -82.5 q57 -82.5 51 -213.5 l-375 0 Z" /><glyph glyph-name="uni0154" unicode="&#x154;" d="M78 0 l0 714 l336 0 q102 0 159.5 -50 q57.5 -50 57.5 -137 q0 -68 -30.5 -116 q-30.5 -48 -93.5 -65 l0 -2 q56 -11 78 -47.5 q22 -36.5 29 -99.5 q1 -10 2.5 -41 q1.5 -31 3 -45.5 q1.5 -14.5 5.5 -38.5 q4 -24 12 -41 q8 -17 19 -31 l-106 0 q-12 13 -15 40.5 q-3 27.5 -4.5 68 q-1.5 40.5 -6.5 67.5 q-5 31 -10.5 50 q-5.5 19 -18 39.5 q-12.5 20.5 -35 30 q-22.5 9.5 -55.5 9.5 l-232 0 l0 -305 l-95 0 ZM173 385 l198 0 q76 0 120.5 27.5 q44.5 27.5 44.5 99.5 q0 57 -31.5 89.5 q-31.5 32.5 -95.5 32.5 l-236 0 l0 -249 ZM278 779 l86 143 l109 0 l-131 -143 l-64 0 Z" /><glyph glyph-name="uni0155" unicode="&#x155;" d="M61 0 l0 517 l80 0 l0 -109 l2 0 q31 64 76.5 93.5 q45.5 29.5 113.5 27.5 l0 -90 q-99 0 -143 -53 q-44 -53 -44 -156 l0 -230 l-85 0 ZM142 589 l86 143 l109 0 l-131 -143 l-64 0 Z" /><glyph glyph-name="uni0156" unicode="&#x156;" d="M78 0 l0 714 l336 0 q102 0 159.5 -50 q57.5 -50 57.5 -137 q0 -68 -30.5 -116 q-30.5 -48 -93.5 -65 l0 -2 q56 -11 78 -47.5 q22 -36.5 29 -99.5 q1 -10 2.5 -41 q1.5 -31 3 -45.5 q1.5 -14.5 5.5 -38.5 q4 -24 12 -41 q8 -17 19 -31 l-106 0 q-12 13 -15 40.5 q-3 27.5 -4.5 68 q-1.5 40.5 -6.5 67.5 q-5 31 -10.5 50 q-5.5 19 -18 39.5 q-12.5 20.5 -35 30 q-22.5 9.5 -55.5 9.5 l-232 0 l0 -305 l-95 0 ZM173 385 l198 0 q76 0 120.5 27.5 q44.5 27.5 44.5 99.5 q0 57 -31.5 89.5 q-31.5 32.5 -95.5 32.5 l-236 0 l0 -249 ZM295 -138 l0 88 l111 0 l0 -77 q0 -83 -99 -83 l0 35 q19 5 28.5 12.5 q9.5 7.5 10.5 11.5 q1 4 1 13 l-52 0 Z" /><glyph glyph-name="uni0157" unicode="&#x157;" d="M61 0 l0 517 l80 0 l0 -109 l2 0 q31 64 76.5 93.5 q45.5 29.5 113.5 27.5 l0 -90 q-99 0 -143 -53 q-44 -53 -44 -156 l0 -230 l-85 0 ZM48 -138 l0 88 l111 0 l0 -77 q0 -83 -99 -83 l0 35 q19 5 28.5 12.5 q9.5 7.5 10.5 11.5 q1 4 1 13 l-52 0 Z" /><glyph glyph-name="uni0158" unicode="&#x158;" d="M78 0 l0 714 l336 0 q102 0 159.5 -50 q57.5 -50 57.5 -137 q0 -68 -30.5 -116 q-30.5 -48 -93.5 -65 l0 -2 q56 -11 78 -47.5 q22 -36.5 29 -99.5 q1 -10 2.5 -41 q1.5 -31 3 -45.5 q1.5 -14.5 5.5 -38.5 q4 -24 12 -41 q8 -17 19 -31 l-106 0 q-12 13 -15 40.5 q-3 27.5 -4.5 68 q-1.5 40.5 -6.5 67.5 q-5 31 -10.5 50 q-5.5 19 -18 39.5 q-12.5 20.5 -35 30 q-22.5 9.5 -55.5 9.5 l-232 0 l0 -305 l-95 0 ZM173 385 l198 0 q76 0 120.5 27.5 q44.5 27.5 44.5 99.5 q0 57 -31.5 89.5 q-31.5 32.5 -95.5 32.5 l-236 0 l0 -249 ZM473 922 l-103 -143 l-93 0 l-104 143 l84 0 l69 -96 l70 96 l77 0 Z" /><glyph glyph-name="uni0159" unicode="&#x159;" d="M61 0 l0 517 l80 0 l0 -109 l2 0 q31 64 76.5 93.5 q45.5 29.5 113.5 27.5 l0 -90 q-99 0 -143 -53 q-44 -53 -44 -156 l0 -230 l-85 0 ZM345 732 l-103 -143 l-93 0 l-104 143 l84 0 l69 -96 l70 96 l77 0 Z" /><glyph glyph-name="Sacute" unicode="&#x15a;" d="M581 505 l-90 0 q-16 146 -177 146 q-69 0 -114.5 -28.5 q-45.5 -28.5 -45.5 -93.5 q0 -36 25 -59 q25 -23 65.5 -35.5 q40.5 -12.5 89 -22 q48.5 -9.5 97.5 -23 q49 -13.5 89.5 -34.5 q40.5 -21 65.5 -61.5 q25 -40.5 25 -97.5 q0 -55 -25 -97.5 q-25 -42.5 -66 -66.5 q-41 -24 -89 -36 q-48 -12 -99 -12 q-128 0 -211.5 64 q-83.5 64 -83.5 187 l90 0 q0 -85 60 -128.5 q60 -43.5 148 -43.5 q76 0 128.5 30 q52.5 30 52.5 100 q0 40 -25 66 q-25 26 -65.5 39.5 q-40.5 13.5 -89 23.5 q-48.5 10 -97.5 22.5 q-49 12.5 -89.5 31.5 q-40.5 19 -65.5 56 q-25 37 -25 90 q0 102 76 155.5 q76 53.5 183 53.5 q116 0 187.5 -56.5 q71.5 -56.5 75.5 -169.5 ZM362 908 l109 0 l-131 -143 l-64 0 l86 143 Z" /><glyph glyph-name="sacute" unicode="&#x15b;" d="M31 163 l85 0 q2 -53 41 -76.5 q39 -23.5 98 -23.5 q125 0 125 77 q0 31 -25 50.5 q-25 19.5 -62.5 27 q-37.5 7.5 -81.5 18.5 q-44 11 -81.5 24 q-37.5 13 -62.5 44 q-25 31 -25 78 q0 72 58 109.5 q58 37.5 135 37.5 q95 0 150.5 -36.5 q55.5 -36.5 61.5 -125.5 l-85 0 q-3 46 -37.5 66.5 q-34.5 20.5 -82.5 20.5 q-46 0 -78 -15 q-32 -15 -32 -51 q0 -10 3 -18.5 q3 -8.5 9.5 -15 q6.5 -6.5 13.5 -12 q7 -5.5 19 -10.5 q12 -5 21 -8.5 q9 -3.5 24.5 -7.5 q15.5 -4 25 -6 q9.5 -2 27 -6 q17.5 -4 26.5 -6 q37 -8 63 -17.5 q26 -9.5 52.5 -25.5 q26.5 -16 40 -42.5 q13.5 -26.5 13.5 -61.5 q0 -59 -34.5 -97 q-34.5 -38 -81 -51.5 q-46.5 -13.5 -104.5 -13.5 q-95 0 -155 41.5 q-60 41.5 -64 132.5 ZM278 731 l109 0 l-131 -143 l-64 0 l86 143 Z" /><glyph glyph-name="uni015C" unicode="&#x15c;" d="M581 505 l-90 0 q-16 146 -177 146 q-69 0 -114.5 -28.5 q-45.5 -28.5 -45.5 -93.5 q0 -36 25 -59 q25 -23 65.5 -35.5 q40.5 -12.5 89 -22 q48.5 -9.5 97.5 -23 q49 -13.5 89.5 -34.5 q40.5 -21 65.5 -61.5 q25 -40.5 25 -97.5 q0 -72 -44 -122 q-44 -50 -104.5 -70.5 q-60.5 -20.5 -130.5 -20.5 q-128 0 -211.5 64 q-83.5 64 -83.5 188 l90 0 q0 -85 60 -128.5 q60 -43.5 148 -43.5 q76 0 128.5 30 q52.5 30 52.5 100 q0 40 -25 66 q-25 26 -65.5 39.5 q-40.5 13.5 -89 23.5 q-48.5 10 -97.5 22.5 q-49 12.5 -89.5 31.5 q-40.5 19 -65.5 56 q-25 37 -25 90 q0 102 76 155.5 q76 53.5 183 53.5 q116 0 187.5 -56.5 q71.5 -56.5 75.5 -169.5 ZM175 779 l103 143 l93 0 l104 -143 l-84 0 l-69 96 l-70 -96 l-77 0 Z" /><glyph glyph-name="uni015D" unicode="&#x15d;" d="M31 163 l85 0 q2 -53 41 -76.5 q39 -23.5 98 -23.5 q125 0 125 77 q0 31 -25 50.5 q-25 19.5 -62.5 27 q-37.5 7.5 -81.5 18.5 q-44 11 -81.5 24 q-37.5 13 -62.5 44 q-25 31 -25 78 q0 72 58 109.5 q58 37.5 135 37.5 q95 0 150.5 -36.5 q55.5 -36.5 61.5 -125.5 l-85 0 q-3 46 -37.5 66.5 q-34.5 20.5 -82.5 20.5 q-46 0 -78 -15 q-32 -15 -32 -51 q0 -10 3 -18.5 q3 -8.5 9.5 -15 q6.5 -6.5 13.5 -12 q7 -5.5 19 -10.5 q12 -5 21 -8.5 q9 -3.5 24.5 -7.5 q15.5 -4 25 -6 q9.5 -2 27 -6 q17.5 -4 26.5 -6 q37 -8 63 -17.5 q26 -9.5 52.5 -25.5 q26.5 -16 40 -42.5 q13.5 -26.5 13.5 -61.5 q0 -85 -64.5 -124 q-64.5 -39 -155.5 -39 q-95 0 -155 42.5 q-60 42.5 -64 132.5 ZM101 589 l103 143 l93 0 l104 -143 l-84 0 l-69 96 l-70 -96 l-77 0 Z" /><glyph glyph-name="Scedilla" unicode="&#x15e;" d="M201 -191 l18 44 q32 -13 65 -13 q58 0 58 31 q0 14 -13 22.5 q-13 8.5 -34 8.5 q-17 0 -41 -8 l-17 28 l49 64 q-111 10 -180 73.5 q-69 63.5 -69 175.5 l90 0 q0 -85 60 -128.5 q60 -43.5 148 -43.5 q76 0 128.5 30 q52.5 30 52.5 100 q0 40 -25 66 q-25 26 -65.5 39.5 q-40.5 13.5 -89 23.5 q-48.5 10 -97.5 22.5 q-49 12.5 -89.5 31.5 q-40.5 19 -65.5 56 q-25 37 -25 90 q0 102 76 155.5 q76 53.5 183 53.5 q116 0 187.5 -56.5 q71.5 -56.5 75.5 -169.5 l-90 0 q-16 146 -177 146 q-69 0 -114.5 -28.5 q-45.5 -28.5 -45.5 -93.5 q0 -36 25 -59 q25 -23 65.5 -35.5 q40.5 -12.5 89 -22 q48.5 -9.5 97.5 -23 q49 -13.5 89.5 -34.5 q40.5 -21 65.5 -61.5 q25 -40.5 25 -97.5 q0 -72 -44 -122 q-44 -50 -104.5 -70.5 q-60.5 -20.5 -130.5 -20.5 l-6 0 l-28 -36 l2 -2 q13 7 33 7 q35 0 59.5 -19 q24.5 -19 24.5 -54 q0 -46 -37.5 -67.5 q-37.5 -21.5 -86.5 -21.5 q-47 0 -92 19 Z" /><glyph glyph-name="scedilla" unicode="&#x15f;" d="M128 -191 l18 44 q32 -13 65 -13 q58 0 58 31 q0 14 -13 22.5 q-13 8.5 -34 8.5 q-17 0 -41 -8 l-17 28 l53 68 q-81 7 -132.5 49 q-51.5 42 -53.5 124 l85 0 q2 -53 41 -76.5 q39 -23.5 98 -23.5 q125 0 125 77 q0 31 -25 50.5 q-25 19.5 -62.5 27 q-37.5 7.5 -81.5 18.5 q-44 11 -81.5 24 q-37.5 13 -62.5 44 q-25 31 -25 78 q0 72 58 109.5 q58 37.5 135 37.5 q95 0 150.5 -36.5 q55.5 -36.5 61.5 -125.5 l-85 0 q-3 46 -37.5 66.5 q-34.5 20.5 -82.5 20.5 q-46 0 -78 -15 q-32 -15 -32 -51 q0 -10 3 -18.5 q3 -8.5 9.5 -15 q6.5 -6.5 13.5 -12 q7 -5.5 19 -10.5 q12 -5 21 -8.5 q9 -3.5 24.5 -7.5 q15.5 -4 25 -6 q9.5 -2 27 -6 q17.5 -4 26.5 -6 q37 -8 63 -17.5 q26 -9.5 52.5 -25.5 q26.5 -16 40 -42.5 q13.5 -26.5 13.5 -61.5 q0 -83 -61.5 -121.5 q-61.5 -38.5 -151.5 -41.5 l-32 -41 l2 -2 q13 7 33 7 q35 0 59.5 -19 q24.5 -19 24.5 -54 q0 -46 -37.5 -67.5 q-37.5 -21.5 -86.5 -21.5 q-47 0 -92 19 Z" /><glyph glyph-name="Scaron" unicode="&#x160;" d="M371 765 l-93 0 l-104 143 l84 0 l69 -96 l70 96 l77 0 l-103 -143 ZM491 505 q-16 146 -177 146 q-69 0 -114.5 -28.5 q-45.5 -28.5 -45.5 -93.5 q0 -36 25 -59 q25 -23 65.5 -35.5 q40.5 -12.5 89 -22 q48.5 -9.5 97.5 -23 q49 -13.5 89.5 -34.5 q40.5 -21 65.5 -61.5 q25 -40.5 25 -97.5 q0 -55 -25 -97.5 q-25 -42.5 -66 -66.5 q-41 -24 -89 -36 q-48 -12 -99 -12 q-128 0 -211.5 64 q-83.5 64 -83.5 187 l90 0 q0 -85 60 -128.5 q60 -43.5 148 -43.5 q76 0 128.5 30 q52.5 30 52.5 100 q0 40 -25 66 q-25 26 -65.5 39.5 q-40.5 13.5 -89 23.5 q-48.5 10 -97.5 22.5 q-49 12.5 -89.5 31.5 q-40.5 19 -65.5 56 q-25 37 -25 90 q0 102 76 155.5 q76 53.5 183 53.5 q116 0 187.5 -56.5 q71.5 -56.5 75.5 -169.5 l-90 0 Z" /><glyph glyph-name="scaron" unicode="&#x161;" d="M297 588 l-93 0 l-104 143 l84 0 l69 -96 l70 96 l77 0 l-103 -143 ZM116 163 q2 -53 41 -76.5 q39 -23.5 98 -23.5 q125 0 125 77 q0 31 -25 50.5 q-25 19.5 -62.5 27 q-37.5 7.5 -81.5 18.5 q-44 11 -81.5 24 q-37.5 13 -62.5 44 q-25 31 -25 78 q0 72 58 109.5 q58 37.5 135 37.5 q95 0 150.5 -36.5 q55.5 -36.5 61.5 -125.5 l-85 0 q-3 46 -37.5 66.5 q-34.5 20.5 -82.5 20.5 q-46 0 -78 -15 q-32 -15 -32 -51 q0 -10 3 -18.5 q3 -8.5 9.5 -15 q6.5 -6.5 13.5 -12 q7 -5.5 19 -10.5 q12 -5 21 -8.5 q9 -3.5 24.5 -7.5 q15.5 -4 25 -6 q9.5 -2 27 -6 q17.5 -4 26.5 -6 q37 -8 63 -17.5 q26 -9.5 52.5 -25.5 q26.5 -16 40 -42.5 q13.5 -26.5 13.5 -61.5 q0 -59 -34.5 -97 q-34.5 -38 -81 -51.5 q-46.5 -13.5 -104.5 -13.5 q-95 0 -155 41.5 q-60 41.5 -64 132.5 l85 0 Z" /><glyph glyph-name="uni0162" unicode="&#x162;" d="M240 0 l0 634 l-238 0 l0 80 l571 0 l0 -80 l-238 0 l0 -634 l-95 0 ZM231 -138 l0 88 l111 0 l0 -77 q0 -83 -99 -83 l0 35 q19 5 28.5 12.5 q9.5 7.5 10.5 11.5 q1 4 1 13 l-52 0 Z" /><glyph glyph-name="uni0163" unicode="&#x163;" d="M182 672 l0 -155 l103 0 l0 -75 l-103 0 l0 -321 q0 -30 12 -38 q12 -8 52 -8 l39 0 l0 -75 l-65 0 q-69 0 -96 22.5 q-27 22.5 -27 90.5 l0 329 l-88 0 l0 75 l88 0 l0 155 l85 0 ZM85 -188 l18 44 q30 -13 61 -13 q24 0 43 7.5 q19 7.5 19 23.5 q0 14 -13 22.5 q-13 8.5 -34 8.5 q-17 0 -41 -8 l-17 28 l61 77 l42 0 l-42 -52 l2 -2 q10 7 33 7 q35 0 59.5 -19 q24.5 -19 24.5 -54 q0 -46 -37.5 -67.5 q-37.5 -21.5 -86.5 -21.5 q-38 0 -92 19 Z" /><glyph glyph-name="uni0164" unicode="&#x164;" d="M240 0 l0 634 l-238 0 l0 80 l571 0 l0 -80 l-238 0 l0 -634 l-95 0 ZM436 922 l-103 -143 l-93 0 l-104 143 l84 0 l69 -96 l70 96 l77 0 Z" /><glyph glyph-name="uni0165" unicode="&#x165;" d="M247 571 l26 143 l109 0 l-75 -143 l-60 0 ZM182 672 l0 -155 l103 0 l0 -75 l-103 0 l0 -321 q0 -30 12 -38 q12 -8 52 -8 l39 0 l0 -75 l-65 0 q-69 0 -96 22.5 q-27 22.5 -27 90.5 l0 329 l-88 0 l0 75 l88 0 l0 155 l85 0 Z" /><glyph glyph-name="uni0166" unicode="&#x166;" d="M98 426 l0 61 l142 0 l0 147 l-238 0 l0 80 l571 0 l0 -80 l-238 0 l0 -147 l144 0 l0 -61 l-144 0 l0 -426 l-95 0 l0 426 l-142 0 Z" /><glyph glyph-name="uni0167" unicode="&#x167;" d="M14 291 l0 55 l83 0 l0 96 l-88 0 l0 75 l88 0 l0 155 l85 0 l0 -155 l103 0 l0 -75 l-103 0 l0 -96 l95 0 l0 -55 l-95 0 l0 -170 q0 -30 12 -38 q12 -8 52 -8 l39 0 l0 -75 l-65 0 q-69 0 -96 22.5 q-27 22.5 -27 90.5 l0 178 l-83 0 Z" /><glyph glyph-name="uni0168" unicode="&#x168;" d="M648 714 l0 -456 q0 -136 -72.5 -205.5 q-72.5 -69.5 -208.5 -69.5 q-142 0 -217.5 68 q-75.5 68 -75.5 207 l0 456 l95 0 l0 -456 q0 -96 51 -145.5 q51 -49.5 147 -49.5 q91 0 138.5 49.5 q47.5 49.5 47.5 145.5 l0 456 l95 0 ZM484 907 l52 0 q-6 -44 -32 -79 q-26 -32 -69 -32 q-31 0 -75 20 q-51 19 -66 19 q-19 0 -31 -12 q-9 -8 -18 -30 l-52 0 q23 110 106 110 q28 0 73.5 -20 q45.5 -20 65.5 -20 q33 0 46 44 Z" /><glyph glyph-name="uni0169" unicode="&#x169;" d="M492 517 l0 -517 l-80 0 l0 82 l-2 0 q-52 -94 -168 -94 q-96 0 -137 49.5 q-41 49.5 -41 139.5 l0 340 l85 0 l0 -350 q0 -48 28 -76 q28 -28 77 -28 q75 0 114 44.5 q39 44.5 39 117.5 l0 292 l85 0 ZM399 717 l52 0 q-6 -44 -32 -79 q-26 -32 -69 -32 q-31 0 -75 20 q-51 19 -66 19 q-19 0 -31 -12 q-9 -8 -18 -30 l-52 0 q23 110 106 110 q28 0 73.5 -20 q45.5 -20 65.5 -20 q33 0 46 44 Z" /><glyph glyph-name="uni016A" unicode="&#x16a;" d="M648 714 l0 -456 q0 -136 -72.5 -205.5 q-72.5 -69.5 -208.5 -69.5 q-142 0 -217.5 68 q-75.5 68 -75.5 207 l0 456 l95 0 l0 -456 q0 -96 51 -145.5 q51 -49.5 147 -49.5 q91 0 138.5 49.5 q47.5 49.5 47.5 145.5 l0 456 l95 0 ZM193 817 l0 55 l341 0 l0 -55 l-341 0 Z" /><glyph glyph-name="uni016B" unicode="&#x16b;" d="M492 517 l0 -517 l-80 0 l0 82 l-2 0 q-52 -94 -168 -94 q-96 0 -137 49.5 q-41 49.5 -41 139.5 l0 340 l85 0 l0 -350 q0 -48 28 -76 q28 -28 77 -28 q75 0 114 44.5 q39 44.5 39 117.5 l0 292 l85 0 ZM108 627 l0 55 l341 0 l0 -55 l-341 0 Z" /><glyph glyph-name="uni016C" unicode="&#x16c;" d="M648 714 l0 -456 q0 -136 -72.5 -205.5 q-72.5 -69.5 -208.5 -69.5 q-142 0 -217.5 68 q-75.5 68 -75.5 207 l0 456 l95 0 l0 -456 q0 -96 51 -145.5 q51 -49.5 147 -49.5 q91 0 138.5 49.5 q47.5 49.5 47.5 145.5 l0 456 l95 0 ZM207 919 l50 0 q24 -83 112 -83 q40 0 61 20 q21 20 38 63 l51 0 q-11 -65 -52 -101.5 q-41 -36.5 -106 -36.5 q-134 0 -154 138 Z" /><glyph glyph-name="uni016D" unicode="&#x16d;" d="M492 517 l0 -517 l-80 0 l0 82 l-2 0 q-52 -94 -168 -94 q-96 0 -137 49.5 q-41 49.5 -41 139.5 l0 340 l85 0 l0 -350 q0 -48 28 -76 q28 -28 77 -28 q75 0 114 44.5 q39 44.5 39 117.5 l0 292 l85 0 ZM122 729 l50 0 q24 -83 112 -83 q40 0 61 20 q21 20 38 63 l51 0 q-11 -65 -52 -101.5 q-41 -36.5 -106 -36.5 q-134 0 -154 138 Z" /><glyph glyph-name="uni016E.low" unicode="&#x16e;" d="M648 714 l0 -456 q0 -136 -72.5 -205.5 q-72.5 -69.5 -208.5 -69.5 q-142 0 -217.5 68 q-75.5 68 -75.5 207 l0 456 l95 0 l0 -456 q0 -96 51 -145.5 q51 -49.5 147 -49.5 q91 0 138.5 49.5 q47.5 49.5 47.5 145.5 l0 456 l95 0 ZM282.5 752 q-33.5 33 -33.5 79 q0 46 33.5 79 q33.5 33 79.5 33 q46 0 79.5 -33 q33.5 -33 33.5 -79 q0 -46 -33.5 -79 q-33.5 -33 -79.5 -33 q-46 0 -79.5 33 ZM314 878.5 q-19 -19.5 -19 -48.5 q0 -29 19 -48.5 q19 -19.5 48 -19.5 q29 0 48 19.5 q19 19.5 19 48.5 q0 29 -19 48.5 q-19 19.5 -48 19.5 q-29 0 -48 -19.5 Z" /><glyph glyph-name="uni016F" unicode="&#x16f;" d="M492 517 l0 -517 l-80 0 l0 82 l-2 0 q-52 -94 -168 -94 q-96 0 -137 49.5 q-41 49.5 -41 139.5 l0 340 l85 0 l0 -350 q0 -48 28 -76 q28 -28 77 -28 q75 0 114 44.5 q39 44.5 39 117.5 l0 292 l85 0 ZM198.5 602 q-33.5 33 -33.5 79 q0 46 33.5 79 q33.5 33 79.5 33 q46 0 79.5 -33 q33.5 -33 33.5 -79 q0 -46 -33.5 -79 q-33.5 -33 -79.5 -33 q-46 0 -79.5 33 ZM230 728.5 q-19 -19.5 -19 -48.5 q0 -29 19 -48.5 q19 -19.5 48 -19.5 q29 0 48 19.5 q19 19.5 19 48.5 q0 29 -19 48.5 q-19 19.5 -48 19.5 q-29 0 -48 -19.5 Z" /><glyph glyph-name="uni0170" unicode="&#x170;" d="M648 714 l0 -456 q0 -136 -72.5 -205.5 q-72.5 -69.5 -208.5 -69.5 q-142 0 -217.5 68 q-75.5 68 -75.5 207 l0 456 l95 0 l0 -456 q0 -96 51 -145.5 q51 -49.5 147 -49.5 q91 0 138.5 49.5 q47.5 49.5 47.5 145.5 l0 456 l95 0 ZM403 779 l81 143 l105 0 l-120 -143 l-66 0 ZM247 779 l81 143 l105 0 l-120 -143 l-66 0 Z" /><glyph glyph-name="uni0171" unicode="&#x171;" d="M492 517 l0 -517 l-80 0 l0 82 l-2 0 q-52 -94 -168 -94 q-96 0 -137 49.5 q-41 49.5 -41 139.5 l0 340 l85 0 l0 -350 q0 -48 28 -76 q28 -28 77 -28 q75 0 114 44.5 q39 44.5 39 117.5 l0 292 l85 0 ZM318 589 l81 143 l105 0 l-120 -143 l-66 0 ZM162 589 l81 143 l105 0 l-120 -143 l-66 0 Z" /><glyph glyph-name="uni0172" unicode="&#x172;" d="M648 714 l0 -456 q0 -126 -62.5 -195 q-62.5 -69 -181.5 -78 q-66 -59 -66 -103 q0 -42 41 -42 q35 0 59 30 l32 -18 q-36 -62 -108 -62 q-41 0 -66.5 19 q-25.5 19 -25.5 57 q0 62 85 117 q-136 2 -208.5 70 q-72.5 68 -72.5 205 l0 456 l95 0 l0 -456 q0 -96 51 -145.5 q51 -49.5 147 -49.5 q91 0 138.5 49.5 q47.5 49.5 47.5 145.5 l0 456 l95 0 Z" /><glyph glyph-name="uni0173" unicode="&#x173;" d="M492 517 l0 -517 l-40 0 q-84 -67 -84 -118 q0 -42 41 -42 q35 0 59 30 l32 -18 q-36 -62 -108 -62 q-41 0 -66.5 19 q-25.5 19 -25.5 57 q0 70 112 134 l0 82 l-2 0 q-52 -94 -168 -94 q-96 0 -137 49.5 q-41 49.5 -41 139.5 l0 340 l85 0 l0 -350 q0 -48 28 -76 q28 -28 77 -28 q75 0 114 44.5 q39 44.5 39 117.5 l0 292 l85 0 Z" /><glyph glyph-name="uni0174" unicode="&#x174;" d="M914 714 l-191 -714 l-99 0 l-163 600 l-2 0 l-165 -600 l-99 0 l-183 714 l97 0 l140 -594 l2 0 l160 594 l103 0 l158 -594 l2 0 l145 594 l95 0 ZM314 779 l103 143 l93 0 l104 -143 l-84 0 l-69 96 l-70 -96 l-77 0 Z" /><glyph glyph-name="uni0175" unicode="&#x175;" d="M741 517 l-165 -517 l-90 0 l-105 411 l-2 0 l-104 -411 l-92 0 l-166 517 l94 0 l117 -423 l2 0 l104 423 l93 0 l108 -423 l2 0 l116 423 l88 0 ZM233 589 l103 143 l93 0 l104 -143 l-84 0 l-69 96 l-70 -96 l-77 0 Z" /><glyph glyph-name="uni0176" unicode="&#x176;" d="M646 714 l-273 -422 l0 -292 l-95 0 l0 292 l-276 422 l113 0 l214 -340 l209 340 l108 0 ZM179 779 l103 143 l93 0 l104 -143 l-84 0 l-69 96 l-70 -96 l-77 0 Z" /><glyph glyph-name="uni0177" unicode="&#x177;" d="M492 517 l-225 -586 q-31 -77 -63 -107.5 q-32 -30.5 -87 -30.5 q-35 0 -59 9 l0 78 q38 -12 50 -12 q46 0 70 47 l35 88 l-205 514 l96 0 l151 -423 l2 0 l145 423 l90 0 ZM106 589 l103 143 l93 0 l104 -143 l-84 0 l-69 96 l-70 -96 l-77 0 Z" /><glyph glyph-name="Ydieresis" unicode="&#x178;" d="M185 873 l90 0 l0 -104 l-90 0 l0 104 ZM373 873 l90 0 l0 -104 l-90 0 l0 104 ZM373 292 l0 -292 l-95 0 l0 292 l-276 422 l113 0 l214 -340 l209 340 l108 0 l-273 -422 Z" /><glyph glyph-name="Zacute" unicode="&#x179;" d="M22 80 l444 554 l-410 0 l0 80 l522 0 l0 -80 l-443 -554 l455 0 l0 -80 l-568 0 l0 80 ZM344 908 l109 0 l-131 -143 l-64 0 l86 143 Z" /><glyph glyph-name="zacute" unicode="&#x17a;" d="M22 65 l312 377 l-292 0 l0 75 l402 0 l0 -58 l-316 -384 l330 0 l0 -75 l-436 0 l0 65 ZM268 731 l109 0 l-131 -143 l-64 0 l86 143 Z" /><glyph glyph-name="Zdotaccent" unicode="&#x17b;" d="M22 80 l444 554 l-410 0 l0 80 l522 0 l0 -80 l-443 -554 l455 0 l0 -80 l-568 0 l0 80 ZM350 769 l-90 0 l0 104 l90 0 l0 -104 Z" /><glyph glyph-name="zdotaccent" unicode="&#x17c;" d="M22 65 l312 377 l-292 0 l0 75 l402 0 l0 -58 l-316 -384 l330 0 l0 -75 l-436 0 l0 65 ZM285 592 l-90 0 l0 104 l90 0 l0 -104 Z" /><glyph glyph-name="Zcaron" unicode="&#x17d;" d="M353 765 l-93 0 l-104 143 l84 0 l69 -96 l70 96 l77 0 l-103 -143 ZM22 80 l444 554 l-410 0 l0 80 l522 0 l0 -80 l-443 -554 l455 0 l0 -80 l-568 0 l0 80 Z" /><glyph glyph-name="zcaron" unicode="&#x17e;" d="M287 588 l-93 0 l-104 143 l84 0 l69 -96 l70 96 l77 0 l-103 -143 ZM22 65 l312 377 l-292 0 l0 75 l402 0 l0 -58 l-316 -384 l330 0 l0 -75 l-436 0 l0 65 Z" /><glyph glyph-name="uni017F" unicode="&#x17f;" d="M173 451 l0 -451 l-87 0 l0 451 l-72 0 l0 70 l72 0 l0 82 q1 53 19 80 q31 45 119 45 q7 0 37 -2 l0 -80 q-10 0 -19.5 0.5 q-9.5 0.5 -11.5 0.5 q-40 0 -48 -21 q-8 -21 -9 -175 Z" /><glyph glyph-name="uni0180" unicode="&#x180;" d="M313 58 q79 0 114 56 q36 57 36 141 q0 97 -40.5 149 q-40.5 52 -108.5 52 q-63 0 -102 -50 q-39 -50 -39 -145 q0 -96 39 -149.5 q39 -53.5 101 -53.5 ZM230 507 q40 25 101 25 q107 0 166 -84 q59 -83 59 -198 q0 -123 -64 -196 q-64 -73 -152 -73 q-111 0 -169 92 l0 -73 l-79 0 l0 591 l-65 0 l0 58 l65 0 l0 71 l85 0 l0 -71 l163 0 l0 -58 l-163 0 l0 -135 q29 35 53 51 Z" /><glyph glyph-name="uni0182" unicode="&#x182;" d="M85 0 l0 717 l525 0 l0 -88 l-427 0 l0 -215 l225 0 q108 0 161 -62 q52 -61 52 -146 q0 -97 -58 -151.5 q-58 -54.5 -155 -54.5 l-323 0 ZM464 99 q59 29 59 107 q0 126 -147 126 l-193 0 l0 -249 l193 0 q57 0 88 16 Z" /><glyph glyph-name="uni0183" unicode="&#x183;" d="M58 0 l0 720 l14 0 l382 0 l0 -88 l-311 0 l0 -173 q60 78 156 78 q100 0 159.5 -69 q59.5 -69 59.5 -197 q0 -123 -60 -206 q-60 -82 -166 -82 q-60 0 -101 29 q-21 15 -52 55 l0 -67 l-81 0 ZM428 267 q0 86 -36.5 138.5 q-36.5 52.5 -102.5 52.5 q-59 0 -106 -45 q-45 -43 -45 -146 q0 -75 19 -120 q35 -86 129 -86 q70 0 106 55 q36 55 36 151 Z" /><glyph glyph-name="uni0186" unicode="&#x186;" d="M50 216 l95 0 q34 -151 199 -151 q109 0 173 77 q64 77 64 226 q0 125 -59 204 q-58 79 -176 79 q-107 0 -163 -83 q-30 -44 -45 -114 l-95 0 q14 114 84 190 q86 92 231 92 q124 0 210 -75 q112 -100 112 -309 q0 -159 -84 -261 q-92 -110 -251 -110 q-136 0 -211 72 q-75 72 -84 163 Z" /><glyph glyph-name="uni0189" unicode="&#x189;" d="M16 335 l0 87 l65 0 l0 295 l274 0 q178 0 259 -122 q59 -91 59 -224 q0 -120 -45 -213 q-77 -158 -258 -158 l-289 0 l0 335 l-65 0 ZM178 634 l0 -212 l205 0 l0 -87 l-205 0 l0 -252 l174 0 q51 0 81 10 q57 20 92 74 q29 43 42 111 q7 38 7 75 q0 281 -223 281 l-173 0 Z" /><glyph glyph-name="uni018B" unicode="&#x18b;" d="M621 717 l0 -717 l-323 0 q-97 0 -155 54.5 q-58 54.5 -58 151.5 q0 85 52 146 q53 62 161 62 l226 0 l0 215 l-427 0 l0 88 l524 0 ZM242 99 q31 -16 89 -16 l193 0 l0 249 l-193 0 q-147 0 -147 -126 q0 -79 58 -107 Z" /><glyph glyph-name="uni018C" unicode="&#x18c;" d="M518 720 l0 -720 l-81 0 l0 67 q-31 -40 -52 -55 q-41 -29 -101 -29 q-106 0 -166 82 q-60 83 -60 206 q0 128 59 197 q59 69 160 69 q96 0 156 -78 l0 173 l-311 0 l0 88 l381 0 l15 0 ZM147 267 q0 -96 36.5 -151 q36.5 -55 106.5 -55 q94 0 129 86 q18 47 18 120 q0 103 -45 146 q-45 45 -105 45 q-67 0 -103.5 -52.5 q-36.5 -52.5 -36.5 -138.5 Z" /><glyph glyph-name="uni018D" unicode="&#x18d;" d="M36 476 q0 103 67 170 q67 69 177 69 q106 0 173 -66 q68 -65 68 -164 q0 -124 -58 -200 q-59 -77 -181 -77 l187 -138 l0 -80 l-383 0 l0 72 l280 0 l-207 154 q-123 90 -123 260 ZM278 635 q-74 0 -118 -53 q-44 -53 -44 -132 q0 -102 48 -141 q48 -39 113 -39 l15 0 l44 7 q33 4 68 58 q36 54 36 124 q0 77 -45 126 q-44 50 -117 50 Z" /><glyph glyph-name="uni018E" unicode="&#x18e;" d="M616 717 l0 -717 l-531 0 l0 85 l436 0 l0 243 l-396 0 l0 83 l396 0 l0 218 l-428 0 l0 88 l523 0 Z" /><glyph glyph-name="uni018F" unicode="&#x18f;" d="M370 -16 q-85 0 -150.5 30.5 q-65.5 30.5 -104 83 q-38.5 52.5 -58 118 q-19.5 65.5 -19.5 141.5 q0 28 2 39 l568 0 q-13 110 -76.5 183.5 q-63.5 73.5 -168.5 73.5 q-77 0 -137 -40.5 q-60 -40.5 -82 -104.5 l-94 0 q19 103 109.5 163 q90.5 60 201.5 60 q162 0 253 -107 q91 -107 91 -268 q0 -172 -95 -272 q-95 -100 -240 -100 ZM366 61 q108 0 174 71.5 q66 71.5 72 184.5 l-478 0 q3 -48 17 -91 q14 -43 40.5 -81.5 q26.5 -38.5 71.5 -61 q45 -22.5 103 -22.5 Z" /><glyph glyph-name="uni0190" unicode="&#x190;" d="M269 50 q64 0 107 52 q38 46 45 114 l73 0 q-6 -96 -62 -163 q-65 -77 -173 -77 q-93 0 -155 69 q-59 68 -59 161 q0 65 18 104 q21 45 74 74 q-74 62 -74 148 q0 95 52 153 q54 59 148 59 q103 0 161 -70 q56 -68 56 -170 l-72 -1 q0 61 -38 113 q-42 55 -102 55 q-58 0 -91.5 -33.5 q-33.5 -33.5 -33.5 -92.5 q0 -77 44 -106 q31 -21 114 -23 l0 -72 q-32 2 -35 2 q-143 0 -143 -135 q0 -71 37 -114 q41 -47 109 -47 Z" /><glyph glyph-name="uni0191" unicode="&#x191;" d="M1 -208 l0 76 q58 1 71 11 q12 7 12 53 l0 589 l1 0 l0 196 l498 0 l0 -88 l-400 0 l0 -217 l352 0 l0 -86 l-352 0 l0 -404 q0 -57 -19 -85 q-41 -48 -127 -48 q-16 0 -36 3 Z" /><glyph glyph-name="florin" unicode="&#x192;" d="M478 639 l-59 0 q-50 0 -62 -52 l-31 -138 l102 0 l-14 -68 l-100 0 l-55 -311 q-24 -135 -65 -184.5 q-41 -49.5 -125 -49.5 l-66 0 l14 75 q79 0 103 17 q24 17 36 84 l70 369 l-92 0 l13 68 l91 0 l26 136 q12 59 52 94 q40 35 102 35 l74 0 l-14 -75 Z" /><glyph glyph-name="uni0196" unicode="&#x196;" d="M201 64 l0 -76 q-9 0 -20 -1 q-11 -1 -15 -1 q-86 0 -117 48 q-19 28 -19 85 l0 598 l88 0 l0 -589 q0 -45 12 -54 q14 -9 71 -10 Z" /><glyph glyph-name="uni0197" unicode="&#x197;" d="M17 392 l0 57 l113 0 l0 268 l88 0 l0 -268 l112 0 l0 -57 l-112 0 l0 -392 l-88 0 l0 392 l-113 0 Z" /><glyph glyph-name="uni019A" unicode="&#x19a;" d="M17 392 l0 57 l113 0 l0 268 l88 0 l0 -268 l112 0 l0 -57 l-112 0 l0 -392 l-88 0 l0 392 l-113 0 Z" /><glyph glyph-name="uni019B" unicode="&#x19b;" d="M64 499 l0 58 l125 35 l-2 7 q-19 49 -60 47 l-32 0 l0 73 q22 5 50 5 q50 0 76 -26 q23 -26 46 -84 l141 40 l0 -57 l-120 -35 l182 -449 q9 -17 17 -28 q10 -13 26 -13 l25 0 l0 -72 l-51 0 q-72 0 -99 74 l-122 322 l-151 -396 l-97 0 l205 503 l-14 37 l-145 -41 Z" /><glyph glyph-name="uni019D" unicode="&#x19d;" d="M-7 -208 l0 76 q58 1 71 11 q12 7 12 53 l0 785 l115 0 l362 -581 l0 581 l93 0 l0 -717 l-109 0 l-368 581 l0 -581 l-5 0 l0 -78 q0 -56 -18 -85 q-32 -48 -117 -48 q-16 0 -36 3 Z" /><glyph glyph-name="uni019E" unicode="&#x19e;" d="M64 0 l0 523 l84 0 l0 -74 q69 86 171 86 q111 0 150 -78 q22 -41 22 -122 l0 -529 l-90 0 l0 524 q0 46 -14 77 q-22 49 -85 49 q-33 0 -51 -7 q-34 -10 -64 -43 q-21 -26 -28 -53 q-7 -27 -7 -79 l0 -274 l-88 0 Z" /><glyph glyph-name="uni019F" unicode="&#x19f;" d="M667 615 q71 -95 71 -244 q0 -161 -81 -267 q-96 -125 -273 -125 q-166 0 -260 109 q-85 106 -85 267 q0 145 72 249 q93 133 275 133 q189 0 281 -122 ZM200 147 q60 -81 196 -81 q128 0 185 92 q46 72 55 166 l-496 0 q6 -104 60 -177 ZM572 573 q-66 77 -180 77 q-112 0 -182 -76 q-59 -65 -68 -178 l496 0 q-6 108 -66 177 Z" /><glyph glyph-name="uni01A0" unicode="&#x1a0;" d="M738 371 q0 -161 -81 -267 q-96 -125 -273 -125 q-166 0 -260 109 q-85 106 -85 267 q0 145 72 249 q93 133 275 133 q178 0 269 -108 q15 -3 33 1 q22 2 42 9 l6 3 l5 4 l-20 48 l98 41 l40 -96 l-91 -38 q-42 -17 -79 -20 q49 -85 49 -210 ZM639 370 q0 127 -67 203 q-66 77 -180 77 q-112 0 -182 -76 q-70 -76 -70 -225 q0 -120 60 -202 q60 -81 196 -81 q128 0 185 92 q58 91 58 212 Z" /><glyph glyph-name="uni01A1" unicode="&#x1a1;" d="M516 272 q0 -126 -62 -209 q-61 -82 -190 -82 q-108 0 -172 73 q-63 73 -63 196 q0 133 67 210 q68 78 179 78 q101 0 171 -67 q12 -11 21 -24 q4 0 16 2 q23 1 42 9 l6 3 l5 4 l-20 49 l98 41 l40 -97 l-92 -38 q-33 -14 -69 -19 q23 -55 23 -129 ZM424 270 q0 71 -23 119 q-38 72 -128 72 q-80 0 -118 -62 q-36 -61 -36 -148 q0 -83 36 -139 q37 -55 117 -55 q88 0 119 66 q33 66 33 147 Z" /><glyph glyph-name="uni01A2" unicode="&#x1a2;" d="M630 -197 l0 831 l-75 0 l0 -606 q-77 -44 -175 -44 q-82 0 -148.5 30.5 q-66.5 30.5 -108 82.5 q-41.5 52 -63.5 118.5 q-22 66.5 -22 141.5 q0 100 37 183.5 q37 83.5 116.5 137 q79.5 53.5 188.5 53.5 q64 0 115 -17 l230 0 l0 -911 l-95 0 ZM380 63 q40 0 80 12 l0 564 q-48 12 -80 12 q-83 0 -140.5 -44.5 q-57.5 -44.5 -82 -109 q-24.5 -64.5 -24.5 -140.5 q0 -76 24.5 -140.5 q24.5 -64.5 82 -109 q57.5 -44.5 140.5 -44.5 Z" /><glyph glyph-name="uni01A3" unicode="&#x1a3;" d="M493 -197 l0 639 l-66 0 l0 -416 q-60 -37 -140 -37 q-119 0 -185 75.5 q-66 75.5 -66 193.5 q0 119 66 195 q66 76 185 76 q47 0 84 -12 l207 0 l0 -714 l-85 0 ZM287 63 q28 0 55 10 l0 371 q-27 10 -55 10 q-69 0 -115 -52.5 q-46 -52.5 -46 -143.5 q0 -91 46 -143 q46 -52 115 -52 Z" /><glyph glyph-name="uni01A6" unicode="&#x1a6;" d="M25 0 l0 717 l98 0 l0 -97 l234 0 q82 0 136 -24 q101 -47 101 -170 q0 -119 -101 -171 q44 -18 64 -46.5 q20 -28.5 23 -88.5 l3 -97 q2 -43 7 -61 q9 -34 31 -44 l0 -16 l-119 0 q-10 18 -13 81 l-6 120 q-3 70 -52 94 q-27 13 -87 13 l-221 0 l0 -210 l-98 0 ZM123 291 l224 0 q73 0 110.5 29 q37.5 29 37.5 97 q0 77 -56 104 q-29 15 -79 15 l-237 0 l0 -245 Z" /><glyph glyph-name="uni01A7" unicode="&#x1a7;" d="M527 231 l92 0 q2 -116 -75 -184 q-76 -68 -209 -68 q-115 0 -202 51 q-86 53 -86 171 q0 95 68 146 q41 29 113 45 l100 23 q101 22 130 39 q44 26 44 77 q0 52 -40 86 q-40 34 -121 34 q-106 0 -151 -56 q-24 -33 -31 -88 l-91 0 q0 119 79 173 q79 55 191 55 q122 0 190 -62 q67 -61 67 -158 q0 -90 -69 -135 q-40 -26 -134 -47 l-98 -22 q-78 -18 -116 -42 q-36 -25 -36 -84 q0 -78 87 -108 q42 -16 99 -16 q121 0 171 71 q25 37 28 99 Z" /><glyph glyph-name="uni01A8" unicode="&#x1a8;" d="M379 164 l85 0 q-5 -80 -53 -131 q-48 -53 -164 -53 q-109 0 -162 51 q-53 51 -53 120 q0 73 51 106 q33 23 127 45 l59 14 q37 9 57 21 q34 21 34 55 q0 32 -26 50.5 q-26 18.5 -75 18.5 q-75 0 -105 -34 q-20 -25 -21 -54 l-83 0 q-2 50 32 94 q52 70 170 70 q90 0 143.5 -45.5 q53.5 -45.5 53.5 -120.5 q0 -63 -56 -99 q-30 -20 -99 -37 l-70 -18 q-52 -13 -75 -25 q-30 -16 -30 -51 q0 -42 35.5 -64.5 q35.5 -22.5 87.5 -22.5 q82 0 115 43 q17 22 22 67 Z" /><glyph glyph-name="uni01A9" unicode="&#x1a9;" d="M28 0 l0 80 l291 277 l-269 278 l0 80 l484 0 l0 -80 l-371 0 l269 -278 l-291 -277 l405 0 l0 -80 l-518 0 Z" /><glyph glyph-name="uni01AE" unicode="&#x1ae;" d="M175 -208 l0 76 q58 1 71 11 q12 7 12 53 l0 700 l-242 0 l0 85 l582 0 l0 -85 l-242 0 l0 -710 q0 -56 -18 -85 q-42 -48 -128 -48 q-15 0 -35 3 Z" /><glyph glyph-name="uni01AF" unicode="&#x1af;" d="M83 717 l99 0 l0 -443 q0 -77 29 -130 q44 -78 146 -78 q125 0 168 84 q24 46 24 124 l0 443 l99 0 l0 -62 q4 0 18 2 q19 1 42 10 l5 2 q4 2 5 4 l-20 49 l98 41 l40 -97 l-91 -38 q-51 -21 -97 -20 l0 -294 q0 -132 -36 -203 q-64 -130 -247 -130 q-182 0 -246 130 q-36 71 -36 203 l0 403 Z" /><glyph glyph-name="uni01B0" unicode="&#x1b0;" d="M62 523 l90 0 l0 -347 q0 -41 13 -66 q23 -47 87 -47 q92 0 125 83 q19 42 19 120 l0 257 l87 0 l0 -76 q6 0 22 2 q23 1 42 9 l6 3 l5 4 l-20 49 l98 41 l40 -97 l-92 -38 q-50 -22 -101 -20 l0 -400 l-83 0 l1 77 q-17 -31 -42 -50 q-50 -41 -122 -41 q-113 0 -153 75 q-22 40 -22 106 l0 356 Z" /><glyph glyph-name="uni01B1" unicode="&#x1b1;" d="M622 338 q0 93 -50 182 q-49 88 -134 124 l0 81 l274 0 l0 -80 l-182 0 q60 -24 121 -106 q61 -80 61 -201 q0 -148 -87 -243 q-86 -95 -249 -95 q-163 0 -250 94 q-86 95 -86 244 q0 120 60 201 q61 82 122 106 l-182 0 l0 80 l274 0 l0 -81 q-85 -36 -134 -123 q-50 -88 -50 -183 q0 -108 65 -179 q66 -69 179 -69 q116 0 182 69 q66 69 66 179 Z" /><glyph glyph-name="uni01B5" unicode="&#x1b5;" d="M22 0 l0 80 l198 247 l-132 0 l0 80 l196 0 l182 227 l-410 0 l0 80 l522 0 l0 -80 l-182 -227 l146 0 l0 -80 l-210 0 l-197 -247 l455 0 l0 -80 l-568 0 Z" /><glyph glyph-name="uni01B6" unicode="&#x1b6;" d="M22 0 l0 65 l140 170 l-82 0 l0 75 l144 0 l110 132 l-292 0 l0 75 l402 0 l0 -58 l-123 -149 l81 0 l0 -75 l-143 0 l-131 -160 l330 0 l0 -75 l-436 0 Z" /><glyph glyph-name="uni01B7" unicode="&#x1b7;" d="M238 406 l-113 0 l269 231 l-372 0 l0 80 l485 0 l0 -80 l-176 -152 q74 -14 125 -72 q67 -76 67 -215 q0 -112 -76 -158 q-75 -45 -178 -45 q-91 0 -165 48 q-73 48 -87 152 l85 0 q12 -57 59 -92 q47 -33 101 -33 q71 0 119 24 q48 26 48 103 q0 79 -30 146 q-29 68 -113 68 l-48 -5 Z" /><glyph glyph-name="uni01B8" unicode="&#x1b8;" d="M425 406 l-113 0 l-48 5 q-84 0 -114 -68 q-30 -67 -30 -146 q0 -77 48 -103 q48 -24 119 -24 q55 0 101 33 q47 35 59 92 l86 0 q-15 -104 -88 -152 q-73 -48 -165 -48 q-102 0 -178 45 q-76 46 -76 158 q0 139 67 215 q53 59 125 72 l-176 152 l0 80 l485 0 l0 -80 l-371 0 l269 -231 Z" /><glyph glyph-name="uni01B9" unicode="&#x1b9;" d="M424 209 l-113 0 l-48 5 q-84 0 -114 -68 q-30 -67 -30 -146 q0 -78 45 -107 q46 -30 117 -30 q55 0 79 39 q25 36 37 96 l86 0 q-30 -210 -209 -210 q-102 0 -176 51 q-73 49 -73 162 q0 139 67 215 q53 59 125 72 l-175 152 l0 81 l435 0 l0 -81 l-322 0 l269 -231 Z" /><glyph glyph-name="uni01BB" unicode="&#x1bb;" d="M198 279 l94 54 q64 39 88 63 q40 40 40 92 q0 61 -36.5 97 q-36.5 36 -97.5 36 q-90 0 -125 -68 q-19 -37 -21 -102 l-89 0 q1 90 33 149 q58 102 202 102 q119 0 175 -65 q56 -65 56 -145 q0 -84 -59 -143 q-34 -35 -123 -84 l-66 -37 q-46 -26 -76 -51 q-48 -42 -61 -94 l382 0 l0 -83 l-480 0 q4 87 37 157 q33 67 127 122 ZM540 310 l-478 0 l0 69 l478 0 l0 -69 Z" /><glyph glyph-name="uni01C0" unicode="&#x1c0;" d="M172 728 l0 -728 l-83 0 l0 728 l83 0 Z" /><glyph glyph-name="uni01C1" unicode="&#x1c1;" d="M172 728 l0 -728 l-83 0 l0 728 l83 0 ZM343 728 l0 -728 l-83 0 l0 728 l83 0 Z" /><glyph glyph-name="uni01C2" unicode="&#x1c2;" d="M312 489 l218 0 l0 -82 l-218 0 l0 -127 l218 0 l0 -84 l-218 0 l0 -196 l-83 0 l0 196 l-208 0 l0 84 l208 0 l0 127 l-208 0 l0 82 l208 0 l0 239 l83 0 l0 -239 Z" /><glyph glyph-name="uni01C3" unicode="&#x1c3;" d="M95 481 l0 236 l99 0 l0 -236 l-24 -310 l-49 0 l-26 310 ZM95 0 l0 102 l97 0 l0 -102 l-97 0 Z" /><glyph glyph-name="uni01C4" unicode="&#x1c4;" d="M154 83 l174 0 q51 0 81 10 q57 20 92 74 q29 43 42 111 q7 38 7 75 q0 281 -223 281 l-173 0 l0 -551 ZM57 0 l0 717 l290 0 q148 0 230 -105 q72 -94 72 -242 q0 -117 -43 -207 q-75 -163 -260 -163 l-289 0 ZM638 2 l0 81 l440 551 l-408 0 l0 86 l533 0 l0 -84 l-442 -548 l442 0 l0 -86 l-565 0 ZM1063 918 l-100 -141 l-92 0 l-100 141 l80 0 l66 -94 l66 94 l80 0 Z" /><glyph glyph-name="uni01C5" unicode="&#x1c5;" d="M136 83 l174 0 q51 0 81 10 q57 20 92 74 q29 43 42 111 q7 38 7 75 q0 281 -223 281 l-173 0 l0 -551 ZM39 0 l0 717 l290 0 q147 0 230 -105 q72 -94 72 -242 q0 -117 -43 -207 q-75 -163 -260 -163 l-289 0 ZM641 0 l0 69 l310 375 l-287 0 l0 79 l405 0 l0 -72 l-308 -372 l317 0 l0 -79 l-437 0 ZM1015 726 l-99 -142 l-93 0 l-99 142 l79 0 l66 -94 l66 94 l80 0 Z" /><glyph glyph-name="uni01C6" unicode="&#x1c6;" d="M270 58 q62 0 101 53.5 q39 53.5 39 149.5 q0 95 -39 145 q-39 50 -102 50 q-68 0 -108.5 -52 q-40.5 -52 -40.5 -149 q0 -83 35 -141 q36 -56 115 -56 ZM353 507 q24 -16 53 -51 l0 264 l85 0 l0 -720 l-79 0 l0 73 q-58 -92 -169 -92 q-88 0 -152 73 q-64 73 -64 196 q0 116 58 198 q58 84 167 84 q61 0 101 -25 ZM529 0 l0 69 l310 375 l-287 0 l0 79 l406 0 l0 -72 l-309 -372 l318 0 l0 -79 l-438 0 ZM914 723 l-100 -141 l-92 0 l-99 141 l79 0 l66 -94 l66 94 l80 0 Z" /><glyph glyph-name="uni01C7" unicode="&#x1c7;" d="M52 0 l0 717 l97 0 l0 -632 l364 0 l0 -85 l-461 0 ZM956 717 l0 -503 q0 -92 -27 -141 q-50 -92 -190 -92 q-80 0 -138 43 q-57 44 -57 156 l0 51 l92 0 l0 -51 q0 -118 107 -118 q78 0 102 54 q14 33 14 123 l0 478 l97 0 Z" /><glyph glyph-name="uni01C8" unicode="&#x1c8;" d="M55 0 l0 717 l97 0 l0 -632 l364 0 l0 -85 l-461 0 ZM683 717 l0 -101 l-88 0 l0 101 l88 0 ZM512 -208 l0 76 q58 1 71 11 q12 8 12 53 l0 589 l88 0 l0 -599 q0 -57 -19 -85 q-32 -48 -117 -48 q-15 0 -35 3 Z" /><glyph glyph-name="uni01C9" unicode="&#x1c9;" d="M43 0 l0 717 l88 0 l0 -717 l-88 0 ZM346 717 l0 -101 l-88 0 l0 101 l88 0 ZM175 -208 l0 76 q58 1 71 11 q12 7 12 53 l0 589 l88 0 l0 -599 q0 -57 -19 -85 q-31 -48 -117 -48 q-15 0 -35 3 Z" /><glyph glyph-name="uni01CA" unicode="&#x1ca;" d="M55 0 l0 717 l115 0 l362 -581 l0 581 l93 0 l0 -717 l-109 0 l-368 581 l0 -581 l-93 0 ZM1069 730 l0 -503 q0 -91 -27 -141 q-50 -92 -189 -92 q-80 0 -138 44 q-57 43 -57 155 l0 52 l92 0 l0 -52 q0 -117 107 -117 q78 0 101 53 q15 33 15 123 l0 478 l96 0 Z" /><glyph glyph-name="uni01CB" unicode="&#x1cb;" d="M52 0 l0 717 l115 0 l362 -581 l0 581 l93 0 l0 -717 l-109 0 l-368 581 l0 -581 l-93 0 ZM846 717 l0 -101 l-88 0 l0 101 l88 0 ZM675 -208 l0 76 q58 1 71 11 q12 8 12 53 l0 589 l88 0 l0 -599 q0 -57 -19 -85 q-31 -48 -117 -48 q-15 0 -35 3 Z" /><glyph glyph-name="uni01CC" unicode="&#x1cc;" d="M41 0 l0 523 l83 0 l0 -74 q69 86 171 86 q111 0 150 -78 q22 -41 22 -122 l0 -335 l-90 0 l0 330 q0 46 -14 77 q-22 49 -85 49 q-33 0 -51 -7 q-35 -10 -63 -43 q-21 -26 -28.5 -53 q-7.5 -27 -7.5 -79 l0 -274 l-87 0 ZM680 717 l0 -101 l-88 0 l0 101 l88 0 ZM509 -208 l0 76 q58 1 71 11 q12 8 12 53 l0 589 l88 0 l0 -599 q0 -57 -19 -85 q-31 -48 -117 -48 q-15 0 -35 3 Z" /><glyph glyph-name="uni01CD" unicode="&#x1cd;" d="M220 294 l224 0 l-109 317 l-115 -317 ZM15 0 l270 717 l110 0 l260 -717 l-107 0 l-72 215 l-284 0 l-78 -215 l-99 0 ZM500 913 l-99 -142 l-93 0 l-99 142 l80 0 l65 -94 l66 94 l80 0 Z" /><glyph glyph-name="uni01CE" unicode="&#x1ce;" d="M226 57 q46 0 89 22 q74 35 74 116 l0 71 q-32 -20 -92 -27 l-53 -7 q-47 -6 -72 -20 q-40 -22 -40 -73 q0 -37 27 -59.5 q27 -22.5 67 -22.5 ZM205 299 l140 18 q30 4 40 25 q6 12 6 34 q0 85 -123 85 q-70 0 -98 -37 q-16 -19 -21 -61 l-82 0 q1 97 62 135 q62 38 141 38 q92 0 149 -36 q58 -34 58 -109 l0 -301 q0 -15 6 -22.5 q6 -7.5 23 -7.5 q5 0 29 2 l0 -64 q-31 -9 -61 -9 q-45 0 -66 32 q-10 17 -15 48 q-29 -37 -79.5 -62 q-50.5 -25 -108.5 -25 q-72 0 -119 44 q-46 45 -46 111 q0 71 44 112 q44 41 121 50 ZM437 718 l-99 -141 l-93 0 l-99 141 l80 0 l66 -94 l65 94 l80 0 Z" /><glyph glyph-name="uni01CF" unicode="&#x1cf;" d="M98 0 l0 717 l98 0 l0 -717 l-98 0 ZM294 916 l-99 -142 l-93 0 l-99 142 l80 0 l65 -94 l66 94 l80 0 Z" /><glyph glyph-name="uni01D0" unicode="&#x1d0;" d="M92 0 l0 521 l90 0 l0 -521 l-90 0 ZM291 728 l-100 -141 l-92 0 l-99 141 l79 0 l66 -94 l66 94 l80 0 Z" /><glyph glyph-name="uni01D1" unicode="&#x1d1;" d="M667 615 q71 -95 71 -244 q0 -161 -81 -267 q-96 -125 -273 -125 q-166 0 -260 109 q-85 106 -85 267 q0 145 72 249 q93 133 275 133 q189 0 281 -122 ZM639 370 q0 127 -67 203 q-66 77 -180 77 q-112 0 -182 -76 q-70 -76 -70 -225 q0 -120 60 -202 q60 -81 196 -81 q128 0 185 92 q58 91 58 212 ZM547 929 l-100 -141 l-93 0 l-99 141 l80 0 l66 -94 l66 94 l80 0 Z" /><glyph glyph-name="uni01D2" unicode="&#x1d2;" d="M424 270 q0 71 -23 119 q-38 72 -128 72 q-80 0 -118 -62 q-36 -61 -36 -148 q0 -83 36 -139 q37 -55 117 -55 q88 0 119 66 q33 66 33 147 ZM516 272 q0 -126 -62 -209 q-61 -82 -190 -82 q-108 0 -172 73 q-63 73 -63 196 q0 133 67 210 q68 78 179 78 q100 0 171 -68 q70 -67 70 -198 ZM436 728 l-100 -142 l-92 0 l-99 142 l79 0 l66 -94 l66 94 l80 0 Z" /><glyph glyph-name="uni01D3" unicode="&#x1d3;" d="M83 717 l99 0 l0 -443 q0 -77 29 -130 q44 -78 146 -78 q125 0 168 84 q24 46 24 124 l0 443 l99 0 l0 -403 q0 -132 -36 -203 q-64 -130 -247 -130 q-182 0 -246 130 q-36 71 -36 203 l0 403 ZM529 897 l-100 -141 l-93 0 l-99 141 l80 0 l66 -93 l66 93 l80 0 Z" /><glyph glyph-name="uni01D4" unicode="&#x1d4;" d="M62 523 l90 0 l0 -347 q0 -41 13 -66 q23 -47 87 -47 q92 0 125 83 q19 42 19 120 l0 257 l87 0 l0 -523 l-83 0 l1 77 q-17 -31 -42 -50 q-50 -41 -122 -41 q-113 0 -153 75 q-22 40 -22 106 l0 356 ZM437 712 l-100 -141 l-93 0 l-99 141 l80 0 l66 -93 l65 93 l81 0 Z" /><glyph glyph-name="uni01D5" unicode="&#x1d5;" d="M83 717 l99 0 l0 -443 q0 -77 29 -130 q44 -78 146 -78 q125 0 168 84 q24 46 24 124 l0 443 l99 0 l0 -403 q0 -132 -36 -203 q-64 -130 -247 -130 q-182 0 -246 130 q-36 71 -36 203 l0 403 ZM412 762 l0 102 l91 0 l0 -102 l-91 0 ZM251 762 l0 102 l91 0 l0 -102 l-91 0 ZM217 921 l0 58 l312 0 l0 -58 l-312 0 Z" /><glyph glyph-name="uni01D6" unicode="&#x1d6;" d="M62 523 l90 0 l0 -347 q0 -41 13 -66 q23 -47 87 -47 q92 0 125 83 q19 42 19 120 l0 257 l87 0 l0 -523 l-83 0 l1 77 q-17 -31 -42 -50 q-50 -41 -122 -41 q-113 0 -153 75 q-22 40 -22 106 l0 356 ZM319 565 l0 102 l92 0 l0 -102 l-92 0 ZM158 565 l0 102 l92 0 l0 -102 l-92 0 ZM135 721 l0 58 l312 0 l0 -58 l-312 0 Z" /><glyph glyph-name="uni01D7" unicode="&#x1d7;" d="M83 717 l99 0 l0 -443 q0 -77 29 -130 q44 -78 146 -78 q125 0 168 84 q24 46 24 124 l0 443 l99 0 l0 -403 q0 -132 -36 -203 q-64 -130 -247 -130 q-182 0 -246 130 q-36 71 -36 203 l0 403 ZM412 751 l0 102 l91 0 l0 -102 l-91 0 ZM251 751 l0 102 l91 0 l0 -102 l-91 0 ZM408 1035 l109 0 l-131 -141 l-67 0 l89 141 Z" /><glyph glyph-name="uni01D8" unicode="&#x1d8;" d="M62 523 l90 0 l0 -347 q0 -41 13 -66 q23 -47 87 -47 q92 0 125 83 q19 42 19 120 l0 257 l87 0 l0 -523 l-83 0 l1 77 q-17 -31 -42 -50 q-50 -41 -122 -41 q-113 0 -153 75 q-22 40 -22 106 l0 356 ZM308 567 l0 102 l91 0 l0 -102 l-91 0 ZM147 567 l0 102 l91 0 l0 -102 l-91 0 ZM309 855 l108 0 l-130 -141 l-67 0 l89 141 Z" /><glyph glyph-name="uni01D9" unicode="&#x1d9;" d="M83 717 l99 0 l0 -443 q0 -77 29 -130 q44 -78 146 -78 q125 0 168 84 q24 46 24 124 l0 443 l99 0 l0 -403 q0 -132 -36 -203 q-64 -130 -247 -130 q-182 0 -246 130 q-36 71 -36 203 l0 403 ZM400 749 l0 102 l92 0 l0 -102 l-92 0 ZM239 749 l0 102 l92 0 l0 -102 l-92 0 ZM515 1027 l-100 -141 l-93 0 l-99 141 l80 0 l66 -94 l66 94 l80 0 Z" /><glyph glyph-name="uni01DA" unicode="&#x1da;" d="M62 523 l90 0 l0 -347 q0 -41 13 -66 q23 -47 87 -47 q92 0 125 83 q19 42 19 120 l0 257 l87 0 l0 -523 l-83 0 l1 77 q-17 -31 -42 -50 q-50 -41 -122 -41 q-113 0 -153 75 q-22 40 -22 106 l0 356 ZM310 551 l0 102 l91 0 l0 -102 l-91 0 ZM148 551 l0 102 l92 0 l0 -102 l-92 0 ZM421 831 l-99 -142 l-93 0 l-99 142 l79 0 l66 -94 l66 94 l80 0 Z" /><glyph glyph-name="uni01DB" unicode="&#x1db;" d="M83 717 l99 0 l0 -443 q0 -77 29 -130 q44 -78 146 -78 q125 0 168 84 q24 46 24 124 l0 443 l99 0 l0 -403 q0 -132 -36 -203 q-64 -130 -247 -130 q-182 0 -246 130 q-36 71 -36 203 l0 403 ZM395 739 l0 101 l91 0 l0 -101 l-91 0 ZM234 739 l0 101 l91 0 l0 -101 l-91 0 ZM316 1010 l89 -141 l-67 0 l-130 141 l108 0 Z" /><glyph glyph-name="uni01DC" unicode="&#x1dc;" d="M62 523 l90 0 l0 -347 q0 -41 13 -66 q23 -47 87 -47 q92 0 125 83 q19 42 19 120 l0 257 l87 0 l0 -523 l-83 0 l1 77 q-17 -31 -42 -50 q-50 -41 -122 -41 q-113 0 -153 75 q-22 40 -22 106 l0 356 ZM309 554 l0 101 l91 0 l0 -101 l-91 0 ZM147 554 l0 101 l92 0 l0 -101 l-92 0 ZM232 828 l89 -141 l-67 0 l-130 141 l108 0 Z" /><glyph glyph-name="uni01DD" unicode="&#x1dd;" d="M78 75 q-26 40 -35 92 q-8 38 -8 115 l383 0 q-5 176 -146 176 q-70 0 -110 -45 q-23 -27 -33 -61 l-87 0 q4 28 23 63.5 q19 35.5 43 58.5 q40 38 100 52 q34 8 71 8 q98 0 166 -71 q68 -71 68 -199 q0 -126 -69 -205 q-67 -78 -178 -78 q-56 0 -108.5 26 q-52.5 26 -79.5 68 ZM416 212 l-291 0 q6 -57 25 -91 q38 -63 121 -63 q62 0 102 43 q42 45 43 111 Z" /><glyph glyph-name="uni01DE" unicode="&#x1de;" d="M220 294 l224 0 l-109 317 l-115 -317 ZM15 0 l270 717 l110 0 l260 -717 l-107 0 l-72 215 l-284 0 l-78 -215 l-99 0 ZM377 759 l0 101 l91 0 l0 -101 l-91 0 ZM216 759 l0 101 l91 0 l0 -101 l-91 0 ZM180 896 l0 57 l313 0 l0 -57 l-313 0 Z" /><glyph glyph-name="uni01DF" unicode="&#x1df;" d="M226 57 q46 0 89 22 q74 35 74 116 l0 71 q-32 -20 -92 -27 l-53 -7 q-47 -6 -72 -20 q-40 -22 -40 -73 q0 -37 27 -59.5 q27 -22.5 67 -22.5 ZM205 299 l140 18 q30 4 40 25 q6 12 6 34 q0 85 -123 85 q-70 0 -98 -37 q-16 -19 -21 -61 l-82 0 q1 97 62 135 q62 38 141 38 q92 0 149 -36 q58 -34 58 -109 l0 -301 q0 -15 6 -22.5 q6 -7.5 23 -7.5 q5 0 29 2 l0 -64 q-31 -9 -61 -9 q-45 0 -66 32 q-10 17 -15 48 q-29 -37 -79.5 -62 q-50.5 -25 -108.5 -25 q-72 0 -119 44 q-46 45 -46 111 q0 71 44 112 q44 41 121 50 ZM298 593 l0 101 l91 0 l0 -101 l-91 0 ZM137 593 l0 101 l91 0 l0 -101 l-91 0 ZM102 748 l0 57 l312 0 l0 -57 l-312 0 Z" /><glyph glyph-name="uni01E0" unicode="&#x1e0;" d="M220 294 l224 0 l-109 317 l-115 -317 ZM15 0 l270 717 l110 0 l260 -717 l-107 0 l-72 215 l-284 0 l-78 -215 l-99 0 ZM292 757 l0 102 l91 0 l0 -102 l-91 0 ZM177 896 l0 57 l312 0 l0 -57 l-312 0 Z" /><glyph glyph-name="uni01E1" unicode="&#x1e1;" d="M226 57 q46 0 89 22 q74 35 74 116 l0 71 q-32 -20 -92 -27 l-53 -7 q-47 -6 -72 -20 q-40 -22 -40 -73 q0 -37 27 -59.5 q27 -22.5 67 -22.5 ZM205 299 l140 18 q30 4 40 25 q6 12 6 34 q0 85 -123 85 q-70 0 -98 -37 q-16 -19 -21 -61 l-82 0 q1 97 62 135 q62 38 141 38 q92 0 149 -36 q58 -34 58 -109 l0 -301 q0 -15 6 -22.5 q6 -7.5 23 -7.5 q5 0 29 2 l0 -64 q-31 -9 -61 -9 q-45 0 -66 32 q-10 17 -15 48 q-29 -37 -79.5 -62 q-50.5 -25 -108.5 -25 q-72 0 -119 44 q-46 45 -46 111 q0 71 44 112 q44 41 121 50 ZM220 604 l0 101 l91 0 l0 -101 l-91 0 ZM107 750 l0 58 l313 0 l0 -58 l-313 0 Z" /><glyph glyph-name="uni01E2" unicode="&#x1e2;" d="M457 634 l-97 0 l-133 -339 l230 0 l0 339 ZM8 0 l291 717 l643 0 l0 -85 l-389 0 l0 -220 l357 0 l0 -81 l-357 0 l0 -246 l398 0 l0 -85 l-494 0 l0 213 l-264 0 l-80 -213 l-105 0 ZM437 779 l0 58 l312 0 l0 -58 l-312 0 Z" /><glyph glyph-name="uni01E3" unicode="&#x1e3;" d="M464 303 l289 0 q-1 74 -40.5 114.5 q-39.5 40.5 -100.5 40.5 q-62 0 -103 -40.5 q-41 -40.5 -45 -114.5 ZM382 200 l0 66 q-20 -14 -66 -22 l-74 -12 q-53 -7 -78 -22 q-39 -22 -39 -70 q0 -40 30 -62.5 q30 -22.5 74 -22.5 q60 0 115 50 q24 22 31 46 q4 13 7 49 ZM195 298 l139 19 q50 6 50 58 q0 85 -115 85 q-49 0 -78 -15 q-49 -28 -49 -83 l-84 0 q5 111 86 151 q48 23 129 23 q65 0 111 -24 q39 -21 60 -55 q60 79 169 79 q126 0 186 -88 q28 -37 38 -86.5 q10 -49.5 10 -128.5 l-384 0 q2 -82 40.5 -128.5 q38.5 -46.5 104.5 -46.5 q62 0 96 26.5 q34 26.5 47 79.5 l89 0 q-4 -39 -33 -81 q-31 -43 -59 -61 q-65 -40 -143 -40 q-71 0 -127 38 q-52 38 -65 74 q-75 -112 -202 -112 q-82 0 -128.5 41.5 q-46.5 41.5 -46.5 109.5 q0 86 59 130 q38 28 100 35 ZM288 600 l0 58 l313 0 l0 -58 l-313 0 Z" /><glyph glyph-name="uni01E4" unicode="&#x1e4;" d="M567 183 l-89 0 l0 69 l107 0 q4 21 4 51 l-224 0 l0 81 l315 0 l0 -132 l94 0 l0 -69 l-94 0 l0 -183 l-63 0 l-23 92 q-48 -53 -88 -75 q-64 -36 -162 -36 q-128 0 -219 82 q-101 104 -101 285 q0 179 98 286 q93 102 240 102 q102 0 175 -39 q107 -56 131 -197 l-96 0 q-34 150 -212 150 q-100 0 -168 -75 q-68 -74 -68 -222 q0 -127 56 -209 q56 -80 183 -80 q97 0 161 57 q27 23 43 62 Z" /><glyph glyph-name="uni01E5" unicode="&#x1e5;" d="M352 502 q24 -17 50 -50 l0 66 l81 0 l0 -217 l100 0 l0 -70 l-100 0 l0 -189 q0 -97 -29 -157 q-55 -106 -206 -106 q-89 0 -145 39 q-56 39 -62 117 l89 0 q8 -36 26 -54 q31 -29 94 -29 q100 0 132 71 q18 43 17 150 q-27 -41 -65 -60 q-38 -19 -97 -19 q-85 0 -149 60 q-63 60 -63 199 q0 132 64 205 q65 74 155 74 q62 0 108 -30 ZM401 231 l-114 0 l0 70 l113 0 q-6 69 -38 107 q-41 47 -102 47 q-92 0 -127 -87 q-18 -46 -18 -122 q0 -87 35.5 -134 q35.5 -47 97.5 -47 q94 0 133 86 q16 37 20 80 Z" /><glyph glyph-name="uni01E6" unicode="&#x1e6;" d="M561 697 q107 -56 131 -197 l-96 0 q-34 150 -212 150 q-100 0 -168 -75 q-68 -74 -68 -222 q0 -127 56 -209 q56 -80 183 -80 q96 0 161 56 q63 56 65 183 l-224 0 l0 81 l315 0 l0 -384 l-63 0 l-23 92 q-48 -53 -88 -75 q-64 -36 -162 -36 q-129 0 -220 82 q-100 103 -100 285 q0 179 98 286 q93 102 240 102 q102 0 175 -39 ZM533 922 l-99 -141 l-93 0 l-99 141 l79 0 l66 -94 l66 94 l80 0 Z" /><glyph glyph-name="uni01E7" unicode="&#x1e7;" d="M356 502 q25 -16 51 -50 l0 66 l81 0 l0 -476 q0 -97 -29 -157 q-55 -106 -207 -106 q-88 0 -144 39 q-56 39 -62 117 l89 0 q8 -36 26 -54 q29 -29 93 -29 q101 0 133 71 q18 43 17 150 q-28 -41 -65.5 -60 q-37.5 -19 -96.5 -19 q-84 0 -149 60 q-63 60 -63 199 q0 132 64 205 q65 74 155 74 q62 0 107 -30 ZM265 455 q-93 0 -127 -87 q-18 -46 -18 -122 q0 -86 35.5 -133.5 q35.5 -47.5 96.5 -47.5 q95 0 134 86 q21 48 21 113 q0 94 -38.5 142.5 q-38.5 48.5 -103.5 48.5 ZM397 742 l-99 -141 l-93 0 l-99 141 l80 0 l65 -94 l66 94 l80 0 Z" /><glyph glyph-name="uni01E8" unicode="&#x1e8;" d="M76 0 l0 717 l95 0 l0 -349 l350 349 l134 0 l-299 -289 l307 -428 l-126 0 l-251 360 l-115 -110 l0 -250 l-95 0 ZM490 901 l-99 -141 l-93 0 l-99 141 l79 0 l66 -93 l66 93 l80 0 Z" /><glyph glyph-name="uni01E9" unicode="&#x1e9;" d="M62 0 l0 717 l85 0 l0 -416 l226 222 l112 0 l-200 -196 l211 -327 l-112 0 l-163 264 l-74 -68 l0 -196 l-85 0 ZM416 889 l-100 -141 l-93 0 l-99 141 l80 0 l66 -94 l65 94 l81 0 Z" /><glyph glyph-name="uni01EA" unicode="&#x1ea;" d="M667 615 q71 -95 71 -244 q0 -161 -81 -267 q-96 -125 -273 -125 q-166 0 -260 109 q-85 106 -85 267 q0 145 72 249 q93 133 275 133 q189 0 281 -122 ZM639 370 q0 127 -67 203 q-66 77 -180 77 q-112 0 -182 -76 q-70 -76 -70 -225 q0 -120 60 -202 q60 -81 196 -81 q128 0 185 92 q58 91 58 212 ZM357 -16 l72 0 l-29 -23 q-35 -28 -45.5 -43.5 q-10.5 -15.5 -10.5 -35.5 q0 -19 13.5 -32 q13.5 -13 37.5 -13 q22 0 40 11 l0 -64 q-2 -1 -29 -11 q-25 -6 -50 -6 q-45 0 -71 26.5 q-26 26.5 -26 62.5 q0 40 28 71 q21 24 70 57 Z" /><glyph glyph-name="uni01EB" unicode="&#x1eb;" d="M424 270 q0 71 -23 119 q-38 72 -128 72 q-80 0 -118 -62 q-36 -61 -36 -148 q0 -83 36 -139 q37 -55 117 -55 q88 0 119 66 q33 66 33 147 ZM516 272 q0 -126 -62 -209 q-61 -82 -190 -82 q-108 0 -172 73 q-63 73 -63 196 q0 133 67 210 q68 78 179 78 q100 0 171 -68 q70 -67 70 -198 ZM241 -14 l71 0 l-28 -23 q-35 -28 -45.5 -43.5 q-10.5 -15.5 -10.5 -35.5 q0 -19 13.5 -32 q13.5 -13 37.5 -13 q23 0 39 11 l0 -64 q-6 -3 -28 -11 q-26 -6 -50 -6 q-45 0 -71 26.5 q-26 26.5 -26 62.5 q0 40 28 71 q23 26 70 57 Z" /><glyph glyph-name="uni01EC" unicode="&#x1ec;" d="M667 615 q71 -95 71 -244 q0 -161 -81 -267 q-96 -125 -273 -125 q-166 0 -260 109 q-85 106 -85 267 q0 145 72 249 q93 133 275 133 q189 0 281 -122 ZM639 370 q0 127 -67 203 q-66 77 -180 77 q-112 0 -182 -76 q-70 -76 -70 -225 q0 -120 60 -202 q60 -81 196 -81 q128 0 185 92 q58 91 58 212 ZM357 -16 l72 0 l-29 -23 q-35 -28 -45.5 -43.5 q-10.5 -15.5 -10.5 -35.5 q0 -19 13.5 -32 q13.5 -13 37.5 -13 q22 0 40 11 l0 -64 q-2 -1 -29 -11 q-25 -6 -50 -6 q-45 0 -71 26.5 q-26 26.5 -26 62.5 q0 40 28 71 q21 24 70 57 ZM219 798 l0 58 l313 0 l0 -58 l-313 0 Z" /><glyph glyph-name="uni01ED" unicode="&#x1ed;" d="M424 270 q0 71 -23 119 q-38 72 -128 72 q-80 0 -118 -62 q-36 -61 -36 -148 q0 -83 36 -139 q37 -55 117 -55 q88 0 119 66 q33 66 33 147 ZM516 272 q0 -126 -62 -209 q-61 -82 -190 -82 q-108 0 -172 73 q-63 73 -63 196 q0 133 67 210 q68 78 179 78 q100 0 171 -68 q70 -67 70 -198 ZM241 -14 l71 0 l-28 -23 q-35 -28 -45.5 -43.5 q-10.5 -15.5 -10.5 -35.5 q0 -19 13.5 -32 q13.5 -13 37.5 -13 q23 0 39 11 l0 -64 q-6 -3 -28 -11 q-26 -6 -50 -6 q-45 0 -71 26.5 q-26 26.5 -26 62.5 q0 40 28 71 q23 26 70 57 ZM107 605 l0 58 l313 0 l0 -58 l-313 0 Z" /><glyph glyph-name="uni01EE" unicode="&#x1ee;" d="M234 406 l-113 0 l269 231 l-371 0 l0 80 l484 0 l0 -80 l-175 -152 q72 -13 125 -72 q67 -76 67 -215 q0 -112 -76 -158 q-76 -45 -178 -45 q-92 0 -165 48 q-73 48 -88 152 l86 0 q12 -58 58 -92 q47 -33 102 -33 q71 0 119 24 q48 26 48 103 q0 79 -30 146 q-30 68 -114 68 l-48 -5 ZM403 929 l-100 -141 l-93 0 l-99 141 l80 0 l66 -94 l66 94 l80 0 Z" /><glyph glyph-name="uni01EF" unicode="&#x1ef;" d="M187 209 l-114 0 l269 231 l-322 0 l0 81 l436 0 l0 -81 l-176 -152 q74 -14 125 -72 q67 -76 67 -215 q0 -112 -74 -162 q-74 -51 -175 -51 q-179 0 -209 210 l86 0 q12 -58 36 -96 q26 -39 80 -39 q71 0 116 30 q46 28 46 107 q0 79 -30 146 q-30 68 -114 68 l-47 -5 ZM384 733 l-99 -141 l-93 0 l-99 141 l79 0 l66 -93 l66 93 l80 0 Z" /><glyph glyph-name="uni01F0" unicode="&#x1f0;" d="M-19 -208 l0 76 q60 1 71 11 q12 7 12 53 l0 589 l88 0 l0 -599 q0 -56 -18 -85 q-32 -48 -117 -48 q-15 0 -36 3 ZM259 729 l-99 -142 l-93 0 l-99 142 l79 0 l66 -94 l66 94 l80 0 Z" /><glyph glyph-name="uni01F1" unicode="&#x1f1;" d="M139 83 l173 0 q51 0 81 10 q58 20 93 74 q29 45 41 111 q8 43 8 75 q0 281 -224 281 l-172 0 l0 -551 ZM41 0 l0 717 l291 0 q146 0 229 -105 q73 -94 73 -242 q0 -117 -43 -207 q-76 -163 -260 -163 l-290 0 ZM630 2 l0 81 l440 551 l-407 0 l0 86 l532 0 l0 -84 l-442 -548 l442 0 l0 -86 l-565 0 Z" /><glyph glyph-name="uni01F2" unicode="&#x1f2;" d="M152 83 l173 0 q51 0 81 10 q58 20 93 74 q29 43 42 111 q7 38 7 75 q0 281 -224 281 l-172 0 l0 -551 ZM54 0 l0 717 l291 0 q148 0 229 -105 q73 -94 73 -242 q0 -117 -43 -207 q-76 -163 -260 -163 l-290 0 ZM656 0 l0 69 l310 375 l-287 0 l0 79 l405 0 l0 -72 l-308 -372 l318 0 l0 -79 l-438 0 Z" /><glyph glyph-name="uni01F3" unicode="&#x1f3;" d="M270 58 q62 0 101 53.5 q39 53.5 39 149.5 q0 95 -39 145 q-39 50 -102 50 q-68 0 -108.5 -52 q-40.5 -52 -40.5 -149 q0 -83 35 -141 q36 -56 115 -56 ZM353 507 q24 -16 53 -51 l0 264 l85 0 l0 -720 l-79 0 l0 73 q-58 -92 -169 -92 q-88 0 -152 73 q-64 73 -64 196 q0 116 58 198 q58 84 167 84 q61 0 101 -25 ZM527 0 l0 69 l310 375 l-287 0 l0 79 l405 0 l0 -72 l-308 -372 l317 0 l0 -79 l-437 0 Z" /><glyph glyph-name="uni01F4" unicode="&#x1f4;" d="M561 697 q107 -56 131 -197 l-96 0 q-34 150 -212 150 q-100 0 -168 -75 q-68 -74 -68 -222 q0 -127 56 -209 q56 -80 183 -80 q96 0 161 56 q63 56 65 183 l-224 0 l0 81 l315 0 l0 -384 l-63 0 l-23 92 q-48 -53 -88 -75 q-64 -36 -162 -36 q-129 0 -220 82 q-100 103 -100 285 q0 179 98 286 q93 102 240 102 q102 0 175 -39 ZM385 921 l108 0 l-130 -141 l-68 0 l90 141 Z" /><glyph glyph-name="uni01F5" unicode="&#x1f5;" d="M356 502 q25 -16 51 -50 l0 66 l81 0 l0 -476 q0 -97 -29 -157 q-55 -106 -207 -106 q-88 0 -144 39 q-56 39 -62 117 l89 0 q8 -36 26 -54 q29 -29 93 -29 q101 0 133 71 q18 43 17 150 q-28 -41 -65.5 -60 q-37.5 -19 -96.5 -19 q-84 0 -149 60 q-63 60 -63 199 q0 132 64 205 q65 74 155 74 q62 0 107 -30 ZM265 455 q-93 0 -127 -87 q-18 -46 -18 -122 q0 -86 35.5 -133.5 q35.5 -47.5 96.5 -47.5 q95 0 134 86 q21 48 21 113 q0 94 -38.5 142.5 q-38.5 48.5 -103.5 48.5 ZM281 730 l109 0 l-131 -141 l-67 0 l89 141 Z" /><glyph glyph-name="uni01F7" unicode="&#x1f7;" d="M85 0 l0 717 l323 0 q97 0 155 -54.5 q58 -54.5 58 -150.5 q0 -85 -52 -161 q-54 -78 -161 -121 l-225 -73 l0 -157 l-98 0 ZM464 619 q-31 15 -88 15 l-193 0 l0 -395 l193 73 q65 24 106 62 q41 38 41 137 q0 79 -59 108 Z" /><glyph glyph-name="uni01F8" unicode="&#x1f8;" d="M76 0 l0 717 l115 0 l362 -581 l0 581 l93 0 l0 -717 l-109 0 l-368 581 l0 -581 l-93 0 ZM336 889 l89 -141 l-67 0 l-130 141 l108 0 Z" /><glyph glyph-name="uni01F9" unicode="&#x1f9;" d="M64 0 l0 523 l84 0 l0 -74 q69 86 171 86 q111 0 150 -78 q22 -41 22 -122 l0 -335 l-90 0 l0 330 q0 46 -14 77 q-22 49 -85 49 q-33 0 -51 -7 q-34 -10 -64 -43 q-21 -26 -28 -53 q-7 -27 -7 -79 l0 -274 l-88 0 ZM266 732 l88 -141 l-66 0 l-131 141 l109 0 Z" /><glyph glyph-name="uni01FA" unicode="&#x1fa;" d="M277 867 l66 106 l102 0 l-104 -106 l-64 0 ZM-7 0 l270 682 q-34 28 -34 72 q0 41 28 68 q28 27 68 27 q40 0 67.5 -27 q27.5 -27 27.5 -68 q0 -43 -34 -72 l270 -682 l-105 0 l-78 215 l-302 0 l-80 -215 l-98 0 ZM285.5 793.5 q-15.5 -15.5 -15.5 -39.5 q0 -24 15.5 -40 q15.5 -16 39.5 -16 q23 0 38.5 16.5 q15.5 16.5 15.5 39.5 q0 24 -15.5 39.5 q-15.5 15.5 -38.5 15.5 q-24 0 -39.5 -15.5 ZM322 628 l-121 -333 l242 0 l-119 333 l-2 0 Z" /><glyph glyph-name="uni01FB" unicode="&#x1fb;" d="M226 796 l83 126 l109 0 l-129 -126 l-63 0 ZM347.5 594 q-30.5 -29 -75.5 -29 q-45 0 -75.5 29 q-30.5 29 -30.5 74 q0 45 30.5 74 q30.5 29 75.5 29 q45 0 75.5 -29 q30.5 -29 30.5 -74 q0 -45 -30.5 -74 ZM316 623.5 q17 17.5 17 44.5 q0 27 -17 44.5 q-17 17.5 -44 17.5 q-27 0 -44 -17.5 q-17 -17.5 -17 -44.5 q0 -27 17 -44.5 q17 -17.5 44 -17.5 q27 0 44 17.5 ZM522 68 l0 -66 q-23 -14 -61 -14 q-72 0 -72 80 q-67 -80 -182 -80 q-76 0 -123.5 35.5 q-47.5 35.5 -47.5 109.5 q0 42 14 71.5 q14 29.5 41.5 46.5 q27.5 17 54 25.5 q26.5 8.5 65.5 15.5 q19 4 45 8 q26 4 42 6 q16 2 34.5 6.5 q18.5 4.5 28.5 11 q10 6.5 17 17.5 q7 11 7 27 q0 86 -115 86 q-124 0 -129 -98 l-85 0 q4 90 64 131.5 q60 41.5 155 41.5 q194 0 194 -142 l0 -266 q0 -35 4 -46.5 q4 -11.5 23 -11.5 q9 0 26 5 ZM384 180 l0 87 q-20 -15 -67 -23 q-47 -8 -87.5 -11.5 q-40.5 -3.5 -72 -26.5 q-31.5 -23 -31.5 -67 q0 -39 28.5 -57.5 q28.5 -18.5 71.5 -18.5 q77 0 117.5 37 q40.5 37 40.5 80 Z" /><glyph glyph-name="uni01FC" unicode="&#x1fc;" d="M-7 0 l361 714 l535 0 l0 -80 l-351 0 l0 -227 l330 0 l0 -80 l-330 0 l0 -247 l357 0 l0 -80 l-447 0 l0 208 l-246 0 l-102 -208 l-107 0 ZM448 634 l-41 0 l-168 -346 l209 0 l0 346 ZM528 779 l86 143 l109 0 l-131 -143 l-64 0 Z" /><glyph glyph-name="uni01FD" unicode="&#x1fd;" d="M846 233 l-379 0 q0 -73 40 -121.5 q40 -48.5 115 -48.5 q50 0 84.5 25.5 q34.5 25.5 46.5 74.5 l87 0 q-19 -84 -77.5 -129.5 q-58.5 -45.5 -146.5 -45.5 q-141 0 -187 101 q-55 -101 -218 -101 q-79 0 -127 35.5 q-48 35.5 -48 109.5 q0 42 14 71.5 q14 29.5 41.5 46.5 q27.5 17 54 25.5 q26.5 8.5 65.5 15.5 q20 4 48.5 9 q28.5 5 41.5 7 q13 2 31 6.5 q18 4.5 25.5 9 q7.5 4.5 16 11.5 q8.5 7 11 16.5 q2.5 9.5 2.5 22.5 q0 47 -32.5 63.5 q-32.5 16.5 -84.5 16.5 q-124 0 -129 -98 l-85 0 q4 90 64 131.5 q60 41.5 155 41.5 q136 0 173 -75 q50 75 165 75 q233 0 233 -296 ZM467 308 l289 0 q-2 63 -40 104.5 q-38 41.5 -103 41.5 q-67 0 -106.5 -41 q-39.5 -41 -39.5 -105 ZM126 139 q0 -39 28.5 -57.5 q28.5 -18.5 71.5 -18.5 q77 0 119 37.5 q42 37.5 42 79.5 l0 87 q-16 -9 -41 -15 q-25 -6 -62.5 -11.5 q-37.5 -5.5 -53.5 -8.5 q-50 -10 -77 -29.5 q-27 -19.5 -27 -63.5 ZM416 589 l86 143 l109 0 l-131 -143 l-64 0 Z" /><glyph glyph-name="uni01FE" unicode="&#x1fe;" d="M325 779 l86 143 l109 0 l-131 -143 l-64 0 ZM691 730 l32 -30 l-82 -90 q81 -100 81 -253 q0 -100 -37 -183.5 q-37 -83.5 -116.5 -137 q-79.5 -53.5 -188.5 -53.5 q-138 0 -229 86 l-81 -89 l-33 30 l84 92 q-83 101 -83 255 q0 100 37 183.5 q37 83.5 116.5 137 q79.5 53.5 188.5 53.5 q144 0 232 -88 l79 87 ZM183 170 l369 407 q-64 74 -172 74 q-83 0 -140.5 -44.5 q-57.5 -44.5 -82 -109 q-24.5 -64.5 -24.5 -140.5 q0 -111 50 -187 ZM579 541 l-369 -407 q63 -71 170 -71 q83 0 140.5 44.5 q57.5 44.5 82 109 q24.5 64.5 24.5 140.5 q0 108 -48 184 Z" /><glyph glyph-name="uni01FF" unicode="&#x1ff;" d="M240 589 l86 143 l109 0 l-131 -143 l-64 0 ZM540 509 l-60 -66 q58 -70 58 -185 q0 -118 -66 -194 q-66 -76 -185 -76 q-100 0 -165 57 l-60 -67 l-28 24 l62 69 q-60 73 -60 187 q0 119 66 195 q66 76 185 76 q103 0 168 -59 l58 65 l27 -26 ZM156 137 l242 270 q-44 47 -111 47 q-69 0 -115 -52.5 q-46 -52.5 -46 -143.5 q0 -69 30 -121 ZM420 377 l-242 -269 q45 -45 109 -45 q69 0 115 52 q46 52 46 143 q0 68 -28 119 Z" /><glyph glyph-name="uni0200" unicode="&#x200;" d="M220 294 l224 0 l-109 317 l-115 -317 ZM15 0 l270 717 l110 0 l260 -717 l-107 0 l-72 215 l-284 0 l-78 -215 l-99 0 ZM222 909 l67 -142 l-62 0 l-109 142 l104 0 ZM385 909 l67 -142 l-62 0 l-111 142 l106 0 Z" /><glyph glyph-name="uni0201" unicode="&#x201;" d="M226 57 q46 0 89 22 q74 35 74 116 l0 71 q-32 -20 -92 -27 l-53 -7 q-47 -6 -72 -20 q-40 -22 -40 -73 q0 -37 27 -59.5 q27 -22.5 67 -22.5 ZM205 299 l140 18 q30 4 40 25 q6 12 6 34 q0 85 -123 85 q-70 0 -98 -37 q-16 -19 -21 -61 l-82 0 q1 97 62 135 q62 38 141 38 q92 0 149 -36 q58 -34 58 -109 l0 -301 q0 -15 6 -22.5 q6 -7.5 23 -7.5 q5 0 29 2 l0 -64 q-31 -9 -61 -9 q-45 0 -66 32 q-10 17 -15 48 q-29 -37 -79.5 -62 q-50.5 -25 -108.5 -25 q-72 0 -119 44 q-46 45 -46 111 q0 71 44 112 q44 41 121 50 ZM170 733 l67 -142 l-62 0 l-109 142 l104 0 ZM333 733 l67 -142 l-62 0 l-110 142 l105 0 Z" /><glyph glyph-name="uni0202" unicode="&#x202;" d="M220 294 l224 0 l-109 317 l-115 -317 ZM15 0 l270 717 l110 0 l260 -717 l-107 0 l-72 215 l-284 0 l-78 -215 l-99 0 ZM490 738 l-50 0 q-8 33 -23 48 q-27 29 -84 29 q-54 0 -80 -29 q-16 -17 -23 -48 l-48 0 q17 136 160 136 q86 0 124 -59 q19 -30 24 -77 Z" /><glyph glyph-name="uni0203" unicode="&#x203;" d="M226 57 q46 0 89 22 q74 35 74 116 l0 71 q-32 -20 -92 -27 l-53 -7 q-47 -6 -72 -20 q-40 -22 -40 -73 q0 -37 27 -59.5 q27 -22.5 67 -22.5 ZM205 299 l140 18 q30 4 40 25 q6 12 6 34 q0 85 -123 85 q-70 0 -98 -37 q-16 -19 -21 -61 l-82 0 q1 97 62 135 q62 38 141 38 q92 0 149 -36 q58 -34 58 -109 l0 -301 q0 -15 6 -22.5 q6 -7.5 23 -7.5 q5 0 29 2 l0 -64 q-31 -9 -61 -9 q-45 0 -66 32 q-10 17 -15 48 q-29 -37 -79.5 -62 q-50.5 -25 -108.5 -25 q-72 0 -119 44 q-46 45 -46 111 q0 71 44 112 q44 41 121 50 ZM421 593 l-49 0 q-7 31 -23 48 q-29 29 -85 29 q-54 0 -80 -29 q-16 -17 -23 -48 l-48 0 q18 136 160 136 q86 0 124 -59 q19 -30 24 -77 Z" /><glyph glyph-name="uni0204" unicode="&#x204;" d="M85 0 l0 717 l523 0 l0 -88 l-428 0 l0 -217 l396 0 l0 -83 l-396 0 l0 -244 l436 0 l0 -85 l-531 0 ZM255 909 l67 -142 l-62 0 l-110 142 l105 0 ZM417 909 l67 -142 l-61 0 l-111 142 l105 0 Z" /><glyph glyph-name="uni0205" unicode="&#x205;" d="M470 441 q26 -42 35 -92 q8 -40 8 -116 l-384 0 q7 -175 147 -175 q70 0 110 45 q22 25 33 61 l86 0 q-3 -29 -22.5 -64.5 q-19.5 -35.5 -43.5 -57.5 q-41 -40 -99 -53 q-34 -8 -71 -8 q-98 0 -166 71 q-68 73 -68 199 q0 125 68 205 q69 79 179 79 q56 0 108 -26 q52 -26 80 -68 ZM132 303 l290 0 q-4 56 -25 92 q-36 63 -120 63 q-61 0 -102 -44 q-42 -45 -43 -111 ZM178 733 l67 -142 l-62 0 l-109 142 l104 0 ZM341 733 l67 -142 l-62 0 l-111 142 l106 0 Z" /><glyph glyph-name="uni0206" unicode="&#x206;" d="M85 0 l0 717 l523 0 l0 -88 l-428 0 l0 -217 l396 0 l0 -83 l-396 0 l0 -244 l436 0 l0 -85 l-531 0 ZM504 767 l-50 0 q-7 31 -23 48 q-27 29 -85 29 q-53 0 -79 -29 q-15 -15 -23 -48 l-49 0 q18 135 161 135 q87 0 124 -58 q19 -30 24 -77 Z" /><glyph glyph-name="uni0207" unicode="&#x207;" d="M470 441 q26 -42 35 -92 q8 -40 8 -116 l-384 0 q7 -175 147 -175 q70 0 110 45 q22 25 33 61 l86 0 q-3 -29 -22.5 -64.5 q-19.5 -35.5 -43.5 -57.5 q-41 -40 -99 -53 q-34 -8 -71 -8 q-98 0 -166 71 q-68 73 -68 199 q0 125 68 205 q69 79 179 79 q56 0 108 -26 q52 -26 80 -68 ZM132 303 l290 0 q-4 56 -25 92 q-36 63 -120 63 q-61 0 -102 -44 q-42 -45 -43 -111 ZM441 588 l-49 0 q-7 31 -23 48 q-29 29 -85 29 q-54 0 -80 -29 q-16 -17 -23 -48 l-48 0 q18 136 160 136 q87 0 124 -58 q19 -32 24 -78 Z" /><glyph glyph-name="uni0208" unicode="&#x208;" d="M98 0 l0 717 l98 0 l0 -717 l-98 0 ZM35 909 l67 -142 l-62 0 l-110 142 l105 0 ZM197 909 l67 -142 l-61 0 l-111 142 l105 0 Z" /><glyph glyph-name="uni0209" unicode="&#x209;" d="M69 0 l0 521 l89 0 l0 -521 l-89 0 ZM5 733 l67 -142 l-62 0 l-109 142 l104 0 ZM168 733 l67 -142 l-62 0 l-111 142 l106 0 Z" /><glyph glyph-name="uni020A" unicode="&#x20a;" d="M98 0 l0 717 l98 0 l0 -717 l-98 0 ZM305 767 l-50 0 q-7 31 -23 48 q-27 29 -85 29 q-53 0 -80 -29 q-16 -17 -23 -48 l-48 0 q18 135 161 135 q87 0 124 -58 q19 -30 24 -77 Z" /><glyph glyph-name="uni020B" unicode="&#x20b;" d="M69 0 l0 521 l89 0 l0 -521 l-89 0 ZM267 597 l-50 0 q-7 31 -23 48 q-27 28 -85 28 q-53 0 -80 -28 q-16 -17 -23 -48 l-48 0 q18 135 161 135 q87 0 124 -58 q19 -30 24 -77 Z" /><glyph glyph-name="uni020C" unicode="&#x20c;" d="M667 615 q71 -95 71 -244 q0 -161 -81 -267 q-96 -125 -273 -125 q-166 0 -260 109 q-85 106 -85 267 q0 145 72 249 q93 133 275 133 q189 0 281 -122 ZM639 370 q0 127 -67 203 q-66 77 -180 77 q-112 0 -182 -76 q-70 -76 -70 -225 q0 -120 60 -202 q60 -81 196 -81 q128 0 185 92 q58 91 58 212 ZM279 936 l67 -142 l-62 0 l-110 142 l105 0 ZM441 936 l67 -142 l-61 0 l-111 142 l105 0 Z" /><glyph glyph-name="uni020D" unicode="&#x20d;" d="M424 270 q0 71 -23 119 q-38 72 -128 72 q-80 0 -118 -62 q-36 -61 -36 -148 q0 -83 36 -139 q37 -55 117 -55 q88 0 119 66 q33 66 33 147 ZM516 272 q0 -126 -62 -209 q-61 -82 -190 -82 q-108 0 -172 73 q-63 73 -63 196 q0 133 67 210 q68 78 179 78 q100 0 171 -68 q70 -67 70 -198 ZM177 733 l67 -142 l-62 0 l-110 142 l105 0 ZM339 733 l67 -142 l-61 0 l-111 142 l105 0 Z" /><glyph glyph-name="uni020E" unicode="&#x20e;" d="M667 615 q71 -95 71 -244 q0 -161 -81 -267 q-96 -125 -273 -125 q-166 0 -260 109 q-85 106 -85 267 q0 145 72 249 q93 133 275 133 q189 0 281 -122 ZM639 370 q0 127 -67 203 q-66 77 -180 77 q-112 0 -182 -76 q-70 -76 -70 -225 q0 -120 60 -202 q60 -81 196 -81 q128 0 185 92 q58 91 58 212 ZM542 787 l-50 0 q-7 29 -23 47 q-27 29 -85 29 q-53 0 -79 -29 q-16 -18 -23 -47 l-49 0 q18 135 161 135 q87 0 124 -58 q20 -32 24 -77 Z" /><glyph glyph-name="uni020F" unicode="&#x20f;" d="M424 270 q0 71 -23 119 q-38 72 -128 72 q-80 0 -118 -62 q-36 -61 -36 -148 q0 -83 36 -139 q37 -55 117 -55 q88 0 119 66 q33 66 33 147 ZM516 272 q0 -126 -62 -209 q-61 -82 -190 -82 q-108 0 -172 73 q-63 73 -63 196 q0 133 67 210 q68 78 179 78 q100 0 171 -68 q70 -67 70 -198 ZM426 593 l-50 0 q-7 31 -23 48 q-27 29 -85 29 q-53 0 -80 -29 q-14 -16 -22 -48 l-49 0 q18 136 161 136 q86 0 124 -59 q19 -30 24 -77 Z" /><glyph glyph-name="uni0210" unicode="&#x210;" d="M185 389 l225 0 q73 0 110.5 28.5 q37.5 28.5 37.5 97.5 q0 75 -56 104 q-30 15 -80 15 l-237 0 l0 -245 ZM88 0 l0 717 l332 0 q82 0 135 -24 q101 -47 101 -169 q0 -120 -101 -171 q45 -19 65 -47.5 q20 -28.5 22 -88.5 l4 -96 q2 -42 6 -61 q9 -33 32 -44 l0 -16 l-120 0 q-9 21 -12 81 l-6 119 q-5 72 -52 94 q-30 14 -88 14 l-221 0 l0 -308 l-97 0 ZM257 912 l67 -142 l-62 0 l-110 142 l105 0 ZM419 912 l67 -142 l-61 0 l-111 142 l105 0 Z" /><glyph glyph-name="uni0211" unicode="&#x211;" d="M67 0 l0 523 l83 0 l0 -90 q11 27 51 64 q41 38 92 38 q9 0 28 -3 l0 -93 q-11 3 -29 3 q-66 0 -102 -43 q-35 -44 -35 -98 l0 -301 l-88 0 ZM84 746 l67 -142 l-62 0 l-110 142 l105 0 ZM247 746 l66 -142 l-61 0 l-111 142 l106 0 Z" /><glyph glyph-name="uni0212" unicode="&#x212;" d="M185 389 l225 0 q73 0 110.5 28.5 q37.5 28.5 37.5 97.5 q0 75 -56 104 q-30 15 -80 15 l-237 0 l0 -245 ZM88 0 l0 717 l332 0 q82 0 135 -24 q101 -47 101 -169 q0 -120 -101 -171 q45 -19 65 -47.5 q20 -28.5 22 -88.5 l4 -96 q2 -42 6 -61 q9 -33 32 -44 l0 -16 l-120 0 q-9 21 -12 81 l-6 119 q-5 72 -52 94 q-30 14 -88 14 l-221 0 l0 -308 l-97 0 ZM501 759 l-50 0 q-7 31 -23 48 q-27 28 -85 28 q-54 0 -79 -28 q-16 -17 -23 -48 l-49 0 q18 135 161 135 q87 0 124 -58 q19 -30 24 -77 Z" /><glyph glyph-name="uni0213" unicode="&#x213;" d="M67 0 l0 523 l83 0 l0 -90 q11 27 51 64 q41 38 92 38 q9 0 28 -3 l0 -93 q-11 3 -29 3 q-66 0 -102 -43 q-35 -44 -35 -98 l0 -301 l-88 0 ZM347 590 l-50 0 q-8 33 -23 48 q-27 29 -85 29 q-53 0 -79 -29 q-16 -17 -23 -48 l-48 0 q17 135 160 135 q87 0 124 -58 q19 -30 24 -77 Z" /><glyph glyph-name="uni0214" unicode="&#x214;" d="M83 717 l99 0 l0 -443 q0 -77 29 -130 q44 -78 146 -78 q125 0 168 84 q24 46 24 124 l0 443 l99 0 l0 -403 q0 -132 -36 -203 q-64 -130 -247 -130 q-182 0 -246 130 q-36 71 -36 203 l0 403 ZM270 909 l66 -142 l-62 0 l-109 142 l105 0 ZM432 909 l67 -142 l-62 0 l-110 142 l105 0 Z" /><glyph glyph-name="uni0215" unicode="&#x215;" d="M62 523 l90 0 l0 -347 q0 -41 13 -66 q23 -47 87 -47 q92 0 125 83 q19 42 19 120 l0 257 l87 0 l0 -523 l-83 0 l1 77 q-17 -31 -42 -50 q-50 -41 -122 -41 q-113 0 -153 75 q-22 40 -22 106 l0 356 ZM177 733 l67 -142 l-62 0 l-109 142 l104 0 ZM340 733 l67 -142 l-62 0 l-111 142 l106 0 Z" /><glyph glyph-name="uni0216" unicode="&#x216;" d="M83 717 l99 0 l0 -443 q0 -77 29 -130 q44 -78 146 -78 q125 0 168 84 q24 46 24 124 l0 443 l99 0 l0 -403 q0 -132 -36 -203 q-64 -130 -247 -130 q-182 0 -246 130 q-36 71 -36 203 l0 403 ZM519 767 l-50 0 q-7 31 -23 48 q-29 29 -85 29 q-53 0 -80 -29 q-16 -17 -23 -48 l-48 0 q18 135 161 135 q87 0 124 -58 q19 -30 24 -77 Z" /><glyph glyph-name="uni0217" unicode="&#x217;" d="M62 523 l90 0 l0 -347 q0 -41 13 -66 q23 -47 87 -47 q92 0 125 83 q19 42 19 120 l0 257 l87 0 l0 -523 l-83 0 l1 77 q-17 -31 -42 -50 q-50 -41 -122 -41 q-113 0 -153 75 q-22 40 -22 106 l0 356 ZM426 591 l-50 0 q-8 32 -22 48 q-28 28 -85 28 q-55 0 -80 -28 q-16 -17 -23 -48 l-48 0 q17 135 160 135 q87 0 124 -58 q19 -30 24 -77 Z" /><glyph glyph-name="uni0218" unicode="&#x218;" d="M581 505 l-90 0 q-16 146 -177 146 q-69 0 -114.5 -28.5 q-45.5 -28.5 -45.5 -93.5 q0 -36 25 -59 q25 -23 65.5 -35.5 q40.5 -12.5 89 -22 q48.5 -9.5 97.5 -23 q49 -13.5 89.5 -34.5 q40.5 -21 65.5 -61.5 q25 -40.5 25 -97.5 q0 -72 -44 -122 q-44 -50 -104.5 -70.5 q-60.5 -20.5 -130.5 -20.5 q-128 0 -211.5 64 q-83.5 64 -83.5 188 l90 0 q0 -85 60 -128.5 q60 -43.5 148 -43.5 q76 0 128.5 30 q52.5 30 52.5 100 q0 40 -25 66 q-25 26 -65.5 39.5 q-40.5 13.5 -89 23.5 q-48.5 10 -97.5 22.5 q-49 12.5 -89.5 31.5 q-40.5 19 -65.5 56 q-25 37 -25 90 q0 102 76 155.5 q76 53.5 183 53.5 q116 0 187.5 -56.5 q71.5 -56.5 75.5 -169.5 ZM270 -138 l0 88 l111 0 l0 -77 q0 -83 -99 -83 l0 35 q19 5 28.5 12.5 q9.5 7.5 10.5 11.5 q1 4 1 13 l-52 0 Z" /><glyph glyph-name="uni0219" unicode="&#x219;" d="M31 163 l85 0 q2 -53 41 -76.5 q39 -23.5 98 -23.5 q125 0 125 77 q0 31 -25 50.5 q-25 19.5 -62.5 27 q-37.5 7.5 -81.5 18.5 q-44 11 -81.5 24 q-37.5 13 -62.5 44 q-25 31 -25 78 q0 72 58 109.5 q58 37.5 135 37.5 q95 0 150.5 -36.5 q55.5 -36.5 61.5 -125.5 l-85 0 q-3 46 -37.5 66.5 q-34.5 20.5 -82.5 20.5 q-46 0 -78 -15 q-32 -15 -32 -51 q0 -10 3 -18.5 q3 -8.5 9.5 -15 q6.5 -6.5 13.5 -12 q7 -5.5 19 -10.5 q12 -5 21 -8.5 q9 -3.5 24.5 -7.5 q15.5 -4 25 -6 q9.5 -2 27 -6 q17.5 -4 26.5 -6 q37 -8 63 -17.5 q26 -9.5 52.5 -25.5 q26.5 -16 40 -42.5 q13.5 -26.5 13.5 -61.5 q0 -85 -64.5 -124 q-64.5 -39 -155.5 -39 q-95 0 -155 42.5 q-60 42.5 -64 132.5 ZM197 -138 l0 88 l111 0 l0 -77 q0 -83 -99 -83 l0 35 q19 5 28.5 12.5 q9.5 7.5 10.5 11.5 q1 4 1 13 l-52 0 Z" /><glyph glyph-name="uni021A" unicode="&#x21a;" d="M240 0 l0 634 l-238 0 l0 80 l571 0 l0 -80 l-238 0 l0 -634 l-95 0 ZM231 -138 l0 88 l111 0 l0 -77 q0 -83 -99 -83 l0 35 q19 5 28.5 12.5 q9.5 7.5 10.5 11.5 q1 4 1 13 l-52 0 Z" /><glyph glyph-name="uni021B" unicode="&#x21b;" d="M182 672 l0 -155 l103 0 l0 -75 l-103 0 l0 -321 q0 -30 12 -38 q12 -8 52 -8 l39 0 l0 -75 l-65 0 q-69 0 -96 22.5 q-27 22.5 -27 90.5 l0 329 l-88 0 l0 75 l88 0 l0 155 l85 0 ZM130 -138 l0 88 l111 0 l0 -77 q0 -83 -99 -83 l0 35 q19 5 28.5 12.5 q9.5 7.5 10.5 11.5 q1 4 1 13 l-52 0 Z" /><glyph glyph-name="uni021C" unicode="&#x21c;" d="M335 54 q85 0 135 47 q46 39 46 110 q0 133 -178 133 q-3 0 -43 -2 l0 79 q103 2 142 23 q54 24 54 96 q0 59 -41.5 92.5 q-41.5 33.5 -113.5 33.5 q-74 0 -175 -104 l-67 63 q122 119 248 119 q115 0 183 -59 q65 -59 65 -153 q0 -87 -91 -148 q63 -28 91 -74 q23 -40 23 -104 q0 -93 -74 -161 q-77 -69 -192 -69 q-133 0 -263 77 l69 53 q101 -52 182 -52 Z" /><glyph glyph-name="uni021D" unicode="&#x21d;" d="M335 -155 q85 0 135 47 q46 40 46 110 q0 133 -178 133 q-3 0 -43 -2 l0 79 q102 2 142 24 q54 22 54 96 q0 58 -41.5 92 q-41.5 34 -113.5 34 q-74 0 -175 -104 l-67 63 q122 119 248 119 q116 0 183 -60 q65 -57 65 -152 q0 -88 -91 -149 q64 -28 91 -73 q23 -41 23 -104 q0 -94 -74 -162 q-77 -68 -192 -68 q-135 0 -263 76 l69 53 q101 -52 182 -52 Z" /><glyph glyph-name="uni021E" unicode="&#x21e;" d="M79 0 l0 717 l98 0 l0 -296 l373 0 l0 296 l98 0 l0 -717 l-98 0 l0 335 l-373 0 l0 -335 l-98 0 ZM516 887 l-99 -141 l-93 0 l-99 141 l79 0 l66 -94 l66 94 l80 0 Z" /><glyph glyph-name="uni021F" unicode="&#x21f;" d="M64 0 l0 720 l88 0 l0 -268 q29 38 56 56 q43 28 106 28 q114 0 155 -80 q22 -43 22 -121 l0 -335 l-91 0 l0 330 q0 56 -14 84 q-24 43 -90 43 q-54 0 -100 -38 q-44 -38 -44 -142 l0 -277 l-88 0 ZM436 892 l-100 -142 l-93 0 l-99 142 l80 0 l66 -94 l65 94 l81 0 Z" /><glyph glyph-name="uni0220" unicode="&#x220;" d="M83 0 l0 717 l98 0 l0 -34 q70 53 185 53 q182 0 246 -130 q36 -71 36 -203 l0 -597 l-99 0 l0 637 q0 77 -29 130 q-44 78 -146 78 q-124 0 -168 -84 q-24 -47 -24 -124 l0 -443 l-99 0 Z" /><glyph glyph-name="uni0226" unicode="&#x226;" d="M220 294 l224 0 l-109 317 l-115 -317 ZM15 0 l270 717 l110 0 l260 -717 l-107 0 l-72 215 l-284 0 l-78 -215 l-99 0 ZM294 767 l0 101 l91 0 l0 -101 l-91 0 Z" /><glyph glyph-name="uni0227" unicode="&#x227;" d="M226 57 q46 0 89 22 q74 35 74 116 l0 71 q-32 -20 -92 -27 l-53 -7 q-47 -6 -72 -20 q-40 -22 -40 -73 q0 -37 27 -59.5 q27 -22.5 67 -22.5 ZM205 299 l140 18 q30 4 40 25 q6 12 6 34 q0 85 -123 85 q-70 0 -98 -37 q-16 -19 -21 -61 l-82 0 q1 97 62 135 q62 38 141 38 q92 0 149 -36 q58 -34 58 -109 l0 -301 q0 -15 6 -22.5 q6 -7.5 23 -7.5 q5 0 29 2 l0 -64 q-31 -9 -61 -9 q-45 0 -66 32 q-10 17 -15 48 q-29 -37 -79.5 -62 q-50.5 -25 -108.5 -25 q-72 0 -119 44 q-46 45 -46 111 q0 71 44 112 q44 41 121 50 ZM231 622 l0 102 l92 0 l0 -102 l-92 0 Z" /><glyph glyph-name="uni0228" unicode="&#x228;" d="M85 0 l0 717 l523 0 l0 -88 l-428 0 l0 -217 l396 0 l0 -83 l-396 0 l0 -244 l436 0 l0 -85 l-531 0 ZM294 -87 l63 87 l48 0 l-46 -63 q15 5 37 5 q35 0 56.5 -20.5 q21.5 -20.5 21.5 -55.5 q0 -39 -30.5 -65 q-30.5 -26 -88.5 -26 q-27 0 -54 7 q-26 8 -42 14 l17 39 l29 -9 q19 -6 36 -6 q19 0 32 6 q25 10 25 37 q0 15 -13.5 26.5 q-13.5 11.5 -33.5 11.5 q-14 0 -40 -8 l-17 20 Z" /><glyph glyph-name="uni0229" unicode="&#x229;" d="M470 441 q26 -42 35 -92 q8 -40 8 -116 l-384 0 q7 -175 147 -175 q70 0 110 45 q22 25 33 61 l86 0 q-3 -29 -22.5 -64.5 q-19.5 -35.5 -43.5 -57.5 q-41 -40 -99 -53 q-34 -8 -71 -8 q-98 0 -166 71 q-68 73 -68 199 q0 125 68 205 q69 79 179 79 q56 0 108 -26 q52 -26 80 -68 ZM132 303 l290 0 q-4 56 -25 92 q-36 63 -120 63 q-61 0 -102 -44 q-42 -45 -43 -111 ZM217 -100 l64 87 l47 0 l-46 -63 q15 5 37 5 q35 0 56.5 -20.5 q21.5 -20.5 21.5 -55.5 q0 -40 -30.5 -65.5 q-30.5 -25.5 -88.5 -25.5 q-28 0 -53 7 q-24 6 -42 14 l17 39 q13 -5 29 -10 q22 -5 36 -5 q16 0 31 5 q25 10 25 38 q0 15 -13.5 26.5 q-13.5 11.5 -33.5 11.5 q-14 0 -40 -8 l-17 20 Z" /><glyph glyph-name="uni022A" unicode="&#x22a;" d="M667 615 q71 -95 71 -244 q0 -161 -81 -267 q-96 -125 -273 -125 q-166 0 -260 109 q-85 106 -85 267 q0 145 72 249 q93 133 275 133 q189 0 281 -122 ZM639 370 q0 127 -67 203 q-66 77 -180 77 q-112 0 -182 -76 q-70 -76 -70 -225 q0 -120 60 -202 q60 -81 196 -81 q128 0 185 92 q58 91 58 212 ZM424 789 l0 101 l91 0 l0 -101 l-91 0 ZM263 789 l0 101 l91 0 l0 -101 l-91 0 ZM240 1006 l0 58 l313 0 l0 -58 l-313 0 Z" /><glyph glyph-name="uni022B" unicode="&#x22b;" d="M424 270 q0 71 -23 119 q-38 72 -128 72 q-80 0 -118 -62 q-36 -61 -36 -148 q0 -83 36 -139 q37 -55 117 -55 q88 0 119 66 q33 66 33 147 ZM516 272 q0 -126 -62 -209 q-61 -82 -190 -82 q-108 0 -172 73 q-63 73 -63 196 q0 133 67 210 q68 78 179 78 q100 0 171 -68 q70 -67 70 -198 ZM313 587 l0 102 l92 0 l0 -102 l-92 0 ZM152 587 l0 102 l92 0 l0 -102 l-92 0 ZM124 748 l0 57 l313 0 l0 -57 l-313 0 Z" /><glyph glyph-name="uni022C" unicode="&#x22c;" d="M667 615 q71 -95 71 -244 q0 -161 -81 -267 q-96 -125 -273 -125 q-166 0 -260 109 q-85 106 -85 267 q0 145 72 249 q93 133 275 133 q189 0 281 -122 ZM639 370 q0 127 -67 203 q-66 77 -180 77 q-112 0 -182 -76 q-70 -76 -70 -225 q0 -120 60 -202 q60 -81 196 -81 q128 0 185 92 q58 91 58 212 ZM412 856 q33 -12 48 -12 q27 0 39 17 q6 9 9 28 l51 0 q-17 -109 -103 -109 q-16 0 -57 12 l-25 10 q-45 16 -66 16 q-36 0 -43 -45 l-48 0 q7 39 21 63 q28 45 83 45 q35 0 91 -25 ZM224 929 l0 57 l313 0 l0 -57 l-313 0 Z" /><glyph glyph-name="uni022D" unicode="&#x22d;" d="M424 270 q0 71 -23 119 q-38 72 -128 72 q-80 0 -118 -62 q-36 -61 -36 -148 q0 -83 36 -139 q37 -55 117 -55 q88 0 119 66 q33 66 33 147 ZM516 272 q0 -126 -62 -209 q-61 -82 -190 -82 q-108 0 -172 73 q-63 73 -63 196 q0 133 67 210 q68 78 179 78 q100 0 171 -68 q70 -67 70 -198 ZM296 667 q33 -12 48 -12 q28 0 39 17 q8 9 9 28 l51 0 q-17 -109 -103 -109 q-26 0 -56 13 l-26 9 q-45 16 -66 16 q-36 0 -43 -45 l-47 0 q6 39 21 63 q27 45 82 45 q35 0 91 -25 ZM113 742 l0 58 l313 0 l0 -58 l-313 0 Z" /><glyph glyph-name="uni022E" unicode="&#x22e;" d="M667 615 q71 -95 71 -244 q0 -161 -81 -267 q-96 -125 -273 -125 q-166 0 -260 109 q-85 106 -85 267 q0 145 72 249 q93 133 275 133 q189 0 281 -122 ZM639 370 q0 127 -67 203 q-66 77 -180 77 q-112 0 -182 -76 q-70 -76 -70 -225 q0 -120 60 -202 q60 -81 196 -81 q128 0 185 92 q58 91 58 212 ZM336 809 l0 101 l91 0 l0 -101 l-91 0 Z" /><glyph glyph-name="uni022F" unicode="&#x22f;" d="M424 270 q0 71 -23 119 q-38 72 -128 72 q-80 0 -118 -62 q-36 -61 -36 -148 q0 -83 36 -139 q37 -55 117 -55 q88 0 119 66 q33 66 33 147 ZM516 272 q0 -126 -62 -209 q-61 -82 -190 -82 q-108 0 -172 73 q-63 73 -63 196 q0 133 67 210 q68 78 179 78 q100 0 171 -68 q70 -67 70 -198 ZM225 619 l0 101 l91 0 l0 -101 l-91 0 Z" /><glyph glyph-name="uni0230" unicode="&#x230;" d="M667 615 q71 -95 71 -244 q0 -161 -81 -267 q-96 -125 -273 -125 q-166 0 -260 109 q-85 106 -85 267 q0 145 72 249 q93 133 275 133 q189 0 281 -122 ZM639 370 q0 127 -67 203 q-66 77 -180 77 q-112 0 -182 -76 q-70 -76 -70 -225 q0 -120 60 -202 q60 -81 196 -81 q128 0 185 92 q58 91 58 212 ZM334 804 l0 101 l91 0 l0 -101 l-91 0 ZM226 945 l0 58 l312 0 l0 -58 l-312 0 Z" /><glyph glyph-name="uni0231" unicode="&#x231;" d="M424 270 q0 71 -23 119 q-38 72 -128 72 q-80 0 -118 -62 q-36 -61 -36 -148 q0 -83 36 -139 q37 -55 117 -55 q88 0 119 66 q33 66 33 147 ZM516 272 q0 -126 -62 -209 q-61 -82 -190 -82 q-108 0 -172 73 q-63 73 -63 196 q0 133 67 210 q68 78 179 78 q100 0 171 -68 q70 -67 70 -198 ZM236 585 l0 102 l92 0 l0 -102 l-92 0 ZM124 721 l0 58 l313 0 l0 -58 l-313 0 Z" /><glyph glyph-name="uni0232" unicode="&#x232;" d="M292 289 l-271 428 l113 0 l206 -344 l206 344 l114 0 l-271 -428 l0 -289 l-97 0 l0 289 ZM191 749 l0 57 l313 0 l0 -57 l-313 0 Z" /><glyph glyph-name="uni0233" unicode="&#x233;" d="M250 97 l141 426 l97 0 l-82 -230 l-80 -219 q-77 -202 -108 -244 q-32 -44 -107 -44 q-25 0 -53 6 l0 81 q34 -10 51 -10 q36 0 55 28 q4 5 18 40 l22 54 l-194 538 l100 0 l140 -426 ZM101 591 l0 57 l312 0 l0 -57 l-312 0 Z" /><glyph glyph-name="uni0237" unicode="&#x237;" d="M154 517 l0 -583 q0 -132 -124 -132 q-27 0 -44 4 l0 73 q14 -2 17 -2 l18 0 q28 0 38 15.5 q10 15.5 10 55.5 l0 569 l85 0 Z" /><glyph glyph-name="uni0238" unicode="&#x238;" d="M370 507 q25 -16 53 -51 l0 264 l88 0 l0 -261 q60 78 156 78 q101 0 160 -69 q59 -69 59 -197 q0 -123 -60 -206 q-60 -82 -166 -82 q-60 0 -101 29 q-23 16 -51 53 l0 -65 l-82 0 l0 68 q-31 -46 -70 -65 q-41 -22 -96 -22 q-88 0 -152 73 q-64 73 -64 196 q0 116 58 198 q58 84 168 84 q60 0 100 -25 ZM796 267 q0 86 -36 138.5 q-36 52.5 -103 52.5 q-59 0 -106 -44 q-35 -37 -43 -112 l0 -73 q3 -46 17 -82 q35 -86 129 -86 q70 0 106 55 q36 55 36 151 ZM287 58 q61 0 100 52 q35 45 39 123 l0 57 q-6 78 -40 118 q-41 48 -100 48 q-68 0 -108.5 -52 q-40.5 -52 -40.5 -149 q0 -83 35 -141 q36 -56 115 -56 Z" /><glyph glyph-name="uni0239" unicode="&#x239;" d="M408 455 l0 66 l4 0 l0 2 l83 0 l0 -70 q24 32 56 53 q45 30 105 30 q90 0 151 -69 q62 -68 62 -194 q0 -171 -90 -244 q-56 -47 -132 -47 q-58 0 -99 26 q-25 16 -52 51 l0 -267 l-89 0 l0 268 q-48 -77 -158 -77 q-82 0 -149 65 q-66 66 -66 200 q0 127 61 206 q61 81 160 81 q65 0 110 -33 q23 -17 43 -47 ZM779 265 q0 62 -18 107 q-35 86 -125 86 q-92 0 -125 -91 q-12 -36 -16 -72 l0 -95 q4 -29 16 -60 q35 -81 125 -81 q63 0 103 53.5 q40 53.5 40 152.5 ZM145 141 q33 -82 120 -82 q92 0 127 86 q11 28 16 71 l0 94 q-4 40 -18 69 q-36 78 -126 78 q-61 0 -100 -52 q-39 -52 -39 -151 q0 -65 20 -113 Z" /><glyph glyph-name="uni023A" unicode="&#x23a;" d="M220 294 l224 0 l-109 317 l-115 -317 ZM15 0 l270 717 l110 0 l260 -717 l-107 0 l-72 215 l-284 0 l-78 -215 l-99 0 ZM182 -98 l241 913 l74 0 l-241 -913 l-74 0 Z" /><glyph glyph-name="uni023B" unicode="&#x23b;" d="M402 736 l21 84 l74 0 l-23 -94 q68 -16 116 -61 q76 -73 83 -163 l-94 0 q-17 69 -65 110 q-25 20 -61 31 l-140 -569 q28 -7 64 -7 q109 0 164 82 q30 44 44 115 l95 0 q-13 -113 -84 -190 q-86 -93 -230 -93 q-37 0 -74 8 l-22 -92 l-75 0 l28 115 q-35 16 -67 45 q-112 100 -112 309 q0 160 84 260 q92 111 250 111 q17 0 24 -1 ZM208 578 q-65 -76 -65 -228 q0 -125 59 -205 q20 -27 44 -42 l135 549 l-2 0 q-106 0 -171 -74 Z" /><glyph glyph-name="uni023C" unicode="&#x23c;" d="M322 533 l28 87 l74 0 l-35 -111 q7 -4 21 -14 q55 -43 67 -148 l-86 0 q-8 44 -30 74 l-114 -360 q4 -1 13 -1 q105 0 131 125 l86 0 q-29 -200 -224 -200 q-10 0 -30 2 l-27 -85 l-74 0 l33 104 q-36 19 -65 54 q-61 74 -61 187 q0 138 67 214 q68 77 170 77 q28 0 56 -5 ZM266 459 q-84 0 -120 -82 q-23 -54 -23 -131 q0 -80 33 -132 q11 -18 24 -29 l118 372 q-20 2 -32 2 Z" /><glyph glyph-name="uni023D" unicode="&#x23d;" d="M76 339 l-88 1 l0 75 l88 0 l0 302 l97 0 l0 -302 l158 0 l0 -77 l-158 0 l0 -253 l364 0 l0 -85 l-461 0 l0 339 Z" /><glyph glyph-name="uni023E" unicode="&#x23e;" d="M411 717 l36 103 l74 0 l-36 -103 l113 0 l0 -85 l-143 0 l-99 -280 l0 -352 l-98 0 l0 72 l-62 -175 l-74 0 l136 385 l0 350 l-242 0 l0 85 l395 0 ZM356 632 l0 -70 l25 70 l-25 0 Z" /><glyph glyph-name="uni0241" unicode="&#x241;" d="M299 727 q98 0 154 -55 q58 -55 58 -141 q0 -53 -21 -84 q-22 -33 -86 -94 q-48 -48 -61 -78 q-13 -30 -13 -275 l-87 0 q0 253 16 295 q15 40 73 98 l39 39 q18 16 28 34 q20 32 20 66 q0 52 -30.5 85 q-30.5 33 -92.5 33 q-82 0 -113 -60 q-17 -36 -20 -97 l-87 0 q0 104 59 169 q60 65 164 65 Z" /><glyph glyph-name="uni0242" unicode="&#x242;" d="M299 538 q98 0 154 -55 q58 -55 58 -140 q0 -53 -21 -84 q-21 -32 -86 -95 q-48 -46 -61 -77 q-13 -30 -13 -87 l-87 0 q0 65 16 106 q16 42 73 99 l39 38 q16 15 28 35 q20 32 20 66 q0 52 -30.5 85 q-30.5 33 -92.5 33 q-82 0 -113 -61 q-17 -34 -20 -97 l-87 0 q0 105 59 170 q60 64 164 64 Z" /><glyph glyph-name="uni0243" unicode="&#x243;" d="M136 173 l-113 0 l0 70 l113 0 l0 474 l308 0 q126 0 179 -75 q31 -43 31 -102 q0 -68 -38 -112 q-19 -22 -58 -42 q53 -20 83 -47 q48 -47 48 -130 q0 -70 -43 -125 q-64 -84 -207 -84 l-303 0 l0 173 ZM231 83 l209 0 q91 0 128 52 q24 31 24 79 q0 78 -70 106 q-38 15 -98 15 l-193 0 l0 -92 l105 0 l0 -70 l-105 0 l0 -90 ZM231 414 l177 0 q59 0 95 17 q54 27 54 97 q0 70 -57 95 q-30 13 -96 13 l-173 0 l0 -222 Z" /><glyph glyph-name="uni0244" unicode="&#x244;" d="M144 369 l-122 0 l0 69 l122 0 l0 279 l99 0 l0 -279 l367 0 l0 279 l99 0 l0 -279 l114 0 l0 -69 l-114 0 l0 -55 q0 -132 -36 -203 q-64 -130 -247 -130 q-182 0 -246 130 q-36 71 -36 203 l0 55 ZM272 144 q44 -78 146 -78 q124 0 168 84 q24 46 24 124 l0 95 l-367 0 l0 -95 q0 -77 29 -130 Z" /><glyph glyph-name="uni0245" unicode="&#x245;" d="M133 0 l-108 0 l262 717 l103 0 l261 -717 l-109 0 l-203 611 l-206 -611 Z" /><glyph glyph-name="uni0246" unicode="&#x246;" d="M85 0 l0 717 l312 0 l26 103 l74 0 l-25 -103 l136 0 l0 -88 l-158 0 l-54 -217 l180 0 l0 -83 l-200 0 l-60 -244 l300 0 l0 -85 l-321 0 l-25 -103 l-75 0 l26 103 l-136 0 ZM180 629 l0 -217 l142 0 l54 217 l-196 0 ZM180 329 l0 -244 l62 0 l60 244 l-122 0 Z" /><glyph glyph-name="uni0247" unicode="&#x247;" d="M321 531 l29 89 l74 0 l-35 -111 l1 -1 q50 -24 80 -67 q26 -42 35 -92 q8 -40 8 -116 l-212 0 l-55 -173 q18 -2 30 -2 q70 0 110 45 q22 25 33 61 l86 0 q-3 -29 -22.5 -64.5 q-19.5 -35.5 -43.5 -57.5 q-41 -40 -99 -53 q-34 -8 -71 -8 q-21 0 -46 5 l-27 -84 l-74 0 l34 108 q-30 17 -53 42 q-68 73 -68 199 q0 125 68 205 q69 79 179 79 q22 0 39 -4 ZM277 458 q-61 0 -102 -44 q-42 -45 -43 -111 l117 0 l49 154 q-7 1 -21 1 ZM167 105 l14 -16 l46 144 l-98 0 q3 -78 38 -128 ZM323 303 l99 0 q-4 56 -25 92 q-13 22 -33 37 l-41 -129 Z" /><glyph glyph-name="uni0248" unicode="&#x248;" d="M428 451 l0 -237 q0 -92 -27 -141 q-50 -92 -189 -92 q-82 0 -138 43 q-57 44 -57 156 l0 51 l91 0 l0 -51 q0 -118 108 -118 q77 0 101 54 q15 32 15 123 l0 212 l-78 0 l0 70 l78 0 l0 196 l96 0 l0 -196 l74 0 l0 -70 l-74 0 Z" /><glyph glyph-name="uni0249" unicode="&#x249;" d="M152 521 l0 -245 l87 0 l0 -69 l-87 0 l0 -285 q0 -56 -18 -85 q-32 -48 -117 -48 q-15 0 -36 3 l0 76 q60 1 71 11 q12 7 12 53 l0 275 l-72 0 l0 69 l72 0 l0 245 l88 0 ZM152 717 l0 -101 l-88 0 l0 101 l88 0 Z" /><glyph glyph-name="uni024A" unicode="&#x24a;" d="M831 -184 l0 -40 q-139 0 -189 92 q-27 50 -27 141 l0 61 q-92 -91 -244 -91 q-177 0 -273 125 q-81 106 -81 267 q0 149 71 244 q92 122 281 122 q155 0 246 -97 l0 77 l96 0 l0 -683 q0 -92 15 -123 q24 -54 101 -54 q4 0 4 -41 ZM116 370 q0 -120 57 -212 q59 -92 186 -92 q136 0 196 81 q54 73 60 178 l0 46 q-4 131 -70 203 q-70 76 -182 76 q-113 0 -181 -77 q-66 -77 -66 -203 Z" /><glyph glyph-name="uni024B" unicode="&#x24b;" d="M584 -132 l0 -76 q-20 -3 -35 -3 q-85 0 -117 48 q-18 29 -18 85 l0 106 q-59 -47 -146 -47 q-130 0 -191 82 q-61 82 -61 209 q0 130 69 198 q71 68 171 68 q96 0 158 -55 l0 38 l87 0 l0 -589 q0 -46 12 -53 q13 -10 71 -11 ZM107 270 q0 -80 32 -147 q33 -66 121 -66 q79 0 116 55 q37 55 37 139 q0 87 -37 148 q-38 62 -117 62 q-91 0 -128 -72 q-24 -47 -24 -119 Z" /><glyph glyph-name="uni024C" unicode="&#x24c;" d="M149 308 l-126 0 l0 81 l126 0 l0 328 l332 0 q82 0 136 -24 q101 -47 101 -169 q0 -120 -101 -171 q45 -19 64.5 -47.5 q19.5 -28.5 22.5 -88.5 l3 -96 q2 -43 7 -61 q9 -34 31 -44 l0 -16 l-119 0 q-10 16 -13 81 l-6 119 q-3 72 -52 94 q-30 14 -87 14 l-221 0 l0 -308 l-98 0 l0 308 ZM247 389 l224 0 q73 0 110.5 28.5 q37.5 28.5 37.5 97.5 q0 75 -56 104 q-29 15 -79 15 l-237 0 l0 -245 Z" /><glyph glyph-name="uni024D" unicode="&#x24d;" d="M118 173 l-105 0 l0 70 l105 0 l0 280 l84 0 l0 -90 q12 29 50 64 q41 38 92 38 q9 0 29 -3 l0 -93 q-11 3 -29 3 q-67 0 -103 -43 q-35 -44 -35 -98 l0 -58 l119 0 l0 -70 l-119 0 l0 -173 l-88 0 l0 173 Z" /><glyph glyph-name="uni024E" unicode="&#x24e;" d="M199 515 l-187 0 l0 69 l143 0 l-84 133 l114 0 l79 -133 l253 0 l80 133 l113 0 l-84 -133 l133 0 l0 -69 l-176 0 l-144 -226 l0 -289 l-97 0 l0 289 l-143 226 ZM305 515 l86 -142 l85 142 l-171 0 Z" /><glyph glyph-name="uni024F" unicode="&#x24f;" d="M146 320 l-122 0 l0 69 l97 0 l-48 134 l99 0 l44 -134 l193 0 l45 134 l97 0 q-4 -10 -49 -134 l103 0 l0 -69 l-127 0 l-10 -27 l-80 -219 q-78 -205 -107 -244 q-32 -44 -108 -44 q-23 0 -53 6 l0 81 q34 -10 51 -10 q37 0 56 28 l17 40 l22 54 l-120 335 ZM239 320 l73 -223 l74 223 l-147 0 Z" /><glyph glyph-name="uni0250" unicode="&#x250;" d="M349 460 q-47 0 -90 -21 q-73 -36 -73 -117 l0 -71 q27 19 91 27 l53 7 q50 8 72 20 q40 22 40 73 q0 38 -26.5 60 q-26.5 22 -66.5 22 ZM370 218 l-141 -17 q-30 -4 -40 -26 q-6 -11 -6 -33 q0 -86 124 -86 q69 0 97 37 q17 21 21 61 l82 0 q-2 -97 -63 -134 q-61 -38 -139 -38 q-92 0 -150 35 q-57 35 -57 109 l0 302 q0 30 -30 30 q-17 0 -28 -3 l0 65 q30 9 60 9 q46 0 66 -32 q11 -18 15 -49 q28 37 79 62 q51 25 109 25 q72 0 119 -44 q46 -43 46 -111 q0 -70 -44 -111 q-44 -41 -120 -51 Z" /><glyph glyph-name="uni0251" unicode="&#x251;" d="M430 75 q-63 -90 -175 -90 q-104 0 -166 77 q-61 77 -61 198 q0 121 61 197 q61 78 166 78 q109 0 174 -88 l0 78 l80 0 l0 -409 q0 -40 6 -45 q5 -3 48 -8 l0 -63 q-9 -5 -40 -5 q-47 0 -67 19 q-20 19 -26 61 ZM380 409.5 q-41 50.5 -113 50.5 q-72 0 -113 -50 q-41 -50 -41 -150 q0 -99 41 -149.5 q41 -50.5 113 -50.5 q72 0 113 50 q41 50 41 150 q0 99 -41 149.5 Z" /><glyph glyph-name="uni0252" unicode="&#x252;" d="M161 444 q63 91 175 91 q104 0 165 -78 q62 -79 62 -197 q0 -121 -61 -198 q-62 -78 -166 -78 q-109 0 -174 89 l0 -78 l-80 0 l0 408 q0 41 -7 45 q-6 4 -47 9 l0 63 q9 4 40 4 q47 0 67 -19 q20 -19 26 -61 ZM211 110.5 q41 -50.5 113 -50.5 q72 0 113 50 q41 50 41 150 q0 99 -41 149 q-41 50 -113 50 q-72 0 -113 -50 q-41 -50 -41 -149 q0 -99 41 -149.5 Z" /><glyph glyph-name="uni0253" unicode="&#x253;" d="M227 735 l0 -76 q-59 -1 -72 -11 q-11 -8 -11 -53 l0 -135 q58 77 155 77 q100 0 159.5 -69 q59.5 -69 59.5 -197 q0 -123 -60 -206 q-60 -82 -166 -82 q-60 0 -101 29 q-21 15 -52 55 l0 -67 l-81 0 l0 382 l-2 0 l0 222 q0 58 18 86 q32 48 117 48 q15 0 36 -3 ZM428 267 q0 86 -36.5 138.5 q-36.5 52.5 -102.5 52.5 q-59 0 -106 -45 q-45 -43 -45 -146 q0 -75 19 -120 q35 -86 129 -86 q70 0 106 55 q36 55 36 151 Z" /><glyph glyph-name="uni0254" unicode="&#x254;" d="M28 175 l86 0 q19 -112 125 -112 q84 0 120 82 q23 54 23 131 q0 80 -33 132 q-33 54 -104 54 q-106 0 -131 -125 l-86 0 q29 201 223 201 q103 0 164 -75 q61 -74 61 -188 q0 -138 -67 -214 q-68 -77 -170 -77 q-93 0 -146 45 q-53 45 -65 146 Z" /><glyph glyph-name="uni0256" unicode="&#x256;" d="M572 -132 l0 -76 q-20 -3 -35 -3 q-85 0 -117 48 q-19 28 -19 85 l0 136 q-26 -36 -62 -55 q-41 -22 -96 -22 q-88 0 -152 73 q-64 73 -64 196 q0 116 58 198 q58 84 167 84 q61 0 101 -25 q24 -16 53 -51 l0 264 l85 0 l0 -720 l-2 0 l0 -68 q0 -46 12 -53 q13 -10 71 -11 ZM270 58 q62 0 101 53.5 q39 53.5 39 149.5 q0 95 -39 145 q-39 50 -102 50 q-68 0 -108.5 -52 q-40.5 -52 -40.5 -149 q0 -83 35 -141 q36 -56 115 -56 Z" /><glyph glyph-name="uni0257" unicode="&#x257;" d="M574 733 l0 -76 q-58 -1 -71 -11 q-12 -8 -12 -53 l0 -593 l-79 0 l0 73 q-58 -92 -169 -92 q-88 0 -152 73 q-64 73 -64 196 q0 116 58 198 q58 84 167 84 q61 0 101 -25 q21 -12 50 -48 l0 144 q0 57 18 85 q31 48 117 48 q16 0 36 -3 ZM270 58 q62 0 101 53.5 q39 53.5 39 149.5 q0 95 -39 145 q-39 50 -102 50 q-68 0 -108.5 -52 q-40.5 -52 -40.5 -149 q0 -83 35 -141 q36 -56 115 -56 Z" /><glyph glyph-name="uni0258" unicode="&#x258;" d="M78 441 q27 41 79.5 67.5 q52.5 26.5 108.5 26.5 q111 0 178 -79 q69 -80 69 -205 q0 -126 -68 -199 q-68 -71 -166 -71 q-37 0 -71 8 q-59 13 -100 53 q-24 22 -43 57.5 q-19 35.5 -23 64.5 l87 0 q11 -36 33 -61 q40 -45 110 -45 q72 0 108 46.5 q36 46.5 38 128.5 l-383 0 q0 76 8 116 q9 50 35 92 ZM125 303 l291 0 q-1 66 -43 111 q-41 44 -102 44 q-83 0 -121 -63 q-19 -33 -25 -92 Z" /><glyph glyph-name="uni0259" unicode="&#x259;" d="M268 -11 q-53 0 -95 19 q-42 19 -68 49 q-26 30 -43 70 q-17 40 -23.5 79.5 q-6.5 39.5 -4.5 78.5 l387 0 q2 72 -39 121 q-41 49 -122 49 q-112 0 -134 -101 l-84 0 q17 86 74.5 130.5 q57.5 44.5 146.5 44.5 q120 0 184 -74 q64 -74 64 -197 q0 -117 -68.5 -193 q-68.5 -76 -174.5 -76 ZM273 64 q64 0 104 42 q40 42 44 104 l-297 0 q4 -62 45.5 -104 q41.5 -42 103.5 -42 Z" /><glyph glyph-name="uni025A" unicode="&#x25a;" d="M690 242 q26 -7 49.5 8.5 q23.5 15.5 34.5 41.5 q9 -9 23 -17.5 q14 -8.5 22 -16.5 q-28 -69 -113 -75 q-54 -6 -84 28.5 q-30 34.5 -30 95.5 q-21 -5 -42 -12 q-7 -2 -32 -11 q15 -98 -22 -174 q-47 -94 -153 -122 q-54 -14 -111 -2 q-56 10 -94 44 q-35 30 -58 80 q-18 37 -37 110 l370 99 q-24 79 -71 114.5 q-47 35.5 -116 17.5 q-66 -18 -94 -73 q-15 -29 -17 -67 l-83 -22 q-4 28 5.5 67.5 q9.5 39.5 26.5 66.5 q27 47 82 77 q24 14 67 26 q94 25 179 -26 q77 -46 112 -158 q12 3 36 11 q54 15 115 35 q8 -32 4 -61 q-4 -29 1.5 -53.5 q5.5 -24.5 29.5 -31.5 ZM429 250 l-281 -75 q20 -53 48 -81 q51 -52 133 -31 q57 16 86 69 q29 53 14 118 Z" /><glyph glyph-name="uni025B" unicode="&#x25b;" d="M395 161 l83 0 q0 -73 -62 -123 q-62 -48 -172 -48 q-84 0 -145 41 q-59 41 -59 110 q0 51 30.5 86.5 q30.5 35.5 83.5 50.5 q-46 21 -67 49.5 q-21 28.5 -21 76.5 q0 60 53 95 q54 36 135 36 q113 0 158 -54 q46 -53 46 -107 l-83 0 q-17 87 -117 87 q-108 0 -108 -70 q0 -80 108 -80 l51 0 l0 -70 l-58 0 q-122 0 -122 -97 q0 -43 36 -64 q37 -21 83 -21 q125 0 147 102 Z" /><glyph glyph-name="uni025C" unicode="&#x25c;" d="M41 161 l83 0 q22 -102 147 -102 q45 0 82 21 q37 21 37 64 q0 97 -122 97 l-59 0 l0 70 l52 0 q108 0 108 80 q0 70 -108 70 q-101 0 -117 -87 l-83 0 q0 53 45 107 q45 54 159 54 q81 0 134 -36 q54 -35 54 -95 q0 -48 -21 -76.5 q-21 -28.5 -67 -49.5 q53 -15 83.5 -50.5 q30.5 -35.5 30.5 -86.5 q0 -69 -60 -110 q-61 -41 -145 -41 q-110 0 -171 48 q-62 50 -62 123 Z" /><glyph glyph-name="uni025D" unicode="&#x25d;" d="M655 379 q25 -8 48 7.5 q23 15.5 36 42.5 q9 -9 23.5 -18.5 q14.5 -9.5 21.5 -15.5 q-29 -70 -114 -76 q-53 -6 -83.5 29.5 q-30.5 35.5 -30.5 94.5 q-32 -6 -83 -26 q-4 -1 -14.5 -4.5 q-10.5 -3.5 -16.5 -5.5 l0 -3 q0 -48 -21 -76.5 q-21 -28.5 -67 -49.5 q53 -15 83.5 -50.5 q30.5 -35.5 30.5 -86.5 q0 -69 -60 -110 q-59 -41 -144 -41 q-110 0 -172 48 q-62 50 -62 123 l83 0 q12 -52 47 -77 q35 -25 100 -25 q46 0 82 21 q37 21 37 64 q0 97 -122 97 l-58 0 l0 70 l51 0 q108 0 108 80 q0 70 -108 70 q-100 0 -117 -87 l-83 0 q0 53 45 107 q47 54 159 54 q80 0 135 -35 q22 -16 35 -35 l80 24 l116 35 q7 -31 3 -60 q-4 -29 2 -53.5 q6 -24.5 30 -31.5 Z" /><glyph glyph-name="uni025E" unicode="&#x25e;" d="M97 481 q31 38 99 49 l61 5 q80 0 133 -35 q54 -36 54 -96 q0 -48 -21 -76.5 q-21 -28.5 -67 -49.5 q53 -15 83.5 -50.5 q30.5 -35.5 30.5 -86.5 q0 -69 -60 -110 q-59 -41 -144 -41 q-14 0 -21 1 q-73 13 -107 34 q-32 19 -71 71 q-37 49 -37 151 q0 127 67 234 ZM257 461 l0 -2 q-84 0 -120 -82 q-23 -54 -23 -131 q0 -80 33 -132 q17 -27 41 -40 q22 -9 63 -15 l31 0 q26 0 62 21 q37 21 37 64 q0 97 -122 97 l-7 70 q108 0 108 80 q0 33 -26 51 q-22 17 -77 19 Z" /><glyph glyph-name="uni025F" unicode="&#x25f;" d="M169 -166 q-32 -44 -119 -44 q-7 0 -37 2 l0 80 q9 0 18 -1 q9 -1 13 -1 q40 0 48 21 q8 22 8 106 l-87 0 l0 69 l88 0 l0 451 l87 0 l0 -451 l73 0 l0 -69 l-73 0 l0 -82 q-1 -54 -19 -81 Z" /><glyph glyph-name="uni0260" unicode="&#x260;" d="M571 625 l0 -76 q-57 -1 -71 -10 q-10 -7 -12 -36 l0 -461 q0 -97 -29 -157 q-55 -106 -207 -106 q-88 0 -144 39 q-56 39 -62 117 l89 0 q8 -36 26 -54 q29 -29 93 -29 q101 0 133 71 q18 43 17 150 q-28 -41 -65.5 -60 q-37.5 -19 -96.5 -19 q-84 0 -149 60 q-63 60 -63 199 q0 132 64 205 q65 74 155 74 q62 0 107 -30 q19 -13 44 -41 l0 34 q0 57 18 85 q32 48 117 48 q16 0 36 -3 ZM265 455 q-93 0 -127 -87 q-18 -46 -18 -122 q0 -86 35.5 -133.5 q35.5 -47.5 96.5 -47.5 q95 0 134 86 q21 48 21 113 q0 94 -38.5 142.5 q-38.5 48.5 -103.5 48.5 Z" /><glyph glyph-name="uni0261" unicode="&#x261;" d="M356 502 q25 -16 51 -50 l0 66 l81 0 l0 -476 q0 -97 -29 -157 q-55 -106 -207 -106 q-88 0 -144 39 q-56 39 -62 117 l89 0 q8 -36 26 -54 q29 -29 93 -29 q101 0 133 71 q18 43 17 150 q-28 -41 -65.5 -60 q-37.5 -19 -96.5 -19 q-84 0 -149 60 q-63 60 -63 199 q0 132 64 205 q65 74 155 74 q62 0 107 -30 ZM265 455 q-93 0 -127 -87 q-18 -46 -18 -122 q0 -86 35.5 -133.5 q35.5 -47.5 96.5 -47.5 q95 0 134 86 q21 48 21 113 q0 94 -38.5 142.5 q-38.5 48.5 -103.5 48.5 Z" /><glyph glyph-name="uni0265" unicode="&#x265;" d="M490 511 l0 -719 l-88 0 l0 267 q-33 -41 -56 -56 q-42 -27 -106 -27 q-114 0 -154 79 q-22 43 -22 121 l0 335 l90 0 l0 -329 q0 -58 15 -85 q24 -43 90 -43 q55 0 98 37 q45 37 45 143 l0 277 l88 0 Z" /><glyph glyph-name="uni0266" unicode="&#x266;" d="M234 750 l0 -76 q-58 -1 -71 -11 q-12 -7 -12 -53 l0 -47 l1 0 l0 -111 q29 38 56 56 q43 28 106 28 q114 0 155 -80 q22 -43 22 -121 l0 -335 l-91 0 l0 330 q0 56 -14 84 q-24 43 -90 43 q-54 0 -100 -38 q-44 -38 -44 -142 l0 -277 l-88 0 l0 397 l-1 0 l0 223 q0 57 19 85 q32 48 117 48 q15 0 35 -3 Z" /><glyph glyph-name="uni0267" unicode="&#x267;" d="M572 -132 l0 -76 q-20 -3 -35 -3 q-85 0 -117 48 q-19 28 -19 85 l0 78 l-1 0 l0 330 q0 56 -14 84 q-24 43 -90 43 q-54 0 -100 -38 q-44 -38 -44 -142 l0 -277 l-88 0 l0 397 l-1 0 l0 223 q0 57 19 85 q32 48 117 48 q15 0 35 -3 l0 -76 q-58 -1 -71 -11 q-12 -7 -12 -53 l0 -47 l1 0 l0 -111 q29 38 56 56 q43 28 106 28 q114 0 155 -80 q22 -43 22 -121 l0 -335 l-2 0 l0 -68 q0 -46 12 -53 q13 -10 71 -11 Z" /><glyph glyph-name="uni0268" unicode="&#x268;" d="M17 313 l0 58 l116 0 l0 150 l89 0 l0 -150 l108 0 l0 -58 l-108 0 l0 -313 l-89 0 l0 313 l-116 0 ZM133 618 l0 99 l89 0 l0 -99 l-89 0 Z" /><glyph glyph-name="uni0269" unicode="&#x269;" d="M227 66 l0 -66 q-8 -3 -34 -4 q-8 0 -16 -0.5 q-8 -0.5 -12 -1 q-4 -0.5 -5 -0.5 q-43 0 -68.5 27.5 q-25.5 27.5 -25.5 71.5 l0 432 l80 0 l0 -409 q-3 -26 13.5 -39 q16.5 -13 47.5 -11 l20 0 Z" /><glyph glyph-name="uni026A" unicode="&#x26a;" d="M17 0 l0 90 l77 0 l0 339 l-77 0 l0 91 l77 0 l0 1 l89 0 l0 -1 l79 0 l0 -91 l-79 0 l0 -339 l79 0 l0 -90 l-245 0 Z" /><glyph glyph-name="uni026B" unicode="&#x26b;" d="M140 443 l0 274 l88 0 l0 -303 l5 -2 q11 -3 23 -3 q27 0 39 17 q6 9 9 28 l51 0 q-17 -109 -103 -109 q-10 0 -24 3 l0 -348 l-88 0 l0 376 l-8 3 q-12 4 -28 4 q-36 0 -43 -45 l-48 0 q7 38 21 63 q28 45 83 45 q9 0 23 -3 Z" /><glyph glyph-name="uni026D" unicode="&#x26d;" d="M236 -132 l0 -76 q-20 -3 -35 -3 q-85 0 -117 48 q-19 28 -19 85 l0 223 l2 0 l0 572 l88 0 l0 -717 l-2 0 l0 -68 q0 -46 12 -53 q13 -10 71 -11 Z" /><glyph glyph-name="uni026F" unicode="&#x26f;" d="M768 534 l0 -523 l-87 0 l0 74 q-33 -39 -57 -56 q-44 -29 -99 -29 q-63 0 -100 30 q-23 18 -39 52 q-59 -82 -158 -82 q-105 0 -144 76 q-20 42 -20 110 l0 348 l91 0 l0 -363 q0 -91 90 -91 q56 0 91.5 37 q35.5 37 35.5 113 l0 304 l89 0 l0 -341 q0 -53 13 -78 q20 -36 74 -36 q50 0 91 38 q41 39 41 140 l0 277 l88 0 Z" /><glyph glyph-name="uni0270" unicode="&#x270;" d="M768 534 l0 -742 l-87 0 l0 293 q-33 -39 -57 -56 q-44 -29 -99 -29 q-63 0 -100 30 q-23 18 -39 52 q-59 -82 -158 -82 q-105 0 -144 76 q-20 42 -20 110 l0 348 l91 0 l0 -363 q0 -91 90 -91 q56 0 91.5 37 q35.5 37 35.5 113 l0 304 l89 0 l0 -341 q0 -53 13 -78 q20 -36 74 -36 q50 0 91 38 q41 39 41 140 l0 277 l88 0 Z" /><glyph glyph-name="uni0271" unicode="&#x271;" d="M597 -208 l0 76 q58 1 71 11 q12 8 12 53 l0 68 l-3 0 l0 363 q0 92 -90 92 q-56 0 -91.5 -37 q-35.5 -37 -35.5 -114 l0 -304 l-89 0 l0 341 q0 55 -13 78 q-19 37 -74 37 q-50 0 -91 -39 q-41 -39 -41 -140 l0 -277 l-88 0 l0 523 l87 0 l0 -74 q33 39 57 56 q44 30 99 30 q63 0 100 -31 q23 -18 39 -52 q59 83 158 83 q105 0 144 -77 q20 -42 20 -110 l0 -426 q0 -56 -18 -85 q-32 -48 -117 -48 q-16 0 -36 3 Z" /><glyph glyph-name="uni0272" unicode="&#x272;" d="M-21 -208 l0 76 q60 1 71 11 q12 7 12 53 l0 589 l2 0 l0 2 l84 0 l0 -2 l2 0 l0 -69 q36 43 77 63 q42 20 92 20 q111 0 150 -78 q22 -41 22 -122 l0 -335 l-90 0 l0 330 q0 46 -14 77 q-22 49 -85 49 q-33 0 -51 -7 q-34 -10 -64 -43 q-21 -26 -28 -53 q-7 -27 -7 -79 l0 -274 l-2 0 l0 -78 q0 -56 -18 -85 q-32 -48 -117 -48 q-15 0 -36 3 Z" /><glyph glyph-name="uni0273" unicode="&#x273;" d="M572 -132 l0 -76 q-20 -3 -35 -3 q-85 0 -117 48 q-19 28 -19 85 l0 408 q0 46 -14 77 q-22 49 -85 49 q-33 0 -51 -7 q-34 -10 -64 -43 q-21 -26 -28 -53 q-7 -27 -7 -79 l0 -274 l-88 0 l0 523 l84 0 l0 -74 q69 86 171 86 q111 0 150 -78 q22 -41 22 -122 l0 -335 l-2 0 l0 -68 q0 -46 12 -53 q13 -10 71 -11 Z" /><glyph glyph-name="uni0274" unicode="&#x274;" d="M41 0 l0 523 l115 0 l257 -387 l0 387 l92 0 l0 -523 l-109 0 l-262 386 l0 -386 l-93 0 Z" /><glyph glyph-name="uni0275" unicode="&#x275;" d="M516 272 q0 -126 -62 -209 q-61 -82 -190 -82 q-108 0 -172 73 q-63 73 -63 196 q0 133 67 210 q68 78 179 78 q100 0 171 -68 q70 -67 70 -198 ZM401 389 q-38 72 -128 72 q-81 0 -117 -61 q-31 -50 -35 -114 l303 0 q-2 62 -23 103 ZM156 112 q36 -55 116 -55 q87 0 120 66 q24 48 30 105 l-302 0 q5 -68 36 -116 Z" /><glyph glyph-name="uni0276" unicode="&#x276;" d="M282 537 q84 0 137 -40 q30 -23 57 -63 q65 102 194 102 q119 0 185 -94 q29 -43 40 -99 q4 -34 6 -110 l-387 0 q1 -61 22 -104 q38 -75 131 -75 q66 0 105 45 q21 24 36 65 l88 0 q-21 -86 -83 -135.5 q-62 -49.5 -147 -49.5 q-127 0 -200 106 q-60 -105 -191 -105 q-101 0 -171 69 q-69 70 -69 206 q0 121 65 201 q64 81 182 81 ZM515 301 l295 0 q-5 56 -24 92 q-36 65 -123 65 q-43 0 -81 -26 q-58 -40 -67 -131 ZM432 268 q0 93 -42 142.5 q-42 49.5 -111 49.5 q-69 0 -111.5 -53.5 q-42.5 -53.5 -42.5 -156.5 q0 -89 43 -142 q43 -53 113 -53 q56 0 103 46 q48 47 48 167 Z" /><glyph glyph-name="uni0278" unicode="&#x278;" d="M406 466 l0 -388 q89 3 135 55 q46 52 46 137 q-1 180 -181 196 ZM316 -204 l0 204 q-117 2 -195 72 q-81 70 -82 188 q0 128 74 205 q73 78 203 79 l0 162 l90 0 l0 -162 q131 -2 204 -79 q71 -76 73 -205 q-2 -119 -81 -188 q-78 -71 -196 -72 l0 -204 l-90 0 ZM316 78 l0 388 q-181 -16 -181 -196 q0 -84 48 -137 q46 -52 133 -55 Z" /><glyph glyph-name="uni0279" unicode="&#x279;" d="M321 534 l0 -523 l-84 0 l0 91 q-11 -29 -50 -65 q-40 -37 -92 -37 q-16 0 -29 2 l0 93 q11 -3 29 -3 q68 0 102 43 q36 44 36 98 l0 301 l88 0 Z" /><glyph glyph-name="uni027A" unicode="&#x27a;" d="M321 717 l0 -706 l-84 0 l0 91 q-11 -29 -50 -65 q-40 -37 -92 -37 q-16 0 -29 2 l0 93 q11 -3 29 -3 q68 0 102 43 q36 44 36 98 l0 484 l88 0 Z" /><glyph glyph-name="uni027B" unicode="&#x27b;" d="M404 -132 l0 -76 q-20 -3 -35 -3 q-85 0 -117 48 q-19 28 -19 85 l0 171 q-13 -26 -46 -56 q-40 -37 -92 -37 q-16 0 -29 2 l0 93 q11 -3 29 -3 q68 0 102 43 q36 44 36 98 l0 301 l88 0 l0 -389 l0 -213 q0 -46 12 -53 q13 -10 71 -11 Z" /><glyph glyph-name="uni027C" unicode="&#x27c;" d="M67 -150 l0 673 l83 0 l0 -90 q11 27 51 64 q41 38 92 38 q9 0 28 -3 l0 -93 q-11 3 -29 3 q-66 0 -102 -43 q-35 -44 -35 -98 l0 -451 l-88 0 Z" /><glyph glyph-name="uni027D" unicode="&#x27d;" d="M236 -132 l0 -76 q-20 -3 -35 -3 q-85 0 -117 48 q-19 28 -19 85 l0 223 l2 0 l0 378 l83 0 l0 -90 q11 27 51 64 q41 38 92 38 q9 0 28 -3 l0 -93 q-11 3 -29 3 q-66 0 -102 -43 q-35 -44 -35 -98 l0 -301 l-2 0 l0 -68 q0 -46 12 -53 q13 -10 71 -11 Z" /><glyph glyph-name="uni027E" unicode="&#x27e;" d="M211 503 l0 -76 q-79 13 -91 4 q-12 -7 -12 -53 l0 -378 l-87 0 l0 387 q0 57 18 86 q31 48 136 33 q16 0 36 -3 Z" /><glyph glyph-name="uni027F" unicode="&#x27f;" d="M21 427 l0 76 q20 3 35 3 q106 15 136 -33 q19 -28 19 -86 l0 -387 l-88 0 l0 378 q0 46 -12 53 q-13 9 -90 -4 Z" /><glyph glyph-name="uni0280" unicode="&#x280;" d="M162 283 l109 0 q53 0 80.5 21 q27.5 21 27.5 71 q0 30 -40 49 q-24 11 -58 11 l-119 0 l0 -152 ZM64 0 l0 523 l242 0 q60 0 99 -18 q74 -33 74 -123 q0 -86 -74 -125 q34 -29 47.5 -49 q13.5 -20 15.5 -50 l3 -70 q2 -33 5 -44 q6 -24 23 -32 l0 -12 l-115 0 q-8 18 -9 59 l-4 87 q-3 38 -38 55 q-21 9 -64 9 l-107 0 l0 -210 l-98 0 Z" /><glyph glyph-name="uni0281" unicode="&#x281;" d="M271 240 l-109 0 l0 -152 l119 0 q34 0 58 11 q40 19 40 49 q0 50 -27.5 71 q-27.5 21 -80.5 21 ZM64 0 l0 523 l98 0 l0 -211 l107 0 q44 0 64 10 q35 17 38 55 l4 87 q1 41 9 59 l115 0 l0 -12 q-17 -8 -23 -32 q-3 -11 -5 -44 l-3 -70 q-2 -30 -15.5 -50 q-13.5 -20 -47.5 -49 q74 -39 74 -125 q0 -90 -74 -123 q-39 -18 -99 -18 l-242 0 Z" /><glyph glyph-name="uni0283" unicode="&#x283;" d="M200 661 q38 93 134 93 q24 0 41 -4 q12 -2 31 -9 l-7 -79 q-39 16 -57 16 q-43 0 -60 -44 q-16 -43 -22 -155 l-16 -333 q-9 -179 -46 -265 q-38 -86 -137 -86 q-33 0 -62 12 l6 81 q26 -14 51 -14 q41 0 62 37 q21 38 27 137 l25 431 q8 128 30 182 Z" /><glyph glyph-name="uni0284" unicode="&#x284;" d="M32 0 l0 58 l113 0 l25 421 q8 128 30 182 q38 93 134 93 q24 0 41 -4 q12 -2 31 -9 l-7 -79 q-39 16 -57 16 q-43 0 -60 -44 q-16 -43 -22 -155 l-16 -333 q-1 -35 -7 -88 l107 0 l0 -58 l-114 0 q-12 -71 -32 -119 q-38 -86 -137 -86 q-33 0 -62 12 l6 81 q26 -14 51 -14 q41 0 62 37 q14 26 22 89 l-108 0 Z" /><glyph glyph-name="uni0285" unicode="&#x285;" d="M215 471 q23 -30 30 -100 l25 -237 q6 -55 26 -75 q21 -21 63 -21 q20 0 50 7 l7 -44 q-38 -6 -62 -6 q-100 0 -138 47 q-37 47 -46 145 l-16 184 q-4 59 -22 85 q-16 24 -60 24 q-21 0 -56 -9 l-8 44 q9 2 32 5 q26 2 40 2 q98 0 135 -51 Z" /><glyph glyph-name="uni0287" unicode="&#x287;" d="M184 137 l0 -146 l-89 0 l0 146 l-84 0 l0 72 l84 0 l0 341 q0 28 -19 37 q-12 5 -34 5 q-18 0 -31 -1 l0 69 q23 8 67 8 q59 0 82.5 -29 q23.5 -29 23.5 -84 l0 -346 l70 0 l0 -72 l-70 0 Z" /><glyph glyph-name="uni0288" unicode="&#x288;" d="M82 523 l0 146 l89 0 l0 -146 l83 0 l0 -72 l-83 0 l0 -550 q0 -27 18 -36 q11 -6 35 -6 q6 0 30 2 l0 -69 q-26 -9 -67 -9 q-57 0 -81 29.5 q-24 29.5 -24 83.5 l0 555 l-71 0 l0 72 l71 0 Z" /><glyph glyph-name="uni0289" unicode="&#x289;" d="M106 305 l-83 0 l0 69 l83 0 l0 149 l90 0 l0 -149 l243 0 l0 149 l88 0 l0 -149 l96 0 l0 -69 l-96 0 l0 -305 l-83 0 l1 77 q-17 -31 -42 -50 q-50 -41 -122 -41 q-113 0 -153 75 q-22 40 -22 106 l0 138 ZM209 110 q23 -47 87 -47 q92 0 125 83 q18 44 18 120 l0 39 l-243 0 l0 -129 q0 -41 13 -66 Z" /><glyph glyph-name="uni028A" unicode="&#x28a;" d="M443 244 q0 135 -124 210 l0 69 l200 0 l0 -69 l-133 0 q44 -17 88 -70 q45 -53 45 -140 q0 -108 -63 -176 q-63 -68 -182 -68 q-119 0 -182 68 q-63 68 -63 176 q0 87 44 140 q46 54 89 70 l-133 0 l0 69 l200 0 l0 -69 q-124 -73 -124 -210 q0 -81 43 -124.5 q43 -43.5 124 -43.5 q84 0 127.5 43.5 q43.5 43.5 43.5 124.5 Z" /><glyph glyph-name="uni028C" unicode="&#x28c;" d="M489 0 l-102 0 l-140 425 l-146 -425 l-96 0 l197 522 l94 0 l193 -522 Z" /><glyph glyph-name="uni028D" unicode="&#x28d;" d="M703 0 l-96 0 l-101 412 l-102 -412 l-98 0 l-103 409 l-107 -409 l-88 0 l152 522 l91 0 l107 -404 l103 404 l91 0 l151 -522 Z" /><glyph glyph-name="uni028E" unicode="&#x28e;" d="M248 426 l-141 -426 l-97 0 l82 229 q29 82 80 220 q77 202 108 244 q32 44 107 44 q26 0 53 -7 l0 -80 q-34 10 -51 10 q-36 0 -55 -28 l-18 -40 l-22 -54 l194 -538 l-100 0 l-140 426 Z" /><glyph glyph-name="uni028F" unicode="&#x28f;" d="M199 211 l-184 312 l113 0 l120 -252 l119 252 l114 0 l-185 -312 l0 -211 l-97 0 l0 211 Z" /><glyph glyph-name="uni0292" unicode="&#x292;" d="M190 209 l-113 0 l269 231 l-323 0 l0 81 l436 0 l0 -81 l-176 -152 q74 -14 125 -72 q67 -76 67 -215 q0 -113 -73 -162 q-74 -51 -176 -51 q-179 0 -208 210 l85 0 q13 -65 39.5 -100 q26.5 -35 76.5 -35 q162 0 162 137 q0 79 -30 146 q-29 68 -113 68 l-48 -5 Z" /><glyph glyph-name="uni0294" unicode="&#x294;" d="M299 727 q98 0 154 -55 q58 -55 58 -141 q0 -53 -21 -84 q-22 -33 -86 -94 q-48 -48 -61 -78 q-13 -30 -13 -275 l-87 0 q0 253 16 295 q15 40 73 98 l39 39 q18 16 28 34 q20 32 20 66 q0 52 -30.5 85 q-30.5 33 -92.5 33 q-82 0 -113 -60 q-17 -36 -20 -97 l-87 0 q0 104 59 169 q60 65 164 65 Z" /><glyph glyph-name="uni0295" unicode="&#x295;" d="M289 727 q104 0 163 -65 q60 -64 60 -169 l-87 0 q-3 61 -20 97 q-31 60 -113 60 q-62 0 -92.5 -33 q-30.5 -33 -30.5 -85 q0 -35 19 -66 q9 -16 29 -34 l39 -39 q56 -56 72 -98 q17 -45 17 -295 l-87 0 q0 242 -14 275 q-14 31 -60 78 q-64 61 -86 94 q-21 31 -21 84 q0 85 57 141 q58 55 155 55 Z" /><glyph glyph-name="uni0296" unicode="&#x296;" d="M299 0 q-104 0 -164 64 q-59 65 -59 170 l87 0 q3 -63 20 -97 q31 -61 113 -61 q62 0 92.5 33 q30.5 33 30.5 85 q0 34 -20 66 q-12 20 -28 35 l-39 38 q-57 57 -73 98 q-16 42 -16 296 l87 0 q0 -247 13 -277 q12 -29 61 -76 q65 -62 86 -95 q21 -31 21 -84 q0 -85 -58 -140 q-56 -55 -154 -55 Z" /><glyph glyph-name="uni0297" unicode="&#x297;" d="M476 347 l-85 0 q-19 112 -125 112 q-84 0 -120 -140 q-24 -97 -24 -175 q0 -78 33 -176 q33 -98 105 -98 q103 0 131 125 l85 0 q-29 -200 -223 -200 q-103 0 -164 94 q-61 94 -61 256 q0 186 67 289 q68 104 171 104 q190 0 210 -191 Z" /><glyph glyph-name="uni0298" unicode="&#x298;" d="M667 615 q71 -95 71 -244 q0 -161 -81 -267 q-96 -125 -273 -125 q-166 0 -260 109 q-85 106 -85 267 q0 145 72 249 q93 133 275 133 q189 0 281 -122 ZM639 370 q0 127 -67 203 q-66 77 -180 77 q-112 0 -182 -76 q-70 -76 -70 -225 q0 -120 60 -202 q60 -81 196 -81 q128 0 185 92 q58 91 58 212 ZM335 307 l0 107 l102 0 l0 -107 l-102 0 Z" /><glyph glyph-name="uni029A" unicode="&#x29a;" d="M402 481 q68 -109 68 -234 q0 -102 -37 -151 q-39 -52 -71 -71 q-33 -20 -108 -34 q-6 -1 -20 -1 q-84 0 -145 41 q-59 41 -59 110 q0 51 30.5 86.5 q30.5 35.5 83.5 50.5 q-46 21 -67 49.5 q-21 28.5 -21 76.5 q0 60 53 96 q53 35 133 35 l62 -5 q67 -11 98 -49 ZM242 459 l0 2 q-54 -2 -77 -19 q-25 -18 -25 -51 q0 -80 108 -80 l-7 -70 q-122 0 -122 -97 q0 -43 36 -64 q37 -21 62 -21 l31 0 q41 6 63 15 q26 14 42 40 q33 52 33 132 q0 79 -24 131 q-36 82 -120 82 Z" /><glyph glyph-name="uni029C" unicode="&#x29c;" d="M79 0 l0 523 l98 0 l0 -201 l236 0 l0 201 l98 0 l0 -523 l-98 0 l0 245 l-236 0 l0 -245 l-98 0 Z" /><glyph glyph-name="uni029E" unicode="&#x29e;" d="M496 523 l0 -717 l-84 0 l0 416 l-226 -222 l-112 0 l200 196 l-212 327 l113 0 l163 -264 l74 68 l0 196 l84 0 Z" /><glyph glyph-name="uni029F" unicode="&#x29f;" d="M76 0 l0 523 l97 0 l0 -438 l266 0 l0 -85 l-363 0 Z" /><glyph glyph-name="uni02A0" unicode="&#x2a0;" d="M573 663 l0 -76 q-58 -1 -71 -11 q-12 -8 -12 -53 l1 0 l0 -731 l-89 0 l0 268 q-48 -77 -157 -77 q-83 0 -150 65 q-66 66 -66 200 q0 126 62 206 q61 81 160 81 q65 0 109 -33 q24 -18 42 -44 l0 74 q0 58 18 86 q32 48 117 48 q16 0 36 -3 ZM140 141 q34 -82 121 -82 q91 0 126 86 q19 45 19 121 q0 68 -21 113 q-34 78 -125 78 q-61 0 -100 -52 q-39 -52 -39 -151 q0 -68 19 -113 Z" /><glyph glyph-name="uni02A1" unicode="&#x2a1;" d="M132 121 l0 58 l114 0 q5 94 13 116 q15 40 73 98 l39 39 q18 16 28 34 q20 32 20 66 q0 52 -30.5 85 q-30.5 33 -92.5 33 q-82 0 -113 -60 q-17 -36 -20 -97 l-87 0 q0 104 59 169 q60 65 164 65 q98 0 154 -55 q58 -55 58 -141 q0 -53 -21 -84 q-22 -33 -86 -94 q-48 -48 -61 -78 q-7 -15 -10 -96 l112 0 l0 -58 l-114 0 q-1 -35 -1 -121 l-87 0 q0 86 1 121 l-112 0 Z" /><glyph glyph-name="uni02A2" unicode="&#x2a2;" d="M455 179 l0 -58 l-111 0 q1 -35 1 -121 l-87 0 q0 86 -1 121 l-114 0 l0 58 l112 0 q-5 82 -11 96 q-13 30 -61 78 q-59 56 -86 94 q-21 31 -21 84 q0 86 58 141 q58 55 154 55 q104 0 163 -65 q60 -64 60 -169 l-87 0 q-1 61 -20 97 q-32 60 -112 60 q-62 0 -93 -33 q-31 -33 -31 -85 q0 -34 20 -66 q8 -14 28 -34 l39 -39 q57 -55 73 -98 q9 -21 14 -116 l113 0 Z" /><glyph glyph-name="uni02A3" unicode="&#x2a3;" d="M353 507 q24 -16 53 -51 l0 264 l85 0 l0 -197 l397 0 l0 -72 l-308 -372 l317 0 l0 -79 l-485 0 l0 73 q-58 -92 -169 -92 q-88 0 -152 73 q-64 73 -64 196 q0 116 58 198 q58 84 167 84 q61 0 101 -25 ZM270 58 q62 0 101 53.5 q39 53.5 39 149.5 q0 95 -39 145 q-39 50 -102 50 q-68 0 -108.5 -52 q-40.5 -52 -40.5 -149 q0 -83 35 -141 q36 -56 115 -56 ZM491 107 l279 337 l-279 0 l0 -337 Z" /><glyph glyph-name="uni02A4" unicode="&#x2a4;" d="M629 209 l-113 0 l269 231 l-310 0 l0 -440 l-79 0 l0 73 q-58 -92 -169 -92 q-88 0 -152 73 q-64 73 -64 196 q0 116 58 198 q59 84 167 84 q61 0 101 -25 q24 -16 53 -51 l0 264 l85 0 l0 -199 l423 0 l0 -81 l-175 -152 q72 -13 125 -72 q67 -76 67 -215 q0 -112 -74 -162 q-73 -51 -175 -51 q-179 0 -209 210 l85 0 q14 -60 37 -96 q25 -39 80 -39 q71 0 116 30 q46 28 46 107 q0 79 -30 146 q-30 68 -114 68 l-48 -5 ZM254 58 q62 0 101 53.5 q39 53.5 39 149.5 q0 95 -39.5 145 q-39.5 50 -101.5 50 q-68 0 -108.5 -52 q-40.5 -52 -40.5 -149 q0 -83 35 -141 q36 -56 115 -56 Z" /><glyph glyph-name="uni02A6" unicode="&#x2a6;" d="M82 523 l0 146 l89 0 l0 -146 l83 0 l0 -54 l21 22 q53 46 144 46 q119 0 171 -70 q34 -44 32 -94 l-83 0 q-3 29 -21 54 q-31 34 -105 34 q-49 0 -75 -18.5 q-26 -18.5 -26 -50.5 q0 -34 33 -55 q19 -12 58 -21 l58 -14 q96 -23 127 -45 q51 -33 51 -106 q0 -69 -53 -120 q-52 -51 -161 -51 q-116 0 -166 53 q-1 2 -5 6 l0 -39 q-32 -8 -67 -8 q-57 0 -81 29.5 q-24 29.5 -24 83.5 l0 346 l-71 0 l0 72 l71 0 ZM208 164 l84 0 q5 -45 22 -67 q33 -43 115 -43 q52 0 87.5 22.5 q35.5 22.5 35.5 64.5 q0 35 -30 51 q-23 12 -75 25 l-70 18 q-68 17 -98 37 q-57 36 -57 99 q0 45 20 80 l-71 0 l0 -341 q0 -26 18 -37 q12 -5 35 -5 l10 0 q-25 43 -26 96 Z" /><glyph glyph-name="uni02A7" unicode="&#x2a7;" d="M301 661 q37 93 135 93 q23 0 40 -4 q12 -2 31 -9 l-7 -79 q-39 16 -57 16 q-43 0 -60 -44 q-16 -43 -22 -155 l-16 -333 q-9 -179 -46 -265 q-38 -86 -137 -86 q-33 0 -62 12 l6 81 q26 -14 51 -14 q41 0 62 37 q14 26 22 86 l-18 -3 q-22 -2 -36 -2 q-57 0 -81 29.5 q-24 29.5 -24 83.5 l0 346 l-71 0 l0 72 l71 0 l0 146 l89 0 l0 -146 l103 0 q9 95 27 138 ZM171 451 l0 -341 q0 -26 18 -37 q12 -5 35 -5 l13 0 l10 0 l22 383 l-98 0 Z" /><glyph glyph-name="uni02A9" unicode="&#x2a9;" d="M510 -208 l0 76 q58 1 71 11 q12 8 12 53 l0 68 l-2 0 l0 330 q0 46 -14 77 q-22 49 -85 49 q-33 0 -51 -7 q-34 -10 -64 -43 q-21 -26 -28 -53 q-7 -27 -7 -79 l0 -274 l-88 0 l0 451 l-81 0 l0 -451 l-87 0 l0 451 l-72 0 l0 70 l72 0 l0 82 q1 53 19 80 q31 45 119 45 q7 0 37 -2 l0 -80 q-10 0 -19.5 0.5 q-9.5 0.5 -11.5 0.5 q-40 0 -48 -21 q-8 -22 -8 -105 l80 0 l0 2 l84 0 l0 -74 q69 86 171 86 q111 0 150 -78 q22 -41 22 -122 l0 -413 q0 -57 -19 -85 q-32 -48 -117 -48 q-15 0 -35 3 Z" /><glyph glyph-name="uni02AA" unicode="&#x2aa;" d="M67 0 l0 717 l88 0 l0 -281 q13 31 40 55 q53 46 144 46 q119 0 171 -70 q32 -44 32 -94 l-84 0 q-2 29 -21 54 q-30 34 -104 34 q-49 0 -75.5 -18.5 q-26.5 -18.5 -26.5 -50.5 q0 -34 34 -55 q19 -12 58 -21 l58 -14 q96 -23 127 -45 q51 -33 51 -106 q0 -69 -53 -120 q-52 -51 -161 -51 q-116 0 -166 53 q-13 15 -24 33 l0 -66 l-88 0 ZM155 164 l57 0 q5 -45 22 -67 q33 -43 115 -43 q52 0 87.5 22.5 q35.5 22.5 35.5 64.5 q0 35 -30 51 q-23 12 -75 25 l-70 18 q-67 16 -98 37 q-31 20 -44 45 l0 -153 Z" /><glyph glyph-name="uni02AB" unicode="&#x2ab;" d="M67 0 l0 717 l88 0 l0 -194 l389 0 l0 -72 l-308 -372 l317 0 l0 -79 l-486 0 ZM155 117 l271 327 l-271 0 l0 -327 Z" /><glyph glyph-name="uni02AC" unicode="&#x2ac;" d="M5 311 l57 0 l60 -245 l61 245 l59 0 l60 -244 l64 244 l52 0 l-90 -311 l-54 0 l-64 241 l-61 -241 l-54 0 l-90 311 ZM5 717 l57 0 l60 -245 l61 245 l59 0 l60 -243 l64 243 l52 0 l-90 -311 l-54 0 l-64 241 l-61 -241 l-54 0 l-90 311 Z" /><glyph glyph-name="uni02AD" unicode="&#x2ad;" d="M51 294 l558 0 l0 -294 l-54 0 l0 232 l-450 0 l0 -232 l-54 0 l0 294 ZM51 697 l558 0 l0 -295 l-54 0 l0 233 l-450 0 l0 -233 l-54 0 l0 295 Z" /><glyph glyph-name="uni02AE" unicode="&#x2ae;" d="M24 571 l0 76 q10 0 21 1 q11 1 15 1 q85 0 117 -47 q18 -28 18 -86 l0 -5 l3 0 l0 -329 q0 -58 15 -85 q24 -43 90 -43 q55 0 98 37 q45 37 45 143 l0 277 l88 0 l0 -719 l-88 0 l0 267 q-33 -41 -56 -56 q-42 -27 -106 -27 q-114 0 -154 79 q-22 43 -22 121 l0 118 l-1 0 l0 213 q0 45 -12 53 q-13 10 -71 11 Z" /><glyph glyph-name="uni02AF" unicode="&#x2af;" d="M616 -132 l0 -76 q-20 -3 -35 -3 q-85 0 -117 48 q-19 28 -19 85 l0 136 q-30 -39 -55 -55 q-42 -27 -106 -27 q-114 0 -154 79 q-22 43 -22 121 l0 118 l-1 0 l0 213 q0 45 -12 53 q-13 10 -71 11 l0 76 q10 0 21 1 q11 1 15 1 q85 0 117 -47 q18 -28 18 -86 l0 -5 l3 0 l0 -329 q0 -58 15 -85 q24 -43 90 -43 q55 0 98 37 q45 37 45 143 l0 277 l88 0 l0 -588 l-1 0 q1 -37 12 -45 q14 -9 71 -10 Z" /><glyph glyph-name="uni02B0" unicode="&#x2b0;" d="M32 356 l0 360 l44 0 l0 -133 q17 20 28 27 q21 15 53 15 q57 0 77 -41 q12 -21 12 -60 l0 -168 l-46 0 l0 165 q0 29 -7 42 q-12 22 -45 22 q-31 0 -51.5 -21 q-20.5 -21 -20.5 -69 l0 -139 l-44 0 Z" /><glyph glyph-name="uni02B1" unicode="&#x2b1;" d="M117 732 l0 -38 q-29 -1 -35 -5.5 q-6 -4.5 -6 -26.5 l0 -24 l0 -55 q17 20 28 27 q21 15 53 15 q57 0 77 -41 q12 -21 12 -60 l0 -168 l-46 0 l0 165 q0 29 -7 42 q-12 22 -45 22 q-31 0 -51.5 -21 q-20.5 -21 -20.5 -69 l0 -139 l-44 0 l0 199 l0 112 q0 29 9 42 q16 24 59 24 q1 0 6.5 -0.5 q5.5 -0.5 10.5 -0.5 Z" /><glyph glyph-name="uni02B2" unicode="&#x2b2;" d="M76 715 l0 -50 l-44 0 l0 50 l44 0 ZM-9 252 l0 38 q30 1 35.5 5.5 q5.5 4.5 5.5 26.5 l0 295 l44 0 l0 -300 q0 -29 -9 -42 q-15 -24 -58 -24 q-9 0 -18 1 Z" /><glyph glyph-name="uni02B3" unicode="&#x2b3;" d="M34 356 l0 262 l41 0 l0 -45 q8 16 28.5 33.5 q20.5 17.5 42.5 17.5 q6 0 15 -1 l0 -47 q-10 2 -15 2 q-32 0 -50 -21 q-18 -21 -18 -50 l0 -151 l-44 0 Z" /><glyph glyph-name="uni02B4" unicode="&#x2b4;" d="M161 624 l0 -262 l-42 0 l0 45 q-7 -16 -27.5 -33.5 q-20.5 -17.5 -44.5 -17.5 l-1 0 q-2 0 -5 0.5 q-3 0.5 -8 0.5 l0 47 q5 -1 15 -1 q32 0 50.5 20.5 q18.5 20.5 18.5 49.5 l0 151 l44 0 Z" /></font>
</defs>
</svg>
