<?xml version="1.0" standalone="no"?><!DOCTYPE svg PUBLIC "-//W3C//DTD SVG 1.1//EN" "http://www.w3.org/Graphics/SVG/1.1/DTD/svg11.dtd" ><svg xmlns="http://www.w3.org/2000/svg"><metadata></metadata><defs><font id="Helvetica Neue Italic; 8.0d6e1; 2012-03-27" horiz-adv-x="1500"><font-face font-family="Helvetica Neue" font-weight="400" font-stretch="normal" units-per-em="1000" panose-1="2 0 5 3 0 0 0 9 0 4" ascent="957" descent="-213" x-height="4" bbox="-993 -481 1511 1077" underline-thickness="50" underline-position="-100" unicode-range="U+0000-ffa7" /><missing-glyph horiz-adv-x="500" d="M431 37 l0 641 l-350 0 l0 -641 l350 0 ZM50 712 l412 0 l0 -712 l-412 0 l0 712 Z" /><glyph glyph-name=".null" unicode="" d="" /><glyph glyph-name=".null" unicode="" d="" /><glyph glyph-name="nonmarkingreturn" unicode="" d="" /><glyph glyph-name=".null" unicode=" " d="" /><glyph glyph-name="nonmarkingreturn" unicode="" d="" /><glyph glyph-name=".null" unicode="" d="" /><glyph glyph-name="exclam" unicode="!" d="M205 491 l-90 -308 l-46 0 l43 308 l47 223 l93 0 l-47 -223 ZM24 111 l111 0 l-24 -111 l-111 0 l24 111 Z" /><glyph glyph-name="quotedbl" unicode="&quot;" d="M286 714 l68 0 l0 -258 l-68 0 l0 258 ZM146 714 l68 0 l0 -258 l-68 0 l0 258 Z" /><glyph glyph-name="numbersign" unicode="#" d="M231 424 l-21 -150 l122 0 l21 150 l-122 0 ZM131 206 l-97 0 l9 68 l97 0 l21 150 l-101 0 l9 68 l102 0 l29 205 l69 0 l-29 -205 l122 0 l29 205 l69 0 l-29 -205 l91 0 l-9 -68 l-91 0 l-21 -150 l93 0 l-9 -68 l-93 0 l-29 -206 l-69 0 l29 206 l-123 0 l-29 -206 l-69 0 l29 206 Z" /><glyph glyph-name="dollar" unicode="$" d="M172 -11 q-95 15 -140.5 78 q-45.5 63 -40.5 167 l89 0 q-7 -145 108 -169 l54 269 q-41 12 -69 25 q-28 13 -54.5 34 q-26.5 21 -40 52.5 q-13.5 31.5 -13.5 73.5 q0 100 77.5 161 q77.5 61 179.5 51 l13 63 l53 0 l-14 -69 q76 -22 122 -78 q46 -56 40 -144 l-90 0 q4 118 -87 148 l-49 -246 l54 -19 q152 -44 152 -180 q0 -77 -46 -132.5 q-46 -55.5 -112 -77.5 q-66 -22 -134 -12 l-17 -80 l-53 0 l18 85 ZM239 58 q29 -7 71.5 4 q42.5 11 79 47 q36.5 36 36.5 88 q0 20 -3 35.5 q-3 15.5 -11.5 27 q-8.5 11.5 -15.5 19 q-7 7.5 -22 14.5 q-15 7 -24 10 q-9 3 -28.5 9.5 q-19.5 6.5 -28.5 9.5 l-54 -264 ZM307 656 q-35 0 -67 -10 q-32 -10 -58.5 -40.5 q-26.5 -30.5 -26.5 -76.5 q0 -75 91 -105 l13 -6 l48 238 Z" /><glyph glyph-name="percent" unicode="%" d="M79 454 q0 58 18.5 114 q18.5 56 62.5 98.5 q44 42.5 104 42.5 q146 0 146 -145 q0 -61 -18 -117 q-18 -56 -62 -97 q-44 -41 -107 -41 q-67 0 -105.5 38 q-38.5 38 -38.5 107 ZM581 137 q0 -48 18 -71 q18 -23 61 -23 q41 0 68.5 35 q27.5 35 37.5 79 q10 44 10 91 q0 85 -73 85 q-58 0 -90 -65.5 q-32 -65.5 -32 -130.5 ZM513 133 q0 58 18.5 114 q18.5 56 62.5 98.5 q44 42.5 104 42.5 q146 0 146 -145 q0 -62 -18 -117.5 q-18 -55.5 -62 -96 q-44 -40.5 -107 -40.5 q-67 0 -105.5 38 q-38.5 38 -38.5 106 ZM644 725 l64 0 l-435 -752 l-64 0 l435 752 ZM147 458 q0 -48 18 -71 q18 -23 61 -23 q41 0 68.5 35 q27.5 35 37.5 79 q10 44 10 91 q0 85 -73 85 q-58 0 -90 -65.5 q-32 -65.5 -32 -130.5 Z" /><glyph glyph-name="ampersand" unicode="&amp;" d="M246 551 q0 -45 45 -117 q25 14 34 19.5 q9 5.5 31.5 21 q22.5 15.5 32 26.5 q9.5 11 19 28.5 q9.5 17.5 9.5 35.5 q0 33 -22.5 53.5 q-22.5 20.5 -56.5 20.5 q-40 0 -66 -23.5 q-26 -23.5 -26 -64.5 ZM424 74 q-92 -85 -204 -85 q-86 0 -142.5 49.5 q-56.5 49.5 -56.5 134.5 q0 35 12.5 65.5 q12.5 30.5 29.5 51.5 q17 21 47.5 43 q30.5 22 52 34 q21.5 12 57.5 31 q-19 29 -29 47.5 q-10 18.5 -20 49.5 q-10 31 -10 61 q0 71 50 114.5 q50 43.5 128 43.5 q67 0 115 -35.5 q48 -35.5 48 -100.5 q0 -35 -15.5 -66.5 q-15.5 -31.5 -44 -57 q-28.5 -25.5 -54.5 -42.5 q-26 -17 -62 -36 l112 -184 q53 74 63 145 l82 0 q-26 -117 -103 -207 l85 -130 l-97 0 l-44 74 ZM257 338 q-33 -17 -53.5 -30 q-20.5 -13 -46 -34 q-25.5 -21 -38.5 -47.5 q-13 -26.5 -13 -57.5 q0 -47 36.5 -76.5 q36.5 -29.5 86.5 -29.5 q45 0 79 16 q34 16 76 51 l-127 208 Z" /><glyph glyph-name="quotesingle" unicode="&#39;" d="M142 714 l68 0 l0 -258 l-68 0 l0 258 Z" /><glyph glyph-name="parenleft" unicode="(" d="M116 -197 q-36 78 -58.5 179 q-22.5 101 -22.5 188 q0 82 19 158.5 q19 76.5 56 146.5 q37 70 80 129 q43 59 103 127 l70 0 q-243 -292 -243 -597 q0 -179 52 -331 l-56 0 Z" /><glyph glyph-name="parenright" unicode=")" d="M-116 -197 q242 282 242 595 q0 181 -52 333 l56 0 q36 -80 58.5 -181.5 q22.5 -101.5 22.5 -187.5 q0 -157 -65 -284 q-65 -127 -192 -275 l-70 0 Z" /><glyph glyph-name="asterisk" unicode="*" d="M247 601 l110 11 l5 -48 l-107 -14 l49 -100 l-49 -23 l-47 103 l-78 -87 l-37 37 l77 84 l-95 48 l25 46 l96 -49 l22 105 l54 0 l-25 -113 Z" /><glyph glyph-name="plus" unicode="+" d="M334 287 l218 0 l0 -68 l-218 0 l0 -219 l-68 0 l0 219 l-218 0 l0 68 l218 0 l0 219 l68 0 l0 -219 Z" /><glyph glyph-name="comma" unicode="," d="M39 111 l111 0 q-5 -18 -12 -55.5 q-7 -37.5 -12 -58.5 q-5 -21 -16.5 -50.5 q-11.5 -29.5 -26 -46 q-14.5 -16.5 -40 -30 q-25.5 -13.5 -58.5 -16.5 l10 48 q23 4 38.5 18.5 q15.5 14.5 22 30.5 q6.5 16 13.5 41 q1 5 2 8 l-56 0 l24 111 Z" /><glyph glyph-name="hyphen" unicode="-" d="M42 318 l290 0 l-16 -80 l-290 0 l16 80 Z" /><glyph glyph-name="period" unicode="." d="M39 111 l111 0 l-24 -111 l-111 0 l24 111 Z" /><glyph glyph-name="slash" unicode="/" d="M278 731 l73 0 l-296 -747 l-72 0 l295 747 Z" /><glyph glyph-name="zero" unicode="0" d="M115 249 q0 -186 115 -186 q55 0 98 45.5 q43 45.5 65 109.5 q22 64 32.5 116.5 q10.5 52.5 10.5 82.5 q0 6 0.5 31.5 q0.5 25.5 0 36.5 q-0.5 11 -2 34.5 q-1.5 23.5 -5.5 36 q-4 12.5 -12 30 q-8 17.5 -19.5 26.5 q-11.5 9 -29 15.5 q-17.5 6.5 -40.5 6.5 q-54 0 -97.5 -45 q-43.5 -45 -67 -110.5 q-23.5 -65.5 -36 -126 q-12.5 -60.5 -12.5 -103.5 ZM25 263 q0 65 18 138 q18 73 53 144 q35 71 97.5 117.5 q62.5 46.5 141.5 46.5 q95 0 143 -64.5 q48 -64.5 48 -203.5 q0 -43 -9 -97.5 q-9 -54.5 -31.5 -118 q-22.5 -63.5 -55.5 -115.5 q-33 -52 -87.5 -86.5 q-54.5 -34.5 -121.5 -34.5 q-196 0 -196 274 Z" /><glyph glyph-name="one" unicode="1" d="M282 0 l-90 0 l115 539 q-85 -20 -183 -20 l14 68 q69 0 133.5 32 q64.5 32 95.5 90 l66 0 l-151 -709 Z" /><glyph glyph-name="two" unicode="2" d="M68 468 q12 113 77.5 177 q65.5 64 177.5 64 q88 0 143.5 -51.5 q55.5 -51.5 55.5 -137.5 q0 -49 -19 -91 q-19 -42 -58.5 -77 q-39.5 -35 -70.5 -56.5 q-31 -21.5 -88 -53.5 q-57 -32 -77 -45 q-93 -60 -116 -122 l369 0 l-16 -75 l-451 0 q5 61 27.5 109 q22.5 48 62 83.5 q39.5 35.5 77 60 q37.5 24.5 92 56.5 q54.5 32 86.5 56 q47 37 69.5 69 q22.5 32 22.5 81 q0 56 -32 87.5 q-32 31.5 -87 31.5 q-69 0 -110 -47.5 q-41 -47.5 -45 -118.5 l-90 0 Z" /><glyph glyph-name="three" unicode="3" d="M229 404 q196 -11 196 132 q0 57 -33 77.5 q-33 20.5 -87 20.5 q-127 0 -144 -144 l-90 0 q13 95 73 157 q60 62 166 62 q96 0 150.5 -44.5 q54.5 -44.5 54.5 -132.5 q0 -59 -37.5 -103 q-37.5 -44 -89.5 -59 q92 -41 92 -147 q0 -39 -16 -79 q-16 -40 -46 -75.5 q-30 -35.5 -80.5 -57.5 q-50.5 -22 -113.5 -22 q-108 0 -166 57 q-58 57 -57 173 l90 0 q-6 -156 135 -156 q72 0 118 42.5 q46 42.5 46 113.5 q0 39 -14.5 63.5 q-14.5 24.5 -42.5 35.5 q-28 11 -54.5 14.5 q-26.5 3.5 -64.5 3.5 l15 68 Z" /><glyph glyph-name="four" unicode="4" d="M307 166 l-310 0 l16 84 l420 459 l72 0 l-98 -468 l94 0 l-15 -75 l-94 0 l-36 -166 l-85 0 l36 166 ZM94 241 l228 0 l67 321 l-2 0 l-293 -321 Z" /><glyph glyph-name="five" unicode="5" d="M508 622 l-291 0 l-56 -192 l2 -2 q51 39 125 39 q93 0 146 -60 q53 -60 53 -154 q0 -125 -80 -198 q-77 -66 -187 -66 q-98 0 -155.5 53 q-57.5 53 -57.5 148 l90 0 q0 -127 128 -127 q80 0 126 53 q46 53 46 133 q0 69 -36 106 q-36 37 -105 37 q-39 0 -73.5 -18.5 q-34.5 -18.5 -52.5 -50.5 l-76 0 l110 374 l359 0 l-15 -75 Z" /><glyph glyph-name="six" unicode="6" d="M455 525 q-1 55 -27.5 82 q-26.5 27 -82.5 27 q-38 0 -70 -17 q-32 -17 -52 -39 q-20 -22 -38 -61 q-18 -39 -26.5 -64.5 q-8.5 -25.5 -20.5 -67.5 l2 0 q48 71 155 71 q87 0 143.5 -60 q56.5 -60 56.5 -148 q0 -113 -69 -186 q-69 -73 -184 -73 q-107 0 -160 65 q-53 65 -53 173 q0 158 60 291 q40 94 104.5 142.5 q64.5 48.5 165.5 48.5 q87 0 135.5 -48 q48.5 -48 50.5 -136 l-90 0 ZM405 244 q0 62 -34 99.5 q-34 37.5 -96 37.5 q-73 0 -114.5 -50 q-41.5 -50 -41.5 -125 q0 -65 33 -104 q33 -39 98 -39 q74 0 114.5 53 q40.5 53 40.5 128 Z" /><glyph glyph-name="seven" unicode="7" d="M564 626 q-117 -109 -217 -283.5 q-100 -174.5 -153 -342.5 l-97 0 q107 341 374 622 l-369 0 l17 75 l457 0 l-12 -71 Z" /><glyph glyph-name="eight" unicode="8" d="M104 519 q0 89 62.5 139.5 q62.5 50.5 153.5 50.5 q82 0 140.5 -48 q58.5 -48 58.5 -128 q0 -60 -35 -103 q-35 -43 -92 -56 l0 -2 q50 -21 75 -65.5 q25 -44.5 25 -101.5 q0 -96 -70 -156 q-70 -60 -167 -60 q-100 0 -166.5 51 q-66.5 51 -66.5 149 q0 80 45.5 131.5 q45.5 51.5 124.5 65.5 l0 2 q-39 17 -63.5 53.5 q-24.5 36.5 -24.5 77.5 ZM249 63 q68 0 110.5 38.5 q42.5 38.5 42.5 106.5 q0 58 -34.5 93 q-34.5 35 -96.5 35 q-72 0 -115.5 -38 q-43.5 -38 -43.5 -108 q0 -62 37.5 -94.5 q37.5 -32.5 99.5 -32.5 ZM228 602 q-34 -32 -34 -86 q0 -54 33 -79.5 q33 -25.5 87 -25.5 q51 0 83 32 q32 32 32 83 q0 108 -113 108 q-54 0 -88 -32 Z" /><glyph glyph-name="nine" unicode="9" d="M94 169 q0 -106 103 -106 q39 0 71.5 16.5 q32.5 16.5 53 38.5 q20.5 22 39.5 59.5 q19 37.5 28.5 63.5 q9.5 26 21.5 66 l-2 2 q-47 -70 -156 -70 q-87 0 -143 60 q-56 60 -56 148 q0 111 69 186.5 q69 75.5 178 75.5 q108 0 163 -64 q55 -64 55 -174 q0 -151 -59 -287 q-43 -98 -102.5 -146.5 q-59.5 -48.5 -159.5 -48.5 q-92 0 -144 45 q-52 45 -50 135 l90 0 ZM274 314 q73 0 114 50.5 q41 50.5 41 124.5 q0 68 -35 106.5 q-35 38.5 -102 38.5 q-69 0 -108.5 -56 q-39.5 -56 -39.5 -127 q0 -62 34 -99.5 q34 -37.5 96 -37.5 Z" /><glyph glyph-name="colon" unicode=":" d="M211 406 l-112 0 l23 111 l112 0 l-23 -111 ZM37 111 l113 0 l-23 -111 l-112 0 l22 111 Z" /><glyph glyph-name="semicolon" unicode=";" d="M210 406 l-111 0 l24 111 l111 0 l-24 -111 ZM39 111 l111 0 q-5 -18 -12 -55.5 q-7 -37.5 -12 -58.5 q-5 -21 -16.5 -50.5 q-11.5 -29.5 -26 -46 q-14.5 -16.5 -40 -30 q-25.5 -13.5 -58.5 -16.5 l10 48 q23 4 38.5 18.5 q15.5 14.5 22 30.5 q6.5 16 13.5 41 q1 5 2 8 l-56 0 l24 111 Z" /><glyph glyph-name="less" unicode="&lt;" d="M554 446 l-425 -193 l425 -193 l0 -67 l-508 229 l0 62 l508 230 l0 -68 Z" /><glyph glyph-name="equal" unicode="=" d="M48 186 l504 0 l0 -68 l-504 0 l0 68 ZM552 320 l-504 0 l0 68 l504 0 l0 -68 Z" /><glyph glyph-name="greater" unicode="&gt;" d="M46 60 l425 193 l-425 193 l0 68 l508 -230 l0 -62 l-508 -229 l0 67 Z" /><glyph glyph-name="question" unicode="?" d="M169 111 l111 0 l-24 -111 l-111 0 l24 111 ZM86 488 q6 101 73.5 167.5 q67.5 66.5 168.5 66.5 q83 0 145 -43 q62 -43 62 -122 q0 -57 -23 -100.5 q-23 -43.5 -57 -70.5 q-34 -27 -69 -51 q-35 -24 -64.5 -56.5 q-29.5 -32.5 -38.5 -73.5 l-4 -22 l-83 0 q14 84 50 129 q29 39 104 90 q95 63 95 140 q0 52 -31 78.5 q-31 26.5 -84 26.5 q-69 0 -111 -45 q-42 -45 -48 -114 l-85 0 Z" /><glyph glyph-name="at" unicode="@" d="M534 270 q-11 -37 -11 -51 q0 -31 24 -31 q46 0 92 75.5 q46 75.5 46 154.5 q0 114 -80.5 186 q-80.5 72 -190.5 72 q-127 0 -215.5 -94.5 q-88.5 -94.5 -88.5 -226.5 q0 -133 91 -225 q91 -92 218 -92 q71 0 138 33 q67 33 110 88 l63 0 q-47 -83 -131 -129 q-84 -46 -182 -46 q-158 0 -266.5 108.5 q-108.5 108.5 -108.5 267.5 q0 153 109 262 q109 109 262 109 q141 0 240.5 -87.5 q99.5 -87.5 99.5 -220.5 q0 -62 -23.5 -118 q-23.5 -56 -59 -92.5 q-35.5 -36.5 -76 -58 q-40.5 -21.5 -75.5 -21.5 q-27 0 -44.5 16.5 q-17.5 16.5 -19.5 48.5 l-3 0 q-59 -67 -124 -67 q-63 0 -103 45.5 q-40 45.5 -40 112.5 q0 110 67 197 q67 87 168 87 q81 0 112 -82 l23 63 l63 0 l-84 -284 ZM420 505 q-66 0 -113 -69 q-47 -69 -47 -140 q0 -42 24 -69.5 q24 -27.5 62 -27.5 q61 0 108 72 q47 72 47 141 q0 36 -24.5 64.5 q-24.5 28.5 -56.5 28.5 Z" /><glyph glyph-name="A" unicode="a" d="M375 714 l104 0 l129 -714 l-98 0 l-33 215 l-301 0 l-125 -215 l-105 0 l429 714 ZM219 295 l246 0 l-53 335 l-2 0 l-191 -335 Z" /><glyph glyph-name="B" unicode="b" d="M183 407 l212 0 q152 0 152 136 q0 30 -12.5 49.5 q-12.5 19.5 -36 28 q-23.5 8.5 -44 11 q-20.5 2.5 -47.5 2.5 l-176 0 l-48 -227 ZM156 714 l287 0 q199 0 199 -171 q0 -62 -37.5 -112.5 q-37.5 -50.5 -98.5 -59.5 l0 -2 q50 -15 78.5 -53.5 q28.5 -38.5 28.5 -94.5 q0 -100 -72.5 -160.5 q-72.5 -60.5 -180.5 -60.5 l-353 0 l149 714 ZM115 80 l230 0 q25 0 48 4 q23 4 54.5 16.5 q31.5 12.5 51 43.5 q19.5 31 19.5 77 q0 62 -39 84 q-39 22 -108 22 l-204 0 l-52 -247 Z" /><glyph glyph-name="C" unicode="c" d="M660 241 q-28 -123 -107.5 -190 q-79.5 -67 -208.5 -67 q-147 0 -226.5 81.5 q-79.5 81.5 -79.5 230.5 q0 117 46 215 q46 98 137 159 q91 61 209 61 q121 0 196.5 -64 q75.5 -64 75.5 -183 l-95 0 q0 82 -48 124.5 q-48 42.5 -129 42.5 q-95 0 -164.5 -54 q-69.5 -54 -101 -132.5 q-31.5 -78.5 -31.5 -168.5 q0 -108 53.5 -170.5 q53.5 -62.5 157.5 -62.5 q172 0 221 178 l95 0 Z" /><glyph glyph-name="D" unicode="d" d="M117 80 l165 0 q97 0 167 52.5 q70 52.5 102 130.5 q32 78 32 168 q0 203 -197 203 l-152 0 l-117 -554 ZM158 714 l250 0 q131 0 200.5 -72 q69.5 -72 69.5 -201 q0 -201 -109.5 -321 q-109.5 -120 -287.5 -120 l-274 0 l151 714 Z" /><glyph glyph-name="E" unicode="e" d="M158 714 l492 0 l-16 -80 l-397 0 l-48 -227 l370 0 l-16 -80 l-371 0 l-52 -247 l402 0 l-18 -80 l-497 0 l151 714 Z" /><glyph glyph-name="F" unicode="f" d="M156 714 l470 0 l-17 -80 l-375 0 l-47 -227 l330 0 l-17 -80 l-330 0 l-68 -327 l-95 0 l149 714 Z" /><glyph glyph-name="G" unicode="g" d="M557 71 q-81 -87 -213 -87 q-147 0 -226.5 81.5 q-79.5 81.5 -79.5 230.5 q0 117 46 215 q46 98 137 159 q91 61 209 61 q126 0 206.5 -60.5 q80.5 -60.5 80.5 -178.5 l-95 0 q0 78 -54.5 118.5 q-54.5 40.5 -137.5 40.5 q-95 0 -164.5 -54 q-69.5 -54 -101 -132.5 q-31.5 -78.5 -31.5 -168.5 q0 -108 53.5 -170.5 q53.5 -62.5 157.5 -62.5 q108 0 169 60.5 q61 60.5 89 172.5 l-228 0 l16 80 l311 0 l-78 -376 l-60 0 l-6 71 Z" /><glyph glyph-name="H" unicode="h" d="M157 714 l96 0 l-65 -307 l374 0 l64 307 l95 0 l-150 -714 l-95 0 l69 327 l-374 0 l-69 -327 l-95 0 l150 714 Z" /><glyph glyph-name="I" unicode="i" d="M157 714 l95 0 l-150 -714 l-95 0 l150 714 Z" /><glyph glyph-name="J" unicode="j" d="M412 176 q-21 -99 -71 -145.5 q-50 -46.5 -152 -46.5 q-90 0 -143.5 39 q-53.5 39 -53.5 112 q0 37 8 99 l96 0 q-9 -42 -10 -74 q0 -97 105 -97 q34 0 59 13.5 q25 13.5 39.5 40 q14.5 26.5 22.5 50 q8 23.5 15 58.5 l104 489 l94 0 l-113 -538 Z" /><glyph glyph-name="K" unicode="k" d="M158 714 l95 0 l-75 -352 l2 -2 l404 354 l127 0 l-344 -294 l229 -420 l-105 0 l-195 362 l-143 -121 l-51 -241 l-95 0 l151 714 Z" /><glyph glyph-name="L" unicode="l" d="M157 714 l95 0 l-132 -634 l377 0 l-17 -80 l-473 0 l150 714 Z" /><glyph glyph-name="M" unicode="m" d="M157 714 l132 0 l95 -614 l2 0 l353 614 l132 0 l-151 -714 l-91 0 l146 625 l-2 0 l-364 -625 l-91 0 l-93 625 l-2 0 l-125 -625 l-91 0 l150 714 Z" /><glyph glyph-name="N" unicode="n" d="M158 714 l102 0 l255 -591 l2 0 l119 591 l92 0 l-151 -714 l-102 0 l-253 587 l-2 0 l-121 -587 l-92 0 l151 714 Z" /><glyph glyph-name="O" unicode="o" d="M133 296 q0 -108 53.5 -170.5 q53.5 -62.5 157.5 -62.5 q90 0 157.5 53 q67.5 53 99.5 131.5 q32 78.5 32 167.5 q0 103 -53.5 169.5 q-53.5 66.5 -149.5 66.5 q-95 0 -164.5 -54 q-69.5 -54 -101 -132.5 q-31.5 -78.5 -31.5 -168.5 ZM38 296 q0 117 46 215 q46 98 137 159 q91 61 209 61 q136 0 217 -90 q81 -90 81 -226 q0 -114 -45.5 -211.5 q-45.5 -97.5 -134.5 -158.5 q-89 -61 -204 -61 q-147 0 -226.5 81.5 q-79.5 81.5 -79.5 230.5 Z" /><glyph glyph-name="P" unicode="p" d="M181 372 l215 0 q76 0 117 39.5 q41 39.5 41 105.5 q0 62 -32.5 89.5 q-32.5 27.5 -84.5 27.5 l-201 0 l-55 -262 ZM156 714 l281 0 q212 0 212 -197 q0 -37 -13.5 -73.5 q-13.5 -36.5 -43 -72 q-29.5 -35.5 -85.5 -57.5 q-56 -22 -131 -22 l-212 0 l-62 -292 l-95 0 l149 714 Z" /><glyph glyph-name="Q" unicode="q" d="M435 203 l79 -77 q58 48 88.5 126 q30.5 78 30.5 163 q0 103 -53.5 169.5 q-53.5 66.5 -149.5 66.5 q-95 0 -164.5 -54 q-69.5 -54 -101 -132.5 q-31.5 -78.5 -31.5 -168.5 q0 -108 53.5 -170.5 q53.5 -62.5 157.5 -62.5 q57 0 102 21 l-65 62 l54 57 ZM609 -73 l-99 95 q-74 -38 -166 -38 q-147 0 -226.5 81.5 q-79.5 81.5 -79.5 230.5 q0 117 46 215 q46 98 137 159 q91 61 209 61 q136 0 217 -90 q81 -90 81 -226 q0 -104 -40 -196.5 q-40 -92.5 -112 -152.5 l87 -83 l-54 -56 Z" /><glyph glyph-name="R" unicode="r" d="M158 714 l275 0 q48 0 88 -9 q40 -9 74.5 -29 q34.5 -20 53.5 -56.5 q19 -36.5 19 -87.5 q0 -73 -45 -127.5 q-45 -54.5 -116 -64.5 l0 -2 q44 -14 61.5 -56 q17.5 -42 11.5 -99 q-1 -13 -8 -58 q-7 -45 -5.5 -72.5 q1.5 -27.5 14.5 -52.5 l-99 0 q-18 55 2 153 q5 48 4 77 q-1 29 -14 45.5 q-13 16.5 -26.5 22.5 q-13.5 6 -32.5 7 l-38 0 l-211 0 l-64 -305 l-95 0 l151 714 ZM183 385 l214 0 q53 0 90 14.5 q37 14.5 54.5 37.5 q17.5 23 24.5 44.5 q7 21.5 7 44.5 q0 108 -140 108 l-197 0 l-53 -249 Z" /><glyph glyph-name="S" unicode="s" d="M519 503 q2 80 -40.5 114 q-42.5 34 -123.5 34 q-61 0 -113 -30 q-52 -30 -52 -87 q0 -48 30 -73.5 q30 -25.5 86 -41.5 l96 -26 q80 -22 126 -64 q46 -42 46 -129 q0 -70 -44 -121 q-44 -51 -105 -73 q-61 -22 -129 -22 q-136 0 -213 62 q-77 62 -68 188 l95 0 q-4 -92 46.5 -131.5 q50.5 -39.5 143.5 -39.5 q74 0 126.5 35 q52.5 35 52.5 102 q0 50 -33 75.5 q-33 25.5 -94 42.5 l-97 26 q-160 45 -160 180 q0 97 78 152 q78 55 182 55 q54 0 100.5 -13.5 q46.5 -13.5 83 -40.5 q36.5 -27 57 -71.5 q20.5 -44.5 18.5 -102.5 l-95 0 Z" /><glyph glyph-name="T" unicode="t" d="M635 634 l-240 0 l-134 -634 l-95 0 l134 634 l-240 0 l17 80 l576 0 l-18 -80 Z" /><glyph glyph-name="U" unicode="u" d="M639 286 q-23 -106 -36 -137 q-34 -84 -107.5 -124.5 q-73.5 -40.5 -170.5 -40.5 q-158 0 -224 79.5 q-66 79.5 -35 230.5 l89 420 l95 0 l-94 -444 q-47 -207 169 -207 q57 0 95.5 15 q38.5 15 62 48 q23.5 33 35.5 67.5 q12 34.5 25 92.5 l90 428 l95 0 l-89 -428 Z" /><glyph glyph-name="V" unicode="v" d="M288 0 l-107 0 l-102 714 l97 0 l73 -621 l2 0 l339 621 l101 0 l-403 -714 Z" /><glyph glyph-name="W" unicode="w" d="M655 0 l-99 0 l-45 616 l-2 0 l-282 -616 l-102 0 l-45 714 l94 0 l25 -601 l2 0 l274 601 l108 0 l40 -603 l2 0 l260 603 l98 0 l-328 -714 Z" /><glyph glyph-name="X" unicode="x" d="M266 373 l-172 341 l102 0 l132 -282 l229 282 l107 0 l-294 -354 l181 -360 l-98 0 l-144 302 l-244 -302 l-108 0 l309 373 Z" /><glyph glyph-name="Y" unicode="y" d="M254 287 l-188 427 l101 0 l146 -346 l271 346 l110 0 l-346 -427 l-62 -287 l-93 0 l61 287 Z" /><glyph glyph-name="Z" unicode="z" d="M-20 79 l535 555 l-409 0 l20 80 l521 0 l-17 -81 l-540 -553 l456 0 l-17 -80 l-566 0 l17 79 Z" /><glyph glyph-name="bracketleft" unicode="[" d="M163 731 l189 0 l-14 -65 l-108 0 l-164 -798 l108 0 l-14 -65 l-188 0 l191 928 Z" /><glyph glyph-name="backslash" unicode="\" d="M351 -16 l-73 0 l-295 747 l72 0 l296 -747 Z" /><glyph glyph-name="bracketright" unicode="]" d="M61 -197 l-188 0 l14 65 l108 0 l163 798 l-108 0 l14 65 l189 0 l-192 -928 Z" /><glyph glyph-name="asciicircum" unicode="^" d="M268 697 l64 0 l218 -433 l-70 0 l-181 360 l-178 -360 l-71 0 l218 433 Z" /><glyph glyph-name="underscore" unicode="_" d="M0 -74 l500 0 l0 -50 l-500 0 l0 50 Z" /><glyph glyph-name="grave" unicode="`" d="M244 588 l-67 0 l-101 143 l101 0 l67 -143 Z" /><glyph glyph-name="a" unicode="a" d="M53 361 q11 82 74 125 q63 43 150 43 q189 0 189 -132 q0 -30 -16 -94 l-33 -141 q-1 -7 -5 -22 q-4 -15 -6.5 -28 q-2.5 -13 -2.5 -24 q0 -32 25 -32 q8 0 27 7 l-13 -63 q-29 -11 -52 -11 q-35 0 -53 19 q-18 19 -14 53 l-2 2 q-55 -74 -173 -74 q-71 0 -114 34.5 q-43 34.5 -43 110.5 q0 42 16 72.5 q16 30.5 37.5 47 q21.5 16.5 59.5 27.5 q38 11 64.5 14.5 q26.5 3.5 70.5 7.5 q8 1 12 1 q33 3 49 5 q16 2 35 7.5 q19 5.5 27 13.5 q8 8 13.5 21.5 q5.5 13.5 5.5 34.5 q0 37 -31 52.5 q-31 15.5 -73 15.5 q-53 0 -92 -23 q-39 -23 -47 -70 l-85 0 ZM75 135 q0 -34 27 -53 q27 -19 66 -19 q101 0 145 68 q10 14 17.5 32 q7.5 18 11 30 q3.5 12 9 37 q5.5 25 7.5 34 l-2 0 q-22 -16 -73 -23.5 q-51 -7.5 -94 -11 q-43 -3.5 -78 -26.5 q-35 -23 -36 -68 Z" /><glyph glyph-name="b" unicode="b" d="M146 714 l85 0 l-55 -261 l2 -2 q62 78 158 78 q100 0 151.5 -60 q51.5 -60 51.5 -163 q0 -129 -74 -223 q-74 -94 -199 -94 q-68 0 -117 32.5 q-49 32.5 -57 74.5 l-2 0 l-19 -96 l-75 0 l150 714 ZM454 306 q0 65 -30.5 106.5 q-30.5 41.5 -87.5 41.5 q-70 0 -120 -44 q-50 -44 -70.5 -101.5 q-20.5 -57.5 -20.5 -116.5 q0 -60 38.5 -94.5 q38.5 -34.5 102.5 -34.5 q58 0 102.5 40.5 q44.5 40.5 65 95 q20.5 54.5 20.5 107.5 Z" /><glyph glyph-name="c" unicode="c" d="M416 353 q0 48 -29 74.5 q-29 26.5 -80 26.5 q-92 0 -146.5 -75 q-54.5 -75 -54.5 -168 q0 -66 30.5 -107 q30.5 -41 97.5 -41 q54 0 93.5 28.5 q39.5 28.5 57.5 77.5 l85 0 q-23 -88 -84 -134 q-61 -46 -152 -46 q-105 0 -159 57.5 q-54 57.5 -54 164.5 q0 131 77 224.5 q77 93.5 209 93.5 q90 0 140.5 -43.5 q50.5 -43.5 53.5 -132.5 l-85 0 Z" /><glyph glyph-name="d" unicode="d" d="M455 0 l-80 0 l18 74 l-2 0 q-37 -48 -76.5 -66.5 q-39.5 -18.5 -94.5 -18.5 q-97 0 -150 57.5 q-53 57.5 -53 153.5 q0 126 79.5 227.5 q79.5 101.5 207.5 101.5 q35 0 66 -8 q31 -8 58 -29 q27 -21 37 -54 l2 0 l55 276 l84 0 l-151 -714 ZM102 200 q0 -137 133 -137 q61 0 109 42.5 q48 42.5 70.5 100 q22.5 57.5 22.5 114.5 q0 60 -34.5 97 q-34.5 37 -95.5 37 q-94 0 -149.5 -79 q-55.5 -79 -55.5 -175 Z" /><glyph glyph-name="e" unicode="e" d="M98 233 q-3 -23 -3 -45 q0 -57 39.5 -91 q39.5 -34 94.5 -34 q112 0 149 99 l85 0 q-20 -84 -83.5 -128.5 q-63.5 -44.5 -150.5 -44.5 q-61 0 -106 19 q-45 19 -68.5 51 q-23.5 32 -34 66 q-10.5 34 -10.5 71 q0 145 78.5 239 q78.5 94 187.5 94 q219 0 219 -229 q0 -27 -8 -67 l-389 0 ZM410 308 q4 61 -26 103.5 q-30 42.5 -95 42.5 q-71 0 -115 -40 q-44 -40 -64 -106 l300 0 Z" /><glyph glyph-name="f" unicode="f" d="M119 442 l-88 0 l15 75 l88 0 q3 13 9 38.5 q6 25.5 9.5 38 q3.5 12.5 10.5 33.5 q7 21 14 32 q7 11 19 25 q12 14 26 21 q14 7 34 12 q20 5 45 5 q45 0 71 -8 l-14 -72 q-25 5 -40 5 q-24 0 -40 -6.5 q-16 -6.5 -26 -22.5 q-10 -16 -14.5 -26.5 q-4.5 -10.5 -10.5 -38 q-6 -27.5 -9 -36.5 l99 0 l-14 -75 l-100 0 l-95 -442 l-85 0 l96 442 Z" /><glyph glyph-name="g" unicode="g" d="M459 75 q-22 -96 -40 -140 q-61 -144 -235 -144 q-87 0 -145 39.5 q-58 39.5 -60 120.5 l84 0 q6 -85 130 -85 q38 0 67.5 13 q29.5 13 46.5 29 q17 16 32.5 49.5 q15.5 33.5 21.5 53.5 q6 20 17 62 l-2 2 q-52 -78 -161 -78 q-93 0 -143.5 58 q-50.5 58 -50.5 155 q0 123 75 221 q75 98 194 98 q58 0 105 -29 q47 -29 59 -76 l0 -2 l2 0 l16 95 l80 0 l-93 -442 ZM106 210 q0 -59 33 -99 q33 -40 94 -40 q46 0 83 24 q37 24 59 61.5 q22 37.5 34 79.5 q12 42 12 83 q0 63 -33.5 99 q-33.5 36 -98.5 36 q-56 0 -99.5 -42 q-43.5 -42 -63.5 -96.5 q-20 -54.5 -20 -105.5 Z" /><glyph glyph-name="h" unicode="h" d="M146 714 l85 0 l-61 -273 l2 -2 q65 90 184 90 q73 0 108.5 -32 q35.5 -32 35.5 -101 q0 -34 -15 -101 l-63 -295 l-85 0 l66 302 l12 80 q0 35 -25 53.5 q-25 18.5 -65 18.5 q-73 0 -128 -60 q-37 -32 -57 -108 l-60 -286 l-84 0 l150 714 Z" /><glyph glyph-name="i" unicode="i" d="M208 610 l-86 0 l22 104 l86 0 l-22 -104 ZM103 517 l85 0 l-108 -517 l-84 0 l107 517 Z" /><glyph glyph-name="j" unicode="j" d="M208 610 l-86 0 l22 104 l86 0 l-22 -104 ZM-104 -116 q22 -6 33 -6 q26 0 37.5 19.5 q11.5 19.5 24.5 77.5 l112 542 l85 0 l-130 -613 q-24 -101 -121 -101 q-33 0 -56 6 l15 75 Z" /><glyph glyph-name="k" unicode="k" d="M146 714 l84 0 l-89 -420 l2 -2 l260 225 l111 0 l-225 -191 l128 -326 l-95 0 l-101 275 l-102 -91 l-39 -184 l-84 0 l150 714 Z" /><glyph glyph-name="l" unicode="l" d="M145 714 l85 0 l-150 -714 l-84 0 l149 714 Z" /><glyph glyph-name="m" unicode="m" d="M105 517 l79 0 l-19 -77 l2 -2 q72 91 180 91 q109 0 130 -93 q30 42 78 67.5 q48 25.5 99 25.5 q61 0 102.5 -28.5 q41.5 -28.5 41.5 -87.5 q0 -41 -15 -103 l-65 -310 l-85 0 l72 328 q8 32 8 56 q0 30 -22.5 50 q-22.5 20 -56.5 20 q-34 0 -70.5 -21 q-36.5 -21 -59.5 -50 q-31 -35 -48 -116 l-57 -267 l-85 0 l62 295 q16 71 16 91 q0 68 -72 68 q-33 0 -67.5 -19 q-34.5 -19 -59.5 -47 q-25 -24 -35 -48.5 q-10 -24.5 -20 -68.5 l-58 -271 l-84 0 l109 517 Z" /><glyph glyph-name="n" unicode="n" d="M104 517 l82 0 l-16 -78 l2 0 q65 90 184 90 q73 0 108.5 -32 q35.5 -32 35.5 -101 q0 -34 -15 -101 l-63 -295 l-85 0 l66 302 l12 80 q0 35 -25 53.5 q-25 18.5 -65 18.5 q-73 0 -128 -60 q-37 -32 -57 -108 l-60 -286 l-84 0 l108 517 Z" /><glyph glyph-name="o" unicode="o" d="M17 204 q0 133 79 229 q79 96 210 96 q105 0 160 -54.5 q55 -54.5 55 -159.5 q0 -134 -78 -230 q-78 -96 -208 -96 q-100 0 -159 60 q-59 60 -59 155 ZM102 205 q0 -65 37 -103.5 q37 -38.5 105 -38.5 q58 0 104 41 q46 41 67 96 q21 55 21 108 q0 64 -34.5 105 q-34.5 41 -101.5 41 q-62 0 -108.5 -40.5 q-46.5 -40.5 -68 -96 q-21.5 -55.5 -21.5 -112.5 Z" /><glyph glyph-name="p" unicode="p" d="M102 517 l80 0 l-18 -74 l2 0 q37 48 77 67 q40 19 94 19 q97 0 150 -58 q53 -58 53 -154 q0 -81 -33 -154.5 q-33 -73.5 -100.5 -123.5 q-67.5 -50 -153.5 -50 q-56 0 -102 21 q-46 21 -59 69 l-2 0 l-55 -276 l-83 0 l150 714 ZM455 317 q0 137 -133 137 q-61 0 -109 -42.5 q-48 -42.5 -70.5 -100 q-22.5 -57.5 -22.5 -114.5 q0 -60 34.5 -97 q34.5 -37 95.5 -37 q94 0 149.5 79 q55.5 79 55.5 175 Z" /><glyph glyph-name="q" unicode="q" d="M102 212 q0 -65 33 -107 q33 -42 99 -42 q64 0 110.5 44.5 q46.5 44.5 66.5 102.5 q20 58 20 117 q0 60 -35 93.5 q-35 33.5 -98 33.5 q-59 0 -105.5 -39 q-46.5 -39 -68.5 -93 q-22 -54 -22 -110 ZM410 -197 l-86 0 l56 263 l-2 0 q-63 -77 -163 -77 q-98 0 -148 61 q-50 61 -50 162 q0 82 31.5 153 q31.5 71 95 117.5 q63.5 46.5 145.5 46.5 q130 0 167 -94 l2 0 l17 82 l86 0 l-151 -714 Z" /><glyph glyph-name="r" unicode="r" d="M103 517 l80 0 l-25 -111 l2 0 q69 123 188 123 q1 0 15 1 q14 1 15 -1 l-20 -91 q-3 1 -13 1 l-12 0 q-31 0 -51 -5 q-66 -17 -110 -84 q-26 -37 -43 -121 l-49 -229 l-84 0 l107 517 Z" /><glyph glyph-name="s" unicode="s" d="M355 365 q2 42 -28.5 65.5 q-30.5 23.5 -78.5 23.5 q-110 0 -110 -66 q0 -8 2 -15 q2 -7 7.5 -13 q5.5 -6 10.5 -11 q5 -5 14.5 -11 q9.5 -6 16.5 -9.5 q7 -3.5 20 -9.5 q13 -6 20 -8.5 q7 -2.5 22.5 -8.5 q15.5 -6 22.5 -9 q65 -27 101 -59 q36 -32 36 -86 q0 -80 -62.5 -119.5 q-62.5 -39.5 -148.5 -39.5 q-208 0 -208 174 l84 0 q-3 -53 34.5 -76.5 q37.5 -23.5 97.5 -23.5 q48 0 83 19 q35 19 35 60 q0 15 -6.5 26.5 q-6.5 11.5 -23.5 22.5 q-17 11 -27.5 16 q-10.5 5 -40 17 q-29.5 12 -38.5 16 q-64 25 -100.5 56 q-36.5 31 -36.5 84 q0 68 57.5 108.5 q57.5 40.5 134.5 40.5 q81 0 138 -40 q57 -40 57 -124 l-85 0 Z" /><glyph glyph-name="t" unicode="t" d="M221 517 l103 0 l-16 -75 l-103 0 l-64 -304 q0 -2 -1.5 -14.5 q-1.5 -12.5 -1.5 -19.5 q0 -35 51 -35 q20 0 49 9 l-15 -78 q-33 -5 -60 -5 q-116 0 -116 83 q0 16 5 43 l68 321 l-87 0 l16 75 l87 0 l32 153 l85 0 l-32 -153 Z" /><glyph glyph-name="u" unicode="u" d="M411 0 l-82 0 l16 78 l-2 0 q-64 -89 -184 -89 q-73 0 -108.5 32 q-35.5 32 -35.5 100 q0 34 15 101 l63 295 l85 0 l-66 -302 q-12 -46 -12 -80 q0 -35 25 -53.5 q25 -18.5 65 -18.5 q68 0 119 49.5 q51 49.5 66 118.5 l60 286 l85 0 l-109 -517 Z" /><glyph glyph-name="v" unicode="v" d="M207 0 l-91 0 l-74 517 l90 0 l44 -430 l2 0 l224 430 l92 0 l-287 -517 Z" /><glyph glyph-name="w" unicode="w" d="M495 0 l-90 0 l-26 402 l-2 0 l-185 -402 l-90 0 l-61 517 l90 0 l32 -411 l2 0 l186 411 l96 0 l25 -411 l2 0 l196 411 l92 0 l-267 -517 Z" /><glyph glyph-name="x" unicode="x" d="M176 274 l-115 243 l98 0 l78 -188 l154 188 l103 0 l-222 -250 l132 -267 l-97 0 l-94 212 l-176 -212 l-102 0 l241 274 Z" /><glyph glyph-name="y" unicode="y" d="M163 -87 q-27 -42 -44 -63.5 q-17 -21.5 -49 -40 q-32 -18.5 -73 -18.5 q-33 0 -59 13 l15 69 q23 -14 48 -14 q46 0 80 56 l52 85 l-91 517 l91 0 l60 -411 l2 0 l217 411 l93 0 l-342 -604 Z" /><glyph glyph-name="z" unicode="z" d="M-40 64 l359 378 l-278 0 l15 75 l393 0 l-13 -61 l-363 -381 l309 0 l-14 -75 l-420 0 l12 64 Z" /><glyph glyph-name="braceleft" unicode="{" d="M382 671 l-50 0 q-26 0 -42.5 -25.5 q-16.5 -25.5 -23.5 -62.5 l-37 -181 q-14 -61 -50 -94 q-36 -33 -65 -40 l-1 -3 q22 -3 43.5 -26 q21.5 -23 21.5 -70 q0 -8 -6 -38 l-37 -180 q-3 -16 -3 -34 q0 -54 33 -54 l50 0 l-13 -60 l-70 0 q-33 0 -59 24 q-26 24 -26 66 q0 21 4 41 l38 181 q4 20 4 41 q0 34 -18 55 q-18 21 -45 21 l15 68 q33 0 64 33 q31 33 43 85 l38 182 q11 60 52.5 95.5 q41.5 35.5 82.5 35.5 l70 0 l-13 -60 Z" /><glyph glyph-name="bar" unicode="|" d="M77 786 l68 0 l0 -999 l-68 0 l0 999 Z" /><glyph glyph-name="braceright" unicode="}" d="M-77 -137 l50 0 q25 0 41.5 25.5 q16.5 25.5 23.5 62.5 l37 180 q9 42 33.5 74 q24.5 32 45 44.5 q20.5 12.5 36.5 15.5 l1 3 q-22 3 -43.5 26 q-21.5 23 -21.5 70 q0 8 6 38 l37 181 q3 17 3 34 q0 54 -33 54 l-50 0 l13 60 l70 0 q33 0 59 -24 q26 -24 26 -66 q0 -21 -4 -41 l-38 -182 q-4 -20 -4 -41 q0 -35 18 -56 q18 -21 45 -21 l-15 -68 q-33 0 -64 -33 q-31 -33 -43 -84 l-38 -181 q-11 -59 -52.5 -95 q-41.5 -36 -81.5 -36 l-70 0 l13 60 Z" /><glyph glyph-name="asciitilde" unicode="~" d="M531 269 q-27 -41 -55 -63.5 q-28 -22.5 -70 -22.5 q-45 0 -102 33 q-66 39 -115 39 q-48 0 -84 -76 l-36 50 q42 86 125 86 q38 0 111 -32 q10 -4 34.5 -16.5 q24.5 -12.5 40 -18 q15.5 -5.5 27.5 -5.5 q7 0 14.5 2 q7.5 2 13 4.5 q5.5 2.5 12 8.5 q6.5 6 10.5 9.5 q4 3.5 10.5 12 q6.5 8.5 9 12.5 q2.5 4 9.5 14 q7 10 9 13 l36 -50 Z" /><glyph glyph-name="nonbreakingspace" unicode=" " d="" /><glyph glyph-name="exclamdown" unicode="¡" d="M20 25 l90 308 l46 0 l-43 -308 l-47 -222 l-92 0 l46 222 ZM201 406 l-111 0 l24 111 l111 0 l-24 -111 Z" /><glyph glyph-name="cent" unicode="¢" d="M480 169 q-23 -88 -84.5 -134 q-61.5 -46 -154.5 -46 l-22 -104 l-39 0 l23 107 q-85 10 -128.5 66.5 q-43.5 56.5 -43.5 152.5 q0 128 80 223 q80 95 206 95 l19 91 l39 0 l-20 -93 q156 -19 156 -174 l-85 0 q0 44 -23 71 q-23 27 -63 33 l-84 -399 q50 4 85.5 33 q35.5 29 53.5 78 l85 0 ZM116 211 q0 -135 102 -150 l84 398 q-86 -6 -136 -81 q-50 -75 -50 -167 Z" /><glyph glyph-name="sterling" unicode="£" d="M-2 63 q65 52 94.5 91.5 q29.5 39.5 29.5 92.5 q0 41 -10 80 l-86 0 l10 45 l62 0 q-23 86 -23 127 q0 98 72.5 165 q72.5 67 169.5 67 q108 0 166.5 -70 q58.5 -70 52.5 -176 l-90 0 q6 67 -26.5 119 q-32.5 52 -95.5 52 q-69 0 -114 -47.5 q-45 -47.5 -45 -119.5 q0 -59 23 -117 l154 0 l-10 -45 l-130 0 q10 -27 10 -68 q0 -47 -40.5 -102 q-40.5 -55 -93.5 -86 l0 -2 q52 27 112 27 q30 0 84 -16 q6 -2 19.5 -7 q13.5 -5 21.5 -7.5 q8 -2.5 20.5 -5 q12.5 -2.5 23.5 -2.5 q8 0 17.5 2.5 q9.5 2.5 16 5 q6.5 2.5 16.5 8.5 q10 6 15 9.5 q5 3.5 15.5 11 q10.5 7.5 13.5 9.5 l32 -72 q-69 -48 -136 -48 q-35 0 -104 23 q-70 24 -101 24 q-20 0 -44 -8 q-24 -8 -34.5 -13 q-10.5 -5 -39.5 -21 l-28 74 Z" /><glyph glyph-name="currency" unicode="¤" d="M281 524 q-71 0 -119.5 -50.5 q-48.5 -50.5 -48.5 -124.5 q0 -73 48.5 -123 q48.5 -50 118.5 -50 q69 0 116 51 q47 51 47 124 q0 71 -47 122 q-47 51 -115 51 ZM74 604 l56 -56 q62 51 151 51 q85 0 143 -50 l57 56 l50 -51 l-55 -55 q52 -55 52 -148 q0 -89 -52 -150 l55 -56 l-47 -47 l-56 58 q-60 -55 -148 -55 q-92 0 -152 54 l-55 -58 l-48 48 l55 58 q-52 63 -52 146 q0 94 54 148 l-57 58 l49 49 Z" /><glyph glyph-name="yen" unicode="¥" d="M206 174 l-145 0 l14 60 l144 0 l8 52 l-8 23 l-130 0 l14 60 l97 0 l-110 345 l98 0 l101 -344 l239 344 l108 0 l-249 -345 l96 0 l-13 -60 l-129 0 l-24 -33 l-9 -42 l147 0 l-14 -60 l-146 0 l-36 -174 l-89 0 l36 174 Z" /><glyph glyph-name="brokenbar" unicode="¦" d="M145 411 l-68 0 l0 250 l68 0 l0 -250 ZM77 161 l68 0 l0 -249 l-68 0 l0 249 Z" /><glyph glyph-name="section" unicode="§" d="M440 555 q1 47 -23.5 74 q-24.5 27 -73.5 27 q-40 0 -67.5 -22 q-27.5 -22 -27.5 -55 q0 -42 47 -93 q8 -8 40 -40.5 q32 -32.5 45.5 -46.5 q13.5 -14 36 -39.5 q22.5 -25.5 39.5 -48.5 q35 -47 35 -96 q0 -66 -38.5 -110 q-38.5 -44 -104.5 -52 q29 -31 29 -88 q0 -79 -55.5 -119.5 q-55.5 -40.5 -138.5 -42.5 q-83 2 -129.5 54 q-46.5 52 -46.5 135 l80 0 q0 -53 28 -83.5 q28 -30.5 82 -30.5 q41 0 68 21.5 q27 21.5 27 58.5 q0 44 -49 100 l-134 145 q-63 71 -63 136 q0 126 139 157 q-22 32 -22 79 q0 73 53.5 114.5 q53.5 41.5 128.5 41.5 q81 0 131 -48 q50 -48 44 -128 l-80 0 ZM126 351 q0 -46 59 -107 l70 -75 q27 -27 59 -65 q97 21 97 100 q0 26 -25 61 q-25 35 -56 64 q-31 29 -65 63 q-34 34 -47 53 q-9 0 -32 -12 q-23 -12 -30 -19 q-30 -26 -30 -63 Z" /><glyph glyph-name="dieresis" unicode="¨" d="M78 696 l89 0 l-21 -104 l-89 0 l21 104 ZM241 696 l89 0 l-21 -104 l-89 0 l21 104 Z" /><glyph glyph-name="copyright" unicode="©" d="M599 285 q-16 -72 -66.5 -114.5 q-50.5 -42.5 -119.5 -42.5 q-100 0 -161 64.5 q-61 64.5 -61 164.5 q0 102 59 165 q59 63 160 63 q74 0 125 -39.5 q51 -39.5 63 -112.5 l-63 0 q-8 43 -41 70 q-33 27 -83 27 q-72 0 -112 -48 q-40 -48 -40 -123 q0 -73 42 -124.5 q42 -51.5 112 -51.5 q50 0 82.5 28 q32.5 28 39.5 74 l64 0 ZM92 359 q0 -137 88.5 -229 q88.5 -92 220.5 -92 q130 0 218.5 92 q88.5 92 88.5 229 q0 134 -88.5 225.5 q-88.5 91.5 -218.5 91.5 q-132 0 -220.5 -91 q-88.5 -91 -88.5 -226 ZM24 359 q0 157 111 264.5 q111 107.5 266 107.5 q155 0 265 -107.5 q110 -107.5 110 -264.5 q0 -160 -110 -267.5 q-110 -107.5 -265 -107.5 q-156 0 -266.5 107.5 q-110.5 107.5 -110.5 267.5 Z" /><glyph glyph-name="ordfeminine" unicode="ª" d="M274 544 l-2 0 q-13 -11 -45 -15.5 q-32 -4.5 -60.5 -6 q-28.5 -1.5 -51 -15 q-22.5 -13.5 -22.5 -40.5 q0 -18 17 -27.5 q17 -9.5 42 -9.5 q53 3 77 19 q24 16 33 50 l12 45 ZM75 606 q6 50 47.5 76.5 q41.5 26.5 99.5 26.5 q45 0 86 -18.5 q41 -18.5 41 -54.5 q0 -7 -1.5 -16 q-1.5 -9 -4.5 -20.5 q-3 -11.5 -4 -16.5 l-20 -83 q-13 -55 -13 -58 q0 -12 17 -12 q7 0 15 3 l-8 -46 q-15 -7 -34 -7 q-23 0 -34.5 12.5 q-11.5 12.5 -9.5 33.5 l-3 0 q-35 -46 -97 -46 q-119 0 -119 93 q0 83 130 95 q31 2 48.5 4.5 q17.5 2.5 38 8 q20.5 5.5 30 16.5 q9.5 11 9.5 27 q0 35 -67 35 q-76 0 -87 -53 l-60 0 Z" /><glyph glyph-name="guillemotleft" unicode="«" d="M226 250 l22 92 l174 100 l-21 -85 l-120 -68 l87 -90 l-19 -85 l-123 136 ZM30 250 l22 92 l174 100 l-21 -85 l-120 -68 l87 -90 l-19 -85 l-123 136 Z" /><glyph glyph-name="logicalnot" unicode="¬" d="M552 109 l-68 0 l0 211 l-436 0 l0 68 l504 0 l0 -279 Z" /><glyph glyph-name="uni00AD" unicode="­" d="M40 238 l17 80 l289 0 l-17 -80 l-289 0 Z" /><glyph glyph-name="registered" unicode="®" d="M323 382 l71 0 q22 0 35.5 1 q13.5 1 30.5 4.5 q17 3.5 26.5 11 q9.5 7.5 16 21.5 q6.5 14 6.5 34 q0 67 -96 67 l-90 0 l0 -139 ZM255 576 l169 0 q153 0 153 -125 q0 -107 -115 -119 l125 -193 l-73 0 l-119 188 l-72 0 l0 -188 l-68 0 l0 437 ZM92 359 q0 -137 88.5 -229 q88.5 -92 220.5 -92 q130 0 218.5 92 q88.5 92 88.5 229 q0 134 -88.5 225.5 q-88.5 91.5 -218.5 91.5 q-132 0 -220.5 -91 q-88.5 -91 -88.5 -226 ZM24 359 q0 157 111 264.5 q111 107.5 266 107.5 q155 0 265 -107.5 q110 -107.5 110 -264.5 q0 -160 -110 -267.5 q-110 -107.5 -265 -107.5 q-156 0 -266.5 107.5 q-110.5 107.5 -110.5 267.5 Z" /><glyph glyph-name="macron" unicode="¯" d="M65 675 l269 0 l-11 -55 l-270 0 l12 55 Z" /><glyph glyph-name="degree" unicode="°" d="M155 631 q-28 -28 -28 -70 q0 -42 28 -70 q28 -28 70 -28 q42 0 70 28 q28 28 28 70 q0 42 -28 70 q-28 28 -70 28 q-42 0 -70 -28 ZM120 456 q-43 43 -43 105 q0 62 43 105 q43 43 105 43 q62 0 105 -43 q43 -43 43 -105 q0 -62 -43 -105 q-43 -43 -105 -43 q-62 0 -105 43 Z" /><glyph glyph-name="plusminus" unicode="±" d="M48 68 l504 0 l0 -68 l-504 0 l0 68 ZM48 339 l218 0 l0 166 l68 0 l0 -166 l218 0 l0 -68 l-218 0 l0 -167 l-68 0 l0 167 l-218 0 l0 68 Z" /><glyph glyph-name="twosuperior" unicode="²" d="M55 561 q7 69 51 108.5 q44 39.5 120 39.5 q58 0 96 -31.5 q38 -31.5 38 -83.5 q0 -84 -107 -142 l-63 -36 q-31 -18 -46.5 -27 q-15.5 -9 -35 -25.5 q-19.5 -16.5 -21.5 -28.5 l231 0 l-10 -55 l-296 0 q0 57 27.5 91 q27.5 34 96.5 79 l64 40 q23 14 32 20 q9 6 27 20 q18 14 25.5 29 q7.5 15 7.5 32 q0 30 -19 46.5 q-19 16.5 -53 16.5 q-92 -5 -97 -93 l-68 0 Z" /><glyph glyph-name="threesuperior" unicode="³" d="M169 527 q31 -3 57.5 1.5 q26.5 4.5 46.5 22.5 q20 18 20 49 q0 54 -74 54 q-39 0 -63 -21.5 q-24 -21.5 -26 -56.5 l-68 0 q3 59 46 96 q43 37 114 37 q60 0 99.5 -28 q39.5 -28 39.5 -80 q0 -35 -24.5 -62 q-24.5 -27 -63.5 -36 l0 -2 q65 -22 65 -89 q0 -54 -46.5 -96.5 q-46.5 -42.5 -125.5 -42.5 q-77 0 -114.5 36.5 q-37.5 36.5 -34.5 103.5 l68 0 q-3 -41 14.5 -63 q17.5 -22 68.5 -22 q46 0 74 22 q28 22 28 63 q0 23 -9.5 37.5 q-9.5 14.5 -25 20 q-15.5 5.5 -35.5 7 q-20 1.5 -40 -0.5 l9 50 Z" /><glyph glyph-name="acute" unicode="´" d="M230 731 l113 0 l-136 -143 l-70 0 l93 143 Z" /><glyph glyph-name="mu" unicode="µ" d="M411 0 l-82 0 l16 78 l-2 0 q-31 -43 -78.5 -66 q-47.5 -23 -93.5 -23 q-32 0 -57.5 11.5 q-25.5 11.5 -35.5 25.5 l-2 0 l-47 -223 l-84 0 l148 714 l85 0 l-66 -302 q-12 -46 -12 -80 q0 -35 25 -53.5 q25 -18.5 65 -18.5 q68 0 119 49.5 q51 49.5 66 118.5 l60 286 l85 0 l-109 -517 Z" /><glyph glyph-name="paragraph" unicode="¶" d="M244 336 q-91 0 -139 53.5 q-48 53.5 -32 132.5 q20 95 90 143.5 q70 48.5 177 48.5 l238 0 l-181 -868 l-64 0 l169 813 l-126 0 l-169 -813 l-65 0 l102 490 Z" /><glyph glyph-name="middot" unicode="·" d="M67 253 q0 27 19.5 45.5 q19.5 18.5 44.5 18.5 q27 0 45.5 -18.5 q18.5 -18.5 18.5 -45.5 q0 -28 -18.5 -46 q-18.5 -18 -45.5 -18 q-26 0 -45 19 q-19 19 -19 45 Z" /><glyph glyph-name="cedilla" unicode="¸" d="M-22 -144 q45 -15 63 -15 q60 0 60 30 q0 31 -46 31 q-27 0 -42 -8 l-18 30 l73 89 l47 0 l-58 -65 l2 0 q9 4 26 4 q38 0 64.5 -18.5 q26.5 -18.5 26.5 -55.5 q0 -42 -36.5 -64.5 q-36.5 -22.5 -82.5 -22.5 q-52 0 -97 22 l18 43 Z" /><glyph glyph-name="onesuperior" unicode="¹" d="M214 280 l-66 0 l66 325 q-51 -17 -117 -17 l9 50 q52 0 92.5 20 q40.5 20 58.5 51 l47 0 l-90 -429 Z" /><glyph glyph-name="ordmasculine" unicode="º" d="M44 512 q0 80 52.5 138.5 q52.5 58.5 137.5 58.5 q69 0 105 -33.5 q36 -33.5 36 -96.5 q0 -80 -51.5 -139.5 q-51.5 -59.5 -134.5 -59.5 q-68 0 -107 33.5 q-39 33.5 -38 98.5 ZM104 513 q0 -37 22 -60 q22 -23 63 -23 q55 0 90.5 44 q35.5 44 35.5 101 q0 38 -21 61 q-21 23 -64 23 q-58 0 -92 -45.5 q-34 -45.5 -34 -100.5 Z" /><glyph glyph-name="guillemotright" unicode="»" d="M419 306 l-22 -92 l-174 -100 l21 85 l120 68 l-87 90 l19 85 l123 -136 ZM223 306 l-22 -92 l-174 -100 l21 85 l120 68 l-87 90 l19 85 l123 -136 Z" /><glyph glyph-name="onequarter" unicode="¼" d="M559 725 l64 0 l-435 -752 l-64 0 l435 752 ZM196 280 l-66 0 l66 325 q-51 -17 -117 -17 l9 50 q52 0 92.5 20 q40.5 20 58.5 51 l47 0 l-90 -429 ZM621 151 l41 181 l-2 0 l-178 -181 l139 0 ZM611 96 l-199 0 l11 58 l269 275 l58 0 l-64 -278 l61 0 l-13 -55 l-60 0 l-22 -96 l-63 0 l22 96 Z" /><glyph glyph-name="onehalf" unicode="½" d="M559 725 l64 0 l-435 -752 l-64 0 l435 752 ZM474 281 q7 69 51 108.5 q44 39.5 120 39.5 q58 0 96 -31.5 q38 -31.5 38 -83.5 q0 -84 -107 -142 l-63 -36 q-31 -18 -46.5 -27 q-15.5 -9 -35 -25.5 q-19.5 -16.5 -21.5 -28.5 l231 0 l-10 -55 l-296 0 q0 57 27.5 91 q27.5 34 96.5 79 l64 40 q23 14 32 20 q9 6 27 20 q18 14 25.5 29 q7.5 15 7.5 32 q0 30 -19 46.5 q-19 16.5 -53 16.5 q-44 0 -69.5 -25 q-25.5 -25 -27.5 -68 l-68 0 ZM196 280 l-66 0 l66 325 q-51 -17 -117 -17 l9 50 q52 0 92.5 20 q40.5 20 58.5 51 l47 0 l-90 -429 Z" /><glyph glyph-name="threequarters" unicode="¾" d="M634 725 l64 0 l-435 -752 l-64 0 l435 752 ZM169 527 q31 -3 57.5 1.5 q26.5 4.5 46.5 22.5 q20 18 20 49 q0 54 -74 54 q-39 0 -63 -21.5 q-24 -21.5 -26 -56.5 l-68 0 q3 59 46 96 q43 37 114 37 q60 0 99.5 -28 q39.5 -28 39.5 -80 q0 -35 -24.5 -62 q-24.5 -27 -63.5 -36 l0 -2 q65 -22 65 -89 q0 -54 -46.5 -96.5 q-46.5 -42.5 -125.5 -42.5 q-77 0 -114.5 36.5 q-37.5 36.5 -34.5 103.5 l68 0 q-3 -41 14.5 -63 q17.5 -22 68.5 -22 q46 0 74 22 q28 22 28 63 q0 23 -9.5 37.5 q-9.5 14.5 -25 20 q-15.5 5.5 -35.5 7 q-20 1.5 -40 -0.5 l9 50 ZM700 332 l-2 0 l-178 -181 l139 0 l41 181 ZM649 96 l-199 0 l11 58 l269 275 l58 0 l-64 -278 l61 0 l-13 -55 l-60 0 l-22 -96 l-63 0 l22 96 Z" /><glyph glyph-name="questiondown" unicode="¿" d="M348 406 l-110 0 l22 111 l113 0 l-25 -111 ZM431 25 q-12 -108 -78.5 -171 q-66.5 -63 -174.5 -63 q-83 0 -139.5 48 q-56.5 48 -56.5 130 q0 102 109 182 q76 53 99 79 q41 44 46 102 l83 0 q-9 -58 -31 -98.5 q-22 -40.5 -49.5 -65 q-27.5 -24.5 -80.5 -61.5 q-87 -63 -87 -131 q0 -48 31.5 -79 q31.5 -31 78.5 -31 q137 0 165 159 l85 0 Z" /><glyph glyph-name="Agrave" unicode="à" d="M487 755 l-67 0 l-101 143 l101 0 l67 -143 ZM375 714 l104 0 l129 -714 l-98 0 l-33 215 l-301 0 l-125 -215 l-105 0 l429 714 ZM219 295 l246 0 l-53 335 l-2 0 l-191 -335 Z" /><glyph glyph-name="Aacute" unicode="á" d="M473 898 l113 0 l-136 -143 l-70 0 l93 143 ZM375 714 l104 0 l129 -714 l-98 0 l-33 215 l-301 0 l-125 -215 l-105 0 l429 714 ZM219 295 l246 0 l-53 335 l-2 0 l-191 -335 Z" /><glyph glyph-name="Acircumflex" unicode="â" d="M406 898 l86 0 l75 -143 l-74 0 l-51 93 l-87 -93 l-82 0 l133 143 ZM375 714 l104 0 l129 -714 l-98 0 l-33 215 l-301 0 l-125 -215 l-105 0 l429 714 ZM219 295 l246 0 l-53 335 l-2 0 l-191 -335 Z" /><glyph glyph-name="Atilde" unicode="ã" d="M266 764 q10 30 20 50.5 q10 20.5 31 39.5 q21 19 48 19 q25 0 77 -25 q5 -2 14.5 -6.5 q9.5 -4.5 14 -6.5 q4.5 -2 13 -5 q8.5 -3 11.5 -3 q3 0 11 0 q15 0 25 6.5 q10 6.5 14 12.5 q4 6 12 22 l51 0 q-15 -49 -38 -79 q-23 -30 -64 -30 q-23 0 -75 24 q-52 24 -66 22 q-33 0 -47 -41 l-52 0 ZM375 714 l104 0 l129 -714 l-98 0 l-33 215 l-301 0 l-125 -215 l-105 0 l429 714 ZM219 295 l246 0 l-53 335 l-2 0 l-191 -335 Z" /><glyph glyph-name="Adieresis" unicode="ä" d="M321 863 l89 0 l-21 -104 l-89 0 l21 104 ZM484 863 l89 0 l-21 -104 l-89 0 l21 104 ZM375 714 l104 0 l129 -714 l-98 0 l-33 215 l-301 0 l-125 -215 l-105 0 l429 714 ZM219 295 l246 0 l-53 335 l-2 0 l-191 -335 Z" /><glyph glyph-name="Aring" unicode="å" d="M343.5 749.5 q-26.5 33.5 -16.5 79.5 q10 46 50.5 79.5 q40.5 33.5 86.5 33.5 q45 0 72 -33.5 q27 -33.5 17 -79.5 q-10 -46 -50.5 -79.5 q-40.5 -33.5 -86.5 -33.5 q-46 0 -72.5 33.5 ZM401.5 877.5 q-23.5 -19.5 -29.5 -48.5 q-6 -29 9 -48.5 q15 -19.5 44 -19.5 q29 0 53 19.5 q24 19.5 30 48.5 q6 29 -9.5 48.5 q-15.5 19.5 -44.5 19.5 q-29 0 -52.5 -19.5 ZM203 295 l242 0 l-48 333 l-2 0 l-192 -333 ZM363 714 l105 0 l128 -714 l-105 0 l-33 215 l-302 0 l-125 -215 l-97 0 l429 714 Z" /><glyph glyph-name="AE" unicode="æ" d="M441 714 l524 0 l-17 -80 l-351 0 l-47 -227 l330 0 l-18 -80 l-329 0 l-53 -247 l357 0 l-16 -80 l-455 0 l43 208 l-230 0 l-149 -208 l-108 0 l519 714 ZM235 288 l192 0 l75 346 l-22 0 l-245 -346 Z" /><glyph glyph-name="Ccedilla" unicode="ç" d="M607 484 q0 82 -48 124.5 q-48 42.5 -129 42.5 q-95 0 -164.5 -54 q-69.5 -54 -101 -132.5 q-31.5 -78.5 -31.5 -168.5 q0 -108 53.5 -170.5 q53.5 -62.5 157.5 -62.5 q172 0 221 178 l95 0 q-28 -123 -107.5 -190 q-79.5 -67 -208.5 -67 l-5 0 l-32 -36 l2 0 q9 4 26 4 q38 0 64.5 -18.5 q26.5 -18.5 26.5 -55.5 q0 -42 -36.5 -64.5 q-36.5 -22.5 -82.5 -22.5 q-51 0 -98 22 l18 43 q45 -15 64 -15 q60 0 60 30 q0 31 -46 31 q-27 0 -42 -8 l-19 30 l53 64 q-126 12 -192.5 91.5 q-66.5 79.5 -66.5 216.5 q0 117 46 215 q46 98 137 159 q91 61 209 61 q121 0 196.5 -64 q75.5 -64 75.5 -183 l-95 0 Z" /><glyph glyph-name="Egrave" unicode="è" d="M469 755 l-67 0 l-101 143 l101 0 l67 -143 ZM158 714 l492 0 l-16 -80 l-397 0 l-48 -227 l370 0 l-16 -80 l-371 0 l-52 -247 l402 0 l-18 -80 l-497 0 l151 714 Z" /><glyph glyph-name="Eacute" unicode="é" d="M455 898 l113 0 l-136 -143 l-70 0 l93 143 ZM158 714 l492 0 l-16 -80 l-397 0 l-48 -227 l370 0 l-16 -80 l-371 0 l-52 -247 l402 0 l-18 -80 l-497 0 l151 714 Z" /><glyph glyph-name="Ecircumflex" unicode="ê" d="M388 898 l86 0 l75 -143 l-74 0 l-51 93 l-87 -93 l-82 0 l133 143 ZM158 714 l492 0 l-16 -80 l-397 0 l-48 -227 l370 0 l-16 -80 l-371 0 l-52 -247 l402 0 l-18 -80 l-497 0 l151 714 Z" /><glyph glyph-name="Edieresis" unicode="ë" d="M303 863 l89 0 l-21 -104 l-89 0 l21 104 ZM466 863 l89 0 l-21 -104 l-89 0 l21 104 ZM158 714 l492 0 l-16 -80 l-397 0 l-48 -227 l370 0 l-16 -80 l-371 0 l-52 -247 l402 0 l-18 -80 l-497 0 l151 714 Z" /><glyph glyph-name="Igrave" unicode="ì" d="M273 755 l-67 0 l-101 143 l101 0 l67 -143 ZM157 714 l95 0 l-150 -714 l-95 0 l150 714 Z" /><glyph glyph-name="Iacute" unicode="í" d="M259 898 l113 0 l-136 -143 l-70 0 l93 143 ZM157 714 l95 0 l-150 -714 l-95 0 l150 714 Z" /><glyph glyph-name="Icircumflex" unicode="î" d="M192 898 l86 0 l75 -143 l-74 0 l-51 93 l-87 -93 l-82 0 l133 143 ZM157 714 l95 0 l-150 -714 l-95 0 l150 714 Z" /><glyph glyph-name="Idieresis" unicode="ï" d="M107 863 l89 0 l-21 -104 l-89 0 l21 104 ZM270 863 l89 0 l-21 -104 l-89 0 l21 104 ZM157 714 l95 0 l-150 -714 l-95 0 l150 714 Z" /><glyph glyph-name="Eth" unicode="ð" d="M186 407 l200 0 l-14 -68 l-200 0 l-55 -259 l165 0 q97 0 167 52.5 q70 52.5 102 130.5 q32 78 32 168 q0 203 -197 203 l-152 0 l-48 -227 ZM79 339 l-66 0 l14 68 l66 0 l65 307 l250 0 q131 0 200.5 -72 q69.5 -72 69.5 -201 q0 -201 -109.5 -321 q-109.5 -120 -287.5 -120 l-274 0 l72 339 Z" /><glyph glyph-name="Ntilde" unicode="ñ" d="M293 764 q10 30 20 50.5 q10 20.5 31 39.5 q21 19 48 19 q25 0 77 -25 q5 -2 14.5 -6.5 q9.5 -4.5 14 -6.5 q4.5 -2 13 -5 q8.5 -3 11.5 -3 q3 0 11 0 q15 0 25 6.5 q10 6.5 14 12.5 q4 6 12 22 l51 0 q-15 -49 -38 -79 q-23 -30 -64 -30 q-23 0 -75 24 q-52 24 -66 22 q-33 0 -47 -41 l-52 0 ZM158 714 l102 0 l255 -591 l2 0 l119 591 l92 0 l-151 -714 l-102 0 l-253 587 l-2 0 l-121 -587 l-92 0 l151 714 Z" /><glyph glyph-name="Ograve" unicode="ò" d="M513 755 l-67 0 l-101 143 l101 0 l67 -143 ZM133 296 q0 -108 53.5 -170.5 q53.5 -62.5 157.5 -62.5 q90 0 157.5 53 q67.5 53 99.5 131.5 q32 78.5 32 167.5 q0 103 -53.5 169.5 q-53.5 66.5 -149.5 66.5 q-95 0 -164.5 -54 q-69.5 -54 -101 -132.5 q-31.5 -78.5 -31.5 -168.5 ZM38 296 q0 117 46 215 q46 98 137 159 q91 61 209 61 q136 0 217 -90 q81 -90 81 -226 q0 -114 -45.5 -211.5 q-45.5 -97.5 -134.5 -158.5 q-89 -61 -204 -61 q-147 0 -226.5 81.5 q-79.5 81.5 -79.5 230.5 Z" /><glyph glyph-name="Oacute" unicode="ó" d="M499 898 l113 0 l-136 -143 l-70 0 l93 143 ZM133 296 q0 -108 53.5 -170.5 q53.5 -62.5 157.5 -62.5 q90 0 157.5 53 q67.5 53 99.5 131.5 q32 78.5 32 167.5 q0 103 -53.5 169.5 q-53.5 66.5 -149.5 66.5 q-95 0 -164.5 -54 q-69.5 -54 -101 -132.5 q-31.5 -78.5 -31.5 -168.5 ZM38 296 q0 117 46 215 q46 98 137 159 q91 61 209 61 q136 0 217 -90 q81 -90 81 -226 q0 -114 -45.5 -211.5 q-45.5 -97.5 -134.5 -158.5 q-89 -61 -204 -61 q-147 0 -226.5 81.5 q-79.5 81.5 -79.5 230.5 Z" /><glyph glyph-name="Ocircumflex" unicode="ô" d="M432 898 l86 0 l75 -143 l-74 0 l-51 93 l-87 -93 l-82 0 l133 143 ZM133 296 q0 -108 53.5 -170.5 q53.5 -62.5 157.5 -62.5 q90 0 157.5 53 q67.5 53 99.5 131.5 q32 78.5 32 167.5 q0 103 -53.5 169.5 q-53.5 66.5 -149.5 66.5 q-95 0 -164.5 -54 q-69.5 -54 -101 -132.5 q-31.5 -78.5 -31.5 -168.5 ZM38 296 q0 117 46 215 q46 98 137 159 q91 61 209 61 q136 0 217 -90 q81 -90 81 -226 q0 -114 -45.5 -211.5 q-45.5 -97.5 -134.5 -158.5 q-89 -61 -204 -61 q-147 0 -226.5 81.5 q-79.5 81.5 -79.5 230.5 Z" /><glyph glyph-name="Otilde" unicode="õ" d="M292 764 q10 30 20 50.5 q10 20.5 31 39.5 q21 19 48 19 q25 0 77 -25 q5 -2 14.5 -6.5 q9.5 -4.5 14 -6.5 q4.5 -2 13 -5 q8.5 -3 11.5 -3 q3 0 11 0 q15 0 25 6.5 q10 6.5 14 12.5 q4 6 12 22 l51 0 q-15 -49 -38 -79 q-23 -30 -64 -30 q-23 0 -75 24 q-52 24 -66 22 q-33 0 -47 -41 l-52 0 ZM133 296 q0 -108 53.5 -170.5 q53.5 -62.5 157.5 -62.5 q90 0 157.5 53 q67.5 53 99.5 131.5 q32 78.5 32 167.5 q0 103 -53.5 169.5 q-53.5 66.5 -149.5 66.5 q-95 0 -164.5 -54 q-69.5 -54 -101 -132.5 q-31.5 -78.5 -31.5 -168.5 ZM38 296 q0 117 46 215 q46 98 137 159 q91 61 209 61 q136 0 217 -90 q81 -90 81 -226 q0 -114 -45.5 -211.5 q-45.5 -97.5 -134.5 -158.5 q-89 -61 -204 -61 q-147 0 -226.5 81.5 q-79.5 81.5 -79.5 230.5 Z" /><glyph glyph-name="Odieresis" unicode="ö" d="M347 863 l89 0 l-21 -104 l-89 0 l21 104 ZM510 863 l89 0 l-21 -104 l-89 0 l21 104 ZM133 296 q0 -108 53.5 -170.5 q53.5 -62.5 157.5 -62.5 q90 0 157.5 53 q67.5 53 99.5 131.5 q32 78.5 32 167.5 q0 103 -53.5 169.5 q-53.5 66.5 -149.5 66.5 q-95 0 -164.5 -54 q-69.5 -54 -101 -132.5 q-31.5 -78.5 -31.5 -168.5 ZM38 296 q0 117 46 215 q46 98 137 159 q91 61 209 61 q136 0 217 -90 q81 -90 81 -226 q0 -114 -45.5 -211.5 q-45.5 -97.5 -134.5 -158.5 q-89 -61 -204 -61 q-147 0 -226.5 81.5 q-79.5 81.5 -79.5 230.5 Z" /><glyph glyph-name="multiply" unicode="×" d="M71 72 l182 182 l-181 180 l48 48 l181 -180 l180 180 l48 -48 l-180 -180 l181 -182 l-48 -48 l-181 182 l-182 -182 l-48 48 Z" /><glyph glyph-name="Oslash" unicode="ø" d="M181 135 q56 -72 163 -72 q90 0 157.5 53 q67.5 53 99.5 131.5 q32 78.5 32 167.5 q0 72 -27 126 l-425 -406 ZM583 579 q-56 72 -153 72 q-95 0 -164.5 -54 q-69.5 -54 -101 -132.5 q-31.5 -78.5 -31.5 -168.5 q0 -73 25 -123 l425 406 ZM88 106 q-50 77 -50 190 q0 117 46 215 q46 98 137 159 q91 61 209 61 q134 0 217 -91 l98 93 l29 -32 l-100 -95 q54 -82 54 -191 q0 -114 -45.5 -211.5 q-45.5 -97.5 -134.5 -158.5 q-89 -61 -204 -61 q-148 0 -229 87 l-3 0 l-95 -92 l-28 31 l99 96 Z" /><glyph glyph-name="Ugrave" unicode="ù" d="M504 755 l-67 0 l-101 143 l101 0 l67 -143 ZM639 286 q-23 -106 -36 -137 q-34 -84 -107.5 -124.5 q-73.5 -40.5 -170.5 -40.5 q-158 0 -224 79.5 q-66 79.5 -35 230.5 l89 420 l95 0 l-94 -444 q-47 -207 169 -207 q57 0 95.5 15 q38.5 15 62 48 q23.5 33 35.5 67.5 q12 34.5 25 92.5 l90 428 l95 0 l-89 -428 Z" /><glyph glyph-name="Uacute" unicode="ú" d="M490 898 l113 0 l-136 -143 l-70 0 l93 143 ZM639 286 q-23 -106 -36 -137 q-34 -84 -107.5 -124.5 q-73.5 -40.5 -170.5 -40.5 q-158 0 -224 79.5 q-66 79.5 -35 230.5 l89 420 l95 0 l-94 -444 q-47 -207 169 -207 q57 0 95.5 15 q38.5 15 62 48 q23.5 33 35.5 67.5 q12 34.5 25 92.5 l90 428 l95 0 l-89 -428 Z" /><glyph glyph-name="Ucircumflex" unicode="û" d="M423 898 l86 0 l75 -143 l-74 0 l-51 93 l-87 -93 l-82 0 l133 143 ZM639 286 q-23 -106 -36 -137 q-34 -84 -107.5 -124.5 q-73.5 -40.5 -170.5 -40.5 q-158 0 -224 79.5 q-66 79.5 -35 230.5 l89 420 l95 0 l-94 -444 q-47 -207 169 -207 q57 0 95.5 15 q38.5 15 62 48 q23.5 33 35.5 67.5 q12 34.5 25 92.5 l90 428 l95 0 l-89 -428 Z" /><glyph glyph-name="Udieresis" unicode="ü" d="M338 863 l89 0 l-21 -104 l-89 0 l21 104 ZM501 863 l89 0 l-21 -104 l-89 0 l21 104 ZM639 286 q-23 -106 -36 -137 q-34 -84 -107.5 -124.5 q-73.5 -40.5 -170.5 -40.5 q-158 0 -224 79.5 q-66 79.5 -35 230.5 l89 420 l95 0 l-94 -444 q-47 -207 169 -207 q57 0 95.5 15 q38.5 15 62 48 q23.5 33 35.5 67.5 q12 34.5 25 92.5 l90 428 l95 0 l-89 -428 Z" /><glyph glyph-name="Yacute" unicode="ý" d="M425 898 l113 0 l-136 -143 l-70 0 l93 143 ZM254 287 l-188 427 l101 0 l146 -346 l271 346 l110 0 l-346 -427 l-62 -287 l-93 0 l61 287 Z" /><glyph glyph-name="Thorn" unicode="þ" d="M156 258 l215 0 q76 0 117 39.5 q41 39.5 41 105.5 q0 62 -32.5 89.5 q-32.5 27.5 -84.5 27.5 l-201 0 l-55 -262 ZM156 714 l95 0 l-23 -114 l184 0 q212 0 212 -197 q0 -37 -13.5 -73.5 q-13.5 -36.5 -43 -72 q-29.5 -35.5 -85.5 -57.5 q-56 -22 -131 -22 l-212 0 l-37 -178 l-95 0 l149 714 Z" /><glyph glyph-name="germandbls" unicode="ß" d="M102 504 q21 109 73.5 168 q52.5 59 151.5 59 q80 0 133.5 -37 q53.5 -37 53.5 -113 q0 -71 -42.5 -123.5 q-42.5 -52.5 -106.5 -60.5 l0 -2 q54 -8 83.5 -49 q29.5 -41 29.5 -98 q0 -107 -71.5 -183 q-71.5 -76 -177.5 -76 q-43 0 -73 5 l14 71 q14 -2 15 -2 l15 0 q83 0 138 47.5 q55 47.5 55 130.5 q0 37 -12.5 61.5 q-12.5 24.5 -36 36.5 q-23.5 12 -50 15.5 q-26.5 3.5 -62.5 2.5 l15 70 q74 -4 128 31 q54 35 54 106 q0 42 -30.5 67 q-30.5 25 -67.5 25 q-36 0 -62.5 -13 q-26.5 -13 -42.5 -38.5 q-16 -25.5 -24.5 -49.5 q-8.5 -24 -15.5 -58 l-105 -497 l-85 0 l106 504 Z" /><glyph glyph-name="agrave" unicode="à" d="M368 588 l-67 0 l-101 143 l101 0 l67 -143 ZM53 361 q11 82 74 125 q63 43 150 43 q189 0 189 -132 q0 -30 -16 -94 l-33 -141 q-1 -7 -5 -22 q-4 -15 -6.5 -28 q-2.5 -13 -2.5 -24 q0 -32 25 -32 q8 0 27 7 l-13 -63 q-29 -11 -52 -11 q-35 0 -53 19 q-18 19 -14 53 l-2 2 q-55 -74 -173 -74 q-71 0 -114 34.5 q-43 34.5 -43 110.5 q0 42 16 72.5 q16 30.5 37.5 47 q21.5 16.5 59.5 27.5 q38 11 64.5 14.5 q26.5 3.5 70.5 7.5 q8 1 12 1 q33 3 49 5 q16 2 35 7.5 q19 5.5 27 13.5 q8 8 13.5 21.5 q5.5 13.5 5.5 34.5 q0 37 -31 52.5 q-31 15.5 -73 15.5 q-53 0 -92 -23 q-39 -23 -47 -70 l-85 0 ZM75 135 q0 -34 27 -53 q27 -19 66 -19 q101 0 145 68 q10 14 17.5 32 q7.5 18 11 30 q3.5 12 9 37 q5.5 25 7.5 34 l-2 0 q-22 -16 -73 -23.5 q-51 -7.5 -94 -11 q-43 -3.5 -78 -26.5 q-35 -23 -36 -68 Z" /><glyph glyph-name="aacute" unicode="á" d="M354 731 l113 0 l-136 -143 l-70 0 l93 143 ZM53 361 q11 82 74 125 q63 43 150 43 q189 0 189 -132 q0 -30 -16 -94 l-33 -141 q-1 -7 -5 -22 q-4 -15 -6.5 -28 q-2.5 -13 -2.5 -24 q0 -32 25 -32 q8 0 27 7 l-13 -63 q-29 -11 -52 -11 q-35 0 -53 19 q-18 19 -14 53 l-2 2 q-55 -74 -173 -74 q-71 0 -114 34.5 q-43 34.5 -43 110.5 q0 42 16 72.5 q16 30.5 37.5 47 q21.5 16.5 59.5 27.5 q38 11 64.5 14.5 q26.5 3.5 70.5 7.5 q8 1 12 1 q33 3 49 5 q16 2 35 7.5 q19 5.5 27 13.5 q8 8 13.5 21.5 q5.5 13.5 5.5 34.5 q0 37 -31 52.5 q-31 15.5 -73 15.5 q-53 0 -92 -23 q-39 -23 -47 -70 l-85 0 ZM75 135 q0 -34 27 -53 q27 -19 66 -19 q101 0 145 68 q10 14 17.5 32 q7.5 18 11 30 q3.5 12 9 37 q5.5 25 7.5 34 l-2 0 q-22 -16 -73 -23.5 q-51 -7.5 -94 -11 q-43 -3.5 -78 -26.5 q-35 -23 -36 -68 Z" /><glyph glyph-name="acircumflex" unicode="â" d="M287 731 l86 0 l75 -143 l-74 0 l-51 93 l-87 -93 l-82 0 l133 143 ZM53 361 q11 82 74 125 q63 43 150 43 q189 0 189 -132 q0 -30 -16 -94 l-33 -141 q-1 -7 -5 -22 q-4 -15 -6.5 -28 q-2.5 -13 -2.5 -24 q0 -32 25 -32 q8 0 27 7 l-13 -63 q-29 -11 -52 -11 q-35 0 -53 19 q-18 19 -14 53 l-2 2 q-55 -74 -173 -74 q-71 0 -114 34.5 q-43 34.5 -43 110.5 q0 42 16 72.5 q16 30.5 37.5 47 q21.5 16.5 59.5 27.5 q38 11 64.5 14.5 q26.5 3.5 70.5 7.5 q8 1 12 1 q33 3 49 5 q16 2 35 7.5 q19 5.5 27 13.5 q8 8 13.5 21.5 q5.5 13.5 5.5 34.5 q0 37 -31 52.5 q-31 15.5 -73 15.5 q-53 0 -92 -23 q-39 -23 -47 -70 l-85 0 ZM75 135 q0 -34 27 -53 q27 -19 66 -19 q101 0 145 68 q10 14 17.5 32 q7.5 18 11 30 q3.5 12 9 37 q5.5 25 7.5 34 l-2 0 q-22 -16 -73 -23.5 q-51 -7.5 -94 -11 q-43 -3.5 -78 -26.5 q-35 -23 -36 -68 Z" /><glyph glyph-name="atilde" unicode="ã" d="M147 597 q10 30 20 50.5 q10 20.5 31 39.5 q21 19 48 19 q25 0 77 -25 q5 -2 14.5 -6.5 q9.5 -4.5 14 -6.5 q4.5 -2 13 -5 q8.5 -3 11.5 -3 q3 0 11 0 q15 0 25 6.5 q10 6.5 14 12.5 q4 6 12 22 l51 0 q-15 -49 -38 -79 q-23 -30 -64 -30 q-23 0 -75 24 q-52 24 -66 22 q-33 0 -47 -41 l-52 0 ZM53 361 q11 82 74 125 q63 43 150 43 q189 0 189 -132 q0 -30 -16 -94 l-33 -141 q-1 -7 -5 -22 q-4 -15 -6.5 -28 q-2.5 -13 -2.5 -24 q0 -32 25 -32 q8 0 27 7 l-13 -63 q-29 -11 -52 -11 q-35 0 -53 19 q-18 19 -14 53 l-2 2 q-55 -74 -173 -74 q-71 0 -114 34.5 q-43 34.5 -43 110.5 q0 42 16 72.5 q16 30.5 37.5 47 q21.5 16.5 59.5 27.5 q38 11 64.5 14.5 q26.5 3.5 70.5 7.5 q8 1 12 1 q33 3 49 5 q16 2 35 7.5 q19 5.5 27 13.5 q8 8 13.5 21.5 q5.5 13.5 5.5 34.5 q0 37 -31 52.5 q-31 15.5 -73 15.5 q-53 0 -92 -23 q-39 -23 -47 -70 l-85 0 ZM75 135 q0 -34 27 -53 q27 -19 66 -19 q101 0 145 68 q10 14 17.5 32 q7.5 18 11 30 q3.5 12 9 37 q5.5 25 7.5 34 l-2 0 q-22 -16 -73 -23.5 q-51 -7.5 -94 -11 q-43 -3.5 -78 -26.5 q-35 -23 -36 -68 Z" /><glyph glyph-name="adieresis" unicode="ä" d="M202 696 l89 0 l-21 -104 l-89 0 l21 104 ZM365 696 l89 0 l-21 -104 l-89 0 l21 104 ZM53 361 q11 82 74 125 q63 43 150 43 q189 0 189 -132 q0 -30 -16 -94 l-33 -141 q-1 -7 -5 -22 q-4 -15 -6.5 -28 q-2.5 -13 -2.5 -24 q0 -32 25 -32 q8 0 27 7 l-13 -63 q-29 -11 -52 -11 q-35 0 -53 19 q-18 19 -14 53 l-2 2 q-55 -74 -173 -74 q-71 0 -114 34.5 q-43 34.5 -43 110.5 q0 42 16 72.5 q16 30.5 37.5 47 q21.5 16.5 59.5 27.5 q38 11 64.5 14.5 q26.5 3.5 70.5 7.5 q8 1 12 1 q33 3 49 5 q16 2 35 7.5 q19 5.5 27 13.5 q8 8 13.5 21.5 q5.5 13.5 5.5 34.5 q0 37 -31 52.5 q-31 15.5 -73 15.5 q-53 0 -92 -23 q-39 -23 -47 -70 l-85 0 ZM75 135 q0 -34 27 -53 q27 -19 66 -19 q101 0 145 68 q10 14 17.5 32 q7.5 18 11 30 q3.5 12 9 37 q5.5 25 7.5 34 l-2 0 q-22 -16 -73 -23.5 q-51 -7.5 -94 -11 q-43 -3.5 -78 -26.5 q-35 -23 -36 -68 Z" /><glyph glyph-name="aring" unicode="å" d="M233.5 582.5 q-33.5 33.5 -33.5 79.5 q0 46 33.5 79.5 q33.5 33.5 79.5 33.5 q46 0 79.5 -33.5 q33.5 -33.5 33.5 -79.5 q0 -46 -33.5 -79.5 q-33.5 -33.5 -79.5 -33.5 q-46 0 -79.5 33.5 ZM264.5 710.5 q-19.5 -19.5 -19.5 -48.5 q0 -29 19.5 -48.5 q19.5 -19.5 48.5 -19.5 q29 0 48.5 19.5 q19.5 19.5 19.5 48.5 q0 29 -19.5 48.5 q-19.5 19.5 -48.5 19.5 q-29 0 -48.5 -19.5 ZM53 361 q11 82 74 125 q63 43 150 43 q189 0 189 -132 q0 -30 -16 -94 l-33 -141 q-1 -7 -5 -22 q-4 -15 -6.5 -28 q-2.5 -13 -2.5 -24 q0 -32 25 -32 q8 0 27 7 l-13 -63 q-29 -11 -52 -11 q-35 0 -53 19 q-18 19 -14 53 l-2 2 q-55 -74 -173 -74 q-71 0 -114 34.5 q-43 34.5 -43 110.5 q0 42 16 72.5 q16 30.5 37.5 47 q21.5 16.5 59.5 27.5 q38 11 64.5 14.5 q26.5 3.5 70.5 7.5 q8 1 12 1 q33 3 49 5 q16 2 35 7.5 q19 5.5 27 13.5 q8 8 13.5 21.5 q5.5 13.5 5.5 34.5 q0 37 -31 52.5 q-31 15.5 -73 15.5 q-53 0 -92 -23 q-39 -23 -47 -70 l-85 0 ZM75 135 q0 -34 27 -53 q27 -19 66 -19 q101 0 145 68 q10 14 17.5 32 q7.5 18 11 30 q3.5 12 9 37 q5.5 25 7.5 34 l-2 0 q-22 -16 -73 -23.5 q-51 -7.5 -94 -11 q-43 -3.5 -78 -26.5 q-35 -23 -36 -68 Z" /><glyph glyph-name="ae" unicode="æ" d="M80 132 q0 -36 27.5 -52.5 q27.5 -16.5 68.5 -16.5 q80 0 125 45 q43 43 61 158 q-31 -15 -85.5 -23.5 q-54.5 -8.5 -94.5 -14 q-40 -5.5 -71 -29 q-31 -23.5 -31 -67.5 ZM64 362 q13 86 76 126.5 q63 40.5 155 40.5 q125 0 165 -81 q27 38 71.5 59.5 q44.5 21.5 93.5 21.5 q99 0 149 -52.5 q50 -52.5 50 -150.5 q0 -39 -14 -93 l-375 0 q-5 -27 -5 -52 q0 -50 32 -84 q32 -34 92 -34 q111 0 153 99 l87 0 q-9 -27 -28 -58 q-76 -115 -219 -115 q-145 0 -182 111 q-66 -111 -203 -111 q-166 0 -166 143 q0 136 196 158 q10 1 32 3.5 q22 2.5 32.5 3.5 q10.5 1 29.5 4 q19 3 28.5 6 q9.5 3 23.5 7.5 q14 4.5 21.5 11 q7.5 6.5 15 15 q7.5 8.5 10.5 19.5 q3 11 3 25 q0 69 -113 69 q-49 0 -83 -24 q-34 -24 -45 -68 l-83 0 ZM739 308 q9 62 -20.5 104 q-29.5 42 -97.5 42 q-66 0 -112 -42.5 q-46 -42.5 -60 -103.5 l290 0 Z" /><glyph glyph-name="ccedilla" unicode="ç" d="M416 353 q0 48 -29 74.5 q-29 26.5 -80 26.5 q-92 0 -146.5 -75 q-54.5 -75 -54.5 -168 q0 -66 30.5 -107 q30.5 -41 97.5 -41 q54 0 93.5 28.5 q39.5 28.5 57.5 77.5 l85 0 q-21 -82 -77.5 -128 q-56.5 -46 -140.5 -51 l-37 -42 l2 0 q9 4 26 4 q38 0 64.5 -18.5 q26.5 -18.5 26.5 -55.5 q0 -42 -36.5 -64.5 q-36.5 -22.5 -82.5 -22.5 q-51 0 -98 22 l18 43 q45 -15 64 -15 q60 0 60 30 q0 31 -46 31 q-27 0 -42 -8 l-19 30 l55 67 q-92 8 -139 65 q-47 57 -47 155 q0 131 77 224.5 q77 93.5 209 93.5 q90 0 140.5 -43.5 q50.5 -43.5 53.5 -132.5 l-85 0 Z" /><glyph glyph-name="egrave" unicode="è" d="M377 588 l-67 0 l-101 143 l101 0 l67 -143 ZM98 233 q-3 -23 -3 -45 q0 -57 39.5 -91 q39.5 -34 94.5 -34 q112 0 149 99 l85 0 q-20 -84 -83.5 -128.5 q-63.5 -44.5 -150.5 -44.5 q-61 0 -106 19 q-45 19 -68.5 51 q-23.5 32 -34 66 q-10.5 34 -10.5 71 q0 145 78.5 239 q78.5 94 187.5 94 q219 0 219 -229 q0 -27 -8 -67 l-389 0 ZM410 308 q4 61 -26 103.5 q-30 42.5 -95 42.5 q-71 0 -115 -40 q-44 -40 -64 -106 l300 0 Z" /><glyph glyph-name="eacute" unicode="é" d="M363 731 l113 0 l-136 -143 l-70 0 l93 143 ZM98 233 q-3 -23 -3 -45 q0 -57 39.5 -91 q39.5 -34 94.5 -34 q112 0 149 99 l85 0 q-20 -84 -83.5 -128.5 q-63.5 -44.5 -150.5 -44.5 q-61 0 -106 19 q-45 19 -68.5 51 q-23.5 32 -34 66 q-10.5 34 -10.5 71 q0 145 78.5 239 q78.5 94 187.5 94 q219 0 219 -229 q0 -27 -8 -67 l-389 0 ZM410 308 q4 61 -26 103.5 q-30 42.5 -95 42.5 q-71 0 -115 -40 q-44 -40 -64 -106 l300 0 Z" /><glyph glyph-name="ecircumflex" unicode="ê" d="M296 731 l86 0 l75 -143 l-74 0 l-51 93 l-87 -93 l-82 0 l133 143 ZM98 233 q-3 -23 -3 -45 q0 -57 39.5 -91 q39.5 -34 94.5 -34 q112 0 149 99 l85 0 q-20 -84 -83.5 -128.5 q-63.5 -44.5 -150.5 -44.5 q-61 0 -106 19 q-45 19 -68.5 51 q-23.5 32 -34 66 q-10.5 34 -10.5 71 q0 145 78.5 239 q78.5 94 187.5 94 q219 0 219 -229 q0 -27 -8 -67 l-389 0 ZM410 308 q4 61 -26 103.5 q-30 42.5 -95 42.5 q-71 0 -115 -40 q-44 -40 -64 -106 l300 0 Z" /><glyph glyph-name="edieresis" unicode="ë" d="M211 696 l89 0 l-21 -104 l-89 0 l21 104 ZM374 696 l89 0 l-21 -104 l-89 0 l21 104 ZM98 233 q-3 -23 -3 -45 q0 -57 39.5 -91 q39.5 -34 94.5 -34 q112 0 149 99 l85 0 q-20 -84 -83.5 -128.5 q-63.5 -44.5 -150.5 -44.5 q-61 0 -106 19 q-45 19 -68.5 51 q-23.5 32 -34 66 q-10.5 34 -10.5 71 q0 145 78.5 239 q78.5 94 187.5 94 q219 0 219 -229 q0 -27 -8 -67 l-389 0 ZM410 308 q4 61 -26 103.5 q-30 42.5 -95 42.5 q-71 0 -115 -40 q-44 -40 -64 -106 l300 0 Z" /><glyph glyph-name="igrave" unicode="ì" d="M244 588 l-67 0 l-101 143 l101 0 l67 -143 ZM-4 0 l107 517 l85 0 l-108 -517 l-84 0 Z" /><glyph glyph-name="iacute" unicode="í" d="M230 731 l113 0 l-136 -143 l-70 0 l93 143 ZM-4 0 l107 517 l85 0 l-108 -517 l-84 0 Z" /><glyph glyph-name="icircumflex" unicode="î" d="M153 731 l86 0 l75 -143 l-74 0 l-51 93 l-87 -93 l-82 0 l133 143 ZM-4 0 l107 517 l85 0 l-108 -517 l-84 0 Z" /><glyph glyph-name="idieresis" unicode="ï" d="M68 696 l89 0 l-21 -104 l-89 0 l21 104 ZM231 696 l89 0 l-21 -104 l-89 0 l21 104 ZM-4 0 l107 517 l85 0 l-108 -517 l-84 0 Z" /><glyph glyph-name="eth" unicode="ð" d="M508 696 l-108 -55 q66 -64 97.5 -129.5 q31.5 -65.5 31.5 -169.5 q0 -154 -76.5 -253.5 q-76.5 -99.5 -217.5 -99.5 q-100 0 -159 59 q-59 59 -59 151 q0 126 79 216.5 q79 90.5 210 90.5 q81 0 129 -53 l2 0 q-13 44 -46.5 88 q-33.5 44 -62.5 64 l-114 -57 l-42 40 l113 56 q-26 20 -59 42 l64 45 q47 -30 69 -50 l105 53 l44 -38 ZM300 431 q-62 0 -109 -38 q-47 -38 -68 -89.5 q-21 -51.5 -21 -103.5 q0 -62 37 -99.5 q37 -37.5 105 -37.5 q86 0 140.5 77 q54.5 77 54.5 159 q0 59 -36 95.5 q-36 36.5 -103 36.5 Z" /><glyph glyph-name="ntilde" unicode="ñ" d="M190 597 q10 30 20 50.5 q10 20.5 31 39.5 q21 19 48 19 q25 0 77 -25 q5 -2 14.5 -6.5 q9.5 -4.5 14 -6.5 q4.5 -2 13 -5 q8.5 -3 11.5 -3 q3 0 11 0 q15 0 25 6.5 q10 6.5 14 12.5 q4 6 12 22 l51 0 q-15 -49 -38 -79 q-23 -30 -64 -30 q-23 0 -75 24 q-52 24 -66 22 q-33 0 -47 -41 l-52 0 ZM104 517 l82 0 l-16 -78 l2 0 q65 90 184 90 q73 0 108.5 -32 q35.5 -32 35.5 -101 q0 -34 -15 -101 l-63 -295 l-85 0 l66 302 l12 80 q0 35 -25 53.5 q-25 18.5 -65 18.5 q-73 0 -128 -60 q-37 -32 -57 -108 l-60 -286 l-84 0 l108 517 Z" /><glyph glyph-name="ograve" unicode="ò" d="M395 588 l-67 0 l-101 143 l101 0 l67 -143 ZM17 204 q0 133 79 229 q79 96 210 96 q105 0 160 -54.5 q55 -54.5 55 -159.5 q0 -134 -78 -230 q-78 -96 -208 -96 q-100 0 -159 60 q-59 60 -59 155 ZM102 205 q0 -65 37 -103.5 q37 -38.5 105 -38.5 q58 0 104 41 q46 41 67 96 q21 55 21 108 q0 64 -34.5 105 q-34.5 41 -101.5 41 q-62 0 -108.5 -40.5 q-46.5 -40.5 -68 -96 q-21.5 -55.5 -21.5 -112.5 Z" /><glyph glyph-name="oacute" unicode="ó" d="M381 731 l113 0 l-136 -143 l-70 0 l93 143 ZM17 204 q0 133 79 229 q79 96 210 96 q105 0 160 -54.5 q55 -54.5 55 -159.5 q0 -134 -78 -230 q-78 -96 -208 -96 q-100 0 -159 60 q-59 60 -59 155 ZM102 205 q0 -65 37 -103.5 q37 -38.5 105 -38.5 q58 0 104 41 q46 41 67 96 q21 55 21 108 q0 64 -34.5 105 q-34.5 41 -101.5 41 q-62 0 -108.5 -40.5 q-46.5 -40.5 -68 -96 q-21.5 -55.5 -21.5 -112.5 Z" /><glyph glyph-name="ocircumflex" unicode="ô" d="M314 731 l86 0 l75 -143 l-74 0 l-51 93 l-87 -93 l-82 0 l133 143 ZM17 204 q0 133 79 229 q79 96 210 96 q105 0 160 -54.5 q55 -54.5 55 -159.5 q0 -134 -78 -230 q-78 -96 -208 -96 q-100 0 -159 60 q-59 60 -59 155 ZM102 205 q0 -65 37 -103.5 q37 -38.5 105 -38.5 q58 0 104 41 q46 41 67 96 q21 55 21 108 q0 64 -34.5 105 q-34.5 41 -101.5 41 q-62 0 -108.5 -40.5 q-46.5 -40.5 -68 -96 q-21.5 -55.5 -21.5 -112.5 Z" /><glyph glyph-name="otilde" unicode="õ" d="M174 597 q10 30 20 50.5 q10 20.5 31 39.5 q21 19 48 19 q25 0 77 -25 q5 -2 14.5 -6.5 q9.5 -4.5 14 -6.5 q4.5 -2 13 -5 q8.5 -3 11.5 -3 q3 0 11 0 q15 0 25 6.5 q10 6.5 14 12.5 q4 6 12 22 l51 0 q-15 -49 -38 -79 q-23 -30 -64 -30 q-23 0 -75 24 q-52 24 -66 22 q-33 0 -47 -41 l-52 0 ZM17 204 q0 133 79 229 q79 96 210 96 q105 0 160 -54.5 q55 -54.5 55 -159.5 q0 -134 -78 -230 q-78 -96 -208 -96 q-100 0 -159 60 q-59 60 -59 155 ZM102 205 q0 -65 37 -103.5 q37 -38.5 105 -38.5 q58 0 104 41 q46 41 67 96 q21 55 21 108 q0 64 -34.5 105 q-34.5 41 -101.5 41 q-62 0 -108.5 -40.5 q-46.5 -40.5 -68 -96 q-21.5 -55.5 -21.5 -112.5 Z" /><glyph glyph-name="odieresis" unicode="ö" d="M229 696 l89 0 l-21 -104 l-89 0 l21 104 ZM392 696 l89 0 l-21 -104 l-89 0 l21 104 ZM17 204 q0 133 79 229 q79 96 210 96 q105 0 160 -54.5 q55 -54.5 55 -159.5 q0 -134 -78 -230 q-78 -96 -208 -96 q-100 0 -159 60 q-59 60 -59 155 ZM102 205 q0 -65 37 -103.5 q37 -38.5 105 -38.5 q58 0 104 41 q46 41 67 96 q21 55 21 108 q0 64 -34.5 105 q-34.5 41 -101.5 41 q-62 0 -108.5 -40.5 q-46.5 -40.5 -68 -96 q-21.5 -55.5 -21.5 -112.5 Z" /><glyph glyph-name="divide" unicode="÷" d="M255.5 2.5 q-19.5 18.5 -19.5 44.5 q0 26 19 45 q19 19 45 19 q26 0 45 -19 q19 -19 19 -45 q0 -24 -19 -43.5 q-19 -19.5 -44 -19.5 q-26 0 -45.5 18.5 ZM255.5 414 q-19.5 19 -19.5 45 q0 26 19 45 q19 19 45 19 q26 0 45 -19 q19 -19 19 -45 q0 -24 -19 -44 q-19 -20 -44 -20 q-26 0 -45.5 19 ZM48 287 l504 0 l0 -68 l-504 0 l0 68 Z" /><glyph glyph-name="oslash" unicode="ø" d="M47 83 q-30 49 -30 121 q0 133 79 229 q79 96 210 96 q111 0 165 -63 l70 63 l25 -28 l-73 -66 q28 -46 28 -120 q0 -134 -78 -230 q-78 -96 -208 -96 q-111 0 -166 64 l-74 -67 l-24 27 l76 70 ZM408 409 q-38 45 -108 45 q-62 0 -108.5 -40.5 q-46.5 -40.5 -68 -96 q-21.5 -55.5 -21.5 -112.5 q0 -40 10 -63 l1 0 l295 267 ZM130 108 q38 -45 114 -45 q58 0 104 41 q46 41 67 96 q21 55 21 108 q0 35 -11 66 l-295 -266 Z" /><glyph glyph-name="ugrave" unicode="ù" d="M367 588 l-67 0 l-101 143 l101 0 l67 -143 ZM411 0 l-82 0 l16 78 l-2 0 q-64 -89 -184 -89 q-73 0 -108.5 32 q-35.5 32 -35.5 100 q0 34 15 101 l63 295 l85 0 l-66 -302 q-12 -46 -12 -80 q0 -35 25 -53.5 q25 -18.5 65 -18.5 q68 0 119 49.5 q51 49.5 66 118.5 l60 286 l85 0 l-109 -517 Z" /><glyph glyph-name="uacute" unicode="ú" d="M343 731 l113 0 l-136 -143 l-70 0 l93 143 ZM411 0 l-82 0 l16 78 l-2 0 q-64 -89 -184 -89 q-73 0 -108.5 32 q-35.5 32 -35.5 100 q0 34 15 101 l63 295 l85 0 l-66 -302 q-12 -46 -12 -80 q0 -35 25 -53.5 q25 -18.5 65 -18.5 q68 0 119 49.5 q51 49.5 66 118.5 l60 286 l85 0 l-109 -517 Z" /><glyph glyph-name="ucircumflex" unicode="û" d="M310 731 l86 0 l75 -143 l-74 0 l-51 93 l-87 -93 l-82 0 l133 143 ZM411 0 l-82 0 l16 78 l-2 0 q-64 -89 -184 -89 q-73 0 -108.5 32 q-35.5 32 -35.5 100 q0 34 15 101 l63 295 l85 0 l-66 -302 q-12 -46 -12 -80 q0 -35 25 -53.5 q25 -18.5 65 -18.5 q68 0 119 49.5 q51 49.5 66 118.5 l60 286 l85 0 l-109 -517 Z" /><glyph glyph-name="udieresis" unicode="ü" d="M191 696 l89 0 l-21 -104 l-89 0 l21 104 ZM354 696 l89 0 l-21 -104 l-89 0 l21 104 ZM411 0 l-82 0 l16 78 l-2 0 q-64 -89 -184 -89 q-73 0 -108.5 32 q-35.5 32 -35.5 100 q0 34 15 101 l63 295 l85 0 l-66 -302 q-12 -46 -12 -80 q0 -35 25 -53.5 q25 -18.5 65 -18.5 q68 0 119 49.5 q51 49.5 66 118.5 l60 286 l85 0 l-109 -517 Z" /><glyph glyph-name="yacute" unicode="ý" d="M312 731 l113 0 l-136 -143 l-70 0 l93 143 ZM163 -87 q-27 -42 -44 -63.5 q-17 -21.5 -49 -40 q-32 -18.5 -73 -18.5 q-33 0 -59 13 l15 69 q23 -14 48 -14 q46 0 80 56 l52 85 l-91 517 l91 0 l60 -411 l2 0 l217 411 l93 0 l-342 -604 Z" /><glyph glyph-name="thorn" unicode="þ" d="M142 714 l85 0 l-63 -271 l2 0 q37 48 77 67 q40 19 94 19 q97 0 150 -58 q53 -58 53 -154 q0 -81 -33 -154.5 q-33 -73.5 -100.5 -123.5 q-67.5 -50 -153.5 -50 q-56 0 -102 21 q-46 21 -59 69 l-2 0 l-55 -276 l-83 0 l190 911 ZM455 317 q0 137 -133 137 q-61 0 -109 -42.5 q-48 -42.5 -70.5 -100 q-22.5 -57.5 -22.5 -114.5 q0 -60 34.5 -97 q34.5 -37 95.5 -37 q94 0 149.5 79 q55.5 79 55.5 175 Z" /><glyph glyph-name="ydieresis" unicode="ÿ" d="M160 696 l89 0 l-21 -104 l-89 0 l21 104 ZM323 696 l89 0 l-21 -104 l-89 0 l21 104 ZM163 -87 q-27 -42 -44 -63.5 q-17 -21.5 -49 -40 q-32 -18.5 -73 -18.5 q-33 0 -59 13 l15 69 q23 -14 48 -14 q46 0 80 56 l52 85 l-91 517 l91 0 l60 -411 l2 0 l217 411 l93 0 l-342 -604 Z" /><glyph glyph-name="uni0100" unicode="&#x100;" d="M-67 0 l430 714 l105 0 l128 -714 l-105 0 l-33 215 l-302 0 l-125 -215 l-98 0 ZM203 295 l242 0 l-48 333 l-2 0 l-192 -333 ZM268 817 l12 55 l341 0 l-12 -55 l-341 0 Z" /><glyph glyph-name="uni0101" unicode="&#x101;" d="M476 68 l-14 -66 q-26 -14 -64 -14 q-72 0 -55 80 q-86 -80 -199 -80 q-76 0 -115.5 35.5 q-39.5 35.5 -24.5 109.5 q9 42 29 71.5 q20 29.5 51.5 46.5 q31.5 17 59.5 25.5 q28 8.5 69 15.5 q22 4 54.5 8.5 q32.5 4.5 50.5 8 q18 3.5 38.5 10 q20.5 6.5 31.5 18.5 q11 12 15 31 q11 50 -18 68 q-29 18 -79 18 q-124 0 -150 -98 l-85 0 q23 90 92 131.5 q69 41.5 164 41.5 q40 0 69.5 -5.5 q29.5 -5.5 56 -20 q26.5 -14.5 37 -44 q10.5 -29.5 1.5 -72.5 l-57 -266 q-4 -19 -5 -26.5 q-1 -7.5 -0.5 -16.5 q0.5 -9 5.5 -12 q5 -3 15 -3 q9 0 27 5 ZM362 180 l18 87 q-24 -15 -72.5 -22.5 q-48.5 -7.5 -89 -11.5 q-40.5 -4 -77 -27 q-36.5 -23 -46.5 -67 q-9 -39 16 -57.5 q25 -18.5 68 -18.5 q77 0 125 37 q48 37 58 80 ZM175 627 l11 55 l341 0 l-11 -55 l-341 0 Z" /><glyph glyph-name="uni0102" unicode="&#x102;" d="M-67 0 l430 714 l105 0 l128 -714 l-105 0 l-33 215 l-302 0 l-125 -215 l-98 0 ZM203 295 l242 0 l-48 333 l-2 0 l-192 -333 ZM304 919 l50 0 q6 -83 94 -83 q40 0 65.5 20 q25.5 20 51.5 63 l51 0 q-25 -65 -73.5 -101.5 q-48.5 -36.5 -113.5 -36.5 q-136 0 -125 138 Z" /><glyph glyph-name="uni0103" unicode="&#x103;" d="M476 68 l-14 -66 q-26 -14 -64 -14 q-72 0 -55 80 q-86 -80 -199 -80 q-76 0 -115.5 35.5 q-39.5 35.5 -24.5 109.5 q9 42 29 71.5 q20 29.5 51.5 46.5 q31.5 17 59.5 25.5 q28 8.5 69 15.5 q22 4 54.5 8.5 q32.5 4.5 50.5 8 q18 3.5 38.5 10 q20.5 6.5 31.5 18.5 q11 12 15 31 q11 50 -18 68 q-29 18 -79 18 q-124 0 -150 -98 l-85 0 q23 90 92 131.5 q69 41.5 164 41.5 q40 0 69.5 -5.5 q29.5 -5.5 56 -20 q26.5 -14.5 37 -44 q10.5 -29.5 1.5 -72.5 l-57 -266 q-4 -19 -5 -26.5 q-1 -7.5 -0.5 -16.5 q0.5 -9 5.5 -12 q5 -3 15 -3 q9 0 27 5 ZM362 180 l18 87 q-24 -15 -72.5 -22.5 q-48.5 -7.5 -89 -11.5 q-40.5 -4 -77 -27 q-36.5 -23 -46.5 -67 q-9 -39 16 -57.5 q25 -18.5 68 -18.5 q77 0 125 37 q48 37 58 80 ZM210 729 l50 0 q8 -83 95 -83 q40 0 65 20 q25 20 51 63 l51 0 q-25 -65 -73.5 -101.5 q-48.5 -36.5 -113.5 -36.5 q-133 0 -125 138 Z" /><glyph glyph-name="Aogonek" unicode="&#x104;" d="M375 714 l104 0 l129 -714 l-25 0 l-26 -17 q-34 -23 -64.5 -54 q-30.5 -31 -30.5 -51 q0 -37 37 -37 q40 0 72 24 l37 -12 q-29 -35 -57 -48.5 q-28 -13.5 -68 -13.5 q-88 0 -88 71 q0 52 78 109 q23 16 44 29 l-7 0 l-33 215 l-301 0 l-125 -215 l-105 0 l429 714 ZM219 295 l246 0 l-53 335 l-2 0 l-191 -335 Z" /><glyph glyph-name="aogonek" unicode="&#x105;" d="M138 361 l-85 0 q11 82 74 125 q63 43 150 43 q189 0 189 -132 q0 -30 -16 -94 l-33 -141 q-1 -7 -5 -22 q-4 -15 -6.5 -28 q-2.5 -13 -2.5 -24 q0 -32 25 -32 q3 0 13 2 l14 5 l-13 -63 q-9 -4 -26 -7 q-1 -1 -2 -1 l-13 -9 q-34 -23 -64.5 -54 q-30.5 -31 -30.5 -51 q0 -37 37 -37 q40 0 72 24 l37 -12 q-29 -35 -57 -48.5 q-28 -13.5 -68 -13.5 q-88 0 -88 71 q0 52 78 109 q17 12 37 25 q-9 4 -17 12 q-18 20 -14 53 l-2 2 q-55 -74 -173 -74 q-71 0 -114 34.5 q-43 34.5 -43 110.5 q0 42 16 72.5 q16 30.5 37.5 47 q21.5 16.5 59.5 27.5 q38 11 64.5 14.5 q26.5 3.5 70.5 7.5 q8 1 12 1 q33 3 49 5 q16 2 35 7.5 q19 5.5 27 13.5 q8 8 13.5 21.5 q5.5 13.5 5.5 34.5 q0 37 -31 52.5 q-31 15.5 -73 15.5 q-53 0 -92 -23 q-39 -23 -47 -70 ZM75 135 q0 -34 27 -53 q27 -19 66 -19 q101 0 145 68 q10 14 17.5 32 q7.5 18 11 30 q3.5 12 9 37 q5.5 25 7.5 34 l-2 0 q-22 -16 -73 -23.5 q-51 -7.5 -94 -11 q-43 -3.5 -78 -26.5 q-35 -23 -36 -68 Z" /><glyph glyph-name="Cacute" unicode="&#x106;" d="M565 241 l95 0 q-28 -123 -107.5 -190 q-79.5 -67 -208.5 -67 q-147 0 -226.5 81.5 q-79.5 81.5 -79.5 230.5 q0 117 46 215 q46 98 137 159 q91 61 209 61 q121 0 196.5 -64 q75.5 -64 75.5 -183 l-95 0 q0 82 -48 124.5 q-48 42.5 -129 42.5 q-95 0 -164.5 -54 q-69.5 -54 -101 -132.5 q-31.5 -78.5 -31.5 -168.5 q0 -108 53.5 -170.5 q53.5 -62.5 157.5 -62.5 q172 0 221 178 ZM469 898 l113 0 l-136 -143 l-70 0 l93 143 Z" /><glyph glyph-name="cacute" unicode="&#x107;" d="M501 353 l-85 0 q0 48 -29 74.5 q-29 26.5 -80 26.5 q-92 0 -146.5 -75 q-54.5 -75 -54.5 -168 q0 -66 30.5 -107 q30.5 -41 97.5 -41 q54 0 93.5 28.5 q39.5 28.5 57.5 77.5 l85 0 q-23 -88 -84 -134 q-61 -46 -152 -46 q-105 0 -159 57.5 q-54 57.5 -54 164.5 q0 131 77 224.5 q77 93.5 209 93.5 q90 0 140.5 -43.5 q50.5 -43.5 53.5 -132.5 ZM338 731 l113 0 l-136 -143 l-70 0 l93 143 Z" /><glyph glyph-name="uni0108" unicode="&#x108;" d="M58 355 q34 162 146.5 269 q112.5 107 271.5 107 q115 0 184 -61 q69 -61 61 -171 l-95 0 q0 74 -45.5 113 q-45.5 39 -122.5 39 q-120 0 -199 -83.5 q-79 -83.5 -105 -205.5 q-15 -84 -7 -150 q8 -66 56.5 -107.5 q48.5 -41.5 130.5 -41.5 q90 0 157.5 57.5 q67.5 57.5 92.5 148.5 l95 0 q-43 -136 -138.5 -211 q-95.5 -75 -231.5 -75 q-158 0 -222 104.5 q-64 104.5 -29 267.5 ZM336 779 l133 143 l93 0 l74 -143 l-84 0 l-49 96 l-90 -96 l-77 0 Z" /><glyph glyph-name="uni0109" unicode="&#x109;" d="M517 351 l-88 0 q1 49 -26 76 q-27 27 -80 27 q-86 0 -136 -57 q-50 -57 -68 -145 q-17 -79 9.5 -134 q26.5 -55 101.5 -55 q125 0 169 126 l87 0 q-74 -201 -271 -201 q-116 0 -163.5 72 q-47.5 72 -22.5 192 q25 122 105 199.5 q80 77.5 198 77.5 q93 0 143.5 -44.5 q50.5 -44.5 41.5 -133.5 ZM200 589 l133 143 l93 0 l74 -143 l-84 0 l-49 96 l-90 -96 l-77 0 Z" /><glyph glyph-name="uni010A" unicode="&#x10a;" d="M58 355 q34 162 146.5 269 q112.5 107 271.5 107 q115 0 184 -61 q69 -61 61 -171 l-95 0 q0 74 -45.5 113 q-45.5 39 -122.5 39 q-120 0 -199 -83.5 q-79 -83.5 -105 -205.5 q-15 -84 -7 -150 q8 -66 56.5 -107.5 q48.5 -41.5 130.5 -41.5 q90 0 157.5 57.5 q67.5 57.5 92.5 148.5 l95 0 q-43 -136 -138.5 -211 q-95.5 -75 -231.5 -75 q-158 0 -222 104.5 q-64 104.5 -29 267.5 ZM555 897 l-22 -104 l-90 0 l22 104 l90 0 Z" /><glyph glyph-name="uni010B" unicode="&#x10b;" d="M517 351 l-88 0 q1 49 -26 76 q-27 27 -80 27 q-86 0 -136 -57 q-50 -57 -68 -145 q-17 -79 9.5 -134 q26.5 -55 101.5 -55 q125 0 169 126 l87 0 q-74 -201 -271 -201 q-116 0 -163.5 72 q-47.5 72 -22.5 192 q25 122 105 199.5 q80 77.5 198 77.5 q93 0 143.5 -44.5 q50.5 -44.5 41.5 -133.5 ZM419 708 l-22 -104 l-90 0 l22 104 l90 0 Z" /><glyph glyph-name="Ccaron" unicode="&#x10c;" d="M58 355 q34 162 146.5 269 q112.5 107 271.5 107 q115 0 184 -61 q69 -61 61 -171 l-95 0 q0 74 -45.5 113 q-45.5 39 -122.5 39 q-120 0 -199 -83.5 q-79 -83.5 -105 -205.5 q-15 -84 -7 -150 q8 -66 56.5 -107.5 q48.5 -41.5 130.5 -41.5 q90 0 157.5 57.5 q67.5 57.5 92.5 148.5 l95 0 q-43 -136 -138.5 -211 q-95.5 -75 -231.5 -75 q-158 0 -222 104.5 q-64 104.5 -29 267.5 ZM665 922 l-133 -143 l-93 0 l-74 143 l84 0 l49 -96 l90 96 l77 0 Z" /><glyph glyph-name="ccaron" unicode="&#x10d;" d="M517 351 l-88 0 q1 49 -26 76 q-27 27 -80 27 q-86 0 -136 -57 q-50 -57 -68 -145 q-17 -79 9.5 -134 q26.5 -55 101.5 -55 q125 0 169 126 l87 0 q-74 -201 -271 -201 q-116 0 -163.5 72 q-47.5 72 -22.5 192 q25 122 105 199.5 q80 77.5 198 77.5 q93 0 143.5 -44.5 q50.5 -44.5 41.5 -133.5 ZM525 732 l-133 -143 l-93 0 l-74 143 l84 0 l49 -96 l90 96 l77 0 Z" /><glyph glyph-name="uni010E" unicode="&#x10e;" d="M18 0 l151 714 l245 0 q167 0 237 -85 q70 -85 34 -255 q-80 -374 -422 -374 l-245 0 ZM130 80 l158 0 q26 0 51 3.5 q25 3.5 65.5 20 q40.5 16.5 72.5 44.5 q32 28 63 83 q31 55 47 130 q28 134 -12.5 203.5 q-40.5 69.5 -167.5 69.5 l-160 0 l-117 -554 ZM600 922 l-133 -143 l-93 0 l-74 143 l84 0 l49 -96 l90 96 l77 0 Z" /><glyph glyph-name="uni010F" unicode="&#x10f;" d="M617 714 l-151 -714 l-85 0 l14 70 l-2 0 q-58 -82 -182 -82 q-114 0 -159.5 78 q-45.5 78 -20.5 194 q25 116 102.5 192.5 q77.5 76.5 190.5 76.5 q46 0 90 -19.5 q44 -19.5 60 -61.5 l2 0 l56 266 l85 0 ZM119 254 q-18 -78 12.5 -134.5 q30.5 -56.5 107.5 -56.5 q80 0 130.5 57 q50.5 57 68.5 138 q17 84 -11 140 q-28 56 -110 56 q-80 0 -130 -57.5 q-50 -57.5 -68 -142.5 ZM637 571 l56 143 l109 0 l-105 -143 l-60 0 Z" /><glyph glyph-name="uni0110" unicode="&#x110;" d="M18 0 l72 341 l-70 0 l14 64 l70 0 l65 309 l245 0 q167 0 237 -85 q70 -85 34 -255 q-80 -374 -422 -374 l-245 0 ZM247 634 l-48 -229 l214 0 l-14 -64 l-214 0 l-55 -261 l158 0 q26 0 51 3.5 q25 3.5 65.5 20 q40.5 16.5 72.5 44.5 q32 28 63 83 q31 55 47 130 q28 134 -12.5 203.5 q-40.5 69.5 -167.5 69.5 l-160 0 Z" /><glyph glyph-name="dcroat" unicode="&#x111;" d="M334 583 l12 53 l170 0 l16 78 l85 0 l-16 -78 l86 0 l-12 -53 l-86 0 l-123 -583 l-85 0 l14 70 l-2 0 q-58 -82 -182 -82 q-114 0 -159.5 78 q-45.5 78 -20.5 194 q25 116 102.5 192.5 q77.5 76.5 190.5 76.5 q46 0 90 -19.5 q44 -19.5 60 -61.5 l2 0 l28 135 l-170 0 ZM119 254 q-18 -78 12.5 -134.5 q30.5 -56.5 107.5 -56.5 q80 0 130.5 57 q50.5 57 68.5 138 q17 84 -11 140 q-28 56 -110 56 q-80 0 -130 -57.5 q-50 -57.5 -68 -142.5 Z" /><glyph glyph-name="uni0112" unicode="&#x112;" d="M18 0 l151 714 l493 0 l-17 -80 l-398 0 l-48 -227 l371 0 l-17 -80 l-371 0 l-52 -247 l401 0 l-17 -80 l-496 0 ZM262 817 l12 55 l341 0 l-12 -55 l-341 0 Z" /><glyph glyph-name="uni0113" unicode="&#x113;" d="M395 164 l84 0 q-35 -86 -102 -131 q-67 -45 -156 -45 q-119 0 -166 74.5 q-47 74.5 -24 197.5 q24 117 109 193 q85 76 191 76 q53 0 91 -19 q38 -19 57.5 -49 q19.5 -30 28.5 -70 q9 -40 6.5 -79.5 q-2.5 -39.5 -12.5 -78.5 l-387 0 q-17 -73 14 -121.5 q31 -48.5 111 -48.5 q112 0 155 101 ZM131 308 l297 0 q8 63 -23.5 104.5 q-31.5 41.5 -94.5 41.5 q-64 0 -113.5 -42 q-49.5 -42 -65.5 -104 ZM184 627 l11 55 l341 0 l-11 -55 l-341 0 Z" /><glyph glyph-name="uni0114" unicode="&#x114;" d="M18 0 l151 714 l493 0 l-17 -80 l-398 0 l-48 -227 l371 0 l-17 -80 l-371 0 l-52 -247 l401 0 l-17 -80 l-496 0 ZM298 919 l50 0 q6 -83 94 -83 q40 0 65.5 20 q25.5 20 51.5 63 l51 0 q-25 -65 -73.5 -101.5 q-48.5 -36.5 -113.5 -36.5 q-136 0 -125 138 Z" /><glyph glyph-name="uni0115" unicode="&#x115;" d="M395 164 l84 0 q-35 -86 -102 -131 q-67 -45 -156 -45 q-119 0 -166 74.5 q-47 74.5 -24 197.5 q24 117 109 193 q85 76 191 76 q53 0 91 -19 q38 -19 57.5 -49 q19.5 -30 28.5 -70 q9 -40 6.5 -79.5 q-2.5 -39.5 -12.5 -78.5 l-387 0 q-17 -73 14 -121.5 q31 -48.5 111 -48.5 q112 0 155 101 ZM131 308 l297 0 q8 63 -23.5 104.5 q-31.5 41.5 -94.5 41.5 q-64 0 -113.5 -42 q-49.5 -42 -65.5 -104 ZM219 729 l50 0 q8 -83 95 -83 q40 0 65 20 q25 20 51 63 l51 0 q-25 -65 -73.5 -101.5 q-48.5 -36.5 -113.5 -36.5 q-133 0 -125 138 Z" /><glyph glyph-name="uni0116" unicode="&#x116;" d="M18 0 l151 714 l493 0 l-17 -80 l-398 0 l-48 -227 l371 0 l-17 -80 l-371 0 l-52 -247 l401 0 l-17 -80 l-496 0 ZM494 897 l-22 -104 l-90 0 l22 104 l90 0 Z" /><glyph glyph-name="uni0117" unicode="&#x117;" d="M395 164 l84 0 q-35 -86 -102 -131 q-67 -45 -156 -45 q-119 0 -166 74.5 q-47 74.5 -24 197.5 q24 117 109 193 q85 76 191 76 q53 0 91 -19 q38 -19 57.5 -49 q19.5 -30 28.5 -70 q9 -40 6.5 -79.5 q-2.5 -39.5 -12.5 -78.5 l-387 0 q-17 -73 14 -121.5 q31 -48.5 111 -48.5 q112 0 155 101 ZM131 308 l297 0 q8 63 -23.5 104.5 q-31.5 41.5 -94.5 41.5 q-64 0 -113.5 -42 q-49.5 -42 -65.5 -104 ZM416 708 l-22 -104 l-90 0 l22 104 l90 0 Z" /><glyph glyph-name="Eogonek" unicode="&#x118;" d="M158 714 l492 0 l-16 -80 l-397 0 l-48 -227 l370 0 l-16 -80 l-371 0 l-52 -247 l402 0 l-19 -80 q-14 -6 -31 -17 q-34 -23 -64.5 -54 q-30.5 -31 -30.5 -51 q0 -37 37 -37 q40 0 72 24 l37 -12 q-29 -35 -57 -48.5 q-28 -13.5 -68 -13.5 q-88 0 -88 71 q0 52 78 109 q23 16 44 29 l-425 0 l151 714 Z" /><glyph glyph-name="eogonek" unicode="&#x119;" d="M487 233 l-389 0 q-3 -23 -3 -45 q0 -57 39.5 -91 q39.5 -34 94.5 -34 q112 0 149 99 l85 0 q-19 -83 -85 -130 q-33 -21 -66 -31 l-28 -18 q-34 -23 -64.5 -54 q-30.5 -31 -30.5 -51 q0 -37 37 -37 q40 0 72 24 l37 -12 q-29 -35 -57 -48.5 q-28 -13.5 -68 -13.5 q-88 0 -88 71 q0 52 78 109 l26 18 q-63 2 -104 19 q-112 53 -112 188 q0 145 78.5 239 q78.5 94 187.5 94 q219 0 219 -229 q0 -27 -8 -67 ZM110 308 l300 0 q4 61 -26 103.5 q-30 42.5 -95 42.5 q-71 0 -115 -40 q-44 -40 -64 -106 Z" /><glyph glyph-name="uni011A" unicode="&#x11a;" d="M18 0 l151 714 l493 0 l-17 -80 l-398 0 l-48 -227 l371 0 l-17 -80 l-371 0 l-52 -247 l401 0 l-17 -80 l-496 0 ZM604 922 l-133 -143 l-93 0 l-74 143 l84 0 l49 -96 l90 96 l77 0 Z" /><glyph glyph-name="uni011B" unicode="&#x11b;" d="M395 164 l84 0 q-35 -86 -102 -131 q-67 -45 -156 -45 q-119 0 -166 74.5 q-47 74.5 -24 197.5 q24 117 109 193 q85 76 191 76 q53 0 91 -19 q38 -19 57.5 -49 q19.5 -30 28.5 -70 q9 -40 6.5 -79.5 q-2.5 -39.5 -12.5 -78.5 l-387 0 q-17 -73 14 -121.5 q31 -48.5 111 -48.5 q112 0 155 101 ZM131 308 l297 0 q8 63 -23.5 104.5 q-31.5 41.5 -94.5 41.5 q-64 0 -113.5 -42 q-49.5 -42 -65.5 -104 ZM524 732 l-133 -143 l-93 0 l-74 143 l84 0 l49 -96 l90 96 l77 0 Z" /><glyph glyph-name="uni011C" unicode="&#x11c;" d="M55 343 q36 165 148.5 276.5 q112.5 111.5 274.5 111.5 q123 0 193 -58.5 q70 -58.5 64 -178.5 l-95 0 q2 78 -46.5 117.5 q-48.5 39.5 -132.5 39.5 q-121 0 -202.5 -88.5 q-81.5 -88.5 -107.5 -214.5 q-14 -56 -7 -107.5 q7 -51.5 28 -91 q21 -39.5 64 -63 q43 -23.5 100 -23.5 q108 0 185 66.5 q77 66.5 93 166.5 l-228 0 l17 80 l313 0 l-79 -376 l-60 0 l-7 89 q-102 -106 -251 -106 q-102 0 -170.5 51.5 q-68.5 51.5 -91 132.5 q-22.5 81 -2.5 176 ZM342 779 l133 143 l93 0 l74 -143 l-84 0 l-49 96 l-90 -96 l-77 0 Z" /><glyph glyph-name="uni011D" unicode="&#x11d;" d="M559 517 l-100 -473 q-27 -129 -99 -191.5 q-72 -62.5 -195 -62.5 q-84 0 -139.5 37.5 q-55.5 37.5 -42.5 114.5 l85 0 q-5 -29 13.5 -48.5 q18.5 -19.5 45.5 -27.5 q27 -8 57 -8 q80 0 129 52 q49 52 68 144 l7 34 l-2 0 q-31 -46 -79.5 -70 q-48.5 -24 -101.5 -24 q-110 0 -154 75 q-44 75 -21 187 q10 49 32.5 94.5 q22.5 45.5 57.5 87 q35 41.5 88.5 66.5 q53.5 25 118.5 25 q50 0 86 -22 q36 -22 50 -64 l1 0 l15 74 l80 0 ZM226 69 q78 0 128 58.5 q50 58.5 69 141.5 q16 77 -9 131 q-25 54 -99 54 q-78 0 -127 -53.5 q-49 -53.5 -66 -134.5 q-10 -35 -8.5 -70 q1.5 -35 11 -63.5 q9.5 -28.5 35.5 -46 q26 -17.5 66 -17.5 ZM202 589 l133 143 l93 0 l74 -143 l-84 0 l-49 96 l-90 -96 l-77 0 Z" /><glyph glyph-name="Gbreve" unicode="&#x11e;" d="M55 343 q36 165 148.5 276.5 q112.5 111.5 274.5 111.5 q123 0 193 -58.5 q70 -58.5 64 -178.5 l-95 0 q2 78 -46.5 117.5 q-48.5 39.5 -132.5 39.5 q-121 0 -202.5 -88.5 q-81.5 -88.5 -107.5 -214.5 q-14 -56 -7 -107.5 q7 -51.5 28 -91 q21 -39.5 64 -63 q43 -23.5 100 -23.5 q108 0 185 66.5 q77 66.5 93 166.5 l-228 0 l17 80 l313 0 l-79 -376 l-60 0 l-7 89 q-102 -106 -251 -106 q-102 0 -170.5 51.5 q-68.5 51.5 -91 132.5 q-22.5 81 -2.5 176 ZM365 919 l50 0 q6 -83 94 -83 q40 0 65.5 20 q25.5 20 51.5 63 l51 0 q-25 -65 -73.5 -101.5 q-48.5 -36.5 -113.5 -36.5 q-136 0 -125 138 Z" /><glyph glyph-name="gbreve" unicode="&#x11f;" d="M559 517 l-100 -473 q-27 -129 -99 -191.5 q-72 -62.5 -195 -62.5 q-84 0 -139.5 37.5 q-55.5 37.5 -42.5 114.5 l85 0 q-5 -29 13.5 -48.5 q18.5 -19.5 45.5 -27.5 q27 -8 57 -8 q80 0 129 52 q49 52 68 144 l7 34 l-2 0 q-31 -46 -79.5 -70 q-48.5 -24 -101.5 -24 q-110 0 -154 75 q-44 75 -21 187 q10 49 32.5 94.5 q22.5 45.5 57.5 87 q35 41.5 88.5 66.5 q53.5 25 118.5 25 q50 0 86 -22 q36 -22 50 -64 l1 0 l15 74 l80 0 ZM226 69 q78 0 128 58.5 q50 58.5 69 141.5 q16 77 -9 131 q-25 54 -99 54 q-78 0 -127 -53.5 q-49 -53.5 -66 -134.5 q-10 -35 -8.5 -70 q1.5 -35 11 -63.5 q9.5 -28.5 35.5 -46 q26 -17.5 66 -17.5 ZM224 729 l50 0 q8 -83 95 -83 q40 0 65 20 q25 20 51 63 l51 0 q-25 -65 -73.5 -101.5 q-48.5 -36.5 -113.5 -36.5 q-133 0 -125 138 Z" /><glyph glyph-name="uni0120" unicode="&#x120;" d="M55 343 q36 165 148.5 276.5 q112.5 111.5 274.5 111.5 q123 0 193 -58.5 q70 -58.5 64 -178.5 l-95 0 q2 78 -46.5 117.5 q-48.5 39.5 -132.5 39.5 q-121 0 -202.5 -88.5 q-81.5 -88.5 -107.5 -214.5 q-14 -56 -7 -107.5 q7 -51.5 28 -91 q21 -39.5 64 -63 q43 -23.5 100 -23.5 q108 0 185 66.5 q77 66.5 93 166.5 l-228 0 l17 80 l313 0 l-79 -376 l-60 0 l-7 89 q-102 -106 -251 -106 q-102 0 -170.5 51.5 q-68.5 51.5 -91 132.5 q-22.5 81 -2.5 176 ZM560 897 l-22 -104 l-90 0 l22 104 l90 0 Z" /><glyph glyph-name="uni0121" unicode="&#x121;" d="M559 517 l-100 -473 q-27 -129 -99 -191.5 q-72 -62.5 -195 -62.5 q-84 0 -139.5 37.5 q-55.5 37.5 -42.5 114.5 l85 0 q-5 -29 13.5 -48.5 q18.5 -19.5 45.5 -27.5 q27 -8 57 -8 q80 0 129 52 q49 52 68 144 l7 34 l-2 0 q-31 -46 -79.5 -70 q-48.5 -24 -101.5 -24 q-110 0 -154 75 q-44 75 -21 187 q10 49 32.5 94.5 q22.5 45.5 57.5 87 q35 41.5 88.5 66.5 q53.5 25 118.5 25 q50 0 86 -22 q36 -22 50 -64 l1 0 l15 74 l80 0 ZM226 69 q78 0 128 58.5 q50 58.5 69 141.5 q16 77 -9 131 q-25 54 -99 54 q-78 0 -127 -53.5 q-49 -53.5 -66 -134.5 q-10 -35 -8.5 -70 q1.5 -35 11 -63.5 q9.5 -28.5 35.5 -46 q26 -17.5 66 -17.5 ZM421 708 l-22 -104 l-90 0 l22 104 l90 0 Z" /><glyph glyph-name="uni0122" unicode="&#x122;" d="M55 343 q36 165 148.5 276.5 q112.5 111.5 274.5 111.5 q123 0 193 -58.5 q70 -58.5 64 -178.5 l-95 0 q2 78 -46.5 117.5 q-48.5 39.5 -132.5 39.5 q-121 0 -202.5 -88.5 q-81.5 -88.5 -107.5 -214.5 q-14 -56 -7 -107.5 q7 -51.5 28 -91 q21 -39.5 64 -63 q43 -23.5 100 -23.5 q108 0 185 66.5 q77 66.5 93 166.5 l-228 0 l17 80 l313 0 l-79 -376 l-60 0 l-7 89 q-102 -106 -251 -106 q-102 0 -170.5 51.5 q-68.5 51.5 -91 132.5 q-22.5 81 -2.5 176 ZM231 -138 l19 88 l111 0 l-16 -77 q-19 -83 -117 -83 l7 35 q20 5 31 12 q11 7 13.5 12 q2.5 5 3.5 13 l-52 0 Z" /><glyph glyph-name="uni0123" unicode="&#x123;" d="M559 517 l-100 -473 q-27 -129 -99 -191.5 q-72 -62.5 -195 -62.5 q-84 0 -139.5 37.5 q-55.5 37.5 -42.5 114.5 l85 0 q-5 -29 13.5 -48.5 q18.5 -19.5 45.5 -27.5 q27 -8 57 -8 q80 0 129 52 q49 52 68 144 l7 34 l-2 0 q-31 -46 -79.5 -70 q-48.5 -24 -101.5 -24 q-110 0 -154 75 q-44 75 -21 187 q10 49 32.5 94.5 q22.5 45.5 57.5 87 q35 41.5 88.5 66.5 q53.5 25 118.5 25 q50 0 86 -22 q36 -22 50 -64 l1 0 l15 74 l80 0 ZM226 69 q78 0 128 58.5 q50 58.5 69 141.5 q16 77 -9 131 q-25 54 -99 54 q-78 0 -127 -53.5 q-49 -53.5 -66 -134.5 q-10 -35 -8.5 -70 q1.5 -35 11 -63.5 q9.5 -28.5 35.5 -46 q26 -17.5 66 -17.5 ZM432 714 l-18 -88 l-111 0 l16 77 q17 83 117 83 l-8 -35 q-20 -5 -31 -12.5 q-11 -7.5 -13 -11.5 q-2 -4 -4 -13 l52 0 Z" /><glyph glyph-name="uni0124" unicode="&#x124;" d="M18 0 l151 714 l95 0 l-65 -307 l376 0 l65 307 l95 0 l-151 -714 l-95 0 l69 327 l-376 0 l-69 -327 l-95 0 ZM314 779 l133 143 l93 0 l74 -143 l-84 0 l-49 96 l-90 -96 l-77 0 Z" /><glyph glyph-name="uni0125" unicode="&#x125;" d="M4 0 l151 714 l85 0 l-58 -273 l2 0 q28 44 79.5 66 q51.5 22 102.5 22 q179 0 138 -189 l-72 -340 l-85 0 l74 350 q10 48 -12 76 q-22 28 -71 28 q-75 0 -123.5 -44.5 q-48.5 -44.5 -63.5 -117.5 l-62 -292 l-85 0 ZM225 779 l133 143 l93 0 l74 -143 l-84 0 l-49 96 l-90 -96 l-77 0 Z" /><glyph glyph-name="uni0126" unicode="&#x126;" d="M18 0 l151 714 l95 0 l-30 -144 l376 0 l30 144 l95 0 l-151 -714 l-95 0 l65 306 l-376 0 l-65 -306 l-95 0 ZM194 384 l376 0 l27 128 l-376 0 l-27 -128 Z" /><glyph glyph-name="uni0127" unicode="&#x127;" d="M132 583 l-86 0 l12 53 l86 0 l16 78 l85 0 l-16 -78 l170 0 l-12 -53 l-170 0 l-30 -142 l2 0 q28 44 79.5 66 q51.5 22 102.5 22 q179 0 138 -189 l-72 -340 l-85 0 l74 350 q10 48 -12 76 q-22 28 -71 28 q-75 0 -123.5 -44.5 q-48.5 -44.5 -63.5 -117.5 l-62 -292 l-85 0 l123 583 Z" /><glyph glyph-name="uni0128" unicode="&#x128;" d="M22 0 l151 714 l95 0 l-151 -714 l-95 0 ZM384 907 l52 0 q-15 -44 -49 -79 q-32 -32 -75 -32 q-29 0 -71 20 q-49 19 -62 19 q-19 0 -34 -12 q-9 -7 -24 -30 l-52 0 q45 110 129 110 q28 0 69.5 -20 q41.5 -20 61.5 -20 q34 0 55 44 Z" /><glyph glyph-name="uni0129" unicode="&#x129;" d="M94 0 l-85 0 l109 517 l85 0 l-109 -517 ZM325 717 l52 0 q-15 -44 -49 -79 q-32 -32 -76 -32 q-32 0 -70 20 q-49 19 -62 19 q-19 0 -34 -12 q-9 -7 -24 -30 l-52 0 q45 110 129 110 q28 0 69.5 -20 q41.5 -20 61.5 -20 q31 0 55 44 Z" /><glyph glyph-name="uni012A" unicode="&#x12a;" d="M22 0 l151 714 l95 0 l-151 -714 l-95 0 ZM73 817 l12 55 l341 0 l-12 -55 l-341 0 Z" /><glyph glyph-name="uni012B" unicode="&#x12b;" d="M94 0 l-85 0 l109 517 l85 0 l-109 -517 ZM15 627 l11 55 l341 0 l-11 -55 l-341 0 Z" /><glyph glyph-name="uni012C" unicode="&#x12c;" d="M22 0 l151 714 l95 0 l-151 -714 l-95 0 ZM109 919 l50 0 q6 -83 94 -83 q40 0 65.5 20 q25.5 20 51.5 63 l51 0 q-25 -65 -73.5 -101.5 q-48.5 -36.5 -113.5 -36.5 q-136 0 -125 138 Z" /><glyph glyph-name="uni012D" unicode="&#x12d;" d="M94 0 l-85 0 l109 517 l85 0 l-109 -517 ZM50 729 l50 0 q8 -83 95 -83 q40 0 65 20 q25 20 51 63 l51 0 q-25 -65 -73.5 -101.5 q-48.5 -36.5 -113.5 -36.5 q-133 0 -125 138 Z" /><glyph glyph-name="uni012E" unicode="&#x12e;" d="M22 0 l151 714 l95 0 l-151 -714 q-53 -44 -74 -68.5 q-21 -24.5 -27 -49.5 q-8 -42 25 -42 q33 0 63 30 l24 -18 q-48 -62 -104 -62 q-39 0 -60 19 q-21 19 -13 59 q19 70 130 132 l-59 0 Z" /><glyph glyph-name="uni012F" unicode="&#x12f;" d="M245 714 l-22 -104 l-85 0 l22 104 l85 0 ZM58 0 l-49 0 l109 517 l85 0 l-109 -517 q-53 -44 -74 -68.5 q-21 -24.5 -27 -49.5 q-8 -42 25 -42 q33 0 63 30 l24 -18 q-48 -62 -104 -62 q-39 0 -59.5 19 q-20.5 19 -12.5 59 q19 71 129 132 Z" /><glyph glyph-name="Idotaccent" unicode="&#x130;" d="M22 0 l151 714 l95 0 l-151 -714 l-95 0 ZM305 897 l-22 -104 l-90 0 l22 104 l90 0 Z" /><glyph glyph-name="dotlessi" unicode="&#x131;" d="M-4 0 l107 517 l85 0 l-108 -517 l-84 0 Z" /><glyph glyph-name="uni0132" unicode="&#x132;" d="M22 0 l151 714 l95 0 l-151 -714 l-95 0 ZM253 191 l9 44 l95 0 l-6 -30 q-16 -68 2 -105 q18 -37 83 -37 q62 0 95 33 q33 33 46 96 l111 522 l95 0 l-114 -536 q-18 -83 -79.5 -139 q-61.5 -56 -172.5 -56 q-100 0 -143 53.5 q-43 53.5 -21 154.5 Z" /><glyph glyph-name="uni0133" unicode="&#x133;" d="M245 714 l-22 -104 l-85 0 l22 104 l85 0 ZM9 0 l109 517 l85 0 l-109 -517 l-85 0 ZM461 714 l-22 -104 l-85 0 l22 104 l85 0 ZM419 517 l-124 -583 q-27 -132 -152 -132 q-26 0 -43 4 l16 73 q14 -2 16 -2 l18 0 q28 0 41.5 15.5 q13.5 15.5 21.5 55.5 l121 569 l85 0 Z" /><glyph glyph-name="uni0134" unicode="&#x134;" d="M2 191 l9 44 l95 0 l-6 -30 q-16 -68 2 -105 q18 -37 83 -37 q62 0 95 33 q33 33 46 96 l111 522 l95 0 l-114 -536 q-18 -83 -79.5 -139 q-61.5 -56 -172.5 -56 q-100 0 -143 53.5 q-43 53.5 -21 154.5 ZM346 779 l133 143 l93 0 l74 -143 l-84 0 l-49 96 l-90 -96 l-77 0 Z" /><glyph glyph-name="uni0135" unicode="&#x135;" d="M203 517 l-124 -583 q-27 -132 -151 -132 q-26 0 -43 4 l16 73 q14 -2 16 -2 l18 0 q27 0 40.5 15.5 q13.5 15.5 21.5 55.5 l121 569 l85 0 ZM26 589 l133 143 l93 0 l74 -143 l-84 0 l-49 96 l-90 -96 l-77 0 Z" /><glyph glyph-name="uni0136" unicode="&#x136;" d="M18 0 l151 714 l95 0 l-75 -356 l437 356 l123 0 l-362 -288 l223 -426 l-120 0 l-182 361 l-142 -111 l-53 -250 l-95 0 ZM200 -138 l19 88 l111 0 l-16 -77 q-19 -83 -117 -83 l7 35 q20 5 31 12 q11 7 13.5 12 q2.5 5 3.5 13 l-52 0 Z" /><glyph glyph-name="uni0137" unicode="&#x137;" d="M9 0 l151 714 l85 0 l-90 -423 l284 226 l114 0 l-245 -188 l151 -329 l-108 0 l-120 270 l-96 -74 l-41 -196 l-85 0 ZM130 -138 l19 88 l111 0 l-16 -77 q-19 -83 -117 -83 l7 35 q20 5 31 12 q11 7 13.5 12 q2.5 5 3.5 13 l-52 0 Z" /><glyph glyph-name="uni0138" unicode="&#x138;" d="M4 0 l109 517 l85 0 l-48 -226 l284 226 l114 0 l-245 -188 l151 -329 l-108 0 l-120 270 l-96 -74 l-41 -196 l-85 0 Z" /><glyph glyph-name="uni0139" unicode="&#x139;" d="M18 0 l151 714 l95 0 l-134 -634 l378 0 l-17 -80 l-473 0 ZM198 779 l116 143 l109 0 l-161 -143 l-64 0 Z" /><glyph glyph-name="uni013A" unicode="&#x13a;" d="M9 0 l151 714 l85 0 l-151 -714 l-85 0 ZM170 779 l116 143 l109 0 l-161 -143 l-64 0 Z" /><glyph glyph-name="uni013B" unicode="&#x13b;" d="M18 0 l151 714 l95 0 l-134 -634 l378 0 l-17 -80 l-473 0 ZM163 -138 l19 88 l111 0 l-16 -77 q-19 -83 -117 -83 l7 35 q20 5 31 12 q11 7 13.5 12 q2.5 5 3.5 13 l-52 0 Z" /><glyph glyph-name="uni013C" unicode="&#x13c;" d="M9 0 l151 714 l85 0 l-151 -714 l-85 0 ZM-34 -138 l19 88 l111 0 l-16 -77 q-19 -83 -117 -83 l7 35 q20 5 31 12 q11 7 13.5 12 q2.5 5 3.5 13 l-52 0 Z" /><glyph glyph-name="uni013D" unicode="&#x13d;" d="M18 0 l151 714 l95 0 l-134 -634 l378 0 l-17 -80 l-473 0 ZM337 571 l56 143 l109 0 l-105 -143 l-60 0 Z" /><glyph glyph-name="uni013E" unicode="&#x13e;" d="M9 0 l151 714 l85 0 l-151 -714 l-85 0 ZM254 487 l52 227 l70 0 l-54 -227 l-68 0 Z" /><glyph glyph-name="uni013F" unicode="&#x13f;" d="M18 0 l151 714 l95 0 l-134 -634 l378 0 l-17 -80 l-473 0 ZM438 441 l-22 -104 l-90 0 l22 104 l90 0 Z" /><glyph glyph-name="uni0140" unicode="&#x140;" d="M9 0 l151 714 l85 0 l-151 -714 l-85 0 ZM348 441 l-22 -104 l-90 0 l22 104 l90 0 Z" /><glyph glyph-name="Lslash" unicode="&#x141;" d="M57 235 l-77 -48 l17 82 l77 48 l83 397 l95 0 l-69 -330 l221 136 l-17 -83 l-221 -135 l-46 -222 l377 0 l-17 -80 l-473 0 l50 235 Z" /><glyph glyph-name="lslash" unicode="&#x142;" d="M230 714 l-53 -232 l2 -2 l66 52 l-10 -78 l-74 -57 l-81 -397 l-84 0 l67 322 l-69 -54 l9 77 l74 57 l68 312 l85 0 Z" /><glyph glyph-name="Nacute" unicode="&#x143;" d="M158 714 l102 0 l255 -591 l2 0 l119 591 l92 0 l-151 -714 l-102 0 l-253 587 l-2 0 l-121 -587 l-92 0 l151 714 ZM481 898 l113 0 l-136 -143 l-70 0 l93 143 Z" /><glyph glyph-name="nacute" unicode="&#x144;" d="M104 517 l82 0 l-16 -78 l2 0 q65 90 184 90 q73 0 108.5 -32 q35.5 -32 35.5 -101 q0 -34 -15 -101 l-63 -295 l-85 0 l66 302 l12 80 q0 35 -25 53.5 q-25 18.5 -65 18.5 q-73 0 -128 -60 q-37 -32 -57 -108 l-60 -286 l-84 0 l108 517 ZM358 731 l113 0 l-136 -143 l-70 0 l93 143 Z" /><glyph glyph-name="uni0145" unicode="&#x145;" d="M17 0 l151 714 l101 0 l253 -579 l2 0 l123 579 l90 0 l-151 -714 l-104 0 l-252 573 l-2 0 l-121 -573 l-90 0 ZM213 -138 l19 88 l111 0 l-16 -77 q-19 -83 -117 -83 l7 35 q20 5 31 12 q11 7 13.5 12 q2.5 5 3.5 13 l-52 0 Z" /><glyph glyph-name="uni0146" unicode="&#x146;" d="M4 0 l109 517 l80 0 l-17 -82 l2 0 q75 94 188 94 q179 0 138 -189 l-72 -340 l-85 0 l74 350 q10 48 -12 76 q-22 28 -71 28 q-75 0 -123.5 -44.5 q-48.5 -44.5 -63.5 -117.5 l-62 -292 l-85 0 ZM131 -138 l19 88 l111 0 l-16 -77 q-19 -83 -117 -83 l7 35 q20 5 31 12 q11 7 13.5 12 q2.5 5 3.5 13 l-52 0 Z" /><glyph glyph-name="uni0147" unicode="&#x147;" d="M17 0 l151 714 l101 0 l253 -579 l2 0 l123 579 l90 0 l-151 -714 l-104 0 l-252 573 l-2 0 l-121 -573 l-90 0 ZM644 922 l-133 -143 l-93 0 l-74 143 l84 0 l49 -96 l90 96 l77 0 Z" /><glyph glyph-name="uni0148" unicode="&#x148;" d="M4 0 l109 517 l80 0 l-17 -82 l2 0 q75 94 188 94 q179 0 138 -189 l-72 -340 l-85 0 l74 350 q10 48 -12 76 q-22 28 -71 28 q-75 0 -123.5 -44.5 q-48.5 -44.5 -63.5 -117.5 l-62 -292 l-85 0 ZM524 732 l-133 -143 l-93 0 l-74 143 l84 0 l49 -96 l90 96 l77 0 Z" /><glyph glyph-name="uni0149" unicode="&#x149;" d="M111 0 l109 517 l80 0 l-17 -82 l2 0 q75 94 188 94 q179 0 138 -189 l-72 -340 l-85 0 l74 350 q10 48 -12 76 q-22 28 -71 28 q-75 0 -123.5 -44.5 q-48.5 -44.5 -63.5 -117.5 l-62 -292 l-85 0 ZM86 603 l23 111 l111 0 l-23 -111 q-13 -63 -50.5 -105 q-37.5 -42 -91.5 -42 l11 50 q56 0 79 97 l-59 0 Z" /><glyph glyph-name="uni014A" unicode="&#x14a;" d="M490 -25 l2 8 l-262 590 l-2 0 l-121 -573 l-90 0 l151 714 l101 0 l253 -579 l2 0 l123 579 l90 0 l-160 -754 q-18 -84 -67 -121 q-49 -37 -128 -37 q-47 0 -74 9 l17 78 q35 -7 64 -7 q46 0 67.5 19 q21.5 19 33.5 74 Z" /><glyph glyph-name="uni014B" unicode="&#x14b;" d="M4 0 l109 517 l80 0 l-17 -82 l2 0 q75 94 188 94 q179 0 138 -189 l-83 -390 q-32 -148 -176 -148 q-36 0 -63 7 l15 73 q32 -5 55 -5 q39 0 57.5 18.5 q18.5 18.5 29.5 68.5 l82 386 q10 48 -12 76 q-22 28 -71 28 q-75 0 -123.5 -44.5 q-48.5 -44.5 -63.5 -117.5 l-62 -292 l-85 0 Z" /><glyph glyph-name="uni014C" unicode="&#x14c;" d="M53 357 q16 74 52.5 140.5 q36.5 66.5 89 119 q52.5 52.5 125.5 83.5 q73 31 155 31 q66 0 118.5 -20 q52.5 -20 84.5 -55.5 q32 -35.5 51 -83 q19 -47.5 19 -102 q0 -54.5 -11 -113.5 q-21 -100 -76 -183.5 q-55 -83.5 -145.5 -137 q-90.5 -53.5 -199.5 -53.5 q-83 0 -143 31 q-60 31 -89 83 q-29 52 -39 119.5 q-10 67.5 8 140.5 ZM148 357 q-13 -54 -7.5 -106.5 q5.5 -52.5 24 -94.5 q18.5 -42 62 -67.5 q43.5 -25.5 106.5 -25.5 q63 0 117.5 25.5 q54.5 25.5 92 68 q37.5 42.5 63 93.5 q25.5 51 36.5 107 q8 44 9.5 86 q1.5 42 -11 79.5 q-12.5 37.5 -34 66 q-21.5 28.5 -60 45.5 q-38.5 17 -88.5 17 q-122 0 -202.5 -86.5 q-80.5 -86.5 -107.5 -207.5 ZM324 817 l12 55 l341 0 l-12 -55 l-341 0 Z" /><glyph glyph-name="uni014D" unicode="&#x14d;" d="M55 64 q-50 76 -25 194 q25 118 108 194.5 q83 76.5 201 76.5 q119 0 168.5 -76 q49.5 -76 24.5 -195 q-25 -118 -107.5 -194 q-82.5 -76 -200.5 -76 q-119 0 -169 76 ZM197 401.5 q-57 -52.5 -77 -143.5 q-20 -91 15.5 -143 q35.5 -52 104.5 -52 q70 0 126 52 q56 52 76 143 q20 91 -15 143.5 q-35 52.5 -104 52.5 q-69 0 -126 -52.5 ZM191 627 l11 55 l341 0 l-11 -55 l-341 0 Z" /><glyph glyph-name="uni014E" unicode="&#x14e;" d="M53 357 q16 74 52.5 140.5 q36.5 66.5 89 119 q52.5 52.5 125.5 83.5 q73 31 155 31 q66 0 118.5 -20 q52.5 -20 84.5 -55.5 q32 -35.5 51 -83 q19 -47.5 19 -102 q0 -54.5 -11 -113.5 q-21 -100 -76 -183.5 q-55 -83.5 -145.5 -137 q-90.5 -53.5 -199.5 -53.5 q-83 0 -143 31 q-60 31 -89 83 q-29 52 -39 119.5 q-10 67.5 8 140.5 ZM148 357 q-13 -54 -7.5 -106.5 q5.5 -52.5 24 -94.5 q18.5 -42 62 -67.5 q43.5 -25.5 106.5 -25.5 q63 0 117.5 25.5 q54.5 25.5 92 68 q37.5 42.5 63 93.5 q25.5 51 36.5 107 q8 44 9.5 86 q1.5 42 -11 79.5 q-12.5 37.5 -34 66 q-21.5 28.5 -60 45.5 q-38.5 17 -88.5 17 q-122 0 -202.5 -86.5 q-80.5 -86.5 -107.5 -207.5 ZM360 919 l50 0 q6 -83 94 -83 q40 0 65.5 20 q25.5 20 51.5 63 l51 0 q-25 -65 -73.5 -101.5 q-48.5 -36.5 -113.5 -36.5 q-136 0 -125 138 Z" /><glyph glyph-name="uni014F" unicode="&#x14f;" d="M55 64 q-50 76 -25 194 q25 118 108 194.5 q83 76.5 201 76.5 q119 0 168.5 -76 q49.5 -76 24.5 -195 q-25 -118 -107.5 -194 q-82.5 -76 -200.5 -76 q-119 0 -169 76 ZM197 401.5 q-57 -52.5 -77 -143.5 q-20 -91 15.5 -143 q35.5 -52 104.5 -52 q70 0 126 52 q56 52 76 143 q20 91 -15 143.5 q-35 52.5 -104 52.5 q-69 0 -126 -52.5 ZM226 729 l50 0 q8 -83 95 -83 q40 0 65 20 q25 20 51 63 l51 0 q-25 -65 -73.5 -101.5 q-48.5 -36.5 -113.5 -36.5 q-133 0 -125 138 Z" /><glyph glyph-name="uni0150" unicode="&#x150;" d="M53 357 q16 74 52.5 140.5 q36.5 66.5 89 119 q52.5 52.5 125.5 83.5 q73 31 155 31 q66 0 118.5 -20 q52.5 -20 84.5 -55.5 q32 -35.5 51 -83 q19 -47.5 19 -102 q0 -54.5 -11 -113.5 q-21 -100 -76 -183.5 q-55 -83.5 -145.5 -137 q-90.5 -53.5 -199.5 -53.5 q-83 0 -143 31 q-60 31 -89 83 q-29 52 -39 119.5 q-10 67.5 8 140.5 ZM148 357 q-13 -54 -7.5 -106.5 q5.5 -52.5 24 -94.5 q18.5 -42 62 -67.5 q43.5 -25.5 106.5 -25.5 q63 0 117.5 25.5 q54.5 25.5 92 68 q37.5 42.5 63 93.5 q25.5 51 36.5 107 q8 44 9.5 86 q1.5 42 -11 79.5 q-12.5 37.5 -34 66 q-21.5 28.5 -60 45.5 q-38.5 17 -88.5 17 q-122 0 -202.5 -86.5 q-80.5 -86.5 -107.5 -207.5 ZM526 779 l111 143 l105 0 l-150 -143 l-66 0 ZM370 779 l111 143 l105 0 l-150 -143 l-66 0 Z" /><glyph glyph-name="uni0151" unicode="&#x151;" d="M55 64 q-50 76 -25 194 q25 118 108 194.5 q83 76.5 201 76.5 q119 0 168.5 -76 q49.5 -76 24.5 -195 q-25 -118 -107.5 -194 q-82.5 -76 -200.5 -76 q-119 0 -169 76 ZM197 401.5 q-57 -52.5 -77 -143.5 q-20 -91 15.5 -143 q35.5 -52 104.5 -52 q70 0 126 52 q56 52 76 143 q20 91 -15 143.5 q-35 52.5 -104 52.5 q-69 0 -126 -52.5 ZM393 589 l111 143 l105 0 l-150 -143 l-66 0 ZM237 589 l111 143 l105 0 l-150 -143 l-66 0 Z" /><glyph glyph-name="OE" unicode="&#x152;" d="M1090 634 l-379 0 l-48 -227 l347 0 l-16 -80 l-347 0 l-52 -247 l384 0 l-16 -80 l-475 0 l13 57 l-2 0 q-29 -36 -76.5 -54.5 q-47.5 -18.5 -99.5 -18.5 q-135 0 -208 88.5 q-73 88.5 -73 227.5 q0 108 44.5 205.5 q44.5 97.5 132.5 161.5 q88 64 199 64 q64 0 120 -24 q56 -24 86 -73 l16 80 l466 0 l-16 -80 ZM594 534 q8 42 -49.5 79.5 q-57.5 37.5 -117.5 37.5 q-69 0 -125.5 -31.5 q-56.5 -31.5 -91.5 -83.5 q-35 -52 -54 -115 q-19 -63 -19 -129 q0 -94 50 -161.5 q50 -67.5 141 -67.5 q91 0 150 58 q19 18 31.5 42.5 q12.5 24.5 17 41.5 q4.5 17 11.5 52 l56 277 Z" /><glyph glyph-name="oe" unicode="&#x153;" d="M667 454 q-69 0 -115 -40.5 q-46 -40.5 -60 -105.5 l290 0 q2 22 2 29 q0 49 -30 83 q-30 34 -87 34 ZM123.5 309.5 q-21.5 -57.5 -21.5 -114.5 q0 -57 33.5 -94.5 q33.5 -37.5 94.5 -37.5 q50 0 88 28.5 q38 28.5 58.5 73 q20.5 44.5 30.5 90.5 q10 46 10 90 q0 52 -33.5 80.5 q-33.5 28.5 -86.5 28.5 q-60 0 -106 -43.5 q-46 -43.5 -67.5 -101 ZM838 163 q-29 -86 -93.5 -130 q-64.5 -44 -156.5 -44 q-139 0 -179 101 q-27 -48 -76.5 -74.5 q-49.5 -26.5 -107.5 -26.5 q-100 0 -154 50 q-54 50 -54 152 q0 83 33.5 159.5 q33.5 76.5 101 127.5 q67.5 51 153.5 51 q67 0 110.5 -22.5 q43.5 -22.5 63.5 -78.5 q27 50 78.5 75.5 q51.5 25.5 111.5 25.5 q99 0 149.5 -54.5 q50.5 -54.5 50.5 -150.5 q0 -40 -11 -91 l-379 0 q-7 -28 -7 -53 q0 -58 34.5 -87.5 q34.5 -29.5 96.5 -29.5 q51 0 91 27.5 q40 27.5 57 72.5 l87 0 Z" /><glyph glyph-name="uni0154" unicode="&#x154;" d="M18 0 l151 714 l336 0 q102 0 149 -50 q47 -50 29 -137 q-32 -147 -163 -181 l0 -2 q53 -11 67.5 -48.5 q14.5 -37.5 7.5 -98.5 q-1 -11 -7 -50.5 q-6 -39.5 -7.5 -57.5 q-1.5 -18 1.5 -45 q3 -27 14 -44 l-106 0 q-8 10 -7.5 30.5 q0.5 20.5 5 41.5 q4.5 21 9 51 q4.5 30 4.5 53 q1 32 -0.5 50.5 q-1.5 18.5 -9.5 39 q-8 20.5 -28.5 30 q-20.5 9.5 -53.5 9.5 l-232 0 l-64 -305 l-95 0 ZM194 385 l198 0 q166 0 192 127 q12 57 -12.5 89.5 q-24.5 32.5 -88.5 32.5 l-236 0 l-53 -249 ZM383 779 l116 143 l109 0 l-161 -143 l-64 0 Z" /><glyph glyph-name="uni0155" unicode="&#x155;" d="M1 0 l109 517 l80 0 l-23 -109 l2 0 q46 64 97 93.5 q51 29.5 119 27.5 l-19 -90 q-99 0 -154.5 -53 q-55.5 -53 -77.5 -156 l-48 -230 l-85 0 ZM207 589 l116 143 l109 0 l-161 -143 l-64 0 Z" /><glyph glyph-name="uni0156" unicode="&#x156;" d="M18 0 l151 714 l336 0 q102 0 149 -50 q47 -50 29 -137 q-32 -147 -163 -181 l0 -2 q53 -11 67.5 -48.5 q14.5 -37.5 7.5 -98.5 q-1 -11 -7 -50.5 q-6 -39.5 -7.5 -57.5 q-1.5 -18 1.5 -45 q3 -27 14 -44 l-106 0 q-8 10 -7.5 30.5 q0.5 20.5 5 41.5 q4.5 21 9 51 q4.5 30 4.5 53 q1 32 -0.5 50.5 q-1.5 18.5 -9.5 39 q-8 20.5 -28.5 30 q-20.5 9.5 -53.5 9.5 l-232 0 l-64 -305 l-95 0 ZM194 385 l198 0 q166 0 192 127 q12 57 -12.5 89.5 q-24.5 32.5 -88.5 32.5 l-236 0 l-53 -249 ZM205 -138 l19 88 l111 0 l-16 -77 q-19 -83 -117 -83 l7 35 q20 5 31 12 q11 7 13.5 12 q2.5 5 3.5 13 l-52 0 Z" /><glyph glyph-name="uni0157" unicode="&#x157;" d="M1 0 l109 517 l80 0 l-23 -109 l2 0 q46 64 97 93.5 q51 29.5 119 27.5 l-19 -90 q-99 0 -154.5 -53 q-55.5 -53 -77.5 -156 l-48 -230 l-85 0 ZM-42 -138 l19 88 l111 0 l-16 -77 q-19 -83 -117 -83 l7 35 q20 5 31 12 q11 7 13.5 12 q2.5 5 3.5 13 l-52 0 Z" /><glyph glyph-name="uni0158" unicode="&#x158;" d="M18 0 l151 714 l336 0 q102 0 149 -50 q47 -50 29 -137 q-32 -147 -163 -181 l0 -2 q53 -11 67.5 -48.5 q14.5 -37.5 7.5 -98.5 q-1 -11 -7 -50.5 q-6 -39.5 -7.5 -57.5 q-1.5 -18 1.5 -45 q3 -27 14 -44 l-106 0 q-8 10 -7.5 30.5 q0.5 20.5 5 41.5 q4.5 21 9 51 q4.5 30 4.5 53 q1 32 -0.5 50.5 q-1.5 18.5 -9.5 39 q-8 20.5 -28.5 30 q-20.5 9.5 -53.5 9.5 l-232 0 l-64 -305 l-95 0 ZM194 385 l198 0 q166 0 192 127 q12 57 -12.5 89.5 q-24.5 32.5 -88.5 32.5 l-236 0 l-53 -249 ZM608 922 l-133 -143 l-93 0 l-74 143 l84 0 l49 -96 l90 96 l77 0 Z" /><glyph glyph-name="uni0159" unicode="&#x159;" d="M1 0 l109 517 l80 0 l-23 -109 l2 0 q46 64 97 93.5 q51 29.5 119 27.5 l-19 -90 q-99 0 -154.5 -53 q-55.5 -53 -77.5 -156 l-48 -230 l-85 0 ZM440 732 l-133 -143 l-93 0 l-74 143 l84 0 l49 -96 l90 96 l77 0 Z" /><glyph glyph-name="Sacute" unicode="&#x15a;" d="M614 503 l-95 0 q2 80 -40.5 114 q-42.5 34 -123.5 34 q-61 0 -113 -30 q-52 -30 -52 -87 q0 -48 30 -73.5 q30 -25.5 86 -41.5 l96 -26 q80 -22 126 -64 q46 -42 46 -129 q0 -70 -44 -121 q-44 -51 -105 -73 q-61 -22 -129 -22 q-136 0 -213 62 q-77 62 -68 188 l95 0 q-4 -92 46.5 -131.5 q50.5 -39.5 143.5 -39.5 q74 0 126.5 35 q52.5 35 52.5 102 q0 50 -33 75.5 q-33 25.5 -94 42.5 l-97 26 q-160 45 -160 180 q0 97 78 152 q78 55 182 55 q54 0 100.5 -13.5 q46.5 -13.5 83 -40.5 q36.5 -27 57 -71.5 q20.5 -44.5 18.5 -102.5 ZM394 898 l113 0 l-136 -143 l-70 0 l93 143 Z" /><glyph glyph-name="sacute" unicode="&#x15b;" d="M440 365 l-85 0 q2 42 -28.5 65.5 q-30.5 23.5 -78.5 23.5 q-110 0 -110 -66 q0 -8 2 -15 q2 -7 7.5 -13 q5.5 -6 10.5 -11 q5 -5 14.5 -11 q9.5 -6 16.5 -9.5 q7 -3.5 20 -9.5 q13 -6 20 -8.5 q7 -2.5 22.5 -8.5 q15.5 -6 22.5 -9 q65 -27 101 -59 q36 -32 36 -86 q0 -80 -62.5 -119.5 q-62.5 -39.5 -148.5 -39.5 q-208 0 -208 174 l84 0 q-3 -53 34.5 -76.5 q37.5 -23.5 97.5 -23.5 q48 0 83 19 q35 19 35 60 q0 15 -6.5 26.5 q-6.5 11.5 -23.5 22.5 q-17 11 -27.5 16 q-10.5 5 -40 17 q-29.5 12 -38.5 16 q-64 25 -100.5 56 q-36.5 31 -36.5 84 q0 68 57.5 108.5 q57.5 40.5 134.5 40.5 q81 0 138 -40 q57 -40 57 -124 ZM294 731 l113 0 l-136 -143 l-70 0 l93 143 Z" /><glyph glyph-name="uni015C" unicode="&#x15c;" d="M628 505 l-90 0 q15 146 -146 146 q-68 0 -120.5 -29 q-52.5 -29 -65.5 -93 q-7 -31 8 -53 q15 -22 45 -33.5 q30 -11.5 68.5 -22 q38.5 -10.5 79.5 -18 q41 -7.5 79 -23.5 q38 -16 65.5 -36.5 q27.5 -20.5 39.5 -58.5 q12 -38 1 -88 q-15 -72 -69.5 -122 q-54.5 -50 -119.5 -70.5 q-65 -20.5 -135 -20.5 q-128 0 -198 64.5 q-70 64.5 -44 187.5 l90 0 q-17 -85 33.5 -128.5 q50.5 -43.5 138.5 -43.5 q35 0 66 6 q31 6 61.5 20 q30.5 14 52 40.5 q21.5 26.5 29.5 63.5 q8 40 -11.5 66 q-19.5 26 -56.5 39.5 q-37 13.5 -84 23.5 q-47 10 -93 22.5 q-46 12.5 -82.5 31.5 q-36.5 19 -54 56 q-17.5 37 -6.5 90 q23 102 109.5 155.5 q86.5 53.5 194.5 53.5 q115 0 174.5 -56.5 q59.5 -56.5 40.5 -169.5 ZM280 779 l133 143 l93 0 l74 -143 l-84 0 l-49 96 l-90 -96 l-77 0 Z" /><glyph glyph-name="uni015D" unicode="&#x15d;" d="M5 163 l85 0 q-9 -53 25 -76.5 q34 -23.5 93 -23.5 q124 0 141 77 q5 27 -10 44.5 q-15 17.5 -42.5 27 q-27.5 9.5 -62 16.5 q-34.5 7 -68.5 17 q-34 10 -60.5 25 q-26.5 15 -39 43.5 q-12.5 28.5 -3.5 68.5 q15 72 81 109.5 q66 37.5 143 37.5 q95 0 143 -36.5 q48 -36.5 35 -125.5 l-85 0 q6 46 -24 66.5 q-30 20.5 -78 20.5 q-110 0 -124 -66 q-3 -12 -0.5 -22.5 q2.5 -10.5 12 -18.5 q9.5 -8 18 -13.5 q8.5 -5.5 26.5 -11 q18 -5.5 29 -8.5 q11 -3 33 -8.5 q22 -5.5 32 -7.5 q35 -8 59 -17.5 q24 -9.5 47 -25.5 q23 -16 31.5 -42.5 q8.5 -26.5 0.5 -61.5 q-18 -85 -91 -124 q-73 -39 -164 -39 q-95 0 -146 42 q-51 42 -36 133 ZM166 589 l133 143 l93 0 l74 -143 l-84 0 l-49 96 l-90 -96 l-77 0 Z" /><glyph glyph-name="Scedilla" unicode="&#x15e;" d="M100 -191 l27 44 q29 -13 62 -13 q58 0 65 31 q3 14 -8 22.5 q-11 8.5 -32 8.5 q-17 0 -43 -8 l-11 28 l63 64 q-109 10 -164.5 73.5 q-55.5 63.5 -32.5 175.5 l90 0 q-17 -85 33.5 -128.5 q50.5 -43.5 138.5 -43.5 q35 0 66 6 q31 6 61.5 20 q30.5 14 52 40.5 q21.5 26.5 29.5 63.5 q8 40 -11.5 66 q-19.5 26 -56.5 39.5 q-37 13.5 -84 23.5 q-47 10 -93 22.5 q-46 12.5 -82.5 31.5 q-36.5 19 -54 56 q-17.5 37 -6.5 90 q23 102 109.5 155.5 q86.5 53.5 194.5 53.5 q115 0 174.5 -56.5 q59.5 -56.5 40.5 -169.5 l-90 0 q15 146 -146 146 q-68 0 -120.5 -29 q-52.5 -29 -65.5 -93 q-7 -31 8 -53 q15 -22 45 -33.5 q30 -11.5 68.5 -22 q38.5 -10.5 79.5 -18 q41 -7.5 79 -23.5 q38 -16 65.5 -36.5 q27.5 -20.5 39.5 -58.5 q12 -38 1 -88 q-15 -72 -69.5 -122 q-54.5 -50 -119.5 -70.5 q-65 -20.5 -135 -20.5 l-6 0 l-36 -36 l2 -2 q14 7 34 7 q35 0 56 -19 q21 -19 13 -54 q-9 -46 -51.5 -67.5 q-42.5 -21.5 -91.5 -21.5 q-47 0 -88 19 Z" /><glyph glyph-name="scedilla" unicode="&#x15f;" d="M27 -191 l27 44 q29 -13 62 -13 q58 0 65 31 q3 14 -8 22.5 q-11 8.5 -32 8.5 q-17 0 -43 -8 l-11 28 l67 68 q-80 6 -122 48.5 q-42 42.5 -27 124.5 l85 0 q-9 -53 25 -76.5 q34 -23.5 93 -23.5 q124 0 141 77 q5 27 -10 44.5 q-15 17.5 -42.5 27 q-27.5 9.5 -62 16.5 q-34.5 7 -68.5 17 q-34 10 -60.5 25 q-26.5 15 -39 43.5 q-12.5 28.5 -3.5 68.5 q15 72 81 109.5 q66 37.5 143 37.5 q95 0 143 -36.5 q48 -36.5 35 -125.5 l-85 0 q6 46 -24 66.5 q-30 20.5 -78 20.5 q-110 0 -124 -66 q-3 -12 -0.5 -22.5 q2.5 -10.5 12 -18.5 q9.5 -8 18 -13.5 q8.5 -5.5 26.5 -11 q18 -5.5 29 -8.5 q11 -3 33 -8.5 q22 -5.5 32 -7.5 q35 -8 59 -17.5 q24 -9.5 47 -25.5 q23 -16 31.5 -42.5 q8.5 -26.5 0.5 -61.5 q-19 -83 -88.5 -121.5 q-69.5 -38.5 -159.5 -41.5 l-41 -41 l2 -2 q14 7 34 7 q35 0 56 -19 q21 -19 13 -54 q-9 -46 -51.5 -67.5 q-42.5 -21.5 -91.5 -21.5 q-47 0 -88 19 Z" /><glyph glyph-name="Scaron" unicode="&#x160;" d="M441 755 l-86 0 l-77 143 l76 0 l51 -93 l93 93 l78 0 l-135 -143 ZM519 503 q2 80 -40.5 114 q-42.5 34 -123.5 34 q-61 0 -113 -30 q-52 -30 -52 -87 q0 -48 30 -73.5 q30 -25.5 86 -41.5 l96 -26 q80 -22 126 -64 q46 -42 46 -129 q0 -70 -44 -121 q-44 -51 -105 -73 q-61 -22 -129 -22 q-136 0 -213 62 q-77 62 -68 188 l95 0 q-4 -92 46.5 -131.5 q50.5 -39.5 143.5 -39.5 q74 0 126.5 35 q52.5 35 52.5 102 q0 50 -33 75.5 q-33 25.5 -94 42.5 l-97 26 q-160 45 -160 180 q0 97 78 152 q78 55 182 55 q54 0 100.5 -13.5 q46.5 -13.5 83 -40.5 q36.5 -27 57 -71.5 q20.5 -44.5 18.5 -102.5 l-95 0 Z" /><glyph glyph-name="scaron" unicode="&#x161;" d="M334 588 l-86 0 l-77 143 l76 0 l51 -93 l93 93 l78 0 l-135 -143 ZM355 365 q2 42 -28.5 65.5 q-30.5 23.5 -78.5 23.5 q-110 0 -110 -66 q0 -8 2 -15 q2 -7 7.5 -13 q5.5 -6 10.5 -11 q5 -5 14.5 -11 q9.5 -6 16.5 -9.5 q7 -3.5 20 -9.5 q13 -6 20 -8.5 q7 -2.5 22.5 -8.5 q15.5 -6 22.5 -9 q65 -27 101 -59 q36 -32 36 -86 q0 -80 -62.5 -119.5 q-62.5 -39.5 -148.5 -39.5 q-208 0 -208 174 l84 0 q-3 -53 34.5 -76.5 q37.5 -23.5 97.5 -23.5 q48 0 83 19 q35 19 35 60 q0 15 -6.5 26.5 q-6.5 11.5 -23.5 22.5 q-17 11 -27.5 16 q-10.5 5 -40 17 q-29.5 12 -38.5 16 q-64 25 -100.5 56 q-36.5 31 -36.5 84 q0 68 57.5 108.5 q57.5 40.5 134.5 40.5 q81 0 138 -40 q57 -40 57 -124 l-85 0 Z" /><glyph glyph-name="uni0162" unicode="&#x162;" d="M180 0 l134 634 l-238 0 l17 80 l571 0 l-17 -80 l-238 0 l-134 -634 l-95 0 ZM141 -138 l19 88 l111 0 l-16 -77 q-19 -83 -117 -83 l7 35 q20 5 31 12 q11 7 13.5 12 q2.5 5 3.5 13 l-52 0 Z" /><glyph glyph-name="uni0163" unicode="&#x163;" d="M264 672 l-33 -155 l103 0 l-16 -75 l-103 0 l-68 -321 q-6 -30 4 -38 q10 -8 50 -8 l39 0 l-15 -75 l-65 0 q-70 0 -92 22.5 q-22 22.5 -7 90.5 l69 329 l-88 0 l16 75 l88 0 l33 155 l85 0 ZM19 -187 l18 43 q45 -15 63 -15 q60 0 60 30 q0 31 -46 31 q-27 0 -42 -8 l-18 30 l73 89 l47 0 l-58 -65 l2 0 q9 4 26 4 q38 0 64.5 -18.5 q26.5 -18.5 26.5 -55.5 q0 -42 -36.5 -64.5 q-36.5 -22.5 -82.5 -22.5 q-52 0 -97 22 Z" /><glyph glyph-name="uni0164" unicode="&#x164;" d="M180 0 l134 634 l-238 0 l17 80 l571 0 l-17 -80 l-238 0 l-134 -634 l-95 0 ZM571 922 l-133 -143 l-93 0 l-74 143 l84 0 l49 -96 l90 96 l77 0 Z" /><glyph glyph-name="uni0165" unicode="&#x165;" d="M308 571 l56 143 l109 0 l-105 -143 l-60 0 ZM264 672 l-33 -155 l103 0 l-16 -75 l-103 0 l-68 -321 q-6 -30 4 -38 q10 -8 50 -8 l39 0 l-15 -75 l-65 0 q-70 0 -92 22.5 q-22 22.5 -7 90.5 l69 329 l-88 0 l16 75 l88 0 l33 155 l85 0 Z" /><glyph glyph-name="uni0166" unicode="&#x166;" d="M128 426 l13 61 l142 0 l31 147 l-238 0 l17 80 l571 0 l-17 -80 l-238 0 l-31 -147 l144 0 l-13 -61 l-144 0 l-90 -426 l-95 0 l90 426 l-142 0 Z" /><glyph glyph-name="uni0167" unicode="&#x167;" d="M15 291 l12 55 l83 0 l20 96 l-88 0 l16 75 l88 0 l33 155 l85 0 l-33 -155 l103 0 l-16 -75 l-103 0 l-20 -96 l95 0 l-12 -55 l-95 0 l-36 -170 q-6 -30 4 -38 q10 -8 50 -8 l39 0 l-15 -75 l-65 0 q-70 0 -92 22.5 q-22 22.5 -7 90.5 l37 178 l-83 0 Z" /><glyph glyph-name="uni0168" unicode="&#x168;" d="M739 714 l-97 -456 q-29 -136 -116 -205.5 q-87 -69.5 -223 -69.5 q-142 0 -203 68 q-61 68 -32 207 l97 456 l95 0 l-97 -456 q-20 -96 20.5 -145.5 q40.5 -49.5 136.5 -49.5 q91 0 149 49.5 q58 49.5 78 145.5 l97 456 l95 0 ZM616 907 l52 0 q-15 -44 -49 -79 q-32 -32 -75 -32 q-29 0 -71 20 q-49 19 -62 19 q-19 0 -34 -12 q-9 -7 -24 -30 l-52 0 q45 110 129 110 q28 0 69.5 -20 q41.5 -20 61.5 -20 q34 0 55 44 Z" /><glyph glyph-name="uni0169" unicode="&#x169;" d="M541 517 l-109 -517 l-80 0 l17 82 l-2 0 q-73 -94 -188 -94 q-179 0 -138 189 l72 340 l85 0 l-74 -350 q-11 -48 11.5 -76 q22.5 -28 71.5 -28 q75 0 123.5 44.5 q48.5 44.5 63.5 117.5 l62 292 l85 0 ZM491 717 l52 0 q-15 -44 -49 -79 q-32 -32 -76 -32 q-32 0 -70 20 q-49 19 -62 19 q-19 0 -34 -12 q-9 -7 -24 -30 l-52 0 q45 110 129 110 q28 0 69.5 -20 q41.5 -20 61.5 -20 q31 0 55 44 Z" /><glyph glyph-name="uni016A" unicode="&#x16a;" d="M739 714 l-97 -456 q-29 -136 -116 -205.5 q-87 -69.5 -223 -69.5 q-142 0 -203 68 q-61 68 -32 207 l97 456 l95 0 l-97 -456 q-20 -96 20.5 -145.5 q40.5 -49.5 136.5 -49.5 q91 0 149 49.5 q58 49.5 78 145.5 l97 456 l95 0 ZM306 817 l12 55 l341 0 l-12 -55 l-341 0 Z" /><glyph glyph-name="uni016B" unicode="&#x16b;" d="M541 517 l-109 -517 l-80 0 l17 82 l-2 0 q-73 -94 -188 -94 q-179 0 -138 189 l72 340 l85 0 l-74 -350 q-11 -48 11.5 -76 q22.5 -28 71.5 -28 q75 0 123.5 44.5 q48.5 44.5 63.5 117.5 l62 292 l85 0 ZM181 627 l11 55 l341 0 l-11 -55 l-341 0 Z" /><glyph glyph-name="uni016C" unicode="&#x16c;" d="M739 714 l-97 -456 q-29 -136 -116 -205.5 q-87 -69.5 -223 -69.5 q-142 0 -203 68 q-61 68 -32 207 l97 456 l95 0 l-97 -456 q-20 -96 20.5 -145.5 q40.5 -49.5 136.5 -49.5 q91 0 149 49.5 q58 49.5 78 145.5 l97 456 l95 0 ZM342 919 l50 0 q6 -83 94 -83 q40 0 65.5 20 q25.5 20 51.5 63 l51 0 q-25 -65 -73.5 -101.5 q-48.5 -36.5 -113.5 -36.5 q-136 0 -125 138 Z" /><glyph glyph-name="uni016D" unicode="&#x16d;" d="M541 517 l-109 -517 l-80 0 l17 82 l-2 0 q-73 -94 -188 -94 q-179 0 -138 189 l72 340 l85 0 l-74 -350 q-11 -48 11.5 -76 q22.5 -28 71.5 -28 q75 0 123.5 44.5 q48.5 44.5 63.5 117.5 l62 292 l85 0 ZM216 729 l50 0 q8 -83 95 -83 q40 0 65 20 q25 20 51 63 l51 0 q-25 -65 -73.5 -101.5 q-48.5 -36.5 -113.5 -36.5 q-133 0 -125 138 Z" /><glyph glyph-name="uni016E.low" unicode="&#x16e;" d="M739 714 l-97 -456 q-29 -136 -116 -205.5 q-87 -69.5 -223 -69.5 q-142 0 -203 68 q-61 68 -32 207 l97 456 l95 0 l-97 -456 q-20 -96 20.5 -145.5 q40.5 -49.5 136.5 -49.5 q91 0 149 49.5 q58 49.5 78 145.5 l97 456 l95 0 ZM382 752 q-27 33 -17 79 q10 46 50.5 79 q40.5 33 86.5 33 q45 0 72 -33 q27 -33 17 -79 q-10 -46 -50.5 -79 q-40.5 -33 -86.5 -33 q-45 0 -72 33 ZM440 878.5 q-23 -19.5 -29 -48.5 q-6 -29 8.5 -48.5 q14.5 -19.5 43.5 -19.5 q29 0 52.5 19.5 q23.5 19.5 29.5 48.5 q6 29 -9 48.5 q-15 19.5 -44 19.5 q-29 0 -52 -19.5 Z" /><glyph glyph-name="uni016F" unicode="&#x16f;" d="M541 517 l-109 -517 l-80 0 l17 82 l-2 0 q-73 -94 -188 -94 q-179 0 -138 189 l72 340 l85 0 l-74 -350 q-11 -48 11.5 -76 q22.5 -28 71.5 -28 q75 0 123.5 44.5 q48.5 44.5 63.5 117.5 l62 292 l85 0 ZM266 602 q-27 33 -17 79 q10 46 50.5 79 q40.5 33 86.5 33 q45 0 72 -33 q27 -33 17 -79 q-10 -46 -50.5 -79 q-40.5 -33 -86.5 -33 q-45 0 -72 33 ZM324 728.5 q-23 -19.5 -29 -48.5 q-6 -29 9 -48.5 q15 -19.5 44 -19.5 q29 0 52 19.5 q23 19.5 29 48.5 q6 29 -9 48.5 q-15 19.5 -44 19.5 q-29 0 -52 -19.5 Z" /><glyph glyph-name="uni0170" unicode="&#x170;" d="M739 714 l-97 -456 q-29 -136 -116 -205.5 q-87 -69.5 -223 -69.5 q-142 0 -203 68 q-61 68 -32 207 l97 456 l95 0 l-97 -456 q-20 -96 20.5 -145.5 q40.5 -49.5 136.5 -49.5 q91 0 149 49.5 q58 49.5 78 145.5 l97 456 l95 0 ZM508 779 l111 143 l105 0 l-150 -143 l-66 0 ZM352 779 l111 143 l105 0 l-150 -143 l-66 0 Z" /><glyph glyph-name="uni0171" unicode="&#x171;" d="M541 517 l-109 -517 l-80 0 l17 82 l-2 0 q-73 -94 -188 -94 q-179 0 -138 189 l72 340 l85 0 l-74 -350 q-11 -48 11.5 -76 q22.5 -28 71.5 -28 q75 0 123.5 44.5 q48.5 44.5 63.5 117.5 l62 292 l85 0 ZM383 589 l111 143 l105 0 l-150 -143 l-66 0 ZM227 589 l111 143 l105 0 l-150 -143 l-66 0 Z" /><glyph glyph-name="uni0172" unicode="&#x172;" d="M739 714 l-97 -456 q-26 -126 -103.5 -195 q-77.5 -69 -198.5 -78 q-80 -60 -88 -103 q-8 -42 32 -42 q36 0 66 30 l28 -18 q-49 -62 -121 -62 q-41 0 -62.5 19 q-21.5 19 -13.5 57 q13 62 110 117 q-279 6 -223 275 l97 456 l95 0 l-97 -456 q-20 -96 20.5 -145.5 q40.5 -49.5 136.5 -49.5 q91 0 149 49.5 q58 49.5 78 145.5 l97 456 l95 0 Z" /><glyph glyph-name="uni0173" unicode="&#x173;" d="M541 517 l-109 -517 l-40 0 q-97 -68 -110 -118 q-8 -42 32 -42 q36 0 66 30 l28 -18 q-49 -62 -121 -62 q-41 0 -62.5 19 q-21.5 19 -13.5 57 q15 69 141 134 l17 82 l-2 0 q-73 -94 -188 -94 q-179 0 -138 189 l72 340 l85 0 l-74 -350 q-11 -48 11.5 -76 q22.5 -28 71.5 -28 q75 0 123.5 44.5 q48.5 44.5 63.5 117.5 l62 292 l85 0 Z" /><glyph glyph-name="uni0174" unicode="&#x174;" d="M1005 714 l-342 -714 l-99 0 l-36 600 l-2 0 l-292 -600 l-99 0 l-32 714 l97 0 l14 -594 l2 0 l286 594 l103 0 l32 -594 l2 0 l271 594 l95 0 ZM419 779 l133 143 l93 0 l74 -143 l-84 0 l-49 96 l-90 -96 l-77 0 Z" /><glyph glyph-name="uni0175" unicode="&#x175;" d="M790 517 l-274 -517 l-90 0 l-18 411 l-2 0 l-191 -411 l-92 0 l-57 517 l94 0 l27 -423 l2 0 l194 423 l93 0 l18 -423 l2 0 l206 423 l88 0 ZM298 589 l133 143 l93 0 l74 -143 l-84 0 l-49 96 l-90 -96 l-77 0 Z" /><glyph glyph-name="uni0176" unicode="&#x176;" d="M737 714 l-362 -422 l-62 -292 l-95 0 l62 292 l-187 422 l113 0 l142 -340 l281 340 l108 0 ZM284 779 l133 143 l93 0 l74 -143 l-84 0 l-49 96 l-90 -96 l-77 0 Z" /><glyph glyph-name="uni0177" unicode="&#x177;" d="M541 517 l-349 -586 q-47 -77 -85.5 -107.5 q-38.5 -30.5 -93.5 -30.5 q-34 0 -58 9 l17 78 q36 -12 47 -12 q45 0 80 47 l54 88 l-96 514 l96 0 l61 -423 l2 0 l235 423 l90 0 ZM171 589 l133 143 l93 0 l74 -143 l-84 0 l-49 96 l-90 -96 l-77 0 Z" /><glyph glyph-name="Ydieresis" unicode="&#x178;" d="M273 863 l89 0 l-21 -104 l-89 0 l21 104 ZM436 863 l89 0 l-21 -104 l-89 0 l21 104 ZM254 287 l-188 427 l101 0 l146 -346 l271 346 l110 0 l-346 -427 l-62 -287 l-93 0 l61 287 Z" /><glyph glyph-name="Zacute" unicode="&#x179;" d="M-20 79 l535 555 l-409 0 l20 80 l521 0 l-17 -81 l-540 -553 l456 0 l-17 -80 l-566 0 l17 79 ZM405 898 l113 0 l-136 -143 l-70 0 l93 143 Z" /><glyph glyph-name="zacute" unicode="&#x17a;" d="M-40 64 l359 378 l-278 0 l15 75 l393 0 l-13 -61 l-363 -381 l309 0 l-14 -75 l-420 0 l12 64 ZM282 731 l113 0 l-136 -143 l-70 0 l93 143 Z" /><glyph glyph-name="Zdotaccent" unicode="&#x17b;" d="M-20 79 l535 555 l-409 0 l20 80 l521 0 l-17 -81 l-540 -553 l456 0 l-17 -80 l-566 0 l17 79 ZM351 863 l89 0 l-21 -104 l-89 0 l21 104 Z" /><glyph glyph-name="zdotaccent" unicode="&#x17c;" d="M-40 64 l359 378 l-278 0 l15 75 l393 0 l-13 -61 l-363 -381 l309 0 l-14 -75 l-420 0 l12 64 ZM228 696 l89 0 l-21 -104 l-89 0 l21 104 Z" /><glyph glyph-name="Zcaron" unicode="&#x17d;" d="M423 755 l-86 0 l-77 143 l76 0 l51 -93 l93 93 l78 0 l-135 -143 ZM-20 79 l535 555 l-409 0 l20 80 l521 0 l-17 -81 l-540 -553 l456 0 l-17 -80 l-566 0 l17 79 Z" /><glyph glyph-name="zcaron" unicode="&#x17e;" d="M315 588 l-86 0 l-77 143 l76 0 l51 -93 l93 93 l78 0 l-135 -143 ZM-40 64 l359 378 l-278 0 l15 75 l393 0 l-13 -61 l-363 -381 l309 0 l-14 -75 l-420 0 l12 64 Z" /><glyph glyph-name="uni017F" unicode="&#x17f;" d="M208 451 l-95 -451 l-87 0 l95 451 l-72 0 l15 70 l72 0 l18 82 q14 55 36 80 q40 45 128 45 q7 0 37 -2 l-17 -80 q-10 0 -19.5 0.5 q-9.5 0.5 -11.5 0.5 q-39 0 -53 -21 q-11 -20 -46 -175 Z" /><glyph glyph-name="uni0180" unicode="&#x180;" d="M265 58 q79 0 126 56 q48 57 66 141 q20 97 -9.5 149 q-29.5 52 -97.5 52 q-63 0 -112.5 -50 q-49.5 -50 -69.5 -145 q-20 -96 7 -149.5 q27 -53.5 90 -53.5 ZM277 507 q46 25 107 25 q107 0 148 -84 q41 -83 17 -198 q-26 -122 -106 -196 q-79 -73 -168 -73 q-109 0 -149 92 l-15 -73 l-79 0 l125 591 l-65 0 l12 58 l65 0 l16 71 l85 0 l-16 -71 l163 0 l-12 -58 l-163 0 l-29 -135 q36 34 64 51 Z" /><glyph glyph-name="uni0182" unicode="&#x182;" d="M25 0 l152 717 l525 0 l-19 -88 l-427 0 l-46 -215 l225 0 q109 0 148 -62 q39 -62 21 -146 q-21 -97 -90 -151.5 q-69 -54.5 -166 -54.5 l-323 0 ZM425 99 q65 29 81 107 q27 126 -120 126 l-193 0 l-53 -249 l193 0 q57 0 92 16 Z" /><glyph glyph-name="uni0183" unicode="&#x183;" d="M-2 0 l153 720 l14 0 l382 0 l-19 -88 l-311 0 l-37 -173 q75 78 173 78 q96 0 143 -68 q47 -69 19 -198 q-25 -123 -104 -206 q-76 -82 -183 -82 q-60 0 -95 29 q-20 17 -40 55 l-14 -67 l-81 0 ZM424 267 q18 83 -6 137 q-24 54 -92 54 q-60 0 -115 -45 q-54 -42 -77 -146 q-15 -73 -6 -120 q15 -86 110 -86 q69 0 117 55 q48 55 69 151 Z" /><glyph glyph-name="uni0186" unicode="&#x186;" d="M35 216 l95 0 q5 -151 167 -151 q109 0 189.5 77 q80.5 77 112.5 226 q27 127 -16 204 q-42 79 -159 79 q-107 0 -181 -83 q-39 -44 -69 -114 l-95 0 q38 115 124 190 q107 92 251 92 q125 0 194 -75 q91 -100 46 -309 q-33 -160 -139 -261 q-116 -110 -275 -110 q-136 0 -196 72 q-59 73 -49 163 Z" /><glyph glyph-name="uni0189" unicode="&#x189;" d="M27 335 l18 87 l65 0 l63 295 l274 0 q177 0 233 -122 q40 -89 11 -224 q-25 -120 -90 -213 q-110 -158 -291 -158 l-289 0 l71 335 l-65 0 ZM252 634 l-45 -212 l205 0 l-18 -87 l-205 0 l-54 -252 l174 0 q50 0 83 10 q61 20 108 74 q38 43 66 111 q16 44 23 75 q59 281 -164 281 l-173 0 Z" /><glyph glyph-name="uni018B" unicode="&#x18b;" d="M713 717 l-152 -717 l-323 0 q-97 0 -144 54.5 q-47 54.5 -26 151.5 q18 84 83 146 q67 62 174 62 l226 0 l46 215 l-427 0 l19 88 l524 0 ZM203 99 q28 -16 85 -16 l193 0 l53 249 l-193 0 q-147 0 -174 -126 q-16 -79 36 -107 Z" /><glyph glyph-name="uni018C" unicode="&#x18c;" d="M611 720 l-153 -720 l-81 0 l14 67 q-39 -40 -64 -55 q-47 -29 -107 -29 q-106 0 -149 82 q-41 82 -16 206 q29 131 103 198 q76 68 173 68 q96 0 139 -78 l37 173 l-311 0 l19 88 l381 0 l15 0 ZM143 267 q-21 -96 4 -151 q25 -55 95 -55 q94 0 148 86 q28 45 43 120 q22 102 -14 146 q-35 45 -95 45 q-69 0 -116 -54 q-47 -55 -65 -137 Z" /><glyph glyph-name="uni018D" unicode="&#x18d;" d="M77 476 q21 103 102 170 q83 69 192 69 q106 0 160 -66 q54 -65 33 -164 q-27 -123 -101 -200 q-74 -77 -197 -77 l157 -138 l-17 -80 l-383 0 l16 72 l280 0 l-175 154 q-103 92 -67 260 ZM352 635 q-73 0 -129 -53 q-55 -52 -72 -132 q-23 -102 18 -141 q41 -39 105 -39 l15 0 q2 0 9 1.5 q7 1.5 16.5 3 q9.5 1.5 19.5 2.5 q33 4 81 58 q47 55 62 124 q16 77 -18.5 126.5 q-34.5 49.5 -106.5 49.5 Z" /><glyph glyph-name="uni018E" unicode="&#x18e;" d="M708 717 l-152 -717 l-531 0 l18 85 l436 0 l51 243 l-396 0 l18 83 l396 0 l46 218 l-428 0 l19 88 l523 0 Z" /><glyph glyph-name="uni018F" unicode="&#x18f;" d="M45 396 l588 0 l-14 -79 l-489 0 q0 -118 52.5 -185 q52.5 -67 140.5 -67 q95 0 162 54 q67 54 96.5 132 q29.5 78 29.5 169 q0 108 -53.5 170.5 q-53.5 62.5 -157.5 62.5 q-77 0 -136 -37 q-59 -37 -92 -102 l-97 0 q37 100 121 159 q84 59 204 59 q148 0 227 -81 q79 -81 79 -231 q0 -117 -44 -215 q-44 -98 -132.5 -159 q-88.5 -61 -206.5 -61 q-135 0 -210 81 q-75 81 -75 230 q0 68 7 100 Z" /><glyph glyph-name="uni0190" unicode="&#x190;" d="M219 50 q65 0 118 52 q48 46 69 114 l73 0 q-25 -97 -96 -163 q-83 -77 -190 -77 q-93 0 -140 69 q-44 67 -25 161 q13 63 40 104 q32 46 90 74 q-62 62 -42 148 q20 94 84 153 q68 59 161 59 q103 0 146 -70 q42 -68 20 -170 l-73 -1 q14 63 -14 113 q-30 55 -90 55 q-58 0 -98.5 -33.5 q-40.5 -33.5 -53.5 -92.5 q-17 -77 22 -106 q27 -21 109 -23 l-15 -72 q-32 2 -35 2 q-143 0 -172 -135 q-15 -71 13 -114 q30 -47 99 -47 Z" /><glyph glyph-name="uni0191" unicode="&#x191;" d="M-103 -208 l16 76 q59 2 73 11 q12 7 23 53 l125 589 l1 0 l42 196 l498 0 l-19 -88 l-400 0 l-46 -217 l352 0 l-18 -86 l-352 0 l-86 -404 q-12 -57 -37 -85 q-51 -48 -136 -48 q-16 0 -36 3 Z" /><glyph glyph-name="florin" unicode="&#x192;" d="M245 449 l46 164 q28 101 156 101 q23 0 65 -8 l-20 -73 q-14 6 -40 6 q-45 0 -62 -20.5 q-17 -20.5 -34 -82.5 l-24 -87 l111 0 l-18 -68 l-111 0 l-118 -414 q-18 -68 -55 -99.5 q-37 -31.5 -104 -31.5 q-23 0 -55 5 l20 74 q19 -5 38 -4 q57 8 77 84 l110 386 l-95 0 l18 68 l95 0 Z" /><glyph glyph-name="uni0196" unicode="&#x196;" d="M154 64 l-16 -76 q-9 0 -20 -1 q-11 -1 -15 -1 q-86 0 -107 48 q-13 28 -1 85 l127 598 l88 0 l-125 -589 q-11 -45 0 -54 q12 -9 69 -10 Z" /><glyph glyph-name="uni0197" unicode="&#x197;" d="M40 392 l12 57 l113 0 l57 268 l88 0 l-57 -268 l112 0 l-12 -57 l-112 0 l-83 -392 l-88 0 l83 392 l-113 0 Z" /><glyph glyph-name="uni019A" unicode="&#x19a;" d="M40 392 l12 57 l113 0 l57 268 l88 0 l-57 -268 l112 0 l-12 -57 l-112 0 l-83 -392 l-88 0 l83 392 l-113 0 Z" /><glyph glyph-name="uni019B" unicode="&#x19b;" d="M110 499 l12 58 l132 35 l0 7 q-9 49 -50 47 l-32 0 l15 73 q23 5 51 5 q51 0 71 -26 q17 -26 28 -84 l150 40 l-13 -57 l-127 -35 l87 -449 q3 -13 11 -28 q7 -13 23 -13 l25 0 l-15 -72 l-51 0 q-72 0 -84 74 l-53 322 l-235 -396 l-97 0 l311 503 l-6 37 l-153 -41 Z" /><glyph glyph-name="uni019D" unicode="&#x19d;" d="M-111 -208 l16 76 q59 2 73 11 q12 7 23 53 l167 785 l115 0 l238 -581 l124 581 l93 0 l-152 -717 l-109 0 l-245 581 l-123 -581 l-5 0 l-17 -78 q-12 -56 -36 -85 q-41 -48 -126 -48 q-16 0 -36 3 Z" /><glyph glyph-name="uni019E" unicode="&#x19e;" d="M4 0 l111 523 l84 0 l-16 -74 q89 86 189 86 q112 0 134 -78 q13 -40 -4 -122 l-113 -529 l-90 0 l112 524 q10 45 2 77 q-13 49 -75 49 q-32 0 -52 -7 q-37 -10 -73 -43 q-26 -26 -38.5 -52.5 q-12.5 -26.5 -24.5 -79.5 l-58 -274 l-88 0 Z" /><glyph glyph-name="uni019F" unicode="&#x19f;" d="M737 615 q51 -94 19 -244 q-35 -162 -137 -267 q-123 -125 -300 -125 q-167 0 -237 109 q-62 108 -28 267 q32 147 125 249 q121 133 303 133 q190 0 255 -122 ZM171 147 q43 -81 179 -81 q127 0 204 92 q61 73 90 166 l-496 0 q-16 -103 23 -177 ZM633 573 q-50 77 -163 77 q-113 0 -198 -76 q-73 -64 -106 -178 l496 0 q17 109 -29 177 Z" /><glyph glyph-name="uni01A0" unicode="&#x1a0;" d="M756 371 q-35 -162 -137 -267 q-123 -125 -300 -125 q-167 0 -237 109 q-62 108 -28 267 q32 147 125 249 q121 133 303 133 q177 0 246 -108 q15 -3 33 1 q25 2 44 9 l7 3 l6 4 l-10 48 l107 41 l19 -96 l-99 -38 q-45 -17 -83 -20 q31 -85 4 -210 ZM657 370 q27 126 -23 203 q-50 77 -164 77 q-113 0 -199 -76 q-85 -76 -117 -225 q-26 -121 17 -202 q43 -81 179 -81 q128 0 205 92 q76 91 102 212 Z" /><glyph glyph-name="uni01A1" unicode="&#x1a1;" d="M513 272 q-25 -125 -106 -209 q-79 -82 -208 -82 q-108 0 -156 73 q-48 73 -21 196 q28 132 111 210 q84 78 196 78 q102 0 157 -67 q8 -9 16 -24 q4 0 16 2 q23 2 44 9 l6 3 q4 2 6 4 l-9 49 l106 41 l20 -97 l-100 -38 q-35 -14 -73 -19 q11 -56 -5 -129 ZM421 270 q15 74 2 119 q-23 72 -113 72 q-81 0 -131 -62 q-49 -61 -67 -148 q-18 -84 7 -139 q25 -55 105 -55 q86 0 133 66 q48 68 64 147 Z" /><glyph glyph-name="uni01A2" unicode="&#x1a2;" d="M520 -197 l176 831 l-75 0 l-128 -620 q-63 -30 -149 -30 q-148 0 -227 81 q-79 81 -79 231 q0 117 46 215 q46 98 137 159 q91 61 209 61 q61 0 109 -17 l269 0 l-193 -911 l-95 0 ZM344 63 q41 0 61 7 l120 559 q-15 7 -46.5 14.5 q-31.5 7.5 -48.5 7.5 q-95 0 -164.5 -54 q-69.5 -54 -101 -132.5 q-31.5 -78.5 -31.5 -168.5 q0 -108 53.5 -170.5 q53.5 -62.5 157.5 -62.5 Z" /><glyph glyph-name="uni01A3" unicode="&#x1a3;" d="M390 -197 l135 639 l-66 0 l-88 -418 q-64 -35 -136 -35 q-100 0 -159 60 q-59 60 -59 155 q0 133 79 229 q79 96 210 96 q54 0 88 -12 l232 0 l-151 -714 l-85 0 ZM244 63 q26 0 52 9 l77 364 q-25 18 -73 18 q-62 0 -108.5 -40.5 q-46.5 -40.5 -68 -96 q-21.5 -55.5 -21.5 -112.5 q0 -65 37 -103.5 q37 -38.5 105 -38.5 Z" /><glyph glyph-name="uni01A6" unicode="&#x1a6;" d="M-35 0 l152 717 l98 0 l-21 -97 l234 0 q82 0 131 -24 q90 -46 65 -170 q-27 -120 -137 -171 q40 -18 53.5 -46.5 q13.5 -28.5 4.5 -88.5 l-18 -97 q-8 -41 -6 -61 q1 -33 22 -44 l-3 -16 l-119 0 q-6 19 4 81 l19 120 q12 70 -32 94 q-25 13 -84 13 l-221 0 l-44 -210 l-98 0 ZM124 291 l224 0 q73 0 117 29 q44 29 58 97 q17 77 -34 104 q-25 15 -76 15 l-237 0 l-52 -245 Z" /><glyph glyph-name="uni01A7" unicode="&#x1a7;" d="M516 231 l92 0 q-24 -117 -115 -184 q-89 -68 -223 -68 q-114 0 -191 51 q-75 53 -50 171 q20 95 99 146 q46 29 123 45 l105 23 q106 23 138 39 q50 26 60 77 q11 48 -19 84 q-30 36 -116 36 q-105 0 -163 -56 q-31 -33 -50 -88 l-91 0 q26 119 116 173 q91 55 203 55 q123 0 176 -62 q54 -61 34 -158 q-20 -91 -98 -135 q-45 -26 -144 -47 l-102 -22 q-83 -18 -125 -42 q-42 -25 -54 -84 q-17 -78 64 -108 q39 -16 95 -16 q122 0 187 71 q32 37 49 99 Z" /><glyph glyph-name="uni01A8" unicode="&#x1a8;" d="M353 164 l85 0 q-20 -78 -80 -131 q-61 -53 -176 -53 q-109 0 -151 51 q-42 51 -27 120 q15 73 73 106 q37 22 137 45 l62 14 q40 9 61 21 q39 21 46 55 q6 32 -16 50.5 q-22 18.5 -71 18.5 q-75 0 -112 -34 q-25 -26 -32 -54 l-83 0 q9 51 52 94 q67 70 185 70 q89 0 133 -45.5 q44 -45.5 28 -120.5 q-14 -64 -77 -99 q-34 -20 -107 -37 l-73 -18 q-54 -13 -81 -25 q-34 -17 -41 -51 q-9 -42 22 -64.5 q31 -22.5 83 -22.5 q82 0 124 43 q22 22 36 67 Z" /><glyph glyph-name="uni01A9" unicode="&#x1a9;" d="M-32 0 l17 80 l349 277 l-210 278 l17 80 l484 0 l-17 -80 l-371 0 l210 -278 l-349 -277 l405 0 l-17 -80 l-518 0 Z" /><glyph glyph-name="uni01AE" unicode="&#x1ae;" d="M70 -208 l16 76 q59 1 73 11 q13 7 24 53 l149 700 l-242 0 l18 85 l582 0 l-18 -85 l-242 0 l-151 -710 q-12 -56 -36 -85 q-53 -48 -138 -48 q-15 0 -35 3 Z" /><glyph glyph-name="uni01AF" unicode="&#x1af;" d="M175 717 l99 0 l-94 -443 q-17 -79 1 -130 q27 -78 130 -78 q124 0 185 84 q35 47 51 124 l94 443 l99 0 l-13 -62 q4 0 18 2 q21 1 44 10 l6 2 q4 2 6 4 l-10 49 l107 41 l19 -97 l-99 -38 q-55 -21 -101 -20 l-63 -294 q-29 -134 -79 -203 q-93 -130 -275 -130 q-181 0 -218 130 q-21 72 7 203 l86 403 Z" /><glyph glyph-name="uni01B0" unicode="&#x1b0;" d="M113 523 l90 0 l-74 -347 q-9 -40 -1 -66 q14 -47 77 -47 q92 0 143 83 q27 41 44 120 l55 257 l87 0 l-16 -76 q6 0 22 2 q23 2 44 9 l6 3 q4 2 6 4 l-9 49 l106 41 l20 -97 l-100 -38 q-55 -22 -105 -20 l-85 -400 l-83 0 l17 77 q-24 -30 -53 -50 q-59 -41 -130 -41 q-112 0 -138 75 q-13 38 1 106 l76 356 Z" /><glyph glyph-name="uni01B1" unicode="&#x1b1;" d="M633 338 q20 96 -11 182 q-31 88 -108 124 l18 81 l274 0 l-17 -80 l-182 0 q55 -24 98 -106 q43 -81 18 -201 q-31 -148 -138 -243 q-107 -95 -269 -95 q-163 0 -230 94 q-67 95 -35 244 q25 119 103 201 q78 82 145 106 l-182 0 l17 80 l274 0 l-18 -81 q-91 -36 -160 -123 q-68 -88 -89 -183 q-22 -109 28 -179 q51 -69 164 -69 q117 0 196 69 q81 69 104 179 Z" /><glyph glyph-name="uni01B5" unicode="&#x1b5;" d="M-37 0 l17 79 l535 555 l-409 0 l20 80 l521 0 l-17 -81 l-540 -553 l456 0 l-17 -80 l-566 0 Z" /><glyph glyph-name="uni01B6" unicode="&#x1b6;" d="M-52 0 l12 64 l359 378 l-278 0 l15 75 l393 0 l-13 -61 l-363 -381 l309 0 l-14 -75 l-420 0 Z" /><glyph glyph-name="uni01B7" unicode="&#x1b7;" d="M264 406 l-113 0 l318 231 l-372 0 l17 80 l485 0 l-17 -80 l-208 -152 q72 -14 109 -72 q51 -76 22 -215 q-24 -111 -110 -158 q-85 -45 -188 -45 q-91 0 -154 48 q-63 48 -55 152 l85 0 q0 -56 38.5 -90.5 q38.5 -34.5 94.5 -34.5 q72 0 124 24 q54 25 70 103 q17 79 2 146 q-15 68 -99 68 l-49 -5 Z" /><glyph glyph-name="uni01B8" unicode="&#x1b8;" d="M451 406 l-113 0 l-47 5 q-84 0 -129 -68 q-45 -70 -61 -146 q-16 -77 26 -103 q43 -24 114 -24 q55 0 109 33 q55 35 78 92 l86 0 q-38 -104 -121 -152 q-83 -48 -175 -48 q-102 0 -168 45 q-66 46 -42 158 q28 137 112 215 q64 59 141 72 l-144 152 l17 80 l485 0 l-17 -80 l-371 0 l220 -231 Z" /><glyph glyph-name="uni01B9" unicode="&#x1b9;" d="M408 209 l-113 0 l-47 5 q-84 0 -129 -68 q-44 -68 -60 -146 q-17 -79 22 -107 q39 -30 110 -30 q51 0 84.5 35 q33.5 35 60.5 100 l86 0 q-74 -210 -254 -210 q-102 0 -165 51 q-62 50 -38 162 q28 137 112 215 q65 58 141 72 l-143 152 l17 81 l435 0 l-17 -81 l-322 0 l220 -231 Z" /><glyph glyph-name="uni01BB" unicode="&#x1bb;" d="M197 279 l105 54 q70 37 102 63 q49 41 59 92 q13 61 -16 97 q-29 36 -90 36 q-91 0 -139 -68 q-26 -36 -43 -102 l-89 0 q20 89 65 149 q79 102 224 102 q120 0 161 -65 q42 -64 25 -145 q-18 -84 -89 -143 q-42 -35 -141 -84 l-74 -37 q-54 -27 -87 -51 q-57 -42 -81 -94 l382 0 l-17 -83 l-480 0 q24 90 70 157 q45 66 153 122 ZM545 310 l-478 0 l15 69 l478 0 l-15 -69 Z" /><glyph glyph-name="uni01C0" unicode="&#x1c0;" d="M266 728 l-154 -728 l-83 0 l154 728 l83 0 Z" /><glyph glyph-name="uni01C1" unicode="&#x1c1;" d="M266 728 l-154 -728 l-83 0 l154 728 l83 0 ZM437 728 l-154 -728 l-83 0 l154 728 l83 0 Z" /><glyph glyph-name="uni01C2" unicode="&#x1c2;" d="M355 489 l218 0 l-17 -82 l-218 0 l-27 -127 l218 0 l-18 -84 l-218 0 l-41 -196 l-83 0 l41 196 l-208 0 l18 84 l208 0 l27 127 l-208 0 l17 82 l208 0 l51 239 l83 0 l-51 -239 Z" /><glyph glyph-name="uni01C3" unicode="&#x1c3;" d="M137 481 l50 236 l99 0 l-50 -236 l-90 -310 l-49 0 l40 310 ZM35 0 l21 102 l97 0 l-21 -102 l-97 0 Z" /><glyph glyph-name="uni01C4" unicode="&#x1c4;" d="M111 83 l174 0 q50 0 83 10 q61 20 108 74 q38 43 66 111 q16 44 23 75 q59 281 -164 281 l-173 0 l-117 -551 ZM-3 0 l152 717 l290 0 q148 0 208 -105 q52 -93 20 -242 q-24 -116 -87 -207 q-109 -163 -294 -163 l-289 0 ZM578 2 l17 81 l557 551 l-408 0 l19 86 l533 0 l-18 -84 l-559 -548 l442 0 l-18 -86 l-565 0 ZM1198 918 l-130 -141 l-92 0 l-70 141 l80 0 l46 -94 l86 94 l80 0 Z" /><glyph glyph-name="uni01C5" unicode="&#x1c5;" d="M93 83 l174 0 q50 0 83 10 q61 20 108 74 q38 43 66 111 q16 44 23 75 q59 281 -164 281 l-173 0 l-117 -551 ZM-21 0 l152 717 l290 0 q148 0 208 -105 q52 -93 20 -242 q-24 -116 -87 -207 q-109 -163 -294 -163 l-289 0 ZM581 0 l14 69 l390 375 l-287 0 l17 79 l405 0 l-16 -72 l-387 -372 l317 0 l-16 -79 l-437 0 ZM1109 726 l-129 -142 l-93 0 l-69 142 l79 0 l46 -94 l86 94 l80 0 Z" /><glyph glyph-name="uni01C6" unicode="&#x1c6;" d="M222 58 q62 0 112 53.5 q50 53.5 71 149.5 q20 95 -8.5 145 q-28.5 50 -91.5 50 q-68 0 -119 -52 q-51 -52 -72 -149 q-18 -83 5 -141 q24 -56 103 -56 ZM400 507 q20 -15 42 -51 l57 264 l85 0 l-153 -720 l-79 0 l15 73 q-78 -92 -189 -92 q-88 0 -136 73 q-48 73 -22 196 q24 116 100 198 q76 84 185 84 q61 0 95 -25 ZM469 0 l14 69 l390 375 l-287 0 l17 79 l406 0 l-16 -72 l-388 -372 l318 0 l-16 -79 l-438 0 ZM1007 723 l-130 -141 l-92 0 l-69 141 l79 0 l46 -94 l86 94 l80 0 Z" /><glyph glyph-name="uni01C7" unicode="&#x1c7;" d="M-8 0 l152 717 l97 0 l-134 -632 l364 0 l-18 -85 l-461 0 ZM1048 717 l-107 -503 q-19 -92 -57 -141 q-71 -92 -210 -92 q-81 0 -128 43 q-48 44 -24 156 l11 51 l92 0 l-11 -51 q-26 -118 82 -118 q78 0 113 54 q20 30 40 123 l102 478 l97 0 Z" /><glyph glyph-name="uni01C8" unicode="&#x1c8;" d="M-5 0 l152 717 l97 0 l-134 -632 l364 0 l-18 -85 l-461 0 ZM775 717 l-22 -101 l-88 0 l22 101 l88 0 ZM407 -208 l16 76 q59 1 73 11 q13 7 24 53 l125 589 l88 0 l-127 -599 q-12 -57 -37 -85 q-41 -48 -127 -48 q-15 0 -35 3 Z" /><glyph glyph-name="uni01C9" unicode="&#x1c9;" d="M-17 0 l152 717 l88 0 l-152 -717 l-88 0 ZM438 717 l-22 -101 l-88 0 l22 101 l88 0 ZM70 -208 l16 76 q59 1 73 11 q13 7 24 53 l125 589 l88 0 l-127 -599 q-12 -57 -37 -85 q-41 -48 -127 -48 q-15 0 -35 3 Z" /><glyph glyph-name="uni01CA" unicode="&#x1ca;" d="M-5 0 l152 717 l115 0 l238 -581 l124 581 l93 0 l-152 -717 l-109 0 l-245 581 l-123 -581 l-93 0 ZM1164 730 l-107 -503 q-19 -91 -57 -141 q-69 -92 -209 -92 q-80 0 -129 44 q-47 44 -23 155 l11 52 l92 0 l-11 -52 q-26 -117 82 -117 q77 0 112 53 q21 31 41 123 l102 478 l96 0 Z" /><glyph glyph-name="uni01CB" unicode="&#x1cb;" d="M-8 0 l152 717 l115 0 l238 -581 l124 581 l93 0 l-152 -717 l-109 0 l-245 581 l-123 -581 l-93 0 ZM938 717 l-22 -101 l-88 0 l22 101 l88 0 ZM570 -208 l16 76 q59 1 73 11 q13 7 24 53 l125 589 l88 0 l-127 -599 q-12 -57 -37 -85 q-40 -48 -127 -48 q-15 0 -35 3 Z" /><glyph glyph-name="uni01CC" unicode="&#x1cc;" d="M-19 0 l111 523 l83 0 l-16 -74 q89 86 189 86 q112 0 134 -78 q13 -40 -4 -122 l-71 -335 l-90 0 l70 330 q10 45 2 77 q-13 49 -75 49 q-32 0 -52 -7 q-36 -10 -72 -43 q-27 -26 -39.5 -52.5 q-12.5 -26.5 -24.5 -79.5 l-58 -274 l-87 0 ZM772 717 l-22 -101 l-88 0 l22 101 l88 0 ZM404 -208 l16 76 q59 1 73 11 q13 7 24 53 l125 589 l88 0 l-127 -599 q-12 -57 -37 -85 q-40 -48 -127 -48 q-15 0 -35 3 Z" /><glyph glyph-name="uni01CD" unicode="&#x1cd;" d="M222 294 l224 0 l-42 317 l-182 -317 ZM-45 0 l422 717 l110 0 l108 -717 l-107 0 l-27 215 l-284 0 l-123 -215 l-99 0 ZM634 913 l-130 -142 l-93 0 l-68 142 l80 0 l45 -94 l86 94 l80 0 Z" /><glyph glyph-name="uni01CE" unicode="&#x1ce;" d="M178 57 q48 0 93 22 q82 34 99 116 l15 71 q-37 -20 -98 -27 l-54 -7 q-48 -6 -76 -20 q-45 -23 -56 -73 q-8 -37 14.5 -59.5 q22.5 -22.5 62.5 -22.5 ZM208 299 l144 18 q32 5 45 25 q8 11 13 34 q10 44 -17 64.5 q-27 20.5 -88 20.5 q-69 0 -105 -37 q-20 -18 -34 -61 l-82 0 q22 97 90 135 q70 38 149 38 q93 0 142 -36 q50 -35 35 -109 l-64 -301 q-3 -16 1 -23 q4 -7 21 -7 q4 0 30 2 l-14 -64 q-33 -9 -63 -9 q-45 0 -59 32 q-7 15 -5 48 q-36 -37 -92 -62 q-56 -25 -114 -25 q-72 0 -109 44 q-37 44 -23 111 q15 71 67.5 112 q52.5 41 131.5 50 ZM529 718 l-129 -141 l-93 0 l-69 141 l80 0 l46 -94 l85 94 l80 0 Z" /><glyph glyph-name="uni01CF" unicode="&#x1cf;" d="M38 0 l152 717 l98 0 l-152 -717 l-98 0 ZM428 916 l-129 -142 l-93 0 l-69 142 l80 0 l45 -94 l86 94 l80 0 Z" /><glyph glyph-name="uni01D0" unicode="&#x1d0;" d="M32 0 l110 521 l90 0 l-110 -521 l-90 0 ZM385 728 l-130 -141 l-92 0 l-69 141 l79 0 l46 -94 l86 94 l80 0 Z" /><glyph glyph-name="uni01D1" unicode="&#x1d1;" d="M737 615 q51 -94 19 -244 q-35 -162 -137 -267 q-123 -125 -300 -125 q-167 0 -237 109 q-62 108 -28 267 q32 147 125 249 q121 133 303 133 q190 0 255 -122 ZM657 370 q27 126 -23 203 q-50 77 -164 77 q-113 0 -199 -76 q-85 -76 -117 -225 q-26 -121 17 -202 q43 -81 179 -81 q128 0 205 92 q76 91 102 212 ZM684 929 l-130 -141 l-93 0 l-69 141 l80 0 l46 -94 l86 94 l80 0 Z" /><glyph glyph-name="uni01D2" unicode="&#x1d2;" d="M421 270 q15 74 2 119 q-23 72 -113 72 q-81 0 -131 -62 q-49 -61 -67 -148 q-18 -84 7 -139 q25 -55 105 -55 q86 0 133 66 q48 68 64 147 ZM513 272 q-25 -125 -106 -209 q-79 -82 -208 -82 q-108 0 -156 73 q-48 73 -21 196 q28 132 111 210 q84 78 196 78 q100 0 156 -68 q56 -68 28 -198 ZM530 728 l-130 -142 l-92 0 l-69 142 l79 0 l46 -94 l86 94 l80 0 Z" /><glyph glyph-name="uni01D3" unicode="&#x1d3;" d="M175 717 l99 0 l-94 -443 q-17 -79 1 -130 q27 -78 130 -78 q124 0 185 84 q35 47 51 124 l94 443 l99 0 l-86 -403 q-29 -134 -79 -203 q-93 -130 -275 -130 q-181 0 -218 130 q-21 72 7 203 l86 403 ZM659 897 l-130 -141 l-93 0 l-69 141 l80 0 l46 -93 l86 93 l80 0 Z" /><glyph glyph-name="uni01D4" unicode="&#x1d4;" d="M113 523 l90 0 l-74 -347 q-9 -40 -1 -66 q14 -47 77 -47 q92 0 143 83 q27 41 44 120 l55 257 l87 0 l-111 -523 l-83 0 l17 77 q-24 -30 -53 -50 q-59 -41 -130 -41 q-112 0 -138 75 q-13 38 1 106 l76 356 ZM528 712 l-130 -141 l-93 0 l-69 141 l80 0 l46 -93 l85 93 l81 0 Z" /><glyph glyph-name="uni01D5" unicode="&#x1d5;" d="M175 717 l99 0 l-94 -443 q-17 -79 1 -130 q27 -78 130 -78 q124 0 185 84 q35 47 51 124 l94 443 l99 0 l-86 -403 q-29 -134 -79 -203 q-93 -130 -275 -130 q-181 0 -218 130 q-21 72 7 203 l86 403 ZM513 762 l22 102 l91 0 l-22 -102 l-91 0 ZM352 762 l22 102 l91 0 l-22 -102 l-91 0 ZM352 921 l13 58 l312 0 l-13 -58 l-312 0 Z" /><glyph glyph-name="uni01D6" unicode="&#x1d6;" d="M113 523 l90 0 l-74 -347 q-9 -40 -1 -66 q14 -47 77 -47 q92 0 143 83 q27 41 44 120 l55 257 l87 0 l-111 -523 l-83 0 l17 77 q-24 -30 -53 -50 q-59 -41 -130 -41 q-112 0 -138 75 q-13 38 1 106 l76 356 ZM379 565 l21 102 l92 0 l-21 -102 l-92 0 ZM218 565 l21 102 l92 0 l-21 -102 l-92 0 ZM228 721 l12 58 l312 0 l-12 -58 l-312 0 Z" /><glyph glyph-name="uni01D7" unicode="&#x1d7;" d="M175 717 l99 0 l-94 -443 q-17 -79 1 -130 q27 -78 130 -78 q124 0 185 84 q35 47 51 124 l94 443 l99 0 l-86 -403 q-29 -134 -79 -203 q-93 -130 -275 -130 q-181 0 -218 130 q-21 72 7 203 l86 403 ZM511 751 l22 102 l91 0 l-22 -102 l-91 0 ZM350 751 l22 102 l91 0 l-22 -102 l-91 0 ZM567 1035 l109 0 l-160 -141 l-67 0 l118 141 Z" /><glyph glyph-name="uni01D8" unicode="&#x1d8;" d="M113 523 l90 0 l-74 -347 q-9 -40 -1 -66 q14 -47 77 -47 q92 0 143 83 q27 41 44 120 l55 257 l87 0 l-111 -523 l-83 0 l17 77 q-24 -30 -53 -50 q-59 -41 -130 -41 q-112 0 -138 75 q-13 38 1 106 l76 356 ZM368 567 l22 102 l91 0 l-22 -102 l-91 0 ZM207 567 l22 102 l91 0 l-22 -102 l-91 0 ZM430 855 l108 0 l-160 -141 l-67 0 l119 141 Z" /><glyph glyph-name="uni01D9" unicode="&#x1d9;" d="M175 717 l99 0 l-94 -443 q-17 -79 1 -130 q27 -78 130 -78 q124 0 185 84 q35 47 51 124 l94 443 l99 0 l-86 -403 q-29 -134 -79 -203 q-93 -130 -275 -130 q-181 0 -218 130 q-21 72 7 203 l86 403 ZM499 749 l21 102 l92 0 l-21 -102 l-92 0 ZM338 749 l21 102 l92 0 l-21 -102 l-92 0 ZM673 1027 l-130 -141 l-93 0 l-69 141 l80 0 l46 -94 l86 94 l80 0 Z" /><glyph glyph-name="uni01DA" unicode="&#x1da;" d="M113 523 l90 0 l-74 -347 q-9 -40 -1 -66 q14 -47 77 -47 q92 0 143 83 q27 41 44 120 l55 257 l87 0 l-111 -523 l-83 0 l17 77 q-24 -30 -53 -50 q-59 -41 -130 -41 q-112 0 -138 75 q-13 38 1 106 l76 356 ZM367 551 l21 102 l91 0 l-21 -102 l-91 0 ZM205 551 l21 102 l92 0 l-21 -102 l-92 0 ZM537 831 l-129 -142 l-93 0 l-69 142 l79 0 l46 -94 l86 94 l80 0 Z" /><glyph glyph-name="uni01DB" unicode="&#x1db;" d="M175 717 l99 0 l-94 -443 q-17 -79 1 -130 q27 -78 130 -78 q124 0 185 84 q35 47 51 124 l94 443 l99 0 l-86 -403 q-29 -134 -79 -203 q-93 -130 -275 -130 q-181 0 -218 130 q-21 72 7 203 l86 403 ZM492 739 l21 101 l91 0 l-21 -101 l-91 0 ZM331 739 l21 101 l91 0 l-21 -101 l-91 0 ZM470 1010 l59 -141 l-67 0 l-100 141 l108 0 Z" /><glyph glyph-name="uni01DC" unicode="&#x1dc;" d="M113 523 l90 0 l-74 -347 q-9 -40 -1 -66 q14 -47 77 -47 q92 0 143 83 q27 41 44 120 l55 257 l87 0 l-111 -523 l-83 0 l17 77 q-24 -30 -53 -50 q-59 -41 -130 -41 q-112 0 -138 75 q-13 38 1 106 l76 356 ZM366 554 l22 101 l91 0 l-22 -101 l-91 0 ZM204 554 l22 101 l92 0 l-22 -101 l-92 0 ZM347 828 l60 -141 l-67 0 l-101 141 l108 0 Z" /><glyph glyph-name="uni01DD" unicode="&#x1dd;" d="M33 75 q-17 39 -15 92 q0 38 16 115 l383 0 q33 176 -108 176 q-69 0 -120 -45 q-28 -27 -46 -61 l-87 0 q10 28 36 63 q27 36 56 59 q49 38 111 52 q35 8 73 8 q98 0 151 -71 q53 -71 26 -199 q-27 -125 -113 -205 q-86 -78 -195 -78 q-56 0 -102.5 26 q-46.5 26 -65.5 68 ZM401 212 l-291 0 q-7 -56 5 -91 q24 -63 108 -63 q62 0 111 43 q51 45 67 111 Z" /><glyph glyph-name="uni01DE" unicode="&#x1de;" d="M222 294 l224 0 l-42 317 l-182 -317 ZM-45 0 l422 717 l110 0 l108 -717 l-107 0 l-27 215 l-284 0 l-123 -215 l-99 0 ZM478 759 l21 101 l91 0 l-21 -101 l-91 0 ZM317 759 l21 101 l91 0 l-21 -101 l-91 0 ZM310 896 l12 57 l313 0 l-12 -57 l-313 0 Z" /><glyph glyph-name="uni01DF" unicode="&#x1df;" d="M178 57 q48 0 93 22 q82 34 99 116 l15 71 q-37 -20 -98 -27 l-54 -7 q-48 -6 -76 -20 q-45 -23 -56 -73 q-8 -37 14.5 -59.5 q22.5 -22.5 62.5 -22.5 ZM208 299 l144 18 q32 5 45 25 q8 11 13 34 q10 44 -17 64.5 q-27 20.5 -88 20.5 q-69 0 -105 -37 q-20 -18 -34 -61 l-82 0 q22 97 90 135 q70 38 149 38 q93 0 142 -36 q50 -35 35 -109 l-64 -301 q-3 -16 1 -23 q4 -7 21 -7 q4 0 30 2 l-14 -64 q-33 -9 -63 -9 q-45 0 -59 32 q-7 15 -5 48 q-36 -37 -92 -62 q-56 -25 -114 -25 q-72 0 -109 44 q-37 44 -23 111 q15 71 67.5 112 q52.5 41 131.5 50 ZM364 593 l21 101 l91 0 l-21 -101 l-91 0 ZM203 593 l21 101 l91 0 l-21 -101 l-91 0 ZM200 748 l13 57 l312 0 l-13 -57 l-312 0 Z" /><glyph glyph-name="uni01E0" unicode="&#x1e0;" d="M222 294 l224 0 l-42 317 l-182 -317 ZM-45 0 l422 717 l110 0 l108 -717 l-107 0 l-27 215 l-284 0 l-123 -215 l-99 0 ZM392 757 l22 102 l91 0 l-22 -102 l-91 0 ZM307 896 l12 57 l312 0 l-12 -57 l-312 0 Z" /><glyph glyph-name="uni01E1" unicode="&#x1e1;" d="M178 57 q48 0 93 22 q82 34 99 116 l15 71 q-37 -20 -98 -27 l-54 -7 q-48 -6 -76 -20 q-45 -23 -56 -73 q-8 -37 14.5 -59.5 q22.5 -22.5 62.5 -22.5 ZM208 299 l144 18 q32 5 45 25 q8 11 13 34 q10 44 -17 64.5 q-27 20.5 -88 20.5 q-69 0 -105 -37 q-20 -18 -34 -61 l-82 0 q22 97 90 135 q70 38 149 38 q93 0 142 -36 q50 -35 35 -109 l-64 -301 q-3 -16 1 -23 q4 -7 21 -7 q4 0 30 2 l-14 -64 q-33 -9 -63 -9 q-45 0 -59 32 q-7 15 -5 48 q-36 -37 -92 -62 q-56 -25 -114 -25 q-72 0 -109 44 q-37 44 -23 111 q15 71 67.5 112 q52.5 41 131.5 50 ZM288 604 l21 101 l91 0 l-21 -101 l-91 0 ZM206 750 l12 58 l313 0 l-12 -58 l-313 0 Z" /><glyph glyph-name="uni01E2" unicode="&#x1e2;" d="M531 634 l-97 0 l-205 -339 l230 0 l72 339 ZM-52 0 l443 717 l643 0 l-18 -85 l-389 0 l-47 -220 l357 0 l-17 -81 l-357 0 l-52 -246 l398 0 l-18 -85 l-494 0 l45 213 l-264 0 l-125 -213 l-105 0 ZM542 779 l12 58 l312 0 l-12 -58 l-312 0 Z" /><glyph glyph-name="uni01E3" unicode="&#x1e3;" d="M468 303 l289 0 q14 74 -16.5 114.5 q-30.5 40.5 -91.5 40.5 q-62 0 -111.5 -40 q-49.5 -40 -69.5 -115 ZM364 200 l14 66 q-24 -14 -71 -22 l-76 -12 q-55 -7 -83 -22 q-44 -23 -54 -70 q-8 -40 17 -62.5 q25 -22.5 69 -22.5 q61 0 126 50 q27 21 41 46 q5 11 17 49 ZM198 298 l143 19 q52 6 62 58 q9 43 -14.5 64 q-23.5 21 -82.5 21 q-50 0 -81 -15 q-55 -28 -67 -83 l-84 0 q29 111 119 151 q52 23 133 23 q66 0 106 -24 q36 -22 49 -55 q76 79 185 79 q127 0 168 -88 q19 -43 19 -89.5 q0 -46.5 -17 -125.5 l-384 0 q-15 -82 13.5 -128.5 q28.5 -46.5 94.5 -46.5 q117 0 165 106 l89 0 q-14 -41 -50 -81 q-39 -43 -72 -61 q-72 -40 -151 -40 q-72 0 -119 38 q-43 37 -50 74 q-98 -112 -225 -112 q-82 0 -120 41.5 q-38 41.5 -23 109.5 q18 86 86 130 q44 28 108 35 ZM355 600 l12 58 l313 0 l-12 -58 l-313 0 Z" /><glyph glyph-name="uni01E4" unicode="&#x1e4;" d="M545 183 l-89 0 l15 69 l107 0 q9 24 15 51 l-224 0 l17 81 l315 0 l-28 -132 l94 0 l-15 -69 l-94 0 l-38 -183 l-63 0 l-4 92 q-63 -55 -104 -75 q-72 -36 -170 -36 q-128 0 -201 82 q-79 102 -41 285 q39 179 159 286 q116 102 262 102 q101 0 167 -39 q95 -56 89 -197 l-96 0 q-1 150 -180 150 q-100 0 -184 -75 q-83 -73 -115 -222 q-28 -127 11 -209 q39 -80 166 -80 q96 0 173 57 q33 24 56 62 Z" /><glyph glyph-name="uni01E5" unicode="&#x1e5;" d="M398 502 q20 -15 40 -50 l14 66 l81 0 l-47 -217 l100 0 l-14 -70 l-100 0 l-41 -189 q-21 -97 -62 -157 q-76 -106 -228 -106 q-89 0 -137 39 q-48 39 -37 117 l89 0 q-1 -34 14 -54 q24 -29 88 -29 q100 0 147 71 q26 41 49 150 q-67 -79 -179 -79 q-85 0 -136 60 q-49 60 -21 199 q28 131 108 205 q80 74 171 74 q62 0 101 -30 ZM390 231 l-114 0 l14 70 l113 0 q9 69 -15 107 q-30 47 -92 47 q-92 0 -145 -87 q-27 -44 -44 -122 q-19 -87 6.5 -134 q25.5 -47 87.5 -47 q93 0 152 86 q21 34 37 80 Z" /><glyph glyph-name="uni01E6" unicode="&#x1e6;" d="M649 697 q95 -56 89 -197 l-96 0 q-1 150 -180 150 q-100 0 -184 -75 q-83 -73 -115 -222 q-28 -127 11 -209 q39 -80 166 -80 q96 0 173 56 q75 56 104 183 l-224 0 l17 81 l315 0 l-81 -384 l-63 0 l-4 92 q-63 -55 -104 -75 q-72 -36 -170 -36 q-129 0 -202 82 q-78 103 -40 285 q39 179 159 286 q115 102 262 102 q101 0 167 -39 ZM668 922 l-128 -141 l-93 0 l-70 141 l79 0 l46 -94 l86 94 l80 0 Z" /><glyph glyph-name="uni01E7" unicode="&#x1e7;" d="M402 502 q20 -15 41 -50 l14 66 l81 0 l-102 -476 q-21 -97 -62 -157 q-76 -106 -229 -106 q-84 0 -134 38 q-49 37 -39 118 l89 0 q-1 -34 14 -54 q23 -29 87 -29 q101 0 148 71 q26 41 49 150 q-70 -79 -179 -79 q-85 0 -136 60 q-49 60 -21 199 q28 131 108 205 q80 74 171 74 q62 0 100 -30 ZM301 455 q-93 0 -145 -87 q-27 -44 -44 -122 q-18 -86 7 -133.5 q25 -47.5 86 -47.5 q94 0 153 86 q31 48 45 113 q20 94 -8.5 142.5 q-28.5 48.5 -93.5 48.5 ZM494 742 l-129 -141 l-93 0 l-69 141 l80 0 l45 -94 l86 94 l80 0 Z" /><glyph glyph-name="uni01E8" unicode="&#x1e8;" d="M16 0 l152 717 l95 0 l-74 -349 l424 349 l134 0 l-361 -289 l217 -428 l-126 0 l-175 360 l-138 -110 l-53 -250 l-95 0 ZM621 901 l-129 -141 l-93 0 l-69 141 l79 0 l46 -93 l86 93 l80 0 Z" /><glyph glyph-name="uni01E9" unicode="&#x1e9;" d="M2 0 l152 717 l85 0 l-89 -416 l274 222 l112 0 l-242 -196 l142 -327 l-112 0 l-107 264 l-89 -68 l-41 -196 l-85 0 ZM544 889 l-130 -141 l-93 0 l-69 141 l80 0 l46 -94 l85 94 l81 0 Z" /><glyph glyph-name="uni01EA" unicode="&#x1ea;" d="M737 615 q51 -94 19 -244 q-35 -162 -137 -267 q-123 -125 -300 -125 q-167 0 -237 109 q-62 108 -28 267 q32 147 125 249 q121 133 303 133 q190 0 255 -122 ZM657 370 q27 126 -23 203 q-50 77 -164 77 q-113 0 -199 -76 q-85 -76 -117 -225 q-26 -121 17 -202 q43 -81 179 -81 q128 0 205 92 q76 91 102 212 ZM293 -16 l72 0 l-34 -23 q-42 -29 -56 -44 q-12 -15 -17 -35 q-3 -19 7.5 -32 q10.5 -13 34.5 -13 q21 0 42 11 l-13 -64 q-7 -3 -32 -11 q-25 -6 -51 -6 q-45 0 -65 26.5 q-20 26.5 -13 62.5 q7 38 43 71 q26 24 82 57 Z" /><glyph glyph-name="uni01EB" unicode="&#x1eb;" d="M421 270 q15 74 2 119 q-23 72 -113 72 q-81 0 -131 -62 q-49 -61 -67 -148 q-18 -84 7 -139 q25 -55 105 -55 q86 0 133 66 q48 68 64 147 ZM513 272 q-25 -125 -106 -209 q-79 -82 -208 -82 q-108 0 -156 73 q-48 73 -21 196 q28 132 111 210 q84 78 196 78 q100 0 156 -68 q56 -68 28 -198 ZM178 -14 l71 0 l-33 -23 q-40 -26 -56 -44 q-12 -15 -17 -35 q-4 -19 6.5 -32 q10.5 -13 34.5 -13 q21 0 42 11 l-14 -64 q-8 -4 -30 -11 q-27 -6 -52 -6 q-45 0 -65 26.5 q-20 26.5 -13 62.5 q9 40 43 71 q30 27 83 57 Z" /><glyph glyph-name="uni01EC" unicode="&#x1ec;" d="M737 615 q51 -94 19 -244 q-35 -162 -137 -267 q-123 -125 -300 -125 q-167 0 -237 109 q-62 108 -28 267 q32 147 125 249 q121 133 303 133 q190 0 255 -122 ZM657 370 q27 126 -23 203 q-50 77 -164 77 q-113 0 -199 -76 q-85 -76 -117 -225 q-26 -121 17 -202 q43 -81 179 -81 q128 0 205 92 q76 91 102 212 ZM293 -16 l72 0 l-34 -23 q-42 -29 -56 -44 q-12 -15 -17 -35 q-3 -19 7.5 -32 q10.5 -13 34.5 -13 q21 0 42 11 l-13 -64 q-7 -3 -32 -11 q-25 -6 -51 -6 q-45 0 -65 26.5 q-20 26.5 -13 62.5 q7 38 43 71 q26 24 82 57 ZM328 798 l12 58 l313 0 l-12 -58 l-313 0 Z" /><glyph glyph-name="uni01ED" unicode="&#x1ed;" d="M421 270 q15 74 2 119 q-23 72 -113 72 q-81 0 -131 -62 q-49 -61 -67 -148 q-18 -84 7 -139 q25 -55 105 -55 q86 0 133 66 q48 68 64 147 ZM513 272 q-25 -125 -106 -209 q-79 -82 -208 -82 q-108 0 -156 73 q-48 73 -21 196 q28 132 111 210 q84 78 196 78 q100 0 156 -68 q56 -68 28 -198 ZM178 -14 l71 0 l-33 -23 q-40 -26 -56 -44 q-12 -15 -17 -35 q-4 -19 6.5 -32 q10.5 -13 34.5 -13 q21 0 42 11 l-14 -64 q-8 -4 -30 -11 q-27 -6 -52 -6 q-45 0 -65 26.5 q-20 26.5 -13 62.5 q9 40 43 71 q30 27 83 57 ZM175 605 l12 58 l313 0 l-12 -58 l-313 0 Z" /><glyph glyph-name="uni01EE" unicode="&#x1ee;" d="M260 406 l-113 0 l318 231 l-371 0 l17 80 l484 0 l-17 -80 l-207 -152 q70 -13 109 -72 q51 -76 22 -215 q-24 -111 -110 -158 q-86 -45 -188 -45 q-92 0 -155 48 q-62 49 -55 152 l86 0 q0 -56 38.5 -90.5 q38.5 -34.5 94.5 -34.5 q71 0 124 24 q54 25 70 103 q17 80 1 146 q-15 68 -99 68 l-49 -5 ZM540 929 l-130 -141 l-93 0 l-69 141 l80 0 l46 -94 l86 94 l80 0 Z" /><glyph glyph-name="uni01EF" unicode="&#x1ef;" d="M171 209 l-114 0 l318 231 l-322 0 l17 81 l436 0 l-17 -81 l-208 -152 q72 -14 109 -72 q51 -76 22 -215 q-24 -113 -109 -162 q-84 -51 -186 -51 q-178 0 -164 210 l86 0 q0 -60 16 -96 q17 -39 71 -39 q162 0 192 137 q16 79 0 146 q-15 68 -99 68 l-48 -5 ZM479 733 l-129 -141 l-93 0 l-69 141 l79 0 l47 -93 l85 93 l80 0 Z" /><glyph glyph-name="uni01F0" unicode="&#x1f0;" d="M-123 -208 l16 76 q59 1 73 11 q12 7 23 53 l125 589 l88 0 l-127 -599 q-12 -56 -36 -85 q-41 -48 -126 -48 q-15 0 -36 3 ZM353 729 l-129 -142 l-93 0 l-69 142 l79 0 l46 -94 l86 94 l80 0 Z" /><glyph glyph-name="uni01F1" unicode="&#x1f1;" d="M96 83 l173 0 q50 0 83 10 q62 20 109 74 q38 45 65 111 q16 40 24 75 q59 281 -165 281 l-172 0 l-117 -551 ZM-19 0 l152 717 l291 0 q147 0 207 -105 q52 -94 21 -242 q-24 -116 -87 -207 q-109 -163 -294 -163 l-290 0 ZM570 2 l17 81 l557 551 l-407 0 l19 86 l532 0 l-18 -84 l-559 -548 l442 0 l-18 -86 l-565 0 Z" /><glyph glyph-name="uni01F2" unicode="&#x1f2;" d="M109 83 l173 0 q52 0 83 10 q62 20 109 74 q38 43 66 111 q16 44 23 75 q59 281 -165 281 l-172 0 l-117 -551 ZM-6 0 l152 717 l291 0 q149 0 207 -105 q52 -94 21 -242 q-24 -116 -87 -207 q-109 -163 -294 -163 l-290 0 ZM596 0 l14 69 l390 375 l-287 0 l17 79 l405 0 l-16 -72 l-387 -372 l318 0 l-16 -79 l-438 0 Z" /><glyph glyph-name="uni01F3" unicode="&#x1f3;" d="M222 58 q62 0 112 53.5 q50 53.5 71 149.5 q20 95 -8.5 145 q-28.5 50 -91.5 50 q-68 0 -119 -52 q-51 -52 -72 -149 q-18 -83 5 -141 q24 -56 103 -56 ZM400 507 q20 -15 42 -51 l57 264 l85 0 l-153 -720 l-79 0 l15 73 q-78 -92 -189 -92 q-88 0 -136 73 q-48 73 -22 196 q24 116 100 198 q76 84 185 84 q61 0 95 -25 ZM467 0 l14 69 l390 375 l-287 0 l17 79 l405 0 l-16 -72 l-387 -372 l317 0 l-16 -79 l-437 0 Z" /><glyph glyph-name="uni01F4" unicode="&#x1f4;" d="M649 697 q95 -56 89 -197 l-96 0 q-1 150 -180 150 q-100 0 -184 -75 q-83 -73 -115 -222 q-28 -127 11 -209 q39 -80 166 -80 q96 0 173 56 q75 56 104 183 l-224 0 l17 81 l315 0 l-81 -384 l-63 0 l-4 92 q-63 -55 -104 -75 q-72 -36 -170 -36 q-129 0 -202 82 q-78 103 -40 285 q39 179 159 286 q115 102 262 102 q101 0 167 -39 ZM520 921 l108 0 l-160 -141 l-68 0 l120 141 Z" /><glyph glyph-name="uni01F5" unicode="&#x1f5;" d="M402 502 q20 -15 41 -50 l14 66 l81 0 l-102 -476 q-21 -97 -62 -157 q-76 -106 -229 -106 q-84 0 -134 38 q-49 37 -39 118 l89 0 q-1 -34 14 -54 q23 -29 87 -29 q101 0 148 71 q26 41 49 150 q-70 -79 -179 -79 q-85 0 -136 60 q-49 60 -21 199 q28 131 108 205 q80 74 171 74 q62 0 100 -30 ZM301 455 q-93 0 -145 -87 q-27 -44 -44 -122 q-18 -86 7 -133.5 q25 -47.5 86 -47.5 q94 0 153 86 q31 48 45 113 q20 94 -8.5 142.5 q-28.5 48.5 -93.5 48.5 ZM376 730 l109 0 l-161 -141 l-67 0 l119 141 Z" /><glyph glyph-name="uni01F7" unicode="&#x1f7;" d="M25 0 l152 717 l323 0 q97 0 143.5 -54.5 q46.5 -54.5 25.5 -150.5 q-18 -84 -86 -161 q-68 -77 -187 -121 l-240 -73 l-33 -157 l-98 0 ZM535 619 q-28 15 -85 15 l-193 0 l-84 -395 l209 73 q67 23 119 62 q49 37 70 137 q17 79 -36 108 Z" /><glyph glyph-name="uni01F8" unicode="&#x1f8;" d="M16 0 l152 717 l115 0 l238 -581 l124 581 l93 0 l-152 -717 l-109 0 l-245 581 l-123 -581 l-93 0 ZM464 889 l59 -141 l-67 0 l-100 141 l108 0 Z" /><glyph glyph-name="uni01F9" unicode="&#x1f9;" d="M4 0 l111 523 l84 0 l-16 -74 q89 86 189 86 q112 0 134 -78 q13 -40 -4 -122 l-71 -335 l-90 0 l70 330 q10 45 2 77 q-13 49 -75 49 q-32 0 -52 -7 q-37 -10 -73 -43 q-26 -26 -38.5 -52.5 q-12.5 -26.5 -24.5 -79.5 l-58 -274 l-88 0 ZM361 732 l58 -141 l-66 0 l-101 141 l109 0 Z" /><glyph glyph-name="uni01FA" unicode="&#x1fa;" d="M401 867 l88 106 l102 0 l-126 -106 l-64 0 ZM-67 0 l414 682 q-27 27 -18 72 q7 40 41.5 67.5 q34.5 27.5 74.5 27.5 q39 0 61.5 -27 q22.5 -27 13.5 -68 q-11 -44 -50 -72 l126 -682 l-105 0 l-33 215 l-302 0 l-125 -215 l-98 0 ZM370 754 q-5 -23 7 -39.5 q12 -16.5 36 -16.5 q23 0 42 16 q19 16 24 40 q5 24 -7.5 39.5 q-12.5 15.5 -35.5 15.5 q-24 0 -42.5 -15.5 q-18.5 -15.5 -23.5 -39.5 ZM395 628 l-192 -333 l242 0 l-48 333 l-2 0 Z" /><glyph glyph-name="uni01FB" unicode="&#x1fb;" d="M335 796 l109 126 l109 0 l-155 -126 l-63 0 ZM332 565 q-45 0 -69.5 29 q-24.5 29 -15.5 74 q10 44 47 73.5 q37 29.5 81 29.5 q45 0 69.5 -29 q24.5 -29 14.5 -74 q-10 -44 -46.5 -73.5 q-36.5 -29.5 -80.5 -29.5 ZM414 668 q6 27 -7 44.5 q-13 17.5 -40 17.5 q-27 0 -48 -17.5 q-21 -17.5 -27 -44.5 q-5 -27 8 -44.5 q13 -17.5 40 -17.5 q27 0 48 17.5 q21 17.5 26 44.5 ZM476 68 l-14 -66 q-26 -14 -64 -14 q-72 0 -55 80 q-86 -80 -199 -80 q-76 0 -115.5 35.5 q-39.5 35.5 -24.5 109.5 q7 34 22.5 59.5 q15.5 25.5 34.5 41.5 q19 16 46.5 28.5 q27.5 12.5 50.5 18 q23 5.5 55 11.5 q21 4 54 8.5 q33 4.5 51 7.5 q18 3 38.5 10 q20.5 7 31.5 19 q11 12 15 31 q11 50 -18 68 q-29 18 -79 18 q-124 0 -150 -98 l-85 0 q23 90 92 131.5 q69 41.5 164 41.5 q40 0 69.5 -5.5 q29.5 -5.5 56 -20 q26.5 -14.5 37 -44 q10.5 -29.5 1.5 -72.5 l-57 -266 q-4 -19 -5 -26.5 q-1 -7.5 -0.5 -16.5 q0.5 -9 5.5 -12 q5 -3 15 -3 q9 0 27 5 ZM362 180 l18 87 q-24 -15 -72.5 -22.5 q-48.5 -7.5 -89 -11.5 q-40.5 -4 -77 -27 q-36.5 -23 -46.5 -67 q-9 -39 16 -57.5 q25 -18.5 68 -18.5 q77 0 125 37 q48 37 58 80 Z" /><glyph glyph-name="uni01FC" unicode="&#x1fc;" d="M-67 0 l512 714 l535 0 l-17 -80 l-351 0 l-48 -227 l330 0 l-17 -80 l-330 0 l-52 -247 l357 0 l-17 -80 l-447 0 l44 208 l-246 0 l-146 -208 l-107 0 ZM522 634 l-41 0 l-241 -346 l209 0 l73 346 ZM633 779 l116 143 l109 0 l-161 -143 l-64 0 Z" /><glyph glyph-name="uni01FD" unicode="&#x1fd;" d="M835 233 l-379 0 q-17 -73 13.5 -121.5 q30.5 -48.5 105.5 -48.5 q106 0 152 100 l87 0 q-37 -84 -105 -129.5 q-68 -45.5 -156 -45.5 q-141 0 -166 101 q-77 -101 -239 -101 q-80 0 -119.5 35.5 q-39.5 35.5 -24.5 109.5 q9 42 29 71.5 q20 29.5 51.5 46.5 q31.5 17 59.5 25.5 q28 8.5 69 15.5 q21 4 50.5 9 q29.5 5 43 7 q13.5 2 32.5 6.5 q19 4.5 27 9 q8 4.5 18 11.5 q10 7 14.5 16.5 q4.5 9.5 7.5 22.5 q6 25 -0.5 42 q-6.5 17 -23 24.5 q-16.5 7.5 -34.5 10.5 q-18 3 -42 3 q-124 0 -150 -98 l-85 0 q23 90 92 131.5 q69 41.5 164 41.5 q135 0 157 -75 q67 75 181 75 q234 0 170 -296 ZM472 308 l289 0 q11 64 -17.5 105 q-28.5 41 -94.5 41 q-67 0 -114.5 -40.5 q-47.5 -40.5 -62.5 -105.5 ZM95 139 q-9 -39 16 -57.5 q25 -18.5 68 -18.5 q77 0 126.5 37 q49.5 37 59.5 80 l18 87 q-18 -9 -44 -15 q-26 -6 -64.5 -11.5 q-38.5 -5.5 -55.5 -8.5 q-51 -9 -83 -29 q-32 -20 -41 -64 ZM481 589 l116 143 l109 0 l-161 -143 l-64 0 Z" /><glyph glyph-name="uni01FE" unicode="&#x1fe;" d="M430 779 l116 143 l109 0 l-161 -143 l-64 0 ZM786 730 l25 -30 l-101 -90 q60 -103 27 -253 q-21 -100 -76 -183.5 q-55 -83.5 -145.5 -137 q-90.5 -53.5 -199.5 -53.5 q-138 0 -211 86 l-100 -89 l-26 30 l103 92 q-61 101 -29 255 q16 74 52.5 140.5 q36.5 66.5 89 119 q52.5 52.5 125.5 83.5 q73 31 155 31 q144 0 213 -88 l98 87 ZM159 170 l455 407 q-48 74 -156 74 q-122 0 -202.5 -86.5 q-80.5 -86.5 -107.5 -207.5 q-24 -109 11 -187 ZM633 541 l-455 -407 q50 -71 155 -71 q63 0 117.5 25.5 q54.5 25.5 92 68 q37.5 42.5 63 93.5 q25.5 51 36.5 107 q25 108 -9 184 Z" /><glyph glyph-name="uni01FF" unicode="&#x1ff;" d="M305 589 l116 143 l109 0 l-161 -143 l-64 0 ZM588 509 l-74 -66 q43 -70 18 -185 q-25 -118 -107.5 -194 q-82.5 -76 -200.5 -76 q-101 0 -153 57 l-74 -67 l-23 24 l77 69 q-45 71 -21 187 q25 118 108 194.5 q83 76.5 201 76.5 q104 0 155 -59 l72 65 l22 -26 ZM125 137 l299 270 q-33 47 -101 47 q-69 0 -126 -52.5 q-57 -52.5 -77 -143.5 q-15 -66 5 -121 ZM440 377 l-300 -269 q36 -45 100 -45 q70 0 126 52 q56 52 76 143 q16 69 -2 119 Z" /><glyph glyph-name="uni0200" unicode="&#x200;" d="M222 294 l224 0 l-42 317 l-182 -317 ZM-45 0 l422 717 l110 0 l108 -717 l-107 0 l-27 215 l-284 0 l-123 -215 l-99 0 ZM355 909 l37 -142 l-62 0 l-79 142 l104 0 ZM518 909 l37 -142 l-62 0 l-81 142 l106 0 Z" /><glyph glyph-name="uni0201" unicode="&#x201;" d="M178 57 q48 0 93 22 q82 34 99 116 l15 71 q-37 -20 -98 -27 l-54 -7 q-48 -6 -76 -20 q-45 -23 -56 -73 q-8 -37 14.5 -59.5 q22.5 -22.5 62.5 -22.5 ZM208 299 l144 18 q32 5 45 25 q8 11 13 34 q10 44 -17 64.5 q-27 20.5 -88 20.5 q-69 0 -105 -37 q-20 -18 -34 -61 l-82 0 q22 97 90 135 q70 38 149 38 q93 0 142 -36 q50 -35 35 -109 l-64 -301 q-3 -16 1 -23 q4 -7 21 -7 q4 0 30 2 l-14 -64 q-33 -9 -63 -9 q-45 0 -59 32 q-7 15 -5 48 q-36 -37 -92 -62 q-56 -25 -114 -25 q-72 0 -109 44 q-37 44 -23 111 q15 71 67.5 112 q52.5 41 131.5 50 ZM265 733 l37 -142 l-62 0 l-79 142 l104 0 ZM428 733 l37 -142 l-62 0 l-80 142 l105 0 Z" /><glyph glyph-name="uni0202" unicode="&#x202;" d="M222 294 l224 0 l-42 317 l-182 -317 ZM-45 0 l422 717 l110 0 l108 -717 l-107 0 l-27 215 l-284 0 l-123 -215 l-99 0 ZM586 738 l-50 0 q0 32 -12 48 q-21 29 -78 29 q-54 0 -86 -29 q-19 -16 -34 -48 l-48 0 q47 136 189 136 q86 0 112 -59 q13 -29 7 -77 Z" /><glyph glyph-name="uni0203" unicode="&#x203;" d="M178 57 q48 0 93 22 q82 34 99 116 l15 71 q-37 -20 -98 -27 l-54 -7 q-48 -6 -76 -20 q-45 -23 -56 -73 q-8 -37 14.5 -59.5 q22.5 -22.5 62.5 -22.5 ZM208 299 l144 18 q32 5 45 25 q8 11 13 34 q10 44 -17 64.5 q-27 20.5 -88 20.5 q-69 0 -105 -37 q-20 -18 -34 -61 l-82 0 q22 97 90 135 q70 38 149 38 q93 0 142 -36 q50 -35 35 -109 l-64 -301 q-3 -16 1 -23 q4 -7 21 -7 q4 0 30 2 l-14 -64 q-33 -9 -63 -9 q-45 0 -59 32 q-7 15 -5 48 q-36 -37 -92 -62 q-56 -25 -114 -25 q-72 0 -109 44 q-37 44 -23 111 q15 71 67.5 112 q52.5 41 131.5 50 ZM487 593 l-49 0 q-1 30 -13 48 q-23 29 -79 29 q-54 0 -86 -29 q-20 -17 -33 -48 l-48 0 q47 136 188 136 q86 0 112 -59 q14 -31 8 -77 Z" /><glyph glyph-name="uni0204" unicode="&#x204;" d="M25 0 l152 717 l523 0 l-19 -88 l-428 0 l-46 -217 l396 0 l-18 -83 l-396 0 l-51 -244 l436 0 l-18 -85 l-531 0 ZM388 909 l37 -142 l-62 0 l-80 142 l105 0 ZM550 909 l37 -142 l-61 0 l-81 142 l105 0 Z" /><glyph glyph-name="uni0205" unicode="&#x205;" d="M503 441 q18 -39 16 -92 q0 -34 -17 -116 l-384 0 q-15 -82 11.5 -128.5 q26.5 -46.5 98.5 -46.5 q70 0 119 45 q29 26 46 61 l86 0 q-9 -29 -36 -65 q-26 -33 -56 -57 q-49 -40 -110 -53 q-35 -8 -73 -8 q-98 0 -151 71 q-52 71 -25 199 q27 126 112 205 q85 79 195 79 q56 0 102.5 -26.5 q46.5 -26.5 65.5 -67.5 ZM136 303 l290 0 q8 57 -6 92 q-22 63 -106 63 q-60 0 -112 -44 q-50 -44 -66 -111 ZM273 733 l37 -142 l-62 0 l-79 142 l104 0 ZM436 733 l37 -142 l-62 0 l-81 142 l106 0 Z" /><glyph glyph-name="uni0206" unicode="&#x206;" d="M25 0 l152 717 l523 0 l-19 -88 l-428 0 l-46 -217 l396 0 l-18 -83 l-396 0 l-51 -244 l436 0 l-18 -85 l-531 0 ZM607 767 l-50 0 q-1 30 -13 48 q-21 29 -79 29 q-53 0 -85 -29 q-20 -17 -33 -48 l-49 0 q46 135 189 135 q87 0 112 -58 q14 -31 8 -77 Z" /><glyph glyph-name="uni0207" unicode="&#x207;" d="M503 441 q18 -39 16 -92 q0 -34 -17 -116 l-384 0 q-15 -82 11.5 -128.5 q26.5 -46.5 98.5 -46.5 q70 0 119 45 q29 26 46 61 l86 0 q-9 -29 -36 -65 q-26 -33 -56 -57 q-49 -40 -110 -53 q-35 -8 -73 -8 q-98 0 -151 71 q-52 71 -25 199 q27 126 112 205 q85 79 195 79 q56 0 102.5 -26.5 q46.5 -26.5 65.5 -67.5 ZM136 303 l290 0 q8 57 -6 92 q-22 63 -106 63 q-60 0 -112 -44 q-50 -44 -66 -111 ZM505 588 l-49 0 q-2 32 -12 48 q-23 29 -79 29 q-54 0 -86 -29 q-19 -16 -34 -48 l-48 0 q50 136 189 136 q87 0 112 -58 q13 -31 7 -78 Z" /><glyph glyph-name="uni0208" unicode="&#x208;" d="M38 0 l152 717 l98 0 l-152 -717 l-98 0 ZM168 909 l37 -142 l-62 0 l-80 142 l105 0 ZM330 909 l37 -142 l-61 0 l-81 142 l105 0 Z" /><glyph glyph-name="uni0209" unicode="&#x209;" d="M9 0 l110 521 l89 0 l-110 -521 l-89 0 ZM100 733 l37 -142 l-62 0 l-79 142 l104 0 ZM263 733 l37 -142 l-62 0 l-81 142 l106 0 Z" /><glyph glyph-name="uni020A" unicode="&#x20a;" d="M38 0 l152 717 l98 0 l-152 -717 l-98 0 ZM408 767 l-50 0 q-1 30 -13 48 q-21 29 -79 29 q-52 0 -86 -29 q-20 -17 -33 -48 l-48 0 q46 135 189 135 q87 0 112 -58 q13 -28 8 -77 Z" /><glyph glyph-name="uni020B" unicode="&#x20b;" d="M9 0 l110 521 l89 0 l-110 -521 l-89 0 ZM333 597 l-50 0 q-1 31 -12 48 q-21 28 -79 28 q-54 0 -86 -28 q-19 -16 -34 -48 l-48 0 q47 135 190 135 q87 0 112 -58 q12 -29 7 -77 Z" /><glyph glyph-name="uni020C" unicode="&#x20c;" d="M737 615 q51 -94 19 -244 q-35 -162 -137 -267 q-123 -125 -300 -125 q-167 0 -237 109 q-62 108 -28 267 q32 147 125 249 q121 133 303 133 q190 0 255 -122 ZM657 370 q27 126 -23 203 q-50 77 -164 77 q-113 0 -199 -76 q-85 -76 -117 -225 q-26 -121 17 -202 q43 -81 179 -81 q128 0 205 92 q76 91 102 212 ZM417 936 l37 -142 l-62 0 l-80 142 l105 0 ZM579 936 l37 -142 l-61 0 l-81 142 l105 0 Z" /><glyph glyph-name="uni020D" unicode="&#x20d;" d="M421 270 q15 74 2 119 q-23 72 -113 72 q-81 0 -131 -62 q-49 -61 -67 -148 q-18 -84 7 -139 q25 -55 105 -55 q86 0 133 66 q48 68 64 147 ZM513 272 q-25 -125 -106 -209 q-79 -82 -208 -82 q-108 0 -156 73 q-48 73 -21 196 q28 132 111 210 q84 78 196 78 q100 0 156 -68 q56 -68 28 -198 ZM272 733 l37 -142 l-62 0 l-80 142 l105 0 ZM434 733 l37 -142 l-61 0 l-81 142 l105 0 Z" /><glyph glyph-name="uni020E" unicode="&#x20e;" d="M737 615 q51 -94 19 -244 q-35 -162 -137 -267 q-123 -125 -300 -125 q-167 0 -237 109 q-62 108 -28 267 q32 147 125 249 q121 133 303 133 q190 0 255 -122 ZM657 370 q27 126 -23 203 q-50 77 -164 77 q-113 0 -199 -76 q-85 -76 -117 -225 q-26 -121 17 -202 q43 -81 179 -81 q128 0 205 92 q76 91 102 212 ZM649 787 l-50 0 q-1 29 -13 47 q-21 29 -79 29 q-53 0 -85 -29 q-20 -17 -33 -47 l-49 0 q47 135 189 135 q87 0 112 -58 q14 -32 8 -77 Z" /><glyph glyph-name="uni020F" unicode="&#x20f;" d="M421 270 q15 74 2 119 q-23 72 -113 72 q-81 0 -131 -62 q-49 -61 -67 -148 q-18 -84 7 -139 q25 -55 105 -55 q86 0 133 66 q48 68 64 147 ZM513 272 q-25 -125 -106 -209 q-79 -82 -208 -82 q-108 0 -156 73 q-48 73 -21 196 q28 132 111 210 q84 78 196 78 q100 0 156 -68 q56 -68 28 -198 ZM492 593 l-50 0 q-1 30 -13 48 q-21 29 -79 29 q-52 0 -86 -29 q-18 -15 -32 -48 l-49 0 q47 136 189 136 q86 0 112 -59 q13 -28 8 -77 Z" /><glyph glyph-name="uni0210" unicode="&#x210;" d="M207 389 l225 0 q73 0 117 28.5 q44 28.5 58 97.5 q16 75 -34 104 q-27 15 -77 15 l-237 0 l-52 -245 ZM28 0 l152 717 l332 0 q82 0 130 -24 q91 -46 65 -169 q-26 -121 -137 -171 q41 -19 55 -47.5 q14 -28.5 3 -88.5 l-17 -96 q-7 -38 -7 -61 q1 -33 23 -44 l-3 -16 l-120 0 q-5 16 5 81 l19 119 q11 72 -32 94 q-26 14 -85 14 l-221 0 l-65 -308 l-97 0 ZM390 912 l37 -142 l-62 0 l-80 142 l105 0 ZM552 912 l37 -142 l-61 0 l-81 142 l105 0 Z" /><glyph glyph-name="uni0211" unicode="&#x211;" d="M7 0 l111 523 l83 0 l-19 -90 q18 28 64 64 q49 38 100 38 q9 0 28 -3 l-20 -93 q-11 3 -29 3 q-67 0 -111 -43 q-44 -44 -56 -98 l-63 -301 l-88 0 ZM182 746 l37 -142 l-62 0 l-80 142 l105 0 ZM345 746 l36 -142 l-61 0 l-81 142 l106 0 Z" /><glyph glyph-name="uni0212" unicode="&#x212;" d="M207 389 l225 0 q73 0 117 28.5 q44 28.5 58 97.5 q16 75 -34 104 q-27 15 -77 15 l-237 0 l-52 -245 ZM28 0 l152 717 l332 0 q82 0 130 -24 q91 -46 65 -169 q-26 -121 -137 -171 q41 -19 55 -47.5 q14 -28.5 3 -88.5 l-17 -96 q-7 -38 -7 -61 q1 -33 23 -44 l-3 -16 l-120 0 q-5 16 5 81 l19 119 q11 72 -32 94 q-26 14 -85 14 l-221 0 l-65 -308 l-97 0 ZM602 759 l-50 0 q-2 32 -13 48 q-21 28 -79 28 q-54 0 -85 -28 q-19 -17 -33 -48 l-49 0 q46 135 190 135 q86 0 111 -58 q14 -31 8 -77 Z" /><glyph glyph-name="uni0213" unicode="&#x213;" d="M7 0 l111 523 l83 0 l-19 -90 q18 28 64 64 q49 38 100 38 q9 0 28 -3 l-20 -93 q-11 3 -29 3 q-67 0 -111 -43 q-44 -44 -56 -98 l-63 -301 l-88 0 ZM412 590 l-50 0 q0 32 -13 48 q-21 29 -79 29 q-53 0 -85 -29 q-19 -16 -33 -48 l-48 0 q45 135 189 135 q87 0 111 -58 q14 -31 8 -77 Z" /><glyph glyph-name="uni0214" unicode="&#x214;" d="M175 717 l99 0 l-94 -443 q-17 -79 1 -130 q27 -78 130 -78 q124 0 185 84 q35 47 51 124 l94 443 l99 0 l-86 -403 q-29 -134 -79 -203 q-93 -130 -275 -130 q-181 0 -218 130 q-21 72 7 203 l86 403 ZM403 909 l36 -142 l-62 0 l-79 142 l105 0 ZM565 909 l37 -142 l-62 0 l-80 142 l105 0 Z" /><glyph glyph-name="uni0215" unicode="&#x215;" d="M113 523 l90 0 l-74 -347 q-9 -40 -1 -66 q14 -47 77 -47 q92 0 143 83 q27 41 44 120 l55 257 l87 0 l-111 -523 l-83 0 l17 77 q-24 -30 -53 -50 q-59 -41 -130 -41 q-112 0 -138 75 q-13 38 1 106 l76 356 ZM272 733 l37 -142 l-62 0 l-79 142 l104 0 ZM435 733 l37 -142 l-62 0 l-81 142 l106 0 Z" /><glyph glyph-name="uni0216" unicode="&#x216;" d="M175 717 l99 0 l-94 -443 q-17 -79 1 -130 q27 -78 130 -78 q124 0 185 84 q35 47 51 124 l94 443 l99 0 l-86 -403 q-29 -134 -79 -203 q-93 -130 -275 -130 q-181 0 -218 130 q-21 72 7 203 l86 403 ZM622 767 l-50 0 q-1 30 -13 48 q-23 29 -79 29 q-52 0 -86 -29 q-20 -17 -33 -48 l-48 0 q46 135 189 135 q87 0 112 -58 q13 -28 8 -77 Z" /><glyph glyph-name="uni0217" unicode="&#x217;" d="M113 523 l90 0 l-74 -347 q-9 -40 -1 -66 q14 -47 77 -47 q92 0 143 83 q27 41 44 120 l55 257 l87 0 l-111 -523 l-83 0 l17 77 q-24 -30 -53 -50 q-59 -41 -130 -41 q-112 0 -138 75 q-13 38 1 106 l76 356 ZM491 591 l-50 0 q0 31 -12 48 q-22 28 -79 28 q-55 0 -86 -28 q-18 -17 -33 -48 l-48 0 q45 135 189 135 q87 0 111 -58 q14 -31 8 -77 Z" /><glyph glyph-name="uni0218" unicode="&#x218;" d="M628 505 l-90 0 q15 146 -146 146 q-68 0 -120.5 -29 q-52.5 -29 -65.5 -93 q-7 -31 8 -53 q15 -22 45 -33.5 q30 -11.5 68.5 -22 q38.5 -10.5 79.5 -18 q41 -7.5 79 -23.5 q38 -16 65.5 -36.5 q27.5 -20.5 39.5 -58.5 q12 -38 1 -88 q-15 -72 -69.5 -122 q-54.5 -50 -119.5 -70.5 q-65 -20.5 -135 -20.5 q-128 0 -198 64.5 q-70 64.5 -44 187.5 l90 0 q-17 -85 33.5 -128.5 q50.5 -43.5 138.5 -43.5 q35 0 66 6 q31 6 61.5 20 q30.5 14 52 40.5 q21.5 26.5 29.5 63.5 q8 40 -11.5 66 q-19.5 26 -56.5 39.5 q-37 13.5 -84 23.5 q-47 10 -93 22.5 q-46 12.5 -82.5 31.5 q-36.5 19 -54 56 q-17.5 37 -6.5 90 q23 102 109.5 155.5 q86.5 53.5 194.5 53.5 q115 0 174.5 -56.5 q59.5 -56.5 40.5 -169.5 ZM180 -138 l19 88 l111 0 l-16 -77 q-19 -83 -117 -83 l7 35 q20 5 31 12 q11 7 13.5 12 q2.5 5 3.5 13 l-52 0 Z" /><glyph glyph-name="uni0219" unicode="&#x219;" d="M5 163 l85 0 q-9 -53 25 -76.5 q34 -23.5 93 -23.5 q124 0 141 77 q5 27 -10 44.5 q-15 17.5 -42.5 27 q-27.5 9.5 -62 16.5 q-34.5 7 -68.5 17 q-34 10 -60.5 25 q-26.5 15 -39 43.5 q-12.5 28.5 -3.5 68.5 q15 72 81 109.5 q66 37.5 143 37.5 q95 0 143 -36.5 q48 -36.5 35 -125.5 l-85 0 q6 46 -24 66.5 q-30 20.5 -78 20.5 q-110 0 -124 -66 q-3 -12 -0.5 -22.5 q2.5 -10.5 12 -18.5 q9.5 -8 18 -13.5 q8.5 -5.5 26.5 -11 q18 -5.5 29 -8.5 q11 -3 33 -8.5 q22 -5.5 32 -7.5 q35 -8 59 -17.5 q24 -9.5 47 -25.5 q23 -16 31.5 -42.5 q8.5 -26.5 0.5 -61.5 q-18 -85 -91 -124 q-73 -39 -164 -39 q-95 0 -146 42 q-51 42 -36 133 ZM107 -138 l19 88 l111 0 l-16 -77 q-19 -83 -117 -83 l7 35 q20 5 31 12 q11 7 13.5 12 q2.5 5 3.5 13 l-52 0 Z" /><glyph glyph-name="uni021A" unicode="&#x21a;" d="M180 0 l134 634 l-238 0 l17 80 l571 0 l-17 -80 l-238 0 l-134 -634 l-95 0 ZM141 -138 l19 88 l111 0 l-16 -77 q-19 -83 -117 -83 l7 35 q20 5 31 12 q11 7 13.5 12 q2.5 5 3.5 13 l-52 0 Z" /><glyph glyph-name="uni021B" unicode="&#x21b;" d="M264 672 l-33 -155 l103 0 l-16 -75 l-103 0 l-68 -321 q-6 -30 4 -38 q10 -8 50 -8 l39 0 l-15 -75 l-65 0 q-70 0 -92 22.5 q-22 22.5 -7 90.5 l69 329 l-88 0 l16 75 l88 0 l33 155 l85 0 ZM40 -138 l19 88 l111 0 l-16 -77 q-19 -83 -117 -83 l7 35 q20 5 31 12 q11 7 13.5 12 q2.5 5 3.5 13 l-52 0 Z" /><glyph glyph-name="uni021C" unicode="&#x21c;" d="M286 54 q86 0 145 47 q54 39 69 110 q14 67 -23 100 q-37 33 -126 33 q-2 0 -44 -2 l17 79 q103 2 147 23 q59 24 74 96 q13 59 -21.5 92.5 q-34.5 33.5 -106.5 33.5 q-73 0 -197 -104 l-54 63 q149 119 274 119 q116 0 170 -59 q52 -59 33 -153 q-20 -87 -123 -148 q58 -28 75 -74 q15 -38 1 -104 q-19 -93 -108 -161 q-92 -69 -207 -69 q-133 0 -246 77 l80 53 q91 -52 171 -52 Z" /><glyph glyph-name="uni021D" unicode="&#x21d;" d="M242 -155 q86 0 145 47 q54 41 69 110 q14 67 -23.5 100 q-37.5 33 -126.5 33 q-3 0 -43 -2 l17 79 q100 2 147 24 q59 23 74 96 q12 58 -22 92 q-34 34 -106 34 q-73 0 -197 -104 l-54 63 q148 119 273 119 q115 0 171 -60 q53 -58 32 -152 q-18 -87 -122 -149 q59 -29 75 -73 q15 -39 1 -104 q-20 -94 -108 -162 q-92 -68 -207 -68 q-135 0 -247 76 l81 53 q91 -52 171 -52 Z" /><glyph glyph-name="uni021E" unicode="&#x21e;" d="M19 0 l152 717 l98 0 l-63 -296 l373 0 l63 296 l98 0 l-152 -717 l-98 0 l71 335 l-373 0 l-71 -335 l-98 0 ZM644 887 l-129 -141 l-93 0 l-69 141 l79 0 l46 -94 l86 94 l80 0 Z" /><glyph glyph-name="uni021F" unicode="&#x21f;" d="M4 0 l153 720 l88 0 l-57 -268 q39 39 67 56 q49 28 112 28 q114 0 138 -80 q13 -43 -3 -121 l-71 -335 l-91 0 l70 330 q12 57 3 84 q-13 43 -80 43 q-55 0 -108 -38 q-53 -38 -75 -142 l-58 -277 l-88 0 ZM565 892 l-130 -142 l-93 0 l-69 142 l80 0 l46 -94 l85 94 l81 0 Z" /><glyph glyph-name="uni0220" unicode="&#x220;" d="M23 0 l152 717 l98 0 l-7 -34 q80 53 196 53 q181 0 218 -130 q21 -72 -7 -203 l-127 -597 l-99 0 l136 637 q16 77 -2 130 q-25 78 -129 78 q-124 0 -186 -84 q-33 -45 -50 -124 l-94 -443 l-99 0 Z" /><glyph glyph-name="uni0226" unicode="&#x226;" d="M222 294 l224 0 l-42 317 l-182 -317 ZM-45 0 l422 717 l110 0 l108 -717 l-107 0 l-27 215 l-284 0 l-123 -215 l-99 0 ZM397 767 l21 101 l91 0 l-21 -101 l-91 0 Z" /><glyph glyph-name="uni0227" unicode="&#x227;" d="M178 57 q48 0 93 22 q82 34 99 116 l15 71 q-37 -20 -98 -27 l-54 -7 q-48 -6 -76 -20 q-45 -23 -56 -73 q-8 -37 14.5 -59.5 q22.5 -22.5 62.5 -22.5 ZM208 299 l144 18 q32 5 45 25 q8 11 13 34 q10 44 -17 64.5 q-27 20.5 -88 20.5 q-69 0 -105 -37 q-20 -18 -34 -61 l-82 0 q22 97 90 135 q70 38 149 38 q93 0 142 -36 q50 -35 35 -109 l-64 -301 q-3 -16 1 -23 q4 -7 21 -7 q4 0 30 2 l-14 -64 q-33 -9 -63 -9 q-45 0 -59 32 q-7 15 -5 48 q-36 -37 -92 -62 q-56 -25 -114 -25 q-72 0 -109 44 q-37 44 -23 111 q15 71 67.5 112 q52.5 41 131.5 50 ZM303 622 l21 102 l92 0 l-21 -102 l-92 0 Z" /><glyph glyph-name="uni0228" unicode="&#x228;" d="M25 0 l152 717 l523 0 l-19 -88 l-428 0 l-46 -217 l396 0 l-18 -83 l-396 0 l-51 -244 l436 0 l-18 -85 l-531 0 ZM215 -87 l82 87 l48 0 l-60 -63 q17 5 38 5 q35 0 52.5 -20.5 q17.5 -20.5 9.5 -55.5 q-9 -39 -44.5 -65 q-35.5 -26 -93.5 -26 q-28 0 -53 7 q-26 9 -39 14 l25 39 l28 -9 q18 -6 34 -6 q18 0 34 6 q28 11 32 37 q4 15 -7 26.5 q-11 11.5 -32 11.5 q-14 0 -41 -8 l-13 20 Z" /><glyph glyph-name="uni0229" unicode="&#x229;" d="M503 441 q18 -39 16 -92 q0 -34 -17 -116 l-384 0 q-15 -82 11.5 -128.5 q26.5 -46.5 98.5 -46.5 q70 0 119 45 q29 26 46 61 l86 0 q-9 -29 -36 -65 q-26 -33 -56 -57 q-49 -40 -110 -53 q-35 -8 -73 -8 q-98 0 -151 71 q-52 71 -25 199 q27 126 112 205 q85 79 195 79 q56 0 102.5 -26.5 q46.5 -26.5 65.5 -67.5 ZM136 303 l290 0 q8 57 -6 92 q-22 63 -106 63 q-60 0 -112 -44 q-50 -44 -66 -111 ZM135 -100 l83 87 l47 0 l-60 -63 q17 5 38 5 q35 0 52.5 -20.5 q17.5 -20.5 9.5 -55.5 q-9 -40 -44.5 -65.5 q-35.5 -25.5 -93.5 -25.5 q-28 0 -52 7 q-22 7 -39 14 l26 39 q14 -6 27 -10 q20 -5 34 -5 q16 0 33 5 q27 10 33 38 q3 16 -8 27 q-11 11 -31 11 q-15 0 -42 -8 l-13 20 Z" /><glyph glyph-name="uni022A" unicode="&#x22a;" d="M737 615 q51 -94 19 -244 q-35 -162 -137 -267 q-123 -125 -300 -125 q-167 0 -237 109 q-62 108 -28 267 q32 147 125 249 q121 133 303 133 q190 0 255 -122 ZM657 370 q27 126 -23 203 q-50 77 -164 77 q-113 0 -199 -76 q-85 -76 -117 -225 q-26 -121 17 -202 q43 -81 179 -81 q128 0 205 92 q76 91 102 212 ZM531 789 l22 101 l91 0 l-22 -101 l-91 0 ZM370 789 l22 101 l91 0 l-22 -101 l-91 0 ZM393 1006 l13 58 l313 0 l-13 -58 l-313 0 Z" /><glyph glyph-name="uni022B" unicode="&#x22b;" d="M421 270 q15 74 2 119 q-23 72 -113 72 q-81 0 -131 -62 q-49 -61 -67 -148 q-18 -84 7 -139 q25 -55 105 -55 q86 0 133 66 q48 68 64 147 ZM513 272 q-25 -125 -106 -209 q-79 -82 -208 -82 q-108 0 -156 73 q-48 73 -21 196 q28 132 111 210 q84 78 196 78 q100 0 156 -68 q56 -68 28 -198 ZM377 587 l22 102 l92 0 l-22 -102 l-92 0 ZM216 587 l22 102 l92 0 l-22 -102 l-92 0 ZM222 748 l13 57 l313 0 l-13 -57 l-313 0 Z" /><glyph glyph-name="uni022C" unicode="&#x22c;" d="M737 615 q51 -94 19 -244 q-35 -162 -137 -267 q-123 -125 -300 -125 q-167 0 -237 109 q-62 108 -28 267 q32 147 125 249 q121 133 303 133 q190 0 255 -122 ZM657 370 q27 126 -23 203 q-50 77 -164 77 q-113 0 -199 -76 q-85 -76 -117 -225 q-26 -121 17 -202 q43 -81 179 -81 q128 0 205 92 q76 91 102 212 ZM533 856 q29 -12 46 -12 q26 0 43 17 q6 7 14 28 l51 0 q-41 -109 -126 -109 q-16 0 -54 12 l-23 10 q-41 16 -63 16 q-35 0 -52 -45 l-48 0 q15 40 34 63 q37 45 93 45 q35 0 85 -25 ZM361 929 l12 57 l313 0 l-12 -57 l-313 0 Z" /><glyph glyph-name="uni022D" unicode="&#x22d;" d="M421 270 q15 74 2 119 q-23 72 -113 72 q-81 0 -131 -62 q-49 -61 -67 -148 q-18 -84 7 -139 q25 -55 105 -55 q86 0 133 66 q48 68 64 147 ZM513 272 q-25 -125 -106 -209 q-79 -82 -208 -82 q-108 0 -156 73 q-48 73 -21 196 q28 132 111 210 q84 78 196 78 q100 0 156 -68 q56 -68 28 -198 ZM377 667 q29 -12 46 -12 q28 0 42 17 q9 9 15 28 l51 0 q-41 -109 -126 -109 q-25 0 -53 13 l-24 9 q-42 16 -63 16 q-35 0 -52 -45 l-47 0 q13 37 34 63 q37 45 92 45 q34 0 85 -25 ZM210 742 l13 58 l313 0 l-13 -58 l-313 0 Z" /><glyph glyph-name="uni022E" unicode="&#x22e;" d="M737 615 q51 -94 19 -244 q-35 -162 -137 -267 q-123 -125 -300 -125 q-167 0 -237 109 q-62 108 -28 267 q32 147 125 249 q121 133 303 133 q190 0 255 -122 ZM657 370 q27 126 -23 203 q-50 77 -164 77 q-113 0 -199 -76 q-85 -76 -117 -225 q-26 -121 17 -202 q43 -81 179 -81 q128 0 205 92 q76 91 102 212 ZM447 809 l22 101 l91 0 l-22 -101 l-91 0 Z" /><glyph glyph-name="uni022F" unicode="&#x22f;" d="M421 270 q15 74 2 119 q-23 72 -113 72 q-81 0 -131 -62 q-49 -61 -67 -148 q-18 -84 7 -139 q25 -55 105 -55 q86 0 133 66 q48 68 64 147 ZM513 272 q-25 -125 -106 -209 q-79 -82 -208 -82 q-108 0 -156 73 q-48 73 -21 196 q28 132 111 210 q84 78 196 78 q100 0 156 -68 q56 -68 28 -198 ZM296 619 l22 101 l91 0 l-22 -101 l-91 0 Z" /><glyph glyph-name="uni0230" unicode="&#x230;" d="M737 615 q51 -94 19 -244 q-35 -162 -137 -267 q-123 -125 -300 -125 q-167 0 -237 109 q-62 108 -28 267 q32 147 125 249 q121 133 303 133 q190 0 255 -122 ZM657 370 q27 126 -23 203 q-50 77 -164 77 q-113 0 -199 -76 q-85 -76 -117 -225 q-26 -121 17 -202 q43 -81 179 -81 q128 0 205 92 q76 91 102 212 ZM444 804 l22 101 l91 0 l-22 -101 l-91 0 ZM366 945 l13 58 l312 0 l-13 -58 l-312 0 Z" /><glyph glyph-name="uni0231" unicode="&#x231;" d="M421 270 q15 74 2 119 q-23 72 -113 72 q-81 0 -131 -62 q-49 -61 -67 -148 q-18 -84 7 -139 q25 -55 105 -55 q86 0 133 66 q48 68 64 147 ZM513 272 q-25 -125 -106 -209 q-79 -82 -208 -82 q-108 0 -156 73 q-48 73 -21 196 q28 132 111 210 q84 78 196 78 q100 0 156 -68 q56 -68 28 -198 ZM300 585 l22 102 l92 0 l-22 -102 l-92 0 ZM217 721 l12 58 l313 0 l-12 -58 l-313 0 Z" /><glyph glyph-name="uni0232" unicode="&#x232;" d="M293 289 l-180 428 l113 0 l133 -344 l279 344 l114 0 l-362 -428 l-61 -289 l-97 0 l61 289 ZM290 749 l12 57 l313 0 l-12 -57 l-313 0 Z" /><glyph glyph-name="uni0233" unicode="&#x233;" d="M210 97 l232 426 l97 0 l-131 -230 q-30 -53 -77.5 -134 q-47.5 -81 -49.5 -85 q-120 -202 -159 -244 q-41 -44 -117 -44 q-24 0 -52 6 l18 81 q31 -10 48 -10 q38 0 61 28 q3 3 26 40 l34 54 l-79 538 l100 0 l49 -426 ZM166 591 l12 57 l312 0 l-12 -57 l-312 0 Z" /><glyph glyph-name="uni0237" unicode="&#x237;" d="M203 517 l-124 -583 q-27 -132 -151 -132 q-26 0 -43 4 l16 73 q14 -2 16 -2 l18 0 q27 0 40.5 15.5 q13.5 15.5 21.5 55.5 l121 569 l85 0 Z" /><glyph glyph-name="uni0238" unicode="&#x238;" d="M417 507 q21 -15 42 -51 l57 264 l88 0 l-56 -261 q75 78 173 78 q101 0 145 -68.5 q44 -68.5 17 -197.5 q-25 -123 -104 -206 q-76 -82 -183 -82 q-60 0 -95 29 q-21 18 -40 53 l-13 -65 l-82 0 l14 68 q-41 -46 -84 -65 q-45 -22 -101 -22 q-88 0 -136 73 q-48 73 -22 196 q24 116 100 198 q77 84 186 84 q60 0 94 -25 ZM792 267 q18 83 -6 137 q-23 54 -92 54 q-60 0 -116 -44 q-44 -38 -66 -112 l-16 -73 q-7 -48 0 -82 q17 -86 110 -86 q70 0 117.5 55 q47.5 55 68.5 151 ZM239 58 q62 0 111 52 q42 44 65 123 l12 57 q11 77 -15 118 q-30 48 -90 48 q-68 0 -119 -52 q-51 -52 -72 -149 q-18 -83 5 -141 q24 -56 103 -56 Z" /><glyph glyph-name="uni0239" unicode="&#x239;" d="M444 455 l14 66 l4 0 l1 2 l83 0 l-15 -70 q32 33 67 53 q51 30 111 30 q89 0 136 -69 q48 -67 22 -194 q-37 -171 -142 -244 q-67 -47 -142 -47 q-59 0 -94 26 q-20 16 -41 51 l-57 -267 l-89 0 l57 268 q-64 -77 -174 -77 q-82 0 -135 65 q-53 66 -24 200 q27 127 105 206 q79 81 177 81 q66 0 103 -33 q20 -17 33 -47 ZM775 265 q13 59 5 107 q-17 86 -107 86 q-92 0 -144 -91 q-19 -34 -32 -72 l-20 -95 q-1 -33 3 -60 q16 -81 108 -81 q63 0 114.5 53.5 q51.5 53.5 72.5 152.5 ZM114 141 q16 -82 103 -82 q92 0 145 86 q18 28 31 71 l20 94 q5 40 -3 69 q-20 78 -109 78 q-60 0 -110.5 -51.5 q-50.5 -51.5 -72.5 -151.5 q-14 -69 -4 -113 Z" /><glyph glyph-name="uni023A" unicode="&#x23a;" d="M222 294 l224 0 l-42 317 l-182 -317 ZM-45 0 l422 717 l110 0 l108 -717 l-107 0 l-27 215 l-284 0 l-123 -215 l-99 0 ZM101 -98 l435 913 l74 0 l-435 -913 l-74 0 Z" /><glyph glyph-name="uni023B" unicode="&#x23b;" d="M498 736 l39 84 l74 0 l-43 -94 q65 -17 103 -61 q60 -72 48 -163 l-94 0 q-1 69 -41 110 q-20 20 -55 31 l-261 -569 q27 -7 63 -7 q108 0 181 82 q40 43 69 115 l95 0 q-37 -113 -125 -190 q-105 -93 -250 -93 q-37 0 -72 8 l-41 -92 l-75 0 l52 115 q-31 16 -57 45 q-91 100 -47 309 q35 161 140 260 q114 111 273 111 q17 0 24 -1 ZM270 578 q-82 -76 -113 -228 q-27 -126 15 -205 q13 -25 35 -42 l252 549 l-2 0 q-105 0 -187 -74 Z" /><glyph glyph-name="uni023C" unicode="&#x23c;" d="M375 533 l46 87 l74 0 l-58 -111 q6 -4 18 -14 q46 -43 35 -148 l-86 0 q3 43 -14 74 l-191 -360 q4 -1 13 -1 q104 0 158 125 l86 0 q-71 -200 -267 -200 q-11 0 -29 2 l-45 -85 l-74 0 l55 104 q-33 20 -54 54 q-45 75 -21 187 q28 136 112 214 q85 77 187 77 q27 0 55 -5 ZM303 459 q-85 0 -137 -82 q-34 -52 -51 -131 q-17 -81 5 -132 q6 -17 18 -29 l197 372 q-20 2 -32 2 Z" /><glyph glyph-name="uni023D" unicode="&#x23d;" d="M88 339 l-88 1 l16 75 l88 0 l64 302 l97 0 l-64 -302 l158 0 l-17 -77 l-158 0 l-53 -253 l364 0 l-18 -85 l-461 0 l72 339 Z" /><glyph glyph-name="uni023E" unicode="&#x23e;" d="M503 717 l58 103 l74 0 l-58 -103 l113 0 l-18 -85 l-143 0 l-159 -280 l-74 -352 l-98 0 l15 72 l-99 -175 l-74 0 l217 385 l75 350 l-242 0 l18 85 l395 0 ZM430 632 l-15 -70 l40 70 l-25 0 Z" /><glyph glyph-name="uni0241" unicode="&#x241;" d="M393 727 q97 0 143 -55 q46 -56 27 -141 q-11 -53 -39 -84 q-30 -35 -105 -94 q-57 -47 -78 -78 q-21 -33 -71 -275 l-87 0 q52 251 78 295 q23 40 94 98 l47 39 q23 17 36 34 q27 33 34 66 q11 52 -12.5 85 q-23.5 33 -85.5 33 q-82 0 -126 -60 q-25 -36 -41 -97 l-87 0 q22 104 96 169 q74 65 177 65 Z" /><glyph glyph-name="uni0242" unicode="&#x242;" d="M353 538 q97 0 142 -55 q46 -55 28 -140 q-11 -53 -39 -84 q-29 -34 -106 -95 q-56 -45 -77 -77 q-21 -34 -31 -87 l-87 0 q14 66 38 106 q25 42 94 99 l47 38 q22 16 36 35 q27 33 34 66 q11 52 -12.5 85 q-23.5 33 -85.5 33 q-83 0 -126 -61 q-25 -34 -41 -97 l-87 0 q22 105 96 170 q73 64 177 64 Z" /><glyph glyph-name="uni0243" unicode="&#x243;" d="M112 173 l-113 0 l15 70 l113 0 l101 474 l308 0 q126 0 163 -75 q23 -44 9 -102 q-14 -68 -62 -112 q-24 -22 -66 -42 q50 -21 73 -47 q38 -47 20 -130 q-15 -70 -70 -125 q-83 -84 -224 -84 l-303 0 l36 173 ZM188 83 l209 0 q90 0 139 52 q30 30 41 79 q16 78 -47 106 q-35 15 -95 15 l-193 0 l-20 -92 l105 0 l-15 -70 l-105 0 l-19 -90 ZM258 414 l177 0 q60 0 99 17 q60 27 75 97 q15 70 -37 95 q-27 13 -93 13 l-173 0 l-48 -222 Z" /><glyph glyph-name="uni0244" unicode="&#x244;" d="M162 369 l-122 0 l15 69 l122 0 l59 279 l99 0 l-59 -279 l367 0 l59 279 l99 0 l-59 -279 l114 0 l-15 -69 l-114 0 l-12 -55 q-29 -134 -79 -203 q-93 -130 -275 -130 q-181 0 -218 130 q-21 72 7 203 l12 55 ZM242 144 q27 -78 130 -78 q124 0 185 84 q35 47 51 124 l20 95 l-367 0 l-20 -95 q-17 -79 1 -130 Z" /><glyph glyph-name="uni0245" unicode="&#x245;" d="M73 0 l-108 0 l414 717 l103 0 l109 -717 l-109 0 l-74 611 l-335 -611 Z" /><glyph glyph-name="uni0246" unicode="&#x246;" d="M25 0 l152 717 l312 0 l48 103 l74 0 l-47 -103 l136 0 l-19 -88 l-158 0 l-100 -217 l180 0 l-18 -83 l-200 0 l-111 -244 l300 0 l-18 -85 l-321 0 l-47 -103 l-75 0 l48 103 l-136 0 ZM253 629 l-46 -217 l142 0 l100 217 l-196 0 ZM189 329 l-51 -244 l62 0 l111 244 l-122 0 Z" /><glyph glyph-name="uni0247" unicode="&#x247;" d="M373 531 l48 89 l74 0 l-58 -111 l0 -1 q46 -25 66 -67 q18 -39 16 -92 q0 -34 -17 -116 l-212 0 l-92 -173 q18 -2 30 -2 q70 0 119 45 q29 26 46 61 l86 0 q-9 -29 -36 -65 q-26 -33 -56 -57 q-49 -40 -110 -53 q-35 -8 -73 -8 q-22 0 -44 5 l-45 -84 l-74 0 l57 108 q-26 17 -44 42 q-53 72 -26 199 q27 126 112 205 q85 79 195 79 q22 0 38 -4 ZM314 458 q-60 0 -112 -44 q-50 -44 -66 -111 l117 0 l82 154 q-7 1 -21 1 ZM129 105 q8 -14 10 -16 l77 144 l-98 0 q-14 -80 11 -128 ZM327 303 l99 0 q8 57 -6 92 q-7 20 -25 37 l-68 -129 Z" /><glyph glyph-name="uni0248" unicode="&#x248;" d="M463 451 l-50 -237 q-19 -92 -57 -141 q-69 -92 -209 -92 q-82 0 -129 43 q-47 44 -23 156 l11 51 l91 0 l-11 -51 q-26 -118 83 -118 q77 0 112 54 q21 30 41 123 l45 212 l-78 0 l15 70 l78 0 l42 196 l96 0 l-42 -196 l74 0 l-15 -70 l-74 0 Z" /><glyph glyph-name="uni0249" unicode="&#x249;" d="M202 521 l-52 -245 l87 0 l-15 -69 l-87 0 l-60 -285 q-12 -56 -36 -85 q-41 -48 -126 -48 q-15 0 -36 3 l16 76 q59 1 73 11 q12 7 23 53 l58 275 l-72 0 l15 69 l72 0 l52 245 l88 0 ZM244 717 l-22 -101 l-88 0 l22 101 l88 0 Z" /><glyph glyph-name="uni024A" unicode="&#x24a;" d="M731 -184 l-8 -40 q-140 0 -170 92 q-17 50 3 141 l13 61 q-112 -91 -263 -91 q-177 0 -246 125 q-59 108 -25 267 q32 150 123 244 q117 122 307 122 q156 0 226 -97 l16 77 l96 0 l-145 -683 q-20 -93 -11 -123 q12 -54 89 -54 q1 -1 1 -5.5 q0 -4.5 -1.5 -15 q-1.5 -10.5 -4.5 -20.5 ZM134 370 q-25 -119 13 -212 q38 -92 166 -92 q137 0 213 81 q69 74 98 178 l9 46 q23 134 -26 203 q-54 76 -166 76 q-114 0 -197 -77 q-83 -77 -110 -203 Z" /><glyph glyph-name="uni024B" unicode="&#x24b;" d="M495 -132 l-16 -76 q-20 -3 -35 -3 q-86 0 -107 48 q-12 28 0 85 l22 106 q-70 -47 -156 -47 q-130 0 -173 82 q-43 81 -17 209 q29 131 112 198 q85 68 185 68 q95 0 146 -55 l8 38 l87 0 l-125 -589 q-11 -45 0 -53 q11 -10 69 -11 ZM104 270 q-17 -82 1 -147 q19 -66 107 -66 q79 0 127 55 q49 54 67 139 q18 87 -6 148 q-24 62 -104 62 q-90 0 -143 -72 q-34 -46 -49 -119 Z" /><glyph glyph-name="uni024C" unicode="&#x24c;" d="M154 308 l-126 0 l17 81 l126 0 l70 328 l332 0 q81 0 131 -24 q91 -46 65 -169 q-26 -121 -137 -171 q40 -19 53.5 -47.5 q13.5 -28.5 4.5 -88.5 l-18 -96 q-8 -41 -6 -61 q1 -33 22 -44 l-3 -16 l-119 0 q-7 16 4 81 l19 119 q12 71 -32 94 q-26 14 -84 14 l-221 0 l-65 -308 l-98 0 l65 308 ZM269 389 l224 0 q73 0 117 28.5 q44 28.5 58 97.5 q16 75 -34 104 q-26 15 -76 15 l-237 0 l-52 -245 Z" /><glyph glyph-name="uni024D" unicode="&#x24d;" d="M94 173 l-105 0 l15 70 l105 0 l60 280 l84 0 l-19 -90 q16 27 63 64 q49 38 100 38 q9 0 29 -3 l-20 -93 q-11 3 -29 3 q-68 0 -112 -43 q-44 -44 -56 -98 l-12 -58 l119 0 l-15 -70 l-119 0 l-36 -173 l-88 0 l36 173 Z" /><glyph glyph-name="uni024E" unicode="&#x24e;" d="M248 515 l-187 0 l15 69 l143 0 l-56 133 l114 0 l51 -133 l253 0 l108 133 l113 0 l-112 -133 l133 0 l-15 -69 l-176 0 l-192 -226 l-61 -289 l-97 0 l61 289 l-95 226 ZM354 515 l56 -142 l115 142 l-171 0 Z" /><glyph glyph-name="uni024F" unicode="&#x24f;" d="M154 320 l-122 0 l14 69 l97 0 l-19 134 l99 0 l15 -134 l193 0 l74 134 l97 0 q-16 -26 -78 -134 l103 0 l-14 -69 l-127 0 l-16 -27 q-30 -53 -77.5 -134 q-47.5 -81 -49.5 -85 q-120 -202 -159 -244 q-41 -44 -117 -44 q-22 0 -52 6 l18 81 q31 -10 48 -10 q39 0 62 28 l25 40 l34 54 l-48 335 ZM247 320 l25 -223 l122 223 l-147 0 Z" /><glyph glyph-name="uni0250" unicode="&#x250;" d="M386 460 q-48 0 -94 -21 q-82 -36 -98 -117 l-15 -71 q31 19 97 27 l54 7 q54 8 76 20 q45 23 56 73 q8 38 -14 60 q-22 22 -62 22 ZM356 218 l-145 -17 q-32 -5 -45 -26 q-8 -10 -13 -33 q-10 -44 17 -65 q27 -21 88 -21 q68 0 105 37 q21 21 34 61 l82 0 q-23 -97 -91 -134 q-68 -38 -147 -38 q-93 0 -143 35 q-49 34 -34 109 l64 302 q7 30 -23 30 q-17 0 -29 -3 l14 65 q32 9 62 9 q45 0 59 -32 q7 -16 5 -49 q35 37 91.5 62 q56.5 25 114.5 25 q73 0 110 -44 q37 -44 22 -111 q-15 -70 -67.5 -111 q-52.5 -41 -130.5 -51 Z" /><glyph glyph-name="uni0251" unicode="&#x251;" d="M385 75 q-79 -90 -194 -90 q-104 0 -149 77 q-45 77 -19 198 q26 121 102 197 q78 78 183 78 q110 0 156 -88 l16 78 l80 0 l-87 -409 q-9 -40 -3 -45 q5 -3 46 -8 l-13 -63 q-10 -5 -42 -5 q-47 0 -62.5 19 q-15.5 19 -13.5 61 ZM406 409.5 q-30 50.5 -102 50.5 q-72 0 -123.5 -50 q-51.5 -50 -72.5 -150 q-21 -99 9 -149.5 q30 -50.5 102 -50.5 q72 0 124 50 q52 50 73 150 q20 99 -10 149.5 Z" /><glyph glyph-name="uni0252" unicode="&#x252;" d="M195 444 q83 91 194 91 q104 0 149 -78 q45 -79 20 -197 q-25 -119 -104 -198 q-76 -78 -182 -78 q-108 0 -155 89 l-17 -78 l-80 0 l87 408 q9 41 3 45 q-4 4 -45 9 l13 63 q9 4 41 4 q47 0 62.5 -19 q15.5 -19 13.5 -61 ZM174 110.5 q30 -50.5 102 -50.5 q72 0 124 50 q52 50 73 150 q20 99 -10 149 q-30 50 -102 50 q-72 0 -124 -50 q-52 -50 -72 -149 q-21 -99 9 -149.5 Z" /><glyph glyph-name="uni0253" unicode="&#x253;" d="M323 735 l-16 -76 q-60 -1 -74 -11 q-12 -7 -23 -53 l-29 -135 q75 77 172 77 q96 0 143 -68 q47 -69 19 -198 q-25 -123 -104 -206 q-76 -82 -183 -82 q-60 0 -95 29 q-20 17 -40 55 l-14 -67 l-81 0 l81 382 l-2 0 l47 222 q12 57 36 86 q40 48 127 48 q15 0 36 -3 ZM424 267 q18 83 -6 137 q-24 54 -92 54 q-60 0 -115 -45 q-54 -42 -77 -146 q-15 -73 -6 -120 q15 -86 110 -86 q69 0 117 55 q48 55 69 151 Z" /><glyph glyph-name="uni0254" unicode="&#x254;" d="M5 175 l86 0 q-7 -112 101 -112 q85 0 137 82 q34 52 51 131 q17 81 -5 132 q-21 54 -92 54 q-106 0 -158 -125 l-86 0 q71 201 266 201 q103 0 148 -75 q45 -75 21 -188 q-29 -137 -113 -214 q-83 -77 -186 -77 q-93 0 -137 45 q-44 45 -33 146 Z" /><glyph glyph-name="uni0256" unicode="&#x256;" d="M483 -132 l-16 -76 q-20 -3 -35 -3 q-86 0 -107 48 q-13 28 -1 85 l29 136 q-33 -36 -74 -55 q-45 -22 -101 -22 q-88 0 -136 73 q-48 73 -22 196 q24 116 100 198 q76 84 185 84 q61 0 95 -25 q20 -15 42 -51 l57 264 l85 0 l-153 -720 l-2 0 l-15 -68 q-11 -45 0 -53 q11 -10 69 -11 ZM222 58 q62 0 112 53.5 q50 53.5 71 149.5 q20 95 -8.5 145 q-28.5 50 -91.5 50 q-68 0 -119 -52 q-51 -52 -72 -149 q-18 -83 5 -141 q24 -56 103 -56 Z" /><glyph glyph-name="uni0257" unicode="&#x257;" d="M669 733 l-16 -76 q-59 -2 -73 -11 q-14 -8 -23 -53 l-126 -593 l-79 0 l15 73 q-78 -92 -189 -92 q-88 0 -136 73 q-48 73 -22 196 q24 116 100 198 q76 84 185 84 q61 0 95 -25 q19 -13 40 -48 l31 144 q12 56 36 85 q41 48 127 48 q16 0 35 -3 ZM222 58 q62 0 112 53.5 q50 53.5 71 149.5 q20 95 -8.5 145 q-28.5 50 -91.5 50 q-68 0 -119 -52 q-51 -52 -72 -149 q-18 -83 5 -141 q24 -56 103 -56 Z" /><glyph glyph-name="uni0258" unicode="&#x258;" d="M111 441 q38 42 94 67 q59 27 114 27 q110 0 162 -79 q52 -79 25 -205 q-27 -127 -111 -199 q-83 -71 -181 -71 q-39 0 -69 8 q-57 14 -89 53 q-19 22 -30.5 57.5 q-11.5 35.5 -9.5 64.5 l87 0 q3 -35 20 -61 q31 -45 101 -45 q141 0 183 175 l-383 0 q16 78 33 116 q19 51 54 92 ZM129 303 l291 0 q12 68 -19.5 111.5 q-31.5 43.5 -92.5 43.5 q-84 0 -135 -63 q-26 -35 -44 -92 Z" /><glyph glyph-name="uni0259" unicode="&#x259;" d="M236 -11 q-219 0 -219 229 q0 27 8 67 l389 0 q3 23 3 45 q0 57 -39.5 91 q-39.5 34 -94.5 34 q-112 0 -149 -99 l-85 0 q20 84 83.5 128.5 q63.5 44.5 150.5 44.5 q61 0 106 -19 q45 -19 68.5 -51 q23.5 -32 34 -66 q10.5 -34 10.5 -71 q0 -145 -78.5 -239 q-78.5 -94 -187.5 -94 ZM223 64 q71 0 115 40 q44 40 64 106 l-300 0 q-4 -61 26 -103.5 q30 -42.5 95 -42.5 Z" /><glyph glyph-name="uni025A" unicode="&#x25a;" d="M681 242 q24 -7 50.5 8.5 q26.5 15.5 44.5 41.5 q6 -9 19 -17.5 q13 -8.5 18 -16.5 q-41 -69 -129 -75 q-55 -6 -78 28.5 q-23 34.5 -9 95.5 q-23 -5 -45 -12 q-15 -4 -34 -11 q-6 -97 -59 -174 q-66 -93 -179 -122 q-56 -14 -111 -2.5 q-55 11.5 -85 44.5 q-29 32 -41 80 q-9 29 -14 110 l391 99 q-7 79 -46.5 114.5 q-39.5 35.5 -112.5 17.5 q-69 -18 -109 -73 q-24 -34 -31 -67 l-88 -22 q2 27 20 67 q18 40 40 67 q39 48 99 77 q28 15 72 26 q100 25 174 -26 q67 -46 78 -158 q13 3 39 11 q50 14 122 35 q1 -22 -9 -58.5 q-10 -36.5 -9.5 -58.5 q0.5 -22 22.5 -29 ZM422 250 l-297 -75 q7 -53 30 -81 q40 -52 127 -31 q60 16 101 69 q41 53 39 118 Z" /><glyph glyph-name="uni025B" unicode="&#x25b;" d="M369 161 l83 0 q-17 -74 -89 -123 q-72 -48 -182 -48 q-84 0 -136 41 q-50 41 -36 110 q12 51 49.5 86.5 q37.5 35.5 94.5 50.5 q-41 21 -56 49 q-15 28 -6 77 q14 61 74 95 q61 36 142 36 q113 0 147 -54 q34 -53 23 -107 l-83 0 q1 45 -24.5 66 q-25.5 21 -74.5 21 q-108 0 -122 -70 q-9 -40 13 -60 q22 -20 78 -20 l51 0 l-15 -70 l-58 0 q-123 0 -143 -97 q-9 -43 23 -64 q32 -21 78 -21 q126 0 169 102 Z" /><glyph glyph-name="uni025C" unicode="&#x25c;" d="M15 161 l83 0 q0 -52 30 -77 q30 -25 95 -25 q45 0 86 21 q42 21 51 64 q11 51 -16 74 q-27 23 -85 23 l-59 0 l15 70 l52 0 q107 0 125 80 q7 34 -15.5 52 q-22.5 18 -78.5 18 q-101 0 -135 -87 l-83 0 q10 52 67 107 q57 54 171 54 q80 0 127 -36 q47 -35 33 -95 q-9 -48 -36 -76.5 q-27 -28.5 -78 -49.5 q50 -15 73 -51 q23 -36 11 -86 q-14 -69 -83 -110 q-70 -41 -154 -41 q-109 0 -161 48 q-51 50 -35 123 Z" /><glyph glyph-name="uni025D" unicode="&#x25d;" d="M675 379 q46 -15 95 50 q6 -9 19 -18.5 q13 -9.5 18 -15.5 q-42 -70 -130 -76 q-54 -6 -77.5 30 q-23.5 36 -9.5 94 q-32 -6 -89 -26 l-33 -10 l-1 -3 q-9 -48 -36 -76.5 q-27 -28.5 -78 -49.5 q50 -15 73 -51 q23 -36 11 -86 q-14 -69 -83 -110 q-68 -41 -153 -41 q-108 0 -160.5 47.5 q-52.5 47.5 -36.5 123.5 l83 0 q1 -52 30.5 -77 q29.5 -25 94.5 -25 q46 0 87 21 q41 21 50 64 q11 51 -16 74 q-27 23 -85 23 l-58 0 l15 70 l51 0 q107 0 125 80 q7 34 -15.5 52 q-22.5 18 -78.5 18 q-99 0 -135 -87 l-83 0 q11 53 68 107 q57 54 170 54 q81 0 128 -35 q19 -17 27 -35 l85 24 q99 28 124 35 q0 -20 -10 -57.5 q-10 -37.5 -9 -59 q1 -21.5 23 -28.5 Z" /><glyph glyph-name="uni025E" unicode="&#x25e;" d="M139 481 q40 38 109 49 l62 5 q79 0 126 -35 q46 -36 33 -96 q-9 -48 -36 -76.5 q-27 -28.5 -78 -49.5 q50 -15 73 -51 q23 -36 11 -86 q-14 -69 -83 -110 q-68 -41 -153 -41 q-14 0 -20 1 q-72 14 -101 34 q-30 22 -55 71 q-26 50 -5 151 q27 126 117 234 ZM294 461 l0 -2 q-85 0 -137 -82 q-34 -52 -51 -131 q-17 -81 5 -132 q11 -27 32 -40 q21 -9 60 -15 l31 0 q26 0 67 21 q41 21 50 64 q11 51 -16 74 q-27 23 -85 23 l8 70 q107 0 125 80 q7 32 -16 51 q-19 17 -73 19 Z" /><glyph glyph-name="uni025F" unicode="&#x25f;" d="M73 -166 q-41 -44 -128 -44 q-6 0 -36 2 l17 80 q10 -1 18.5 -1.5 q8.5 -0.5 11.5 -0.5 q40 0 52 21 q13 20 31 106 l-87 0 l15 69 l88 0 l95 451 l87 0 l-95 -451 l73 0 l-15 -69 l-73 0 l-18 -82 q-13 -55 -36 -81 Z" /><glyph glyph-name="uni0260" unicode="&#x260;" d="M643 625 l-16 -76 q-58 -1 -73 -10 q-11 -8 -20 -36 l-98 -461 q-21 -97 -62 -157 q-76 -106 -229 -106 q-84 0 -134 38 q-49 37 -39 118 l89 0 q-1 -34 14 -54 q23 -29 87 -29 q101 0 148 71 q26 41 49 150 q-70 -79 -179 -79 q-85 0 -136 60 q-49 60 -21 199 q28 131 108 205 q80 74 171 74 q62 0 100 -30 q17 -13 35 -41 l8 34 q12 56 36 85 q41 48 127 48 q16 0 35 -3 ZM301 455 q-93 0 -145 -87 q-27 -44 -44 -122 q-18 -86 7 -133.5 q25 -47.5 86 -47.5 q94 0 153 86 q31 48 45 113 q20 94 -8.5 142.5 q-28.5 48.5 -93.5 48.5 Z" /><glyph glyph-name="uni0261" unicode="&#x261;" d="M402 502 q20 -15 41 -50 l14 66 l81 0 l-102 -476 q-21 -97 -62 -157 q-76 -106 -229 -106 q-84 0 -134 38 q-49 37 -39 118 l89 0 q-1 -34 14 -54 q23 -29 87 -29 q101 0 148 71 q26 41 49 150 q-70 -79 -179 -79 q-85 0 -136 60 q-49 60 -21 199 q28 131 108 205 q80 74 171 74 q62 0 100 -30 ZM301 455 q-93 0 -145 -87 q-27 -44 -44 -122 q-18 -86 7 -133.5 q25 -47.5 86 -47.5 q94 0 153 86 q31 48 45 113 q20 94 -8.5 142.5 q-28.5 48.5 -93.5 48.5 Z" /><glyph glyph-name="uni0265" unicode="&#x265;" d="M538 511 l-153 -719 l-88 0 l57 267 q-40 -39 -68 -56 q-48 -27 -112 -27 q-115 0 -137 79 q-12 45 4 121 l71 335 l90 0 l-70 -329 q-12 -58 -3 -85 q15 -43 81 -43 q54 0 106 37 q52 37 75 143 l59 277 l88 0 Z" /><glyph glyph-name="uni0266" unicode="&#x266;" d="M333 750 l-16 -76 q-60 -1 -74 -11 q-12 -7 -23 -53 l-10 -47 l1 0 l-23 -111 q39 39 67 56 q49 28 112 28 q114 0 138 -80 q13 -43 -3 -121 l-71 -335 l-91 0 l70 330 q12 57 3 84 q-13 43 -80 43 q-55 0 -108 -38 q-53 -38 -75 -142 l-58 -277 l-88 0 l84 397 l-1 0 l47 223 q12 57 37 85 q42 48 128 48 q14 0 34 -3 Z" /><glyph glyph-name="uni0267" unicode="&#x267;" d="M483 -132 l-16 -76 q-20 -3 -35 -3 q-86 0 -107 48 q-13 28 -1 85 l17 78 l-1 0 l70 330 q12 57 3 84 q-13 43 -80 43 q-55 0 -108 -38 q-53 -38 -75 -142 l-58 -277 l-88 0 l84 397 l-1 0 l47 223 q12 57 37 85 q42 48 128 48 q14 0 34 -3 l-16 -76 q-60 -1 -74 -11 q-12 -7 -23 -53 l-10 -47 l1 0 l-23 -111 q39 39 67 56 q49 28 112 28 q114 0 138 -80 q13 -43 -3 -121 l-71 -335 l-2 0 l-15 -68 q-11 -45 0 -53 q11 -10 69 -11 Z" /><glyph glyph-name="uni0268" unicode="&#x268;" d="M23 313 l12 58 l116 0 l32 150 l89 0 l-32 -150 l108 0 l-12 -58 l-108 0 l-66 -313 l-89 0 l66 313 l-116 0 ZM204 618 l21 99 l89 0 l-21 -99 l-89 0 Z" /><glyph glyph-name="uni0269" unicode="&#x269;" d="M181 66 l-14 -66 q-8 -3 -35 -4 q-8 0 -16.5 -0.5 q-8.5 -0.5 -12.5 -1 q-4 -0.5 -5 -0.5 q-43 0 -62.5 27.5 q-19.5 27.5 -10.5 71.5 l92 432 l80 0 l-87 -409 q-5 -25 4 -39 q10 -11 47 -11 l20 0 Z" /><glyph glyph-name="uni026A" unicode="&#x26a;" d="M-43 0 l19 90 l77 0 l72 339 l-77 0 l19 91 l77 0 l0 1 l89 0 l0 -1 l79 0 l-19 -91 l-79 0 l-72 -339 l79 0 l-19 -90 l-245 0 Z" /><glyph glyph-name="uni026B" unicode="&#x26b;" d="M174 443 l58 274 l88 0 l-65 -303 l5 -2 q10 -3 22 -3 q26 0 43 17 q8 9 15 28 l51 0 q-41 -109 -126 -109 q-11 0 -24 3 l-73 -348 l-88 0 l79 376 l-7 3 q-12 4 -27 4 q-36 0 -53 -45 l-48 0 q14 36 35 63 q37 45 92 45 q9 0 23 -3 Z" /><glyph glyph-name="uni026D" unicode="&#x26d;" d="M147 -132 l-16 -76 q-20 -3 -35 -3 q-86 0 -107 48 q-13 28 -1 85 l47 223 l2 0 l122 572 l88 0 l-152 -717 l-2 0 l-15 -68 q-11 -45 0 -53 q11 -10 69 -11 Z" /><glyph glyph-name="uni026F" unicode="&#x26f;" d="M821 534 l-111 -523 l-87 0 l16 74 q-42 -39 -69 -56 q-50 -29 -105 -29 q-63 0 -94 30 q-18 18 -28 52 q-76 -82 -175 -82 q-106 0 -128 76 q-12 41 3 110 l74 348 l91 0 l-77 -363 q-20 -91 71 -91 q56 0 99 36.5 q43 36.5 59 113.5 l65 304 l89 0 l-72 -341 q-12 -52 -4 -78 q12 -36 66 -36 q49 0 99 38 q50 39 71 140 l59 277 l88 0 Z" /><glyph glyph-name="uni0270" unicode="&#x270;" d="M821 534 l-158 -742 l-87 0 l63 293 q-42 -39 -69 -56 q-50 -29 -105 -29 q-63 0 -94 30 q-18 18 -28 52 q-76 -82 -175 -82 q-106 0 -128 76 q-12 41 3 110 l74 348 l91 0 l-77 -363 q-20 -91 71 -91 q56 0 99 36.5 q43 36.5 59 113.5 l65 304 l89 0 l-72 -341 q-12 -52 -4 -78 q12 -36 66 -36 q49 0 99 38 q50 39 71 140 l59 277 l88 0 Z" /><glyph glyph-name="uni0271" unicode="&#x271;" d="M492 -208 l16 76 q59 1 73 11 q13 7 24 53 l15 68 l-3 0 l77 363 q19 92 -71 92 q-56 0 -99.5 -37 q-43.5 -37 -59.5 -114 l-64 -304 l-89 0 l72 341 q11 56 4 78 q-13 37 -67 37 q-50 0 -99 -39 q-48 -38 -71 -140 l-58 -277 l-88 0 l111 523 l87 0 l-16 -74 q42 39 69 56 q49 30 105 30 q63 0 94 -31 q18 -18 28 -52 q77 83 175 83 q105 0 128 -77 q11 -42 -4 -110 l-90 -426 q-12 -56 -36 -85 q-41 -48 -127 -48 q-16 0 -36 3 Z" /><glyph glyph-name="uni0272" unicode="&#x272;" d="M-125 -208 l16 76 q59 1 73 11 q12 7 23 53 l125 589 l2 0 l1 2 l84 0 l-1 -2 l2 0 l-14 -69 q45 44 90 63 q46 20 96 20 q112 0 134 -78 q13 -40 -4 -122 l-71 -335 l-90 0 l70 330 q10 45 2 77 q-13 49 -75 49 q-32 0 -52 -7 q-37 -10 -73 -43 q-26 -26 -38.5 -52.5 q-12.5 -26.5 -24.5 -79.5 l-58 -274 l-2 0 l-17 -78 q-12 -56 -36 -85 q-41 -48 -126 -48 q-15 0 -36 3 Z" /><glyph glyph-name="uni0273" unicode="&#x273;" d="M483 -132 l-16 -76 q-20 -3 -35 -3 q-86 0 -107 48 q-13 28 -1 85 l87 408 q10 45 2 77 q-13 49 -75 49 q-32 0 -52 -7 q-37 -10 -73 -43 q-26 -26 -38.5 -52.5 q-12.5 -26.5 -24.5 -79.5 l-58 -274 l-88 0 l111 523 l84 0 l-16 -74 q89 86 189 86 q112 0 134 -78 q13 -40 -4 -122 l-71 -335 l-2 0 l-15 -68 q-11 -45 0 -53 q11 -10 69 -11 Z" /><glyph glyph-name="uni0274" unicode="&#x274;" d="M-19 0 l111 523 l115 0 l174 -387 l83 387 l92 0 l-111 -523 l-109 0 l-180 386 l-82 -386 l-93 0 Z" /><glyph glyph-name="uni0275" unicode="&#x275;" d="M513 272 q-25 -125 -106 -209 q-79 -82 -208 -82 q-108 0 -156 73 q-48 73 -21 196 q28 132 111 210 q84 78 196 78 q100 0 156 -68 q56 -68 28 -198 ZM423 389 q-23 72 -113 72 q-81 0 -129 -61 q-41 -50 -60 -114 l303 0 q11 63 -1 103 ZM119 112 q25 -55 105 -55 q88 0 134 66 q34 47 52 105 l-302 0 q-9 -67 11 -116 Z" /><glyph glyph-name="uni0276" unicode="&#x276;" d="M336 537 q84 0 128 -40 q24 -21 44 -63 q88 102 215 102 q120 0 165 -94 q21 -43 19 -99 q-1 -32 -17 -110 l-387 0 q-12 -64 0 -104 q21 -75 115 -75 q66 0 115 45 q27 25 49 65 l88 0 q-40 -87 -112 -136 q-73 -49 -157 -49 q-128 0 -177 106 q-84 -105 -214 -105 q-100 0 -156 69 q-53 70 -25 206 q26 123 107 201 q82 81 200 81 ZM518 301 l295 0 q8 57 -4 92 q-23 65 -109 65 q-43 0 -87 -26 q-67 -41 -95 -131 ZM428 268 q20 93 -11.5 142.5 q-31.5 49.5 -100.5 49.5 q-66 0 -121 -52 q-54 -50 -77 -158 q-19 -89 12.5 -142 q31.5 -53 101.5 -53 q55 0 113 46 q57 45 83 167 Z" /><glyph glyph-name="uni0278" unicode="&#x278;" d="M445 466 l-83 -388 q89 3 147 55 q57 52 75 137 q37 179 -139 196 ZM212 -204 l44 204 q-117 2 -180 72 q-66 69 -42 188 q27 129 117 205 q89 77 220 79 l35 162 l90 0 l-35 -162 q132 -2 187 -79 q56 -77 30 -205 q-29 -120 -121 -188 q-93 -71 -211 -72 l-44 -204 l-90 0 ZM272 78 l83 388 q-186 -17 -223 -196 q-18 -85 19 -137 q34 -52 121 -55 Z" /><glyph glyph-name="uni0279" unicode="&#x279;" d="M374 534 l-111 -523 l-84 0 l19 91 q-18 -29 -64 -65 q-46 -37 -99 -37 q-16 0 -29 2 l20 93 q9 -3 28 -3 q68 0 111 43 q45 44 57 98 l64 301 l88 0 Z" /><glyph glyph-name="uni027A" unicode="&#x27a;" d="M413 717 l-150 -706 l-84 0 l19 91 q-18 -29 -64 -65 q-46 -37 -99 -37 q-16 0 -29 2 l20 93 q9 -3 28 -3 q68 0 111 43 q45 44 57 98 l103 484 l88 0 Z" /><glyph glyph-name="uni027B" unicode="&#x27b;" d="M315 -132 l-16 -76 q-20 -3 -35 -3 q-86 0 -107 48 q-13 28 -1 85 l36 171 q-16 -23 -58 -56 q-46 -37 -99 -37 q-16 0 -29 2 l20 93 q9 -3 28 -3 q68 0 111 43 q45 44 57 98 l64 301 l88 0 l-83 -389 l-45 -213 q-11 -45 0 -53 q11 -10 69 -11 Z" /><glyph glyph-name="uni027C" unicode="&#x27c;" d="M-25 -150 l143 673 l83 0 l-19 -90 q18 28 64 64 q49 38 100 38 q9 0 28 -3 l-20 -93 q-11 3 -29 3 q-67 0 -111 -43 q-44 -44 -56 -98 l-95 -451 l-88 0 Z" /><glyph glyph-name="uni027D" unicode="&#x27d;" d="M147 -132 l-16 -76 q-20 -3 -35 -3 q-86 0 -107 48 q-13 28 -1 85 l47 223 l2 0 l81 378 l83 0 l-19 -90 q18 28 64 64 q49 38 100 38 q9 0 28 -3 l-20 -93 q-11 3 -29 3 q-67 0 -111 -43 q-44 -44 -56 -98 l-63 -301 l-2 0 l-15 -68 q-11 -45 0 -53 q11 -10 69 -11 Z" /><glyph glyph-name="uni027E" unicode="&#x27e;" d="M257 503 l-16 -76 q-76 13 -90 4 q-14 -8 -23 -53 l-80 -378 l-87 0 l82 387 q12 58 36 86 q41 48 143 33 q16 0 35 -3 Z" /><glyph glyph-name="uni027F" unicode="&#x27f;" d="M51 427 l16 76 q21 3 36 3 q109 15 129 -33 q13 -28 1 -86 l-82 -387 l-88 0 l80 378 q9 46 -1 53 q-11 9 -91 -4 Z" /><glyph glyph-name="uni0280" unicode="&#x280;" d="M162 283 l109 0 q107 0 127 92 q6 29 -29 49 q-20 11 -56 11 l-119 0 l-32 -152 ZM4 0 l111 523 l242 0 q61 0 95 -18 q68 -33 48 -123 q-18 -86 -101 -125 q28 -28 37.5 -48 q9.5 -20 4.5 -51 l-12 -70 q-5 -33 -4 -44 q1 -25 16 -32 l-2 -12 l-115 0 q-5 16 3 59 l15 87 q5 38 -27 55 q-19 9 -62 9 l-107 0 l-44 -210 l-98 0 Z" /><glyph glyph-name="uni0281" unicode="&#x281;" d="M262 240 l-109 0 l-33 -152 l119 0 q34 0 61 11 q44 20 50 49 q11 50 -12 71 q-23 21 -76 21 ZM4 0 l111 523 l98 0 l-45 -211 l107 0 q45 0 66 10 q39 17 50 55 l22 87 q13 47 22 59 l115 0 l-3 -12 q-19 -8 -30 -32 q-5 -10 -14 -44 l-18 -70 q-9 -31 -26.5 -51 q-17.5 -20 -57.5 -48 q65 -39 47 -125 q-20 -90 -100 -123 q-42 -18 -102 -18 l-242 0 Z" /><glyph glyph-name="uni0283" unicode="&#x283;" d="M280 661 q57 93 154 93 q23 0 40 -4 q9 -1 29 -9 l-24 -79 q-35 16 -53 16 q-44 0 -70 -44 q-24 -43 -55 -155 l-86 -333 q-46 -175 -103 -265 q-56 -86 -155 -86 q-32 0 -59 12 l24 81 q23 -14 47 -14 q42 0 70 37 q27 36 56 137 l116 431 q36 128 69 182 Z" /><glyph glyph-name="uni0284" unicode="&#x284;" d="M-28 0 l12 58 l113 0 l114 421 q36 128 69 182 q57 93 154 93 q23 0 40 -4 q9 -1 29 -9 l-24 -79 q-35 16 -53 16 q-44 0 -70 -44 q-24 -43 -55 -155 l-86 -333 q-18 -64 -26 -88 l107 0 l-12 -58 l-114 0 q-30 -75 -58 -119 q-56 -86 -155 -86 q-32 0 -59 12 l24 81 q23 -14 47 -14 q42 0 70 37 q20 28 41 89 l-108 0 Z" /><glyph glyph-name="uni0285" unicode="&#x285;" d="M255 471 q15 -31 8 -100 l-25 -237 q-6 -56 10 -75 q16 -21 59 -21 q18 0 51 7 l-2 -44 q-40 -6 -64 -6 q-99 0 -128 47 q-25 48 -15 145 l23 184 q8 62 -4 85 q-10 24 -54 24 q-22 0 -58 -9 l1 44 q10 2 33 5 q26 2 40 2 q96 0 125 -51 Z" /><glyph glyph-name="uni0287" unicode="&#x287;" d="M153 137 l-31 -146 l-89 0 l31 146 l-84 0 l15 72 l84 0 l72 341 q6 28 -11 37 q-10 5 -33 5 q-18 0 -31 -1 l15 69 q24 8 68 8 q62 0 77 -32 q16 -30 5 -81 l-73 -346 l70 0 l-15 -72 l-70 0 Z" /><glyph glyph-name="uni0288" unicode="&#x288;" d="M133 523 l31 146 l89 0 l-31 -146 l83 0 l-16 -72 l-83 0 l-117 -550 q-5 -27 11 -36 q10 -6 34 -6 q6 0 30 2 l-15 -69 q-27 -9 -69 -9 q-57 0 -74.5 29 q-17.5 29 -6.5 84 l118 555 l-71 0 l16 72 l71 0 Z" /><glyph glyph-name="uni0289" unicode="&#x289;" d="M110 305 l-83 0 l15 69 l83 0 l32 149 l90 0 l-32 -149 l243 0 l32 149 l88 0 l-32 -149 l96 0 l-15 -69 l-96 0 l-64 -305 l-83 0 l17 77 q-24 -30 -53 -50 q-59 -41 -130 -41 q-112 0 -138 75 q-13 38 1 106 l29 138 ZM172 110 q14 -47 77 -47 q92 0 143 83 q26 42 43 120 l8 39 l-243 0 l-27 -129 q-9 -40 -1 -66 Z" /><glyph glyph-name="uni028A" unicode="&#x28a;" d="M434 244 q30 135 -79 210 l15 69 l200 0 l-15 -69 l-133 0 q39 -16 73 -70 q34 -52 15 -140 q-22 -108 -100 -176 q-77 -68 -196 -68 q-118 0 -168 68 q-49 67 -26 176 q19 88 74 140 q57 54 104 70 l-133 0 l15 69 l200 0 l-15 -69 q-139 -73 -169 -210 q-17 -81 17 -124.5 q34 -43.5 115 -43.5 q84 0 136.5 43.5 q52.5 43.5 69.5 124.5 Z" /><glyph glyph-name="uni028C" unicode="&#x28c;" d="M429 0 l-102 0 l-50 425 l-236 -425 l-96 0 l307 522 l94 0 l83 -522 Z" /><glyph glyph-name="uni028D" unicode="&#x28d;" d="M643 0 l-96 0 l-14 412 l-189 -412 l-98 0 l-17 409 l-193 -409 l-88 0 l262 522 l91 0 l22 -404 l188 404 l91 0 l41 -522 Z" /><glyph glyph-name="uni028E" unicode="&#x28e;" d="M278 426 l-231 -426 l-97 0 l130 229 q17 30 127 220 q120 202 159 244 q41 44 117 44 q28 0 52 -7 l-17 -80 q-32 10 -49 10 q-38 0 -61 -28 q-16 -24 -26 -40 l-34 -54 l80 -538 l-100 0 l-50 426 Z" /><glyph glyph-name="uni028F" unicode="&#x28f;" d="M183 211 l-117 312 l113 0 l66 -252 l173 252 l114 0 l-252 -312 l-44 -211 l-97 0 l44 211 Z" /><glyph glyph-name="uni0292" unicode="&#x292;" d="M174 209 l-113 0 l318 231 l-323 0 l17 81 l436 0 l-17 -81 l-208 -152 q72 -14 109 -72 q51 -76 22 -215 q-24 -113 -108 -162 q-84 -51 -187 -51 q-180 0 -163 210 l85 0 q0 -60 16 -96 q16 -39 71 -39 q162 0 192 137 q16 78 1 146 q-15 68 -99 68 l-49 -5 Z" /><glyph glyph-name="uni0294" unicode="&#x294;" d="M393 727 q97 0 143 -55 q46 -56 27 -141 q-11 -53 -39 -84 q-30 -35 -105 -94 q-57 -47 -78 -78 q-21 -33 -71 -275 l-87 0 q52 251 78 295 q23 40 94 98 l47 39 q23 17 36 34 q27 33 34 66 q11 52 -12.5 85 q-23.5 33 -85.5 33 q-82 0 -126 -60 q-25 -36 -41 -97 l-87 0 q22 104 96 169 q74 65 177 65 Z" /><glyph glyph-name="uni0295" unicode="&#x295;" d="M383 727 q103 0 150 -65 q46 -63 23 -169 l-87 0 q11 65 1 97 q-18 60 -100 60 q-62 0 -99.5 -33 q-37.5 -33 -48.5 -85 q-8 -36 5 -66 q7 -17 21 -34 l31 -39 q44 -56 51 -98 q7 -43 -45 -295 l-87 0 q51 245 44 275 q-8 32 -43 78 q-50 59 -67 94 q-14 31 -3 84 q20 86 88 141 q68 55 166 55 Z" /><glyph glyph-name="uni0296" unicode="&#x296;" d="M239 0 q-103 0 -149.5 63.5 q-46.5 63.5 -24.5 170.5 l87 0 q-10 -64 0 -97 q18 -61 100 -61 q62 0 99.5 33 q37.5 33 48.5 85 q8 34 -6 66 q-6 19 -21 35 l-31 38 q-45 57 -52 98 q-7 42 47 296 l87 0 q-53 -245 -45 -277 q8 -32 44 -76 q52 -61 66 -95 q13 -31 3 -84 q-18 -84 -87 -140 q-68 -55 -166 -55 Z" /><glyph glyph-name="uni0297" unicode="&#x297;" d="M489 347 l-85 0 q7 112 -101 112 q-84 0 -150 -140 q-46 -102 -61 -175 q-17 -81 -5 -176 q14 -98 85 -98 q103 0 157 125 l85 0 q-71 -200 -265 -200 q-104 0 -144 94 q-41 96 -7 256 q40 185 129 289 q89 104 193 104 q191 0 169 -191 Z" /><glyph glyph-name="uni0298" unicode="&#x298;" d="M737 615 q51 -94 19 -244 q-35 -162 -137 -267 q-123 -125 -300 -125 q-167 0 -237 109 q-62 108 -28 267 q32 147 125 249 q121 133 303 133 q190 0 255 -122 ZM657 370 q27 126 -23 203 q-50 77 -164 77 q-113 0 -199 -76 q-85 -76 -117 -225 q-26 -121 17 -202 q43 -81 179 -81 q128 0 205 92 q76 91 102 212 ZM340 307 l22 107 l102 0 l-22 -107 l-102 0 Z" /><glyph glyph-name="uni029A" unicode="&#x29a;" d="M444 481 q45 -108 18 -234 q-21 -102 -69 -151 q-49 -51 -87 -71 q-36 -20 -114 -34 q-7 -1 -21 -1 q-84 0 -136 41 q-50 41 -36 110 q12 51 49.5 86.5 q37.5 35.5 94.5 50.5 q-41 21 -56 49 q-15 28 -6 77 q14 61 74 96 q61 35 140 35 l61 -5 q64 -10 88 -49 ZM279 459 l0 2 q-53 -2 -81 -19 q-27 -17 -35 -51 q-9 -40 13 -60 q22 -20 78 -20 l-22 -70 q-123 0 -143 -97 q-9 -43 23 -64 q32 -21 57 -21 l31 0 q43 6 66 15 q29 14 51 40 q45 54 61 132 q16 77 4 131 q-19 82 -103 82 Z" /><glyph glyph-name="uni029C" unicode="&#x29c;" d="M19 0 l111 523 l98 0 l-43 -201 l236 0 l43 201 l98 0 l-111 -523 l-98 0 l52 245 l-236 0 l-52 -245 l-98 0 Z" /><glyph glyph-name="uni029E" unicode="&#x29e;" d="M547 523 l-153 -717 l-84 0 l89 416 l-273 -222 l-112 0 l241 196 l-142 327 l113 0 l107 -264 l88 68 l42 196 l84 0 Z" /><glyph glyph-name="uni029F" unicode="&#x29f;" d="M16 0 l111 523 l97 0 l-93 -438 l266 0 l-18 -85 l-363 0 Z" /><glyph glyph-name="uni02A0" unicode="&#x2a0;" d="M653 663 l-16 -76 q-59 -2 -73 -11 q-14 -8 -23 -53 l1 0 l-156 -731 l-89 0 l57 268 q-64 -77 -173 -77 q-83 0 -136 65 q-53 66 -24 200 q27 127 106 206 q79 81 177 81 q64 0 102 -33 q20 -17 33 -44 l16 74 q12 58 36 86 q41 48 127 48 q16 0 35 -3 ZM109 141 q16 -82 104 -82 q91 0 144 86 q28 46 45 121 q14 68 3 113 q-18 78 -108 78 q-60 0 -110.5 -51.5 q-50.5 -51.5 -72.5 -151.5 q-14 -68 -5 -113 Z" /><glyph glyph-name="uni02A1" unicode="&#x2a1;" d="M97 121 l13 58 l114 0 q22 89 37 116 q23 40 94 98 l47 39 q23 17 36 34 q27 33 34 66 q11 52 -12.5 85 q-23.5 33 -85.5 33 q-82 0 -126 -60 q-25 -36 -41 -97 l-87 0 q22 104 96 169 q74 65 177 65 q97 0 143 -55 q46 -56 27 -141 q-11 -53 -39 -84 q-30 -35 -105 -94 q-57 -47 -78 -78 q-11 -17 -30 -96 l112 0 l-13 -58 l-114 0 q-16 -71 -26 -121 l-87 0 q12 58 26 121 l-112 0 Z" /></font>
</defs>
</svg>
